G04 #@! TF.GenerationSoftware,KiCad,Pcbnew,(5.1.5)-3*
G04 #@! TF.CreationDate,2020-05-06T19:22:20+02:00*
G04 #@! TF.ProjectId,VGA_adapter,5647415f-6164-4617-9074-65722e6b6963,rev?*
G04 #@! TF.SameCoordinates,Original*
G04 #@! TF.FileFunction,Soldermask,Top*
G04 #@! TF.FilePolarity,Negative*
%FSLAX46Y46*%
G04 Gerber Fmt 4.6, Leading zero omitted, Abs format (unit mm)*
G04 Created by KiCad (PCBNEW (5.1.5)-3) date 2020-05-06 19:22:20*
%MOMM*%
%LPD*%
G04 APERTURE LIST*
%ADD10C,0.100000*%
G04 APERTURE END LIST*
D10*
G36*
X162673512Y-115943927D02*
G01*
X162822812Y-115973624D01*
X162986784Y-116041544D01*
X163134354Y-116140147D01*
X163259853Y-116265646D01*
X163358456Y-116413216D01*
X163426376Y-116577188D01*
X163461000Y-116751259D01*
X163461000Y-116928741D01*
X163426376Y-117102812D01*
X163358456Y-117266784D01*
X163259853Y-117414354D01*
X163134354Y-117539853D01*
X162986784Y-117638456D01*
X162822812Y-117706376D01*
X162673512Y-117736073D01*
X162648742Y-117741000D01*
X162471258Y-117741000D01*
X162446488Y-117736073D01*
X162297188Y-117706376D01*
X162133216Y-117638456D01*
X161985646Y-117539853D01*
X161860147Y-117414354D01*
X161761544Y-117266784D01*
X161693624Y-117102812D01*
X161659000Y-116928741D01*
X161659000Y-116751259D01*
X161693624Y-116577188D01*
X161761544Y-116413216D01*
X161860147Y-116265646D01*
X161985646Y-116140147D01*
X162133216Y-116041544D01*
X162297188Y-115973624D01*
X162446488Y-115943927D01*
X162471258Y-115939000D01*
X162648742Y-115939000D01*
X162673512Y-115943927D01*
G37*
G36*
X160133512Y-115943927D02*
G01*
X160282812Y-115973624D01*
X160446784Y-116041544D01*
X160594354Y-116140147D01*
X160719853Y-116265646D01*
X160818456Y-116413216D01*
X160886376Y-116577188D01*
X160921000Y-116751259D01*
X160921000Y-116928741D01*
X160886376Y-117102812D01*
X160818456Y-117266784D01*
X160719853Y-117414354D01*
X160594354Y-117539853D01*
X160446784Y-117638456D01*
X160282812Y-117706376D01*
X160133512Y-117736073D01*
X160108742Y-117741000D01*
X159931258Y-117741000D01*
X159906488Y-117736073D01*
X159757188Y-117706376D01*
X159593216Y-117638456D01*
X159445646Y-117539853D01*
X159320147Y-117414354D01*
X159221544Y-117266784D01*
X159153624Y-117102812D01*
X159119000Y-116928741D01*
X159119000Y-116751259D01*
X159153624Y-116577188D01*
X159221544Y-116413216D01*
X159320147Y-116265646D01*
X159445646Y-116140147D01*
X159593216Y-116041544D01*
X159757188Y-115973624D01*
X159906488Y-115943927D01*
X159931258Y-115939000D01*
X160108742Y-115939000D01*
X160133512Y-115943927D01*
G37*
G36*
X137273512Y-115943927D02*
G01*
X137422812Y-115973624D01*
X137586784Y-116041544D01*
X137734354Y-116140147D01*
X137859853Y-116265646D01*
X137958456Y-116413216D01*
X138026376Y-116577188D01*
X138061000Y-116751259D01*
X138061000Y-116928741D01*
X138026376Y-117102812D01*
X137958456Y-117266784D01*
X137859853Y-117414354D01*
X137734354Y-117539853D01*
X137586784Y-117638456D01*
X137422812Y-117706376D01*
X137273512Y-117736073D01*
X137248742Y-117741000D01*
X137071258Y-117741000D01*
X137046488Y-117736073D01*
X136897188Y-117706376D01*
X136733216Y-117638456D01*
X136585646Y-117539853D01*
X136460147Y-117414354D01*
X136361544Y-117266784D01*
X136293624Y-117102812D01*
X136259000Y-116928741D01*
X136259000Y-116751259D01*
X136293624Y-116577188D01*
X136361544Y-116413216D01*
X136460147Y-116265646D01*
X136585646Y-116140147D01*
X136733216Y-116041544D01*
X136897188Y-115973624D01*
X137046488Y-115943927D01*
X137071258Y-115939000D01*
X137248742Y-115939000D01*
X137273512Y-115943927D01*
G37*
G36*
X134733512Y-115943927D02*
G01*
X134882812Y-115973624D01*
X135046784Y-116041544D01*
X135194354Y-116140147D01*
X135319853Y-116265646D01*
X135418456Y-116413216D01*
X135486376Y-116577188D01*
X135521000Y-116751259D01*
X135521000Y-116928741D01*
X135486376Y-117102812D01*
X135418456Y-117266784D01*
X135319853Y-117414354D01*
X135194354Y-117539853D01*
X135046784Y-117638456D01*
X134882812Y-117706376D01*
X134733512Y-117736073D01*
X134708742Y-117741000D01*
X134531258Y-117741000D01*
X134506488Y-117736073D01*
X134357188Y-117706376D01*
X134193216Y-117638456D01*
X134045646Y-117539853D01*
X133920147Y-117414354D01*
X133821544Y-117266784D01*
X133753624Y-117102812D01*
X133719000Y-116928741D01*
X133719000Y-116751259D01*
X133753624Y-116577188D01*
X133821544Y-116413216D01*
X133920147Y-116265646D01*
X134045646Y-116140147D01*
X134193216Y-116041544D01*
X134357188Y-115973624D01*
X134506488Y-115943927D01*
X134531258Y-115939000D01*
X134708742Y-115939000D01*
X134733512Y-115943927D01*
G37*
G36*
X162673512Y-113403927D02*
G01*
X162822812Y-113433624D01*
X162986784Y-113501544D01*
X163134354Y-113600147D01*
X163259853Y-113725646D01*
X163358456Y-113873216D01*
X163426376Y-114037188D01*
X163461000Y-114211259D01*
X163461000Y-114388741D01*
X163426376Y-114562812D01*
X163358456Y-114726784D01*
X163259853Y-114874354D01*
X163134354Y-114999853D01*
X162986784Y-115098456D01*
X162822812Y-115166376D01*
X162673512Y-115196073D01*
X162648742Y-115201000D01*
X162471258Y-115201000D01*
X162446488Y-115196073D01*
X162297188Y-115166376D01*
X162133216Y-115098456D01*
X161985646Y-114999853D01*
X161860147Y-114874354D01*
X161761544Y-114726784D01*
X161693624Y-114562812D01*
X161659000Y-114388741D01*
X161659000Y-114211259D01*
X161693624Y-114037188D01*
X161761544Y-113873216D01*
X161860147Y-113725646D01*
X161985646Y-113600147D01*
X162133216Y-113501544D01*
X162297188Y-113433624D01*
X162446488Y-113403927D01*
X162471258Y-113399000D01*
X162648742Y-113399000D01*
X162673512Y-113403927D01*
G37*
G36*
X160133512Y-113403927D02*
G01*
X160282812Y-113433624D01*
X160446784Y-113501544D01*
X160594354Y-113600147D01*
X160719853Y-113725646D01*
X160818456Y-113873216D01*
X160886376Y-114037188D01*
X160921000Y-114211259D01*
X160921000Y-114388741D01*
X160886376Y-114562812D01*
X160818456Y-114726784D01*
X160719853Y-114874354D01*
X160594354Y-114999853D01*
X160446784Y-115098456D01*
X160282812Y-115166376D01*
X160133512Y-115196073D01*
X160108742Y-115201000D01*
X159931258Y-115201000D01*
X159906488Y-115196073D01*
X159757188Y-115166376D01*
X159593216Y-115098456D01*
X159445646Y-114999853D01*
X159320147Y-114874354D01*
X159221544Y-114726784D01*
X159153624Y-114562812D01*
X159119000Y-114388741D01*
X159119000Y-114211259D01*
X159153624Y-114037188D01*
X159221544Y-113873216D01*
X159320147Y-113725646D01*
X159445646Y-113600147D01*
X159593216Y-113501544D01*
X159757188Y-113433624D01*
X159906488Y-113403927D01*
X159931258Y-113399000D01*
X160108742Y-113399000D01*
X160133512Y-113403927D01*
G37*
G36*
X134733512Y-113403927D02*
G01*
X134882812Y-113433624D01*
X135046784Y-113501544D01*
X135194354Y-113600147D01*
X135319853Y-113725646D01*
X135418456Y-113873216D01*
X135486376Y-114037188D01*
X135521000Y-114211259D01*
X135521000Y-114388741D01*
X135486376Y-114562812D01*
X135418456Y-114726784D01*
X135319853Y-114874354D01*
X135194354Y-114999853D01*
X135046784Y-115098456D01*
X134882812Y-115166376D01*
X134733512Y-115196073D01*
X134708742Y-115201000D01*
X134531258Y-115201000D01*
X134506488Y-115196073D01*
X134357188Y-115166376D01*
X134193216Y-115098456D01*
X134045646Y-114999853D01*
X133920147Y-114874354D01*
X133821544Y-114726784D01*
X133753624Y-114562812D01*
X133719000Y-114388741D01*
X133719000Y-114211259D01*
X133753624Y-114037188D01*
X133821544Y-113873216D01*
X133920147Y-113725646D01*
X134045646Y-113600147D01*
X134193216Y-113501544D01*
X134357188Y-113433624D01*
X134506488Y-113403927D01*
X134531258Y-113399000D01*
X134708742Y-113399000D01*
X134733512Y-113403927D01*
G37*
G36*
X137273512Y-113403927D02*
G01*
X137422812Y-113433624D01*
X137586784Y-113501544D01*
X137734354Y-113600147D01*
X137859853Y-113725646D01*
X137958456Y-113873216D01*
X138026376Y-114037188D01*
X138061000Y-114211259D01*
X138061000Y-114388741D01*
X138026376Y-114562812D01*
X137958456Y-114726784D01*
X137859853Y-114874354D01*
X137734354Y-114999853D01*
X137586784Y-115098456D01*
X137422812Y-115166376D01*
X137273512Y-115196073D01*
X137248742Y-115201000D01*
X137071258Y-115201000D01*
X137046488Y-115196073D01*
X136897188Y-115166376D01*
X136733216Y-115098456D01*
X136585646Y-114999853D01*
X136460147Y-114874354D01*
X136361544Y-114726784D01*
X136293624Y-114562812D01*
X136259000Y-114388741D01*
X136259000Y-114211259D01*
X136293624Y-114037188D01*
X136361544Y-113873216D01*
X136460147Y-113725646D01*
X136585646Y-113600147D01*
X136733216Y-113501544D01*
X136897188Y-113433624D01*
X137046488Y-113403927D01*
X137071258Y-113399000D01*
X137248742Y-113399000D01*
X137273512Y-113403927D01*
G37*
G36*
X179178254Y-110854818D02*
G01*
X179551511Y-111009426D01*
X179551513Y-111009427D01*
X179887436Y-111233884D01*
X180173116Y-111519564D01*
X180274476Y-111671259D01*
X180397574Y-111855489D01*
X180552182Y-112228746D01*
X180631000Y-112624993D01*
X180631000Y-113029007D01*
X180552182Y-113425254D01*
X180427755Y-113725647D01*
X180397573Y-113798513D01*
X180173116Y-114134436D01*
X179887436Y-114420116D01*
X179551513Y-114644573D01*
X179551512Y-114644574D01*
X179551511Y-114644574D01*
X179178254Y-114799182D01*
X178782007Y-114878000D01*
X178377993Y-114878000D01*
X177981746Y-114799182D01*
X177608489Y-114644574D01*
X177608488Y-114644574D01*
X177608487Y-114644573D01*
X177272564Y-114420116D01*
X176986884Y-114134436D01*
X176762427Y-113798513D01*
X176732245Y-113725647D01*
X176607818Y-113425254D01*
X176529000Y-113029007D01*
X176529000Y-112624993D01*
X176607818Y-112228746D01*
X176762426Y-111855489D01*
X176885525Y-111671259D01*
X176986884Y-111519564D01*
X177272564Y-111233884D01*
X177608487Y-111009427D01*
X177608489Y-111009426D01*
X177981746Y-110854818D01*
X178377993Y-110776000D01*
X178782007Y-110776000D01*
X179178254Y-110854818D01*
G37*
G36*
X160133512Y-110863927D02*
G01*
X160282812Y-110893624D01*
X160446784Y-110961544D01*
X160594354Y-111060147D01*
X160719853Y-111185646D01*
X160818456Y-111333216D01*
X160886376Y-111497188D01*
X160921000Y-111671259D01*
X160921000Y-111848741D01*
X160886376Y-112022812D01*
X160818456Y-112186784D01*
X160719853Y-112334354D01*
X160594354Y-112459853D01*
X160446784Y-112558456D01*
X160282812Y-112626376D01*
X160133512Y-112656073D01*
X160108742Y-112661000D01*
X159931258Y-112661000D01*
X159906488Y-112656073D01*
X159757188Y-112626376D01*
X159593216Y-112558456D01*
X159445646Y-112459853D01*
X159320147Y-112334354D01*
X159221544Y-112186784D01*
X159153624Y-112022812D01*
X159119000Y-111848741D01*
X159119000Y-111671259D01*
X159153624Y-111497188D01*
X159221544Y-111333216D01*
X159320147Y-111185646D01*
X159445646Y-111060147D01*
X159593216Y-110961544D01*
X159757188Y-110893624D01*
X159906488Y-110863927D01*
X159931258Y-110859000D01*
X160108742Y-110859000D01*
X160133512Y-110863927D01*
G37*
G36*
X162673512Y-110863927D02*
G01*
X162822812Y-110893624D01*
X162986784Y-110961544D01*
X163134354Y-111060147D01*
X163259853Y-111185646D01*
X163358456Y-111333216D01*
X163426376Y-111497188D01*
X163461000Y-111671259D01*
X163461000Y-111848741D01*
X163426376Y-112022812D01*
X163358456Y-112186784D01*
X163259853Y-112334354D01*
X163134354Y-112459853D01*
X162986784Y-112558456D01*
X162822812Y-112626376D01*
X162673512Y-112656073D01*
X162648742Y-112661000D01*
X162471258Y-112661000D01*
X162446488Y-112656073D01*
X162297188Y-112626376D01*
X162133216Y-112558456D01*
X161985646Y-112459853D01*
X161860147Y-112334354D01*
X161761544Y-112186784D01*
X161693624Y-112022812D01*
X161659000Y-111848741D01*
X161659000Y-111671259D01*
X161693624Y-111497188D01*
X161761544Y-111333216D01*
X161860147Y-111185646D01*
X161985646Y-111060147D01*
X162133216Y-110961544D01*
X162297188Y-110893624D01*
X162446488Y-110863927D01*
X162471258Y-110859000D01*
X162648742Y-110859000D01*
X162673512Y-110863927D01*
G37*
G36*
X134733512Y-110863927D02*
G01*
X134882812Y-110893624D01*
X135046784Y-110961544D01*
X135194354Y-111060147D01*
X135319853Y-111185646D01*
X135418456Y-111333216D01*
X135486376Y-111497188D01*
X135521000Y-111671259D01*
X135521000Y-111848741D01*
X135486376Y-112022812D01*
X135418456Y-112186784D01*
X135319853Y-112334354D01*
X135194354Y-112459853D01*
X135046784Y-112558456D01*
X134882812Y-112626376D01*
X134733512Y-112656073D01*
X134708742Y-112661000D01*
X134531258Y-112661000D01*
X134506488Y-112656073D01*
X134357188Y-112626376D01*
X134193216Y-112558456D01*
X134045646Y-112459853D01*
X133920147Y-112334354D01*
X133821544Y-112186784D01*
X133753624Y-112022812D01*
X133719000Y-111848741D01*
X133719000Y-111671259D01*
X133753624Y-111497188D01*
X133821544Y-111333216D01*
X133920147Y-111185646D01*
X134045646Y-111060147D01*
X134193216Y-110961544D01*
X134357188Y-110893624D01*
X134506488Y-110863927D01*
X134531258Y-110859000D01*
X134708742Y-110859000D01*
X134733512Y-110863927D01*
G37*
G36*
X137273512Y-110863927D02*
G01*
X137422812Y-110893624D01*
X137586784Y-110961544D01*
X137734354Y-111060147D01*
X137859853Y-111185646D01*
X137958456Y-111333216D01*
X138026376Y-111497188D01*
X138061000Y-111671259D01*
X138061000Y-111848741D01*
X138026376Y-112022812D01*
X137958456Y-112186784D01*
X137859853Y-112334354D01*
X137734354Y-112459853D01*
X137586784Y-112558456D01*
X137422812Y-112626376D01*
X137273512Y-112656073D01*
X137248742Y-112661000D01*
X137071258Y-112661000D01*
X137046488Y-112656073D01*
X136897188Y-112626376D01*
X136733216Y-112558456D01*
X136585646Y-112459853D01*
X136460147Y-112334354D01*
X136361544Y-112186784D01*
X136293624Y-112022812D01*
X136259000Y-111848741D01*
X136259000Y-111671259D01*
X136293624Y-111497188D01*
X136361544Y-111333216D01*
X136460147Y-111185646D01*
X136585646Y-111060147D01*
X136733216Y-110961544D01*
X136897188Y-110893624D01*
X137046488Y-110863927D01*
X137071258Y-110859000D01*
X137248742Y-110859000D01*
X137273512Y-110863927D01*
G37*
G36*
X160133512Y-108323927D02*
G01*
X160282812Y-108353624D01*
X160446784Y-108421544D01*
X160594354Y-108520147D01*
X160719853Y-108645646D01*
X160818456Y-108793216D01*
X160886376Y-108957188D01*
X160921000Y-109131259D01*
X160921000Y-109308741D01*
X160886376Y-109482812D01*
X160818456Y-109646784D01*
X160719853Y-109794354D01*
X160594354Y-109919853D01*
X160446784Y-110018456D01*
X160282812Y-110086376D01*
X160133512Y-110116073D01*
X160108742Y-110121000D01*
X159931258Y-110121000D01*
X159906488Y-110116073D01*
X159757188Y-110086376D01*
X159593216Y-110018456D01*
X159445646Y-109919853D01*
X159320147Y-109794354D01*
X159221544Y-109646784D01*
X159153624Y-109482812D01*
X159119000Y-109308741D01*
X159119000Y-109131259D01*
X159153624Y-108957188D01*
X159221544Y-108793216D01*
X159320147Y-108645646D01*
X159445646Y-108520147D01*
X159593216Y-108421544D01*
X159757188Y-108353624D01*
X159906488Y-108323927D01*
X159931258Y-108319000D01*
X160108742Y-108319000D01*
X160133512Y-108323927D01*
G37*
G36*
X137273512Y-108323927D02*
G01*
X137422812Y-108353624D01*
X137586784Y-108421544D01*
X137734354Y-108520147D01*
X137859853Y-108645646D01*
X137958456Y-108793216D01*
X138026376Y-108957188D01*
X138061000Y-109131259D01*
X138061000Y-109308741D01*
X138026376Y-109482812D01*
X137958456Y-109646784D01*
X137859853Y-109794354D01*
X137734354Y-109919853D01*
X137586784Y-110018456D01*
X137422812Y-110086376D01*
X137273512Y-110116073D01*
X137248742Y-110121000D01*
X137071258Y-110121000D01*
X137046488Y-110116073D01*
X136897188Y-110086376D01*
X136733216Y-110018456D01*
X136585646Y-109919853D01*
X136460147Y-109794354D01*
X136361544Y-109646784D01*
X136293624Y-109482812D01*
X136259000Y-109308741D01*
X136259000Y-109131259D01*
X136293624Y-108957188D01*
X136361544Y-108793216D01*
X136460147Y-108645646D01*
X136585646Y-108520147D01*
X136733216Y-108421544D01*
X136897188Y-108353624D01*
X137046488Y-108323927D01*
X137071258Y-108319000D01*
X137248742Y-108319000D01*
X137273512Y-108323927D01*
G37*
G36*
X162673512Y-108323927D02*
G01*
X162822812Y-108353624D01*
X162986784Y-108421544D01*
X163134354Y-108520147D01*
X163259853Y-108645646D01*
X163358456Y-108793216D01*
X163426376Y-108957188D01*
X163461000Y-109131259D01*
X163461000Y-109308741D01*
X163426376Y-109482812D01*
X163358456Y-109646784D01*
X163259853Y-109794354D01*
X163134354Y-109919853D01*
X162986784Y-110018456D01*
X162822812Y-110086376D01*
X162673512Y-110116073D01*
X162648742Y-110121000D01*
X162471258Y-110121000D01*
X162446488Y-110116073D01*
X162297188Y-110086376D01*
X162133216Y-110018456D01*
X161985646Y-109919853D01*
X161860147Y-109794354D01*
X161761544Y-109646784D01*
X161693624Y-109482812D01*
X161659000Y-109308741D01*
X161659000Y-109131259D01*
X161693624Y-108957188D01*
X161761544Y-108793216D01*
X161860147Y-108645646D01*
X161985646Y-108520147D01*
X162133216Y-108421544D01*
X162297188Y-108353624D01*
X162446488Y-108323927D01*
X162471258Y-108319000D01*
X162648742Y-108319000D01*
X162673512Y-108323927D01*
G37*
G36*
X134733512Y-108323927D02*
G01*
X134882812Y-108353624D01*
X135046784Y-108421544D01*
X135194354Y-108520147D01*
X135319853Y-108645646D01*
X135418456Y-108793216D01*
X135486376Y-108957188D01*
X135521000Y-109131259D01*
X135521000Y-109308741D01*
X135486376Y-109482812D01*
X135418456Y-109646784D01*
X135319853Y-109794354D01*
X135194354Y-109919853D01*
X135046784Y-110018456D01*
X134882812Y-110086376D01*
X134733512Y-110116073D01*
X134708742Y-110121000D01*
X134531258Y-110121000D01*
X134506488Y-110116073D01*
X134357188Y-110086376D01*
X134193216Y-110018456D01*
X134045646Y-109919853D01*
X133920147Y-109794354D01*
X133821544Y-109646784D01*
X133753624Y-109482812D01*
X133719000Y-109308741D01*
X133719000Y-109131259D01*
X133753624Y-108957188D01*
X133821544Y-108793216D01*
X133920147Y-108645646D01*
X134045646Y-108520147D01*
X134193216Y-108421544D01*
X134357188Y-108353624D01*
X134506488Y-108323927D01*
X134531258Y-108319000D01*
X134708742Y-108319000D01*
X134733512Y-108323927D01*
G37*
G36*
X170630468Y-108219565D02*
G01*
X170669138Y-108231296D01*
X170704777Y-108250346D01*
X170736017Y-108275983D01*
X170761654Y-108307223D01*
X170780704Y-108342862D01*
X170792435Y-108381532D01*
X170797000Y-108427888D01*
X170797000Y-109504112D01*
X170792435Y-109550468D01*
X170780704Y-109589138D01*
X170761654Y-109624777D01*
X170736017Y-109656017D01*
X170704777Y-109681654D01*
X170669138Y-109700704D01*
X170630468Y-109712435D01*
X170584112Y-109717000D01*
X169932888Y-109717000D01*
X169886532Y-109712435D01*
X169847862Y-109700704D01*
X169812223Y-109681654D01*
X169780983Y-109656017D01*
X169755346Y-109624777D01*
X169736296Y-109589138D01*
X169724565Y-109550468D01*
X169720000Y-109504112D01*
X169720000Y-108427888D01*
X169724565Y-108381532D01*
X169736296Y-108342862D01*
X169755346Y-108307223D01*
X169780983Y-108275983D01*
X169812223Y-108250346D01*
X169847862Y-108231296D01*
X169886532Y-108219565D01*
X169932888Y-108215000D01*
X170584112Y-108215000D01*
X170630468Y-108219565D01*
G37*
G36*
X172505468Y-108219565D02*
G01*
X172544138Y-108231296D01*
X172579777Y-108250346D01*
X172611017Y-108275983D01*
X172636654Y-108307223D01*
X172655704Y-108342862D01*
X172667435Y-108381532D01*
X172672000Y-108427888D01*
X172672000Y-109504112D01*
X172667435Y-109550468D01*
X172655704Y-109589138D01*
X172636654Y-109624777D01*
X172611017Y-109656017D01*
X172579777Y-109681654D01*
X172544138Y-109700704D01*
X172505468Y-109712435D01*
X172459112Y-109717000D01*
X171807888Y-109717000D01*
X171761532Y-109712435D01*
X171722862Y-109700704D01*
X171687223Y-109681654D01*
X171655983Y-109656017D01*
X171630346Y-109624777D01*
X171611296Y-109589138D01*
X171599565Y-109550468D01*
X171595000Y-109504112D01*
X171595000Y-108427888D01*
X171599565Y-108381532D01*
X171611296Y-108342862D01*
X171630346Y-108307223D01*
X171655983Y-108275983D01*
X171687223Y-108250346D01*
X171722862Y-108231296D01*
X171761532Y-108219565D01*
X171807888Y-108215000D01*
X172459112Y-108215000D01*
X172505468Y-108219565D01*
G37*
G36*
X162673512Y-105783927D02*
G01*
X162822812Y-105813624D01*
X162986784Y-105881544D01*
X163134354Y-105980147D01*
X163259853Y-106105646D01*
X163358456Y-106253216D01*
X163426376Y-106417188D01*
X163461000Y-106591259D01*
X163461000Y-106768741D01*
X163426376Y-106942812D01*
X163358456Y-107106784D01*
X163259853Y-107254354D01*
X163134354Y-107379853D01*
X162986784Y-107478456D01*
X162822812Y-107546376D01*
X162673512Y-107576073D01*
X162648742Y-107581000D01*
X162471258Y-107581000D01*
X162446488Y-107576073D01*
X162297188Y-107546376D01*
X162133216Y-107478456D01*
X161985646Y-107379853D01*
X161860147Y-107254354D01*
X161761544Y-107106784D01*
X161693624Y-106942812D01*
X161659000Y-106768741D01*
X161659000Y-106591259D01*
X161693624Y-106417188D01*
X161761544Y-106253216D01*
X161860147Y-106105646D01*
X161985646Y-105980147D01*
X162133216Y-105881544D01*
X162297188Y-105813624D01*
X162446488Y-105783927D01*
X162471258Y-105779000D01*
X162648742Y-105779000D01*
X162673512Y-105783927D01*
G37*
G36*
X160133512Y-105783927D02*
G01*
X160282812Y-105813624D01*
X160446784Y-105881544D01*
X160594354Y-105980147D01*
X160719853Y-106105646D01*
X160818456Y-106253216D01*
X160886376Y-106417188D01*
X160921000Y-106591259D01*
X160921000Y-106768741D01*
X160886376Y-106942812D01*
X160818456Y-107106784D01*
X160719853Y-107254354D01*
X160594354Y-107379853D01*
X160446784Y-107478456D01*
X160282812Y-107546376D01*
X160133512Y-107576073D01*
X160108742Y-107581000D01*
X159931258Y-107581000D01*
X159906488Y-107576073D01*
X159757188Y-107546376D01*
X159593216Y-107478456D01*
X159445646Y-107379853D01*
X159320147Y-107254354D01*
X159221544Y-107106784D01*
X159153624Y-106942812D01*
X159119000Y-106768741D01*
X159119000Y-106591259D01*
X159153624Y-106417188D01*
X159221544Y-106253216D01*
X159320147Y-106105646D01*
X159445646Y-105980147D01*
X159593216Y-105881544D01*
X159757188Y-105813624D01*
X159906488Y-105783927D01*
X159931258Y-105779000D01*
X160108742Y-105779000D01*
X160133512Y-105783927D01*
G37*
G36*
X134733512Y-105783927D02*
G01*
X134882812Y-105813624D01*
X135046784Y-105881544D01*
X135194354Y-105980147D01*
X135319853Y-106105646D01*
X135418456Y-106253216D01*
X135486376Y-106417188D01*
X135521000Y-106591259D01*
X135521000Y-106768741D01*
X135486376Y-106942812D01*
X135418456Y-107106784D01*
X135319853Y-107254354D01*
X135194354Y-107379853D01*
X135046784Y-107478456D01*
X134882812Y-107546376D01*
X134733512Y-107576073D01*
X134708742Y-107581000D01*
X134531258Y-107581000D01*
X134506488Y-107576073D01*
X134357188Y-107546376D01*
X134193216Y-107478456D01*
X134045646Y-107379853D01*
X133920147Y-107254354D01*
X133821544Y-107106784D01*
X133753624Y-106942812D01*
X133719000Y-106768741D01*
X133719000Y-106591259D01*
X133753624Y-106417188D01*
X133821544Y-106253216D01*
X133920147Y-106105646D01*
X134045646Y-105980147D01*
X134193216Y-105881544D01*
X134357188Y-105813624D01*
X134506488Y-105783927D01*
X134531258Y-105779000D01*
X134708742Y-105779000D01*
X134733512Y-105783927D01*
G37*
G36*
X137273512Y-105783927D02*
G01*
X137422812Y-105813624D01*
X137586784Y-105881544D01*
X137734354Y-105980147D01*
X137859853Y-106105646D01*
X137958456Y-106253216D01*
X138026376Y-106417188D01*
X138061000Y-106591259D01*
X138061000Y-106768741D01*
X138026376Y-106942812D01*
X137958456Y-107106784D01*
X137859853Y-107254354D01*
X137734354Y-107379853D01*
X137586784Y-107478456D01*
X137422812Y-107546376D01*
X137273512Y-107576073D01*
X137248742Y-107581000D01*
X137071258Y-107581000D01*
X137046488Y-107576073D01*
X136897188Y-107546376D01*
X136733216Y-107478456D01*
X136585646Y-107379853D01*
X136460147Y-107254354D01*
X136361544Y-107106784D01*
X136293624Y-106942812D01*
X136259000Y-106768741D01*
X136259000Y-106591259D01*
X136293624Y-106417188D01*
X136361544Y-106253216D01*
X136460147Y-106105646D01*
X136585646Y-105980147D01*
X136733216Y-105881544D01*
X136897188Y-105813624D01*
X137046488Y-105783927D01*
X137071258Y-105779000D01*
X137248742Y-105779000D01*
X137273512Y-105783927D01*
G37*
G36*
X176778228Y-104353703D02*
G01*
X176933100Y-104417853D01*
X177072481Y-104510985D01*
X177191015Y-104629519D01*
X177284147Y-104768900D01*
X177348297Y-104923772D01*
X177381000Y-105088184D01*
X177381000Y-105255816D01*
X177348297Y-105420228D01*
X177284147Y-105575100D01*
X177191015Y-105714481D01*
X177072481Y-105833015D01*
X176933100Y-105926147D01*
X176778228Y-105990297D01*
X176613816Y-106023000D01*
X176446184Y-106023000D01*
X176281772Y-105990297D01*
X176126900Y-105926147D01*
X175987519Y-105833015D01*
X175868985Y-105714481D01*
X175775853Y-105575100D01*
X175711703Y-105420228D01*
X175679000Y-105255816D01*
X175679000Y-105088184D01*
X175711703Y-104923772D01*
X175775853Y-104768900D01*
X175868985Y-104629519D01*
X175987519Y-104510985D01*
X176126900Y-104417853D01*
X176281772Y-104353703D01*
X176446184Y-104321000D01*
X176613816Y-104321000D01*
X176778228Y-104353703D01*
G37*
G36*
X180738228Y-104353703D02*
G01*
X180893100Y-104417853D01*
X181032481Y-104510985D01*
X181151015Y-104629519D01*
X181244147Y-104768900D01*
X181308297Y-104923772D01*
X181341000Y-105088184D01*
X181341000Y-105255816D01*
X181308297Y-105420228D01*
X181244147Y-105575100D01*
X181151015Y-105714481D01*
X181032481Y-105833015D01*
X180893100Y-105926147D01*
X180738228Y-105990297D01*
X180573816Y-106023000D01*
X180406184Y-106023000D01*
X180241772Y-105990297D01*
X180086900Y-105926147D01*
X179947519Y-105833015D01*
X179828985Y-105714481D01*
X179735853Y-105575100D01*
X179671703Y-105420228D01*
X179639000Y-105255816D01*
X179639000Y-105088184D01*
X179671703Y-104923772D01*
X179735853Y-104768900D01*
X179828985Y-104629519D01*
X179947519Y-104510985D01*
X180086900Y-104417853D01*
X180241772Y-104353703D01*
X180406184Y-104321000D01*
X180573816Y-104321000D01*
X180738228Y-104353703D01*
G37*
G36*
X160133512Y-103243927D02*
G01*
X160282812Y-103273624D01*
X160446784Y-103341544D01*
X160594354Y-103440147D01*
X160719853Y-103565646D01*
X160818456Y-103713216D01*
X160886376Y-103877188D01*
X160921000Y-104051259D01*
X160921000Y-104228741D01*
X160886376Y-104402812D01*
X160818456Y-104566784D01*
X160719853Y-104714354D01*
X160594354Y-104839853D01*
X160446784Y-104938456D01*
X160282812Y-105006376D01*
X160133512Y-105036073D01*
X160108742Y-105041000D01*
X159931258Y-105041000D01*
X159906488Y-105036073D01*
X159757188Y-105006376D01*
X159593216Y-104938456D01*
X159445646Y-104839853D01*
X159320147Y-104714354D01*
X159221544Y-104566784D01*
X159153624Y-104402812D01*
X159119000Y-104228741D01*
X159119000Y-104051259D01*
X159153624Y-103877188D01*
X159221544Y-103713216D01*
X159320147Y-103565646D01*
X159445646Y-103440147D01*
X159593216Y-103341544D01*
X159757188Y-103273624D01*
X159906488Y-103243927D01*
X159931258Y-103239000D01*
X160108742Y-103239000D01*
X160133512Y-103243927D01*
G37*
G36*
X134733512Y-103243927D02*
G01*
X134882812Y-103273624D01*
X135046784Y-103341544D01*
X135194354Y-103440147D01*
X135319853Y-103565646D01*
X135418456Y-103713216D01*
X135486376Y-103877188D01*
X135521000Y-104051259D01*
X135521000Y-104228741D01*
X135486376Y-104402812D01*
X135418456Y-104566784D01*
X135319853Y-104714354D01*
X135194354Y-104839853D01*
X135046784Y-104938456D01*
X134882812Y-105006376D01*
X134733512Y-105036073D01*
X134708742Y-105041000D01*
X134531258Y-105041000D01*
X134506488Y-105036073D01*
X134357188Y-105006376D01*
X134193216Y-104938456D01*
X134045646Y-104839853D01*
X133920147Y-104714354D01*
X133821544Y-104566784D01*
X133753624Y-104402812D01*
X133719000Y-104228741D01*
X133719000Y-104051259D01*
X133753624Y-103877188D01*
X133821544Y-103713216D01*
X133920147Y-103565646D01*
X134045646Y-103440147D01*
X134193216Y-103341544D01*
X134357188Y-103273624D01*
X134506488Y-103243927D01*
X134531258Y-103239000D01*
X134708742Y-103239000D01*
X134733512Y-103243927D01*
G37*
G36*
X162673512Y-103243927D02*
G01*
X162822812Y-103273624D01*
X162986784Y-103341544D01*
X163134354Y-103440147D01*
X163259853Y-103565646D01*
X163358456Y-103713216D01*
X163426376Y-103877188D01*
X163461000Y-104051259D01*
X163461000Y-104228741D01*
X163426376Y-104402812D01*
X163358456Y-104566784D01*
X163259853Y-104714354D01*
X163134354Y-104839853D01*
X162986784Y-104938456D01*
X162822812Y-105006376D01*
X162673512Y-105036073D01*
X162648742Y-105041000D01*
X162471258Y-105041000D01*
X162446488Y-105036073D01*
X162297188Y-105006376D01*
X162133216Y-104938456D01*
X161985646Y-104839853D01*
X161860147Y-104714354D01*
X161761544Y-104566784D01*
X161693624Y-104402812D01*
X161659000Y-104228741D01*
X161659000Y-104051259D01*
X161693624Y-103877188D01*
X161761544Y-103713216D01*
X161860147Y-103565646D01*
X161985646Y-103440147D01*
X162133216Y-103341544D01*
X162297188Y-103273624D01*
X162446488Y-103243927D01*
X162471258Y-103239000D01*
X162648742Y-103239000D01*
X162673512Y-103243927D01*
G37*
G36*
X137273512Y-103243927D02*
G01*
X137422812Y-103273624D01*
X137586784Y-103341544D01*
X137734354Y-103440147D01*
X137859853Y-103565646D01*
X137958456Y-103713216D01*
X138026376Y-103877188D01*
X138061000Y-104051259D01*
X138061000Y-104228741D01*
X138026376Y-104402812D01*
X137958456Y-104566784D01*
X137859853Y-104714354D01*
X137734354Y-104839853D01*
X137586784Y-104938456D01*
X137422812Y-105006376D01*
X137273512Y-105036073D01*
X137248742Y-105041000D01*
X137071258Y-105041000D01*
X137046488Y-105036073D01*
X136897188Y-105006376D01*
X136733216Y-104938456D01*
X136585646Y-104839853D01*
X136460147Y-104714354D01*
X136361544Y-104566784D01*
X136293624Y-104402812D01*
X136259000Y-104228741D01*
X136259000Y-104051259D01*
X136293624Y-103877188D01*
X136361544Y-103713216D01*
X136460147Y-103565646D01*
X136585646Y-103440147D01*
X136733216Y-103341544D01*
X136897188Y-103273624D01*
X137046488Y-103243927D01*
X137071258Y-103239000D01*
X137248742Y-103239000D01*
X137273512Y-103243927D01*
G37*
G36*
X178758228Y-103208703D02*
G01*
X178913100Y-103272853D01*
X179052481Y-103365985D01*
X179171015Y-103484519D01*
X179264147Y-103623900D01*
X179328297Y-103778772D01*
X179361000Y-103943184D01*
X179361000Y-104110816D01*
X179328297Y-104275228D01*
X179264147Y-104430100D01*
X179171015Y-104569481D01*
X179052481Y-104688015D01*
X178913100Y-104781147D01*
X178758228Y-104845297D01*
X178593816Y-104878000D01*
X178426184Y-104878000D01*
X178261772Y-104845297D01*
X178106900Y-104781147D01*
X177967519Y-104688015D01*
X177848985Y-104569481D01*
X177755853Y-104430100D01*
X177691703Y-104275228D01*
X177659000Y-104110816D01*
X177659000Y-103943184D01*
X177691703Y-103778772D01*
X177755853Y-103623900D01*
X177848985Y-103484519D01*
X177967519Y-103365985D01*
X178106900Y-103272853D01*
X178261772Y-103208703D01*
X178426184Y-103176000D01*
X178593816Y-103176000D01*
X178758228Y-103208703D01*
G37*
G36*
X170630468Y-103139565D02*
G01*
X170669138Y-103151296D01*
X170704777Y-103170346D01*
X170736017Y-103195983D01*
X170761654Y-103227223D01*
X170780704Y-103262862D01*
X170792435Y-103301532D01*
X170797000Y-103347888D01*
X170797000Y-104424112D01*
X170792435Y-104470468D01*
X170780704Y-104509138D01*
X170761654Y-104544777D01*
X170736017Y-104576017D01*
X170704777Y-104601654D01*
X170669138Y-104620704D01*
X170630468Y-104632435D01*
X170584112Y-104637000D01*
X169932888Y-104637000D01*
X169886532Y-104632435D01*
X169847862Y-104620704D01*
X169812223Y-104601654D01*
X169780983Y-104576017D01*
X169755346Y-104544777D01*
X169736296Y-104509138D01*
X169724565Y-104470468D01*
X169720000Y-104424112D01*
X169720000Y-103347888D01*
X169724565Y-103301532D01*
X169736296Y-103262862D01*
X169755346Y-103227223D01*
X169780983Y-103195983D01*
X169812223Y-103170346D01*
X169847862Y-103151296D01*
X169886532Y-103139565D01*
X169932888Y-103135000D01*
X170584112Y-103135000D01*
X170630468Y-103139565D01*
G37*
G36*
X172505468Y-103139565D02*
G01*
X172544138Y-103151296D01*
X172579777Y-103170346D01*
X172611017Y-103195983D01*
X172636654Y-103227223D01*
X172655704Y-103262862D01*
X172667435Y-103301532D01*
X172672000Y-103347888D01*
X172672000Y-104424112D01*
X172667435Y-104470468D01*
X172655704Y-104509138D01*
X172636654Y-104544777D01*
X172611017Y-104576017D01*
X172579777Y-104601654D01*
X172544138Y-104620704D01*
X172505468Y-104632435D01*
X172459112Y-104637000D01*
X171807888Y-104637000D01*
X171761532Y-104632435D01*
X171722862Y-104620704D01*
X171687223Y-104601654D01*
X171655983Y-104576017D01*
X171630346Y-104544777D01*
X171611296Y-104509138D01*
X171599565Y-104470468D01*
X171595000Y-104424112D01*
X171595000Y-103347888D01*
X171599565Y-103301532D01*
X171611296Y-103262862D01*
X171630346Y-103227223D01*
X171655983Y-103195983D01*
X171687223Y-103170346D01*
X171722862Y-103151296D01*
X171761532Y-103139565D01*
X171807888Y-103135000D01*
X172459112Y-103135000D01*
X172505468Y-103139565D01*
G37*
G36*
X180738228Y-102063703D02*
G01*
X180893100Y-102127853D01*
X181032481Y-102220985D01*
X181151015Y-102339519D01*
X181244147Y-102478900D01*
X181308297Y-102633772D01*
X181341000Y-102798184D01*
X181341000Y-102965816D01*
X181308297Y-103130228D01*
X181244147Y-103285100D01*
X181151015Y-103424481D01*
X181032481Y-103543015D01*
X180893100Y-103636147D01*
X180738228Y-103700297D01*
X180573816Y-103733000D01*
X180406184Y-103733000D01*
X180241772Y-103700297D01*
X180086900Y-103636147D01*
X179947519Y-103543015D01*
X179828985Y-103424481D01*
X179735853Y-103285100D01*
X179671703Y-103130228D01*
X179639000Y-102965816D01*
X179639000Y-102798184D01*
X179671703Y-102633772D01*
X179735853Y-102478900D01*
X179828985Y-102339519D01*
X179947519Y-102220985D01*
X180086900Y-102127853D01*
X180241772Y-102063703D01*
X180406184Y-102031000D01*
X180573816Y-102031000D01*
X180738228Y-102063703D01*
G37*
G36*
X176778228Y-102063703D02*
G01*
X176933100Y-102127853D01*
X177072481Y-102220985D01*
X177191015Y-102339519D01*
X177284147Y-102478900D01*
X177348297Y-102633772D01*
X177381000Y-102798184D01*
X177381000Y-102965816D01*
X177348297Y-103130228D01*
X177284147Y-103285100D01*
X177191015Y-103424481D01*
X177072481Y-103543015D01*
X176933100Y-103636147D01*
X176778228Y-103700297D01*
X176613816Y-103733000D01*
X176446184Y-103733000D01*
X176281772Y-103700297D01*
X176126900Y-103636147D01*
X175987519Y-103543015D01*
X175868985Y-103424481D01*
X175775853Y-103285100D01*
X175711703Y-103130228D01*
X175679000Y-102965816D01*
X175679000Y-102798184D01*
X175711703Y-102633772D01*
X175775853Y-102478900D01*
X175868985Y-102339519D01*
X175987519Y-102220985D01*
X176126900Y-102127853D01*
X176281772Y-102063703D01*
X176446184Y-102031000D01*
X176613816Y-102031000D01*
X176778228Y-102063703D01*
G37*
G36*
X178758228Y-100918703D02*
G01*
X178913100Y-100982853D01*
X179052481Y-101075985D01*
X179171015Y-101194519D01*
X179264147Y-101333900D01*
X179328297Y-101488772D01*
X179361000Y-101653184D01*
X179361000Y-101820816D01*
X179328297Y-101985228D01*
X179264147Y-102140100D01*
X179171015Y-102279481D01*
X179052481Y-102398015D01*
X178913100Y-102491147D01*
X178758228Y-102555297D01*
X178593816Y-102588000D01*
X178426184Y-102588000D01*
X178261772Y-102555297D01*
X178106900Y-102491147D01*
X177967519Y-102398015D01*
X177848985Y-102279481D01*
X177755853Y-102140100D01*
X177691703Y-101985228D01*
X177659000Y-101820816D01*
X177659000Y-101653184D01*
X177691703Y-101488772D01*
X177755853Y-101333900D01*
X177848985Y-101194519D01*
X177967519Y-101075985D01*
X178106900Y-100982853D01*
X178261772Y-100918703D01*
X178426184Y-100886000D01*
X178593816Y-100886000D01*
X178758228Y-100918703D01*
G37*
G36*
X160133512Y-100703927D02*
G01*
X160282812Y-100733624D01*
X160446784Y-100801544D01*
X160594354Y-100900147D01*
X160719853Y-101025646D01*
X160818456Y-101173216D01*
X160886376Y-101337188D01*
X160921000Y-101511259D01*
X160921000Y-101688741D01*
X160886376Y-101862812D01*
X160818456Y-102026784D01*
X160719853Y-102174354D01*
X160594354Y-102299853D01*
X160446784Y-102398456D01*
X160282812Y-102466376D01*
X160133512Y-102496073D01*
X160108742Y-102501000D01*
X159931258Y-102501000D01*
X159906488Y-102496073D01*
X159757188Y-102466376D01*
X159593216Y-102398456D01*
X159445646Y-102299853D01*
X159320147Y-102174354D01*
X159221544Y-102026784D01*
X159153624Y-101862812D01*
X159119000Y-101688741D01*
X159119000Y-101511259D01*
X159153624Y-101337188D01*
X159221544Y-101173216D01*
X159320147Y-101025646D01*
X159445646Y-100900147D01*
X159593216Y-100801544D01*
X159757188Y-100733624D01*
X159906488Y-100703927D01*
X159931258Y-100699000D01*
X160108742Y-100699000D01*
X160133512Y-100703927D01*
G37*
G36*
X162673512Y-100703927D02*
G01*
X162822812Y-100733624D01*
X162986784Y-100801544D01*
X163134354Y-100900147D01*
X163259853Y-101025646D01*
X163358456Y-101173216D01*
X163426376Y-101337188D01*
X163461000Y-101511259D01*
X163461000Y-101688741D01*
X163426376Y-101862812D01*
X163358456Y-102026784D01*
X163259853Y-102174354D01*
X163134354Y-102299853D01*
X162986784Y-102398456D01*
X162822812Y-102466376D01*
X162673512Y-102496073D01*
X162648742Y-102501000D01*
X162471258Y-102501000D01*
X162446488Y-102496073D01*
X162297188Y-102466376D01*
X162133216Y-102398456D01*
X161985646Y-102299853D01*
X161860147Y-102174354D01*
X161761544Y-102026784D01*
X161693624Y-101862812D01*
X161659000Y-101688741D01*
X161659000Y-101511259D01*
X161693624Y-101337188D01*
X161761544Y-101173216D01*
X161860147Y-101025646D01*
X161985646Y-100900147D01*
X162133216Y-100801544D01*
X162297188Y-100733624D01*
X162446488Y-100703927D01*
X162471258Y-100699000D01*
X162648742Y-100699000D01*
X162673512Y-100703927D01*
G37*
G36*
X134733512Y-100703927D02*
G01*
X134882812Y-100733624D01*
X135046784Y-100801544D01*
X135194354Y-100900147D01*
X135319853Y-101025646D01*
X135418456Y-101173216D01*
X135486376Y-101337188D01*
X135521000Y-101511259D01*
X135521000Y-101688741D01*
X135486376Y-101862812D01*
X135418456Y-102026784D01*
X135319853Y-102174354D01*
X135194354Y-102299853D01*
X135046784Y-102398456D01*
X134882812Y-102466376D01*
X134733512Y-102496073D01*
X134708742Y-102501000D01*
X134531258Y-102501000D01*
X134506488Y-102496073D01*
X134357188Y-102466376D01*
X134193216Y-102398456D01*
X134045646Y-102299853D01*
X133920147Y-102174354D01*
X133821544Y-102026784D01*
X133753624Y-101862812D01*
X133719000Y-101688741D01*
X133719000Y-101511259D01*
X133753624Y-101337188D01*
X133821544Y-101173216D01*
X133920147Y-101025646D01*
X134045646Y-100900147D01*
X134193216Y-100801544D01*
X134357188Y-100733624D01*
X134506488Y-100703927D01*
X134531258Y-100699000D01*
X134708742Y-100699000D01*
X134733512Y-100703927D01*
G37*
G36*
X137273512Y-100703927D02*
G01*
X137422812Y-100733624D01*
X137586784Y-100801544D01*
X137734354Y-100900147D01*
X137859853Y-101025646D01*
X137958456Y-101173216D01*
X138026376Y-101337188D01*
X138061000Y-101511259D01*
X138061000Y-101688741D01*
X138026376Y-101862812D01*
X137958456Y-102026784D01*
X137859853Y-102174354D01*
X137734354Y-102299853D01*
X137586784Y-102398456D01*
X137422812Y-102466376D01*
X137273512Y-102496073D01*
X137248742Y-102501000D01*
X137071258Y-102501000D01*
X137046488Y-102496073D01*
X136897188Y-102466376D01*
X136733216Y-102398456D01*
X136585646Y-102299853D01*
X136460147Y-102174354D01*
X136361544Y-102026784D01*
X136293624Y-101862812D01*
X136259000Y-101688741D01*
X136259000Y-101511259D01*
X136293624Y-101337188D01*
X136361544Y-101173216D01*
X136460147Y-101025646D01*
X136585646Y-100900147D01*
X136733216Y-100801544D01*
X136897188Y-100733624D01*
X137046488Y-100703927D01*
X137071258Y-100699000D01*
X137248742Y-100699000D01*
X137273512Y-100703927D01*
G37*
G36*
X176778228Y-99773703D02*
G01*
X176933100Y-99837853D01*
X177072481Y-99930985D01*
X177191015Y-100049519D01*
X177284147Y-100188900D01*
X177348297Y-100343772D01*
X177381000Y-100508184D01*
X177381000Y-100675816D01*
X177348297Y-100840228D01*
X177284147Y-100995100D01*
X177191015Y-101134481D01*
X177072481Y-101253015D01*
X176933100Y-101346147D01*
X176778228Y-101410297D01*
X176613816Y-101443000D01*
X176446184Y-101443000D01*
X176281772Y-101410297D01*
X176126900Y-101346147D01*
X175987519Y-101253015D01*
X175868985Y-101134481D01*
X175775853Y-100995100D01*
X175711703Y-100840228D01*
X175679000Y-100675816D01*
X175679000Y-100508184D01*
X175711703Y-100343772D01*
X175775853Y-100188900D01*
X175868985Y-100049519D01*
X175987519Y-99930985D01*
X176126900Y-99837853D01*
X176281772Y-99773703D01*
X176446184Y-99741000D01*
X176613816Y-99741000D01*
X176778228Y-99773703D01*
G37*
G36*
X180738228Y-99773703D02*
G01*
X180893100Y-99837853D01*
X181032481Y-99930985D01*
X181151015Y-100049519D01*
X181244147Y-100188900D01*
X181308297Y-100343772D01*
X181341000Y-100508184D01*
X181341000Y-100675816D01*
X181308297Y-100840228D01*
X181244147Y-100995100D01*
X181151015Y-101134481D01*
X181032481Y-101253015D01*
X180893100Y-101346147D01*
X180738228Y-101410297D01*
X180573816Y-101443000D01*
X180406184Y-101443000D01*
X180241772Y-101410297D01*
X180086900Y-101346147D01*
X179947519Y-101253015D01*
X179828985Y-101134481D01*
X179735853Y-100995100D01*
X179671703Y-100840228D01*
X179639000Y-100675816D01*
X179639000Y-100508184D01*
X179671703Y-100343772D01*
X179735853Y-100188900D01*
X179828985Y-100049519D01*
X179947519Y-99930985D01*
X180086900Y-99837853D01*
X180241772Y-99773703D01*
X180406184Y-99741000D01*
X180573816Y-99741000D01*
X180738228Y-99773703D01*
G37*
G36*
X178758228Y-98628703D02*
G01*
X178913100Y-98692853D01*
X179052481Y-98785985D01*
X179171015Y-98904519D01*
X179264147Y-99043900D01*
X179328297Y-99198772D01*
X179361000Y-99363184D01*
X179361000Y-99530816D01*
X179328297Y-99695228D01*
X179264147Y-99850100D01*
X179171015Y-99989481D01*
X179052481Y-100108015D01*
X178913100Y-100201147D01*
X178758228Y-100265297D01*
X178593816Y-100298000D01*
X178426184Y-100298000D01*
X178261772Y-100265297D01*
X178106900Y-100201147D01*
X177967519Y-100108015D01*
X177848985Y-99989481D01*
X177755853Y-99850100D01*
X177691703Y-99695228D01*
X177659000Y-99530816D01*
X177659000Y-99363184D01*
X177691703Y-99198772D01*
X177755853Y-99043900D01*
X177848985Y-98904519D01*
X177967519Y-98785985D01*
X178106900Y-98692853D01*
X178261772Y-98628703D01*
X178426184Y-98596000D01*
X178593816Y-98596000D01*
X178758228Y-98628703D01*
G37*
G36*
X137273512Y-98163927D02*
G01*
X137422812Y-98193624D01*
X137586784Y-98261544D01*
X137734354Y-98360147D01*
X137859853Y-98485646D01*
X137958456Y-98633216D01*
X138026376Y-98797188D01*
X138061000Y-98971259D01*
X138061000Y-99148741D01*
X138026376Y-99322812D01*
X137958456Y-99486784D01*
X137859853Y-99634354D01*
X137734354Y-99759853D01*
X137586784Y-99858456D01*
X137422812Y-99926376D01*
X137273512Y-99956073D01*
X137248742Y-99961000D01*
X137071258Y-99961000D01*
X137046488Y-99956073D01*
X136897188Y-99926376D01*
X136733216Y-99858456D01*
X136585646Y-99759853D01*
X136460147Y-99634354D01*
X136361544Y-99486784D01*
X136293624Y-99322812D01*
X136259000Y-99148741D01*
X136259000Y-98971259D01*
X136293624Y-98797188D01*
X136361544Y-98633216D01*
X136460147Y-98485646D01*
X136585646Y-98360147D01*
X136733216Y-98261544D01*
X136897188Y-98193624D01*
X137046488Y-98163927D01*
X137071258Y-98159000D01*
X137248742Y-98159000D01*
X137273512Y-98163927D01*
G37*
G36*
X134733512Y-98163927D02*
G01*
X134882812Y-98193624D01*
X135046784Y-98261544D01*
X135194354Y-98360147D01*
X135319853Y-98485646D01*
X135418456Y-98633216D01*
X135486376Y-98797188D01*
X135521000Y-98971259D01*
X135521000Y-99148741D01*
X135486376Y-99322812D01*
X135418456Y-99486784D01*
X135319853Y-99634354D01*
X135194354Y-99759853D01*
X135046784Y-99858456D01*
X134882812Y-99926376D01*
X134733512Y-99956073D01*
X134708742Y-99961000D01*
X134531258Y-99961000D01*
X134506488Y-99956073D01*
X134357188Y-99926376D01*
X134193216Y-99858456D01*
X134045646Y-99759853D01*
X133920147Y-99634354D01*
X133821544Y-99486784D01*
X133753624Y-99322812D01*
X133719000Y-99148741D01*
X133719000Y-98971259D01*
X133753624Y-98797188D01*
X133821544Y-98633216D01*
X133920147Y-98485646D01*
X134045646Y-98360147D01*
X134193216Y-98261544D01*
X134357188Y-98193624D01*
X134506488Y-98163927D01*
X134531258Y-98159000D01*
X134708742Y-98159000D01*
X134733512Y-98163927D01*
G37*
G36*
X162673512Y-98163927D02*
G01*
X162822812Y-98193624D01*
X162986784Y-98261544D01*
X163134354Y-98360147D01*
X163259853Y-98485646D01*
X163358456Y-98633216D01*
X163426376Y-98797188D01*
X163461000Y-98971259D01*
X163461000Y-99148741D01*
X163426376Y-99322812D01*
X163358456Y-99486784D01*
X163259853Y-99634354D01*
X163134354Y-99759853D01*
X162986784Y-99858456D01*
X162822812Y-99926376D01*
X162673512Y-99956073D01*
X162648742Y-99961000D01*
X162471258Y-99961000D01*
X162446488Y-99956073D01*
X162297188Y-99926376D01*
X162133216Y-99858456D01*
X161985646Y-99759853D01*
X161860147Y-99634354D01*
X161761544Y-99486784D01*
X161693624Y-99322812D01*
X161659000Y-99148741D01*
X161659000Y-98971259D01*
X161693624Y-98797188D01*
X161761544Y-98633216D01*
X161860147Y-98485646D01*
X161985646Y-98360147D01*
X162133216Y-98261544D01*
X162297188Y-98193624D01*
X162446488Y-98163927D01*
X162471258Y-98159000D01*
X162648742Y-98159000D01*
X162673512Y-98163927D01*
G37*
G36*
X160133512Y-98163927D02*
G01*
X160282812Y-98193624D01*
X160446784Y-98261544D01*
X160594354Y-98360147D01*
X160719853Y-98485646D01*
X160818456Y-98633216D01*
X160886376Y-98797188D01*
X160921000Y-98971259D01*
X160921000Y-99148741D01*
X160886376Y-99322812D01*
X160818456Y-99486784D01*
X160719853Y-99634354D01*
X160594354Y-99759853D01*
X160446784Y-99858456D01*
X160282812Y-99926376D01*
X160133512Y-99956073D01*
X160108742Y-99961000D01*
X159931258Y-99961000D01*
X159906488Y-99956073D01*
X159757188Y-99926376D01*
X159593216Y-99858456D01*
X159445646Y-99759853D01*
X159320147Y-99634354D01*
X159221544Y-99486784D01*
X159153624Y-99322812D01*
X159119000Y-99148741D01*
X159119000Y-98971259D01*
X159153624Y-98797188D01*
X159221544Y-98633216D01*
X159320147Y-98485646D01*
X159445646Y-98360147D01*
X159593216Y-98261544D01*
X159757188Y-98193624D01*
X159906488Y-98163927D01*
X159931258Y-98159000D01*
X160108742Y-98159000D01*
X160133512Y-98163927D01*
G37*
G36*
X170630468Y-98059565D02*
G01*
X170669138Y-98071296D01*
X170704777Y-98090346D01*
X170736017Y-98115983D01*
X170761654Y-98147223D01*
X170780704Y-98182862D01*
X170792435Y-98221532D01*
X170797000Y-98267888D01*
X170797000Y-99344112D01*
X170792435Y-99390468D01*
X170780704Y-99429138D01*
X170761654Y-99464777D01*
X170736017Y-99496017D01*
X170704777Y-99521654D01*
X170669138Y-99540704D01*
X170630468Y-99552435D01*
X170584112Y-99557000D01*
X169932888Y-99557000D01*
X169886532Y-99552435D01*
X169847862Y-99540704D01*
X169812223Y-99521654D01*
X169780983Y-99496017D01*
X169755346Y-99464777D01*
X169736296Y-99429138D01*
X169724565Y-99390468D01*
X169720000Y-99344112D01*
X169720000Y-98267888D01*
X169724565Y-98221532D01*
X169736296Y-98182862D01*
X169755346Y-98147223D01*
X169780983Y-98115983D01*
X169812223Y-98090346D01*
X169847862Y-98071296D01*
X169886532Y-98059565D01*
X169932888Y-98055000D01*
X170584112Y-98055000D01*
X170630468Y-98059565D01*
G37*
G36*
X172505468Y-98059565D02*
G01*
X172544138Y-98071296D01*
X172579777Y-98090346D01*
X172611017Y-98115983D01*
X172636654Y-98147223D01*
X172655704Y-98182862D01*
X172667435Y-98221532D01*
X172672000Y-98267888D01*
X172672000Y-99344112D01*
X172667435Y-99390468D01*
X172655704Y-99429138D01*
X172636654Y-99464777D01*
X172611017Y-99496017D01*
X172579777Y-99521654D01*
X172544138Y-99540704D01*
X172505468Y-99552435D01*
X172459112Y-99557000D01*
X171807888Y-99557000D01*
X171761532Y-99552435D01*
X171722862Y-99540704D01*
X171687223Y-99521654D01*
X171655983Y-99496017D01*
X171630346Y-99464777D01*
X171611296Y-99429138D01*
X171599565Y-99390468D01*
X171595000Y-99344112D01*
X171595000Y-98267888D01*
X171599565Y-98221532D01*
X171611296Y-98182862D01*
X171630346Y-98147223D01*
X171655983Y-98115983D01*
X171687223Y-98090346D01*
X171722862Y-98071296D01*
X171761532Y-98059565D01*
X171807888Y-98055000D01*
X172459112Y-98055000D01*
X172505468Y-98059565D01*
G37*
G36*
X180738228Y-97483703D02*
G01*
X180893100Y-97547853D01*
X181032481Y-97640985D01*
X181151015Y-97759519D01*
X181244147Y-97898900D01*
X181308297Y-98053772D01*
X181341000Y-98218184D01*
X181341000Y-98385816D01*
X181308297Y-98550228D01*
X181244147Y-98705100D01*
X181151015Y-98844481D01*
X181032481Y-98963015D01*
X180893100Y-99056147D01*
X180738228Y-99120297D01*
X180573816Y-99153000D01*
X180406184Y-99153000D01*
X180241772Y-99120297D01*
X180086900Y-99056147D01*
X179947519Y-98963015D01*
X179828985Y-98844481D01*
X179735853Y-98705100D01*
X179671703Y-98550228D01*
X179639000Y-98385816D01*
X179639000Y-98218184D01*
X179671703Y-98053772D01*
X179735853Y-97898900D01*
X179828985Y-97759519D01*
X179947519Y-97640985D01*
X180086900Y-97547853D01*
X180241772Y-97483703D01*
X180406184Y-97451000D01*
X180573816Y-97451000D01*
X180738228Y-97483703D01*
G37*
G36*
X176778228Y-97483703D02*
G01*
X176933100Y-97547853D01*
X177072481Y-97640985D01*
X177191015Y-97759519D01*
X177284147Y-97898900D01*
X177348297Y-98053772D01*
X177381000Y-98218184D01*
X177381000Y-98385816D01*
X177348297Y-98550228D01*
X177284147Y-98705100D01*
X177191015Y-98844481D01*
X177072481Y-98963015D01*
X176933100Y-99056147D01*
X176778228Y-99120297D01*
X176613816Y-99153000D01*
X176446184Y-99153000D01*
X176281772Y-99120297D01*
X176126900Y-99056147D01*
X175987519Y-98963015D01*
X175868985Y-98844481D01*
X175775853Y-98705100D01*
X175711703Y-98550228D01*
X175679000Y-98385816D01*
X175679000Y-98218184D01*
X175711703Y-98053772D01*
X175775853Y-97898900D01*
X175868985Y-97759519D01*
X175987519Y-97640985D01*
X176126900Y-97547853D01*
X176281772Y-97483703D01*
X176446184Y-97451000D01*
X176613816Y-97451000D01*
X176778228Y-97483703D01*
G37*
G36*
X178758228Y-96338703D02*
G01*
X178913100Y-96402853D01*
X179052481Y-96495985D01*
X179171015Y-96614519D01*
X179264147Y-96753900D01*
X179328297Y-96908772D01*
X179361000Y-97073184D01*
X179361000Y-97240816D01*
X179328297Y-97405228D01*
X179264147Y-97560100D01*
X179171015Y-97699481D01*
X179052481Y-97818015D01*
X178913100Y-97911147D01*
X178758228Y-97975297D01*
X178593816Y-98008000D01*
X178426184Y-98008000D01*
X178261772Y-97975297D01*
X178106900Y-97911147D01*
X177967519Y-97818015D01*
X177848985Y-97699481D01*
X177755853Y-97560100D01*
X177691703Y-97405228D01*
X177659000Y-97240816D01*
X177659000Y-97073184D01*
X177691703Y-96908772D01*
X177755853Y-96753900D01*
X177848985Y-96614519D01*
X177967519Y-96495985D01*
X178106900Y-96402853D01*
X178261772Y-96338703D01*
X178426184Y-96306000D01*
X178593816Y-96306000D01*
X178758228Y-96338703D01*
G37*
G36*
X137273512Y-95623927D02*
G01*
X137422812Y-95653624D01*
X137586784Y-95721544D01*
X137734354Y-95820147D01*
X137859853Y-95945646D01*
X137958456Y-96093216D01*
X138026376Y-96257188D01*
X138061000Y-96431259D01*
X138061000Y-96608741D01*
X138026376Y-96782812D01*
X137958456Y-96946784D01*
X137859853Y-97094354D01*
X137734354Y-97219853D01*
X137586784Y-97318456D01*
X137422812Y-97386376D01*
X137273512Y-97416073D01*
X137248742Y-97421000D01*
X137071258Y-97421000D01*
X137046488Y-97416073D01*
X136897188Y-97386376D01*
X136733216Y-97318456D01*
X136585646Y-97219853D01*
X136460147Y-97094354D01*
X136361544Y-96946784D01*
X136293624Y-96782812D01*
X136259000Y-96608741D01*
X136259000Y-96431259D01*
X136293624Y-96257188D01*
X136361544Y-96093216D01*
X136460147Y-95945646D01*
X136585646Y-95820147D01*
X136733216Y-95721544D01*
X136897188Y-95653624D01*
X137046488Y-95623927D01*
X137071258Y-95619000D01*
X137248742Y-95619000D01*
X137273512Y-95623927D01*
G37*
G36*
X134733512Y-95623927D02*
G01*
X134882812Y-95653624D01*
X135046784Y-95721544D01*
X135194354Y-95820147D01*
X135319853Y-95945646D01*
X135418456Y-96093216D01*
X135486376Y-96257188D01*
X135521000Y-96431259D01*
X135521000Y-96608741D01*
X135486376Y-96782812D01*
X135418456Y-96946784D01*
X135319853Y-97094354D01*
X135194354Y-97219853D01*
X135046784Y-97318456D01*
X134882812Y-97386376D01*
X134733512Y-97416073D01*
X134708742Y-97421000D01*
X134531258Y-97421000D01*
X134506488Y-97416073D01*
X134357188Y-97386376D01*
X134193216Y-97318456D01*
X134045646Y-97219853D01*
X133920147Y-97094354D01*
X133821544Y-96946784D01*
X133753624Y-96782812D01*
X133719000Y-96608741D01*
X133719000Y-96431259D01*
X133753624Y-96257188D01*
X133821544Y-96093216D01*
X133920147Y-95945646D01*
X134045646Y-95820147D01*
X134193216Y-95721544D01*
X134357188Y-95653624D01*
X134506488Y-95623927D01*
X134531258Y-95619000D01*
X134708742Y-95619000D01*
X134733512Y-95623927D01*
G37*
G36*
X160133512Y-95623927D02*
G01*
X160282812Y-95653624D01*
X160446784Y-95721544D01*
X160594354Y-95820147D01*
X160719853Y-95945646D01*
X160818456Y-96093216D01*
X160886376Y-96257188D01*
X160921000Y-96431259D01*
X160921000Y-96608741D01*
X160886376Y-96782812D01*
X160818456Y-96946784D01*
X160719853Y-97094354D01*
X160594354Y-97219853D01*
X160446784Y-97318456D01*
X160282812Y-97386376D01*
X160133512Y-97416073D01*
X160108742Y-97421000D01*
X159931258Y-97421000D01*
X159906488Y-97416073D01*
X159757188Y-97386376D01*
X159593216Y-97318456D01*
X159445646Y-97219853D01*
X159320147Y-97094354D01*
X159221544Y-96946784D01*
X159153624Y-96782812D01*
X159119000Y-96608741D01*
X159119000Y-96431259D01*
X159153624Y-96257188D01*
X159221544Y-96093216D01*
X159320147Y-95945646D01*
X159445646Y-95820147D01*
X159593216Y-95721544D01*
X159757188Y-95653624D01*
X159906488Y-95623927D01*
X159931258Y-95619000D01*
X160108742Y-95619000D01*
X160133512Y-95623927D01*
G37*
G36*
X162673512Y-95623927D02*
G01*
X162822812Y-95653624D01*
X162986784Y-95721544D01*
X163134354Y-95820147D01*
X163259853Y-95945646D01*
X163358456Y-96093216D01*
X163426376Y-96257188D01*
X163461000Y-96431259D01*
X163461000Y-96608741D01*
X163426376Y-96782812D01*
X163358456Y-96946784D01*
X163259853Y-97094354D01*
X163134354Y-97219853D01*
X162986784Y-97318456D01*
X162822812Y-97386376D01*
X162673512Y-97416073D01*
X162648742Y-97421000D01*
X162471258Y-97421000D01*
X162446488Y-97416073D01*
X162297188Y-97386376D01*
X162133216Y-97318456D01*
X161985646Y-97219853D01*
X161860147Y-97094354D01*
X161761544Y-96946784D01*
X161693624Y-96782812D01*
X161659000Y-96608741D01*
X161659000Y-96431259D01*
X161693624Y-96257188D01*
X161761544Y-96093216D01*
X161860147Y-95945646D01*
X161985646Y-95820147D01*
X162133216Y-95721544D01*
X162297188Y-95653624D01*
X162446488Y-95623927D01*
X162471258Y-95619000D01*
X162648742Y-95619000D01*
X162673512Y-95623927D01*
G37*
G36*
X177381000Y-96863000D02*
G01*
X175679000Y-96863000D01*
X175679000Y-95161000D01*
X177381000Y-95161000D01*
X177381000Y-96863000D01*
G37*
G36*
X180738228Y-95193703D02*
G01*
X180893100Y-95257853D01*
X181032481Y-95350985D01*
X181151015Y-95469519D01*
X181244147Y-95608900D01*
X181308297Y-95763772D01*
X181341000Y-95928184D01*
X181341000Y-96095816D01*
X181308297Y-96260228D01*
X181244147Y-96415100D01*
X181151015Y-96554481D01*
X181032481Y-96673015D01*
X180893100Y-96766147D01*
X180738228Y-96830297D01*
X180573816Y-96863000D01*
X180406184Y-96863000D01*
X180241772Y-96830297D01*
X180086900Y-96766147D01*
X179947519Y-96673015D01*
X179828985Y-96554481D01*
X179735853Y-96415100D01*
X179671703Y-96260228D01*
X179639000Y-96095816D01*
X179639000Y-95928184D01*
X179671703Y-95763772D01*
X179735853Y-95608900D01*
X179828985Y-95469519D01*
X179947519Y-95350985D01*
X180086900Y-95257853D01*
X180241772Y-95193703D01*
X180406184Y-95161000D01*
X180573816Y-95161000D01*
X180738228Y-95193703D01*
G37*
G36*
X178758228Y-94048703D02*
G01*
X178913100Y-94112853D01*
X179052481Y-94205985D01*
X179171015Y-94324519D01*
X179264147Y-94463900D01*
X179328297Y-94618772D01*
X179361000Y-94783184D01*
X179361000Y-94950816D01*
X179328297Y-95115228D01*
X179264147Y-95270100D01*
X179171015Y-95409481D01*
X179052481Y-95528015D01*
X178913100Y-95621147D01*
X178758228Y-95685297D01*
X178593816Y-95718000D01*
X178426184Y-95718000D01*
X178261772Y-95685297D01*
X178106900Y-95621147D01*
X177967519Y-95528015D01*
X177848985Y-95409481D01*
X177755853Y-95270100D01*
X177691703Y-95115228D01*
X177659000Y-94950816D01*
X177659000Y-94783184D01*
X177691703Y-94618772D01*
X177755853Y-94463900D01*
X177848985Y-94324519D01*
X177967519Y-94205985D01*
X178106900Y-94112853D01*
X178261772Y-94048703D01*
X178426184Y-94016000D01*
X178593816Y-94016000D01*
X178758228Y-94048703D01*
G37*
G36*
X162673512Y-93083927D02*
G01*
X162822812Y-93113624D01*
X162986784Y-93181544D01*
X163134354Y-93280147D01*
X163259853Y-93405646D01*
X163358456Y-93553216D01*
X163426376Y-93717188D01*
X163461000Y-93891259D01*
X163461000Y-94068741D01*
X163426376Y-94242812D01*
X163358456Y-94406784D01*
X163259853Y-94554354D01*
X163134354Y-94679853D01*
X162986784Y-94778456D01*
X162822812Y-94846376D01*
X162673512Y-94876073D01*
X162648742Y-94881000D01*
X162471258Y-94881000D01*
X162446488Y-94876073D01*
X162297188Y-94846376D01*
X162133216Y-94778456D01*
X161985646Y-94679853D01*
X161860147Y-94554354D01*
X161761544Y-94406784D01*
X161693624Y-94242812D01*
X161659000Y-94068741D01*
X161659000Y-93891259D01*
X161693624Y-93717188D01*
X161761544Y-93553216D01*
X161860147Y-93405646D01*
X161985646Y-93280147D01*
X162133216Y-93181544D01*
X162297188Y-93113624D01*
X162446488Y-93083927D01*
X162471258Y-93079000D01*
X162648742Y-93079000D01*
X162673512Y-93083927D01*
G37*
G36*
X134733512Y-93083927D02*
G01*
X134882812Y-93113624D01*
X135046784Y-93181544D01*
X135194354Y-93280147D01*
X135319853Y-93405646D01*
X135418456Y-93553216D01*
X135486376Y-93717188D01*
X135521000Y-93891259D01*
X135521000Y-94068741D01*
X135486376Y-94242812D01*
X135418456Y-94406784D01*
X135319853Y-94554354D01*
X135194354Y-94679853D01*
X135046784Y-94778456D01*
X134882812Y-94846376D01*
X134733512Y-94876073D01*
X134708742Y-94881000D01*
X134531258Y-94881000D01*
X134506488Y-94876073D01*
X134357188Y-94846376D01*
X134193216Y-94778456D01*
X134045646Y-94679853D01*
X133920147Y-94554354D01*
X133821544Y-94406784D01*
X133753624Y-94242812D01*
X133719000Y-94068741D01*
X133719000Y-93891259D01*
X133753624Y-93717188D01*
X133821544Y-93553216D01*
X133920147Y-93405646D01*
X134045646Y-93280147D01*
X134193216Y-93181544D01*
X134357188Y-93113624D01*
X134506488Y-93083927D01*
X134531258Y-93079000D01*
X134708742Y-93079000D01*
X134733512Y-93083927D01*
G37*
G36*
X160133512Y-93083927D02*
G01*
X160282812Y-93113624D01*
X160446784Y-93181544D01*
X160594354Y-93280147D01*
X160719853Y-93405646D01*
X160818456Y-93553216D01*
X160886376Y-93717188D01*
X160921000Y-93891259D01*
X160921000Y-94068741D01*
X160886376Y-94242812D01*
X160818456Y-94406784D01*
X160719853Y-94554354D01*
X160594354Y-94679853D01*
X160446784Y-94778456D01*
X160282812Y-94846376D01*
X160133512Y-94876073D01*
X160108742Y-94881000D01*
X159931258Y-94881000D01*
X159906488Y-94876073D01*
X159757188Y-94846376D01*
X159593216Y-94778456D01*
X159445646Y-94679853D01*
X159320147Y-94554354D01*
X159221544Y-94406784D01*
X159153624Y-94242812D01*
X159119000Y-94068741D01*
X159119000Y-93891259D01*
X159153624Y-93717188D01*
X159221544Y-93553216D01*
X159320147Y-93405646D01*
X159445646Y-93280147D01*
X159593216Y-93181544D01*
X159757188Y-93113624D01*
X159906488Y-93083927D01*
X159931258Y-93079000D01*
X160108742Y-93079000D01*
X160133512Y-93083927D01*
G37*
G36*
X137273512Y-93083927D02*
G01*
X137422812Y-93113624D01*
X137586784Y-93181544D01*
X137734354Y-93280147D01*
X137859853Y-93405646D01*
X137958456Y-93553216D01*
X138026376Y-93717188D01*
X138061000Y-93891259D01*
X138061000Y-94068741D01*
X138026376Y-94242812D01*
X137958456Y-94406784D01*
X137859853Y-94554354D01*
X137734354Y-94679853D01*
X137586784Y-94778456D01*
X137422812Y-94846376D01*
X137273512Y-94876073D01*
X137248742Y-94881000D01*
X137071258Y-94881000D01*
X137046488Y-94876073D01*
X136897188Y-94846376D01*
X136733216Y-94778456D01*
X136585646Y-94679853D01*
X136460147Y-94554354D01*
X136361544Y-94406784D01*
X136293624Y-94242812D01*
X136259000Y-94068741D01*
X136259000Y-93891259D01*
X136293624Y-93717188D01*
X136361544Y-93553216D01*
X136460147Y-93405646D01*
X136585646Y-93280147D01*
X136733216Y-93181544D01*
X136897188Y-93113624D01*
X137046488Y-93083927D01*
X137071258Y-93079000D01*
X137248742Y-93079000D01*
X137273512Y-93083927D01*
G37*
G36*
X160133512Y-90543927D02*
G01*
X160282812Y-90573624D01*
X160446784Y-90641544D01*
X160594354Y-90740147D01*
X160719853Y-90865646D01*
X160818456Y-91013216D01*
X160886376Y-91177188D01*
X160921000Y-91351259D01*
X160921000Y-91528741D01*
X160886376Y-91702812D01*
X160818456Y-91866784D01*
X160719853Y-92014354D01*
X160594354Y-92139853D01*
X160446784Y-92238456D01*
X160282812Y-92306376D01*
X160133512Y-92336073D01*
X160108742Y-92341000D01*
X159931258Y-92341000D01*
X159906488Y-92336073D01*
X159757188Y-92306376D01*
X159593216Y-92238456D01*
X159445646Y-92139853D01*
X159320147Y-92014354D01*
X159221544Y-91866784D01*
X159153624Y-91702812D01*
X159119000Y-91528741D01*
X159119000Y-91351259D01*
X159153624Y-91177188D01*
X159221544Y-91013216D01*
X159320147Y-90865646D01*
X159445646Y-90740147D01*
X159593216Y-90641544D01*
X159757188Y-90573624D01*
X159906488Y-90543927D01*
X159931258Y-90539000D01*
X160108742Y-90539000D01*
X160133512Y-90543927D01*
G37*
G36*
X134733512Y-90543927D02*
G01*
X134882812Y-90573624D01*
X135046784Y-90641544D01*
X135194354Y-90740147D01*
X135319853Y-90865646D01*
X135418456Y-91013216D01*
X135486376Y-91177188D01*
X135521000Y-91351259D01*
X135521000Y-91528741D01*
X135486376Y-91702812D01*
X135418456Y-91866784D01*
X135319853Y-92014354D01*
X135194354Y-92139853D01*
X135046784Y-92238456D01*
X134882812Y-92306376D01*
X134733512Y-92336073D01*
X134708742Y-92341000D01*
X134531258Y-92341000D01*
X134506488Y-92336073D01*
X134357188Y-92306376D01*
X134193216Y-92238456D01*
X134045646Y-92139853D01*
X133920147Y-92014354D01*
X133821544Y-91866784D01*
X133753624Y-91702812D01*
X133719000Y-91528741D01*
X133719000Y-91351259D01*
X133753624Y-91177188D01*
X133821544Y-91013216D01*
X133920147Y-90865646D01*
X134045646Y-90740147D01*
X134193216Y-90641544D01*
X134357188Y-90573624D01*
X134506488Y-90543927D01*
X134531258Y-90539000D01*
X134708742Y-90539000D01*
X134733512Y-90543927D01*
G37*
G36*
X137273512Y-90543927D02*
G01*
X137422812Y-90573624D01*
X137586784Y-90641544D01*
X137734354Y-90740147D01*
X137859853Y-90865646D01*
X137958456Y-91013216D01*
X138026376Y-91177188D01*
X138061000Y-91351259D01*
X138061000Y-91528741D01*
X138026376Y-91702812D01*
X137958456Y-91866784D01*
X137859853Y-92014354D01*
X137734354Y-92139853D01*
X137586784Y-92238456D01*
X137422812Y-92306376D01*
X137273512Y-92336073D01*
X137248742Y-92341000D01*
X137071258Y-92341000D01*
X137046488Y-92336073D01*
X136897188Y-92306376D01*
X136733216Y-92238456D01*
X136585646Y-92139853D01*
X136460147Y-92014354D01*
X136361544Y-91866784D01*
X136293624Y-91702812D01*
X136259000Y-91528741D01*
X136259000Y-91351259D01*
X136293624Y-91177188D01*
X136361544Y-91013216D01*
X136460147Y-90865646D01*
X136585646Y-90740147D01*
X136733216Y-90641544D01*
X136897188Y-90573624D01*
X137046488Y-90543927D01*
X137071258Y-90539000D01*
X137248742Y-90539000D01*
X137273512Y-90543927D01*
G37*
G36*
X162673512Y-90543927D02*
G01*
X162822812Y-90573624D01*
X162986784Y-90641544D01*
X163134354Y-90740147D01*
X163259853Y-90865646D01*
X163358456Y-91013216D01*
X163426376Y-91177188D01*
X163461000Y-91351259D01*
X163461000Y-91528741D01*
X163426376Y-91702812D01*
X163358456Y-91866784D01*
X163259853Y-92014354D01*
X163134354Y-92139853D01*
X162986784Y-92238456D01*
X162822812Y-92306376D01*
X162673512Y-92336073D01*
X162648742Y-92341000D01*
X162471258Y-92341000D01*
X162446488Y-92336073D01*
X162297188Y-92306376D01*
X162133216Y-92238456D01*
X161985646Y-92139853D01*
X161860147Y-92014354D01*
X161761544Y-91866784D01*
X161693624Y-91702812D01*
X161659000Y-91528741D01*
X161659000Y-91351259D01*
X161693624Y-91177188D01*
X161761544Y-91013216D01*
X161860147Y-90865646D01*
X161985646Y-90740147D01*
X162133216Y-90641544D01*
X162297188Y-90573624D01*
X162446488Y-90543927D01*
X162471258Y-90539000D01*
X162648742Y-90539000D01*
X162673512Y-90543927D01*
G37*
G36*
X179178254Y-85854818D02*
G01*
X179367528Y-85933218D01*
X179551513Y-86009427D01*
X179887436Y-86233884D01*
X180173116Y-86519564D01*
X180351666Y-86786782D01*
X180397574Y-86855489D01*
X180552182Y-87228746D01*
X180631000Y-87624993D01*
X180631000Y-88029007D01*
X180552182Y-88425254D01*
X180397574Y-88798511D01*
X180397573Y-88798513D01*
X180173116Y-89134436D01*
X179887436Y-89420116D01*
X179551513Y-89644573D01*
X179551512Y-89644574D01*
X179551511Y-89644574D01*
X179178254Y-89799182D01*
X178782007Y-89878000D01*
X178377993Y-89878000D01*
X177981746Y-89799182D01*
X177608489Y-89644574D01*
X177608488Y-89644574D01*
X177608487Y-89644573D01*
X177272564Y-89420116D01*
X176986884Y-89134436D01*
X176762427Y-88798513D01*
X176762426Y-88798511D01*
X176607818Y-88425254D01*
X176529000Y-88029007D01*
X176529000Y-87624993D01*
X176607818Y-87228746D01*
X176762426Y-86855489D01*
X176808335Y-86786782D01*
X176986884Y-86519564D01*
X177272564Y-86233884D01*
X177608487Y-86009427D01*
X177792472Y-85933218D01*
X177981746Y-85854818D01*
X178377993Y-85776000D01*
X178782007Y-85776000D01*
X179178254Y-85854818D01*
G37*
G36*
X160133512Y-88003927D02*
G01*
X160282812Y-88033624D01*
X160446784Y-88101544D01*
X160594354Y-88200147D01*
X160719853Y-88325646D01*
X160818456Y-88473216D01*
X160886376Y-88637188D01*
X160921000Y-88811259D01*
X160921000Y-88988741D01*
X160886376Y-89162812D01*
X160818456Y-89326784D01*
X160719853Y-89474354D01*
X160594354Y-89599853D01*
X160446784Y-89698456D01*
X160282812Y-89766376D01*
X160133512Y-89796073D01*
X160108742Y-89801000D01*
X159931258Y-89801000D01*
X159906488Y-89796073D01*
X159757188Y-89766376D01*
X159593216Y-89698456D01*
X159445646Y-89599853D01*
X159320147Y-89474354D01*
X159221544Y-89326784D01*
X159153624Y-89162812D01*
X159119000Y-88988741D01*
X159119000Y-88811259D01*
X159153624Y-88637188D01*
X159221544Y-88473216D01*
X159320147Y-88325646D01*
X159445646Y-88200147D01*
X159593216Y-88101544D01*
X159757188Y-88033624D01*
X159906488Y-88003927D01*
X159931258Y-87999000D01*
X160108742Y-87999000D01*
X160133512Y-88003927D01*
G37*
G36*
X162673512Y-88003927D02*
G01*
X162822812Y-88033624D01*
X162986784Y-88101544D01*
X163134354Y-88200147D01*
X163259853Y-88325646D01*
X163358456Y-88473216D01*
X163426376Y-88637188D01*
X163461000Y-88811259D01*
X163461000Y-88988741D01*
X163426376Y-89162812D01*
X163358456Y-89326784D01*
X163259853Y-89474354D01*
X163134354Y-89599853D01*
X162986784Y-89698456D01*
X162822812Y-89766376D01*
X162673512Y-89796073D01*
X162648742Y-89801000D01*
X162471258Y-89801000D01*
X162446488Y-89796073D01*
X162297188Y-89766376D01*
X162133216Y-89698456D01*
X161985646Y-89599853D01*
X161860147Y-89474354D01*
X161761544Y-89326784D01*
X161693624Y-89162812D01*
X161659000Y-88988741D01*
X161659000Y-88811259D01*
X161693624Y-88637188D01*
X161761544Y-88473216D01*
X161860147Y-88325646D01*
X161985646Y-88200147D01*
X162133216Y-88101544D01*
X162297188Y-88033624D01*
X162446488Y-88003927D01*
X162471258Y-87999000D01*
X162648742Y-87999000D01*
X162673512Y-88003927D01*
G37*
G36*
X137273512Y-88003927D02*
G01*
X137422812Y-88033624D01*
X137586784Y-88101544D01*
X137734354Y-88200147D01*
X137859853Y-88325646D01*
X137958456Y-88473216D01*
X138026376Y-88637188D01*
X138061000Y-88811259D01*
X138061000Y-88988741D01*
X138026376Y-89162812D01*
X137958456Y-89326784D01*
X137859853Y-89474354D01*
X137734354Y-89599853D01*
X137586784Y-89698456D01*
X137422812Y-89766376D01*
X137273512Y-89796073D01*
X137248742Y-89801000D01*
X137071258Y-89801000D01*
X137046488Y-89796073D01*
X136897188Y-89766376D01*
X136733216Y-89698456D01*
X136585646Y-89599853D01*
X136460147Y-89474354D01*
X136361544Y-89326784D01*
X136293624Y-89162812D01*
X136259000Y-88988741D01*
X136259000Y-88811259D01*
X136293624Y-88637188D01*
X136361544Y-88473216D01*
X136460147Y-88325646D01*
X136585646Y-88200147D01*
X136733216Y-88101544D01*
X136897188Y-88033624D01*
X137046488Y-88003927D01*
X137071258Y-87999000D01*
X137248742Y-87999000D01*
X137273512Y-88003927D01*
G37*
G36*
X134733512Y-88003927D02*
G01*
X134882812Y-88033624D01*
X135046784Y-88101544D01*
X135194354Y-88200147D01*
X135319853Y-88325646D01*
X135418456Y-88473216D01*
X135486376Y-88637188D01*
X135521000Y-88811259D01*
X135521000Y-88988741D01*
X135486376Y-89162812D01*
X135418456Y-89326784D01*
X135319853Y-89474354D01*
X135194354Y-89599853D01*
X135046784Y-89698456D01*
X134882812Y-89766376D01*
X134733512Y-89796073D01*
X134708742Y-89801000D01*
X134531258Y-89801000D01*
X134506488Y-89796073D01*
X134357188Y-89766376D01*
X134193216Y-89698456D01*
X134045646Y-89599853D01*
X133920147Y-89474354D01*
X133821544Y-89326784D01*
X133753624Y-89162812D01*
X133719000Y-88988741D01*
X133719000Y-88811259D01*
X133753624Y-88637188D01*
X133821544Y-88473216D01*
X133920147Y-88325646D01*
X134045646Y-88200147D01*
X134193216Y-88101544D01*
X134357188Y-88033624D01*
X134506488Y-88003927D01*
X134531258Y-87999000D01*
X134708742Y-87999000D01*
X134733512Y-88003927D01*
G37*
G36*
X160133512Y-85463927D02*
G01*
X160282812Y-85493624D01*
X160446784Y-85561544D01*
X160594354Y-85660147D01*
X160719853Y-85785646D01*
X160818456Y-85933216D01*
X160886376Y-86097188D01*
X160921000Y-86271259D01*
X160921000Y-86448741D01*
X160886376Y-86622812D01*
X160818456Y-86786784D01*
X160719853Y-86934354D01*
X160594354Y-87059853D01*
X160446784Y-87158456D01*
X160282812Y-87226376D01*
X160133512Y-87256073D01*
X160108742Y-87261000D01*
X159931258Y-87261000D01*
X159906488Y-87256073D01*
X159757188Y-87226376D01*
X159593216Y-87158456D01*
X159445646Y-87059853D01*
X159320147Y-86934354D01*
X159221544Y-86786784D01*
X159153624Y-86622812D01*
X159119000Y-86448741D01*
X159119000Y-86271259D01*
X159153624Y-86097188D01*
X159221544Y-85933216D01*
X159320147Y-85785646D01*
X159445646Y-85660147D01*
X159593216Y-85561544D01*
X159757188Y-85493624D01*
X159906488Y-85463927D01*
X159931258Y-85459000D01*
X160108742Y-85459000D01*
X160133512Y-85463927D01*
G37*
G36*
X134733512Y-85463927D02*
G01*
X134882812Y-85493624D01*
X135046784Y-85561544D01*
X135194354Y-85660147D01*
X135319853Y-85785646D01*
X135418456Y-85933216D01*
X135486376Y-86097188D01*
X135521000Y-86271259D01*
X135521000Y-86448741D01*
X135486376Y-86622812D01*
X135418456Y-86786784D01*
X135319853Y-86934354D01*
X135194354Y-87059853D01*
X135046784Y-87158456D01*
X134882812Y-87226376D01*
X134733512Y-87256073D01*
X134708742Y-87261000D01*
X134531258Y-87261000D01*
X134506488Y-87256073D01*
X134357188Y-87226376D01*
X134193216Y-87158456D01*
X134045646Y-87059853D01*
X133920147Y-86934354D01*
X133821544Y-86786784D01*
X133753624Y-86622812D01*
X133719000Y-86448741D01*
X133719000Y-86271259D01*
X133753624Y-86097188D01*
X133821544Y-85933216D01*
X133920147Y-85785646D01*
X134045646Y-85660147D01*
X134193216Y-85561544D01*
X134357188Y-85493624D01*
X134506488Y-85463927D01*
X134531258Y-85459000D01*
X134708742Y-85459000D01*
X134733512Y-85463927D01*
G37*
G36*
X137273512Y-85463927D02*
G01*
X137422812Y-85493624D01*
X137586784Y-85561544D01*
X137734354Y-85660147D01*
X137859853Y-85785646D01*
X137958456Y-85933216D01*
X138026376Y-86097188D01*
X138061000Y-86271259D01*
X138061000Y-86448741D01*
X138026376Y-86622812D01*
X137958456Y-86786784D01*
X137859853Y-86934354D01*
X137734354Y-87059853D01*
X137586784Y-87158456D01*
X137422812Y-87226376D01*
X137273512Y-87256073D01*
X137248742Y-87261000D01*
X137071258Y-87261000D01*
X137046488Y-87256073D01*
X136897188Y-87226376D01*
X136733216Y-87158456D01*
X136585646Y-87059853D01*
X136460147Y-86934354D01*
X136361544Y-86786784D01*
X136293624Y-86622812D01*
X136259000Y-86448741D01*
X136259000Y-86271259D01*
X136293624Y-86097188D01*
X136361544Y-85933216D01*
X136460147Y-85785646D01*
X136585646Y-85660147D01*
X136733216Y-85561544D01*
X136897188Y-85493624D01*
X137046488Y-85463927D01*
X137071258Y-85459000D01*
X137248742Y-85459000D01*
X137273512Y-85463927D01*
G37*
G36*
X162673512Y-85463927D02*
G01*
X162822812Y-85493624D01*
X162986784Y-85561544D01*
X163134354Y-85660147D01*
X163259853Y-85785646D01*
X163358456Y-85933216D01*
X163426376Y-86097188D01*
X163461000Y-86271259D01*
X163461000Y-86448741D01*
X163426376Y-86622812D01*
X163358456Y-86786784D01*
X163259853Y-86934354D01*
X163134354Y-87059853D01*
X162986784Y-87158456D01*
X162822812Y-87226376D01*
X162673512Y-87256073D01*
X162648742Y-87261000D01*
X162471258Y-87261000D01*
X162446488Y-87256073D01*
X162297188Y-87226376D01*
X162133216Y-87158456D01*
X161985646Y-87059853D01*
X161860147Y-86934354D01*
X161761544Y-86786784D01*
X161693624Y-86622812D01*
X161659000Y-86448741D01*
X161659000Y-86271259D01*
X161693624Y-86097188D01*
X161761544Y-85933216D01*
X161860147Y-85785646D01*
X161985646Y-85660147D01*
X162133216Y-85561544D01*
X162297188Y-85493624D01*
X162446488Y-85463927D01*
X162471258Y-85459000D01*
X162648742Y-85459000D01*
X162673512Y-85463927D01*
G37*
G36*
X163461000Y-84721000D02*
G01*
X161659000Y-84721000D01*
X161659000Y-82919000D01*
X163461000Y-82919000D01*
X163461000Y-84721000D01*
G37*
G36*
X160133512Y-82923927D02*
G01*
X160282812Y-82953624D01*
X160446784Y-83021544D01*
X160594354Y-83120147D01*
X160719853Y-83245646D01*
X160818456Y-83393216D01*
X160886376Y-83557188D01*
X160921000Y-83731259D01*
X160921000Y-83908741D01*
X160886376Y-84082812D01*
X160818456Y-84246784D01*
X160719853Y-84394354D01*
X160594354Y-84519853D01*
X160446784Y-84618456D01*
X160282812Y-84686376D01*
X160133512Y-84716073D01*
X160108742Y-84721000D01*
X159931258Y-84721000D01*
X159906488Y-84716073D01*
X159757188Y-84686376D01*
X159593216Y-84618456D01*
X159445646Y-84519853D01*
X159320147Y-84394354D01*
X159221544Y-84246784D01*
X159153624Y-84082812D01*
X159119000Y-83908741D01*
X159119000Y-83731259D01*
X159153624Y-83557188D01*
X159221544Y-83393216D01*
X159320147Y-83245646D01*
X159445646Y-83120147D01*
X159593216Y-83021544D01*
X159757188Y-82953624D01*
X159906488Y-82923927D01*
X159931258Y-82919000D01*
X160108742Y-82919000D01*
X160133512Y-82923927D01*
G37*
G36*
X138061000Y-84721000D02*
G01*
X136259000Y-84721000D01*
X136259000Y-82919000D01*
X138061000Y-82919000D01*
X138061000Y-84721000D01*
G37*
G36*
X134733512Y-82923927D02*
G01*
X134882812Y-82953624D01*
X135046784Y-83021544D01*
X135194354Y-83120147D01*
X135319853Y-83245646D01*
X135418456Y-83393216D01*
X135486376Y-83557188D01*
X135521000Y-83731259D01*
X135521000Y-83908741D01*
X135486376Y-84082812D01*
X135418456Y-84246784D01*
X135319853Y-84394354D01*
X135194354Y-84519853D01*
X135046784Y-84618456D01*
X134882812Y-84686376D01*
X134733512Y-84716073D01*
X134708742Y-84721000D01*
X134531258Y-84721000D01*
X134506488Y-84716073D01*
X134357188Y-84686376D01*
X134193216Y-84618456D01*
X134045646Y-84519853D01*
X133920147Y-84394354D01*
X133821544Y-84246784D01*
X133753624Y-84082812D01*
X133719000Y-83908741D01*
X133719000Y-83731259D01*
X133753624Y-83557188D01*
X133821544Y-83393216D01*
X133920147Y-83245646D01*
X134045646Y-83120147D01*
X134193216Y-83021544D01*
X134357188Y-82953624D01*
X134506488Y-82923927D01*
X134531258Y-82919000D01*
X134708742Y-82919000D01*
X134733512Y-82923927D01*
G37*
M02*
