G04 #@! TF.GenerationSoftware,KiCad,Pcbnew,(5.1.5)-3*
G04 #@! TF.CreationDate,2020-05-03T20:07:27+02:00*
G04 #@! TF.ProjectId,VGA_adapter,5647415f-6164-4617-9074-65722e6b6963,rev?*
G04 #@! TF.SameCoordinates,Original*
G04 #@! TF.FileFunction,Soldermask,Bot*
G04 #@! TF.FilePolarity,Negative*
%FSLAX46Y46*%
G04 Gerber Fmt 4.6, Leading zero omitted, Abs format (unit mm)*
G04 Created by KiCad (PCBNEW (5.1.5)-3) date 2020-05-03 20:07:27*
%MOMM*%
%LPD*%
G04 APERTURE LIST*
%ADD10C,0.100000*%
G04 APERTURE END LIST*
D10*
G36*
X115683512Y-81653927D02*
G01*
X115832812Y-81683624D01*
X115996784Y-81751544D01*
X116144354Y-81850147D01*
X116269853Y-81975646D01*
X116368456Y-82123216D01*
X116436376Y-82287188D01*
X116471000Y-82461259D01*
X116471000Y-82638741D01*
X116436376Y-82812812D01*
X116368456Y-82976784D01*
X116269853Y-83124354D01*
X116144354Y-83249853D01*
X115996784Y-83348456D01*
X115832812Y-83416376D01*
X115683512Y-83446073D01*
X115658742Y-83451000D01*
X115481258Y-83451000D01*
X115456488Y-83446073D01*
X115307188Y-83416376D01*
X115143216Y-83348456D01*
X114995646Y-83249853D01*
X114870147Y-83124354D01*
X114771544Y-82976784D01*
X114703624Y-82812812D01*
X114669000Y-82638741D01*
X114669000Y-82461259D01*
X114703624Y-82287188D01*
X114771544Y-82123216D01*
X114870147Y-81975646D01*
X114995646Y-81850147D01*
X115143216Y-81751544D01*
X115307188Y-81683624D01*
X115456488Y-81653927D01*
X115481258Y-81649000D01*
X115658742Y-81649000D01*
X115683512Y-81653927D01*
G37*
G36*
X138543512Y-81653927D02*
G01*
X138692812Y-81683624D01*
X138856784Y-81751544D01*
X139004354Y-81850147D01*
X139129853Y-81975646D01*
X139228456Y-82123216D01*
X139296376Y-82287188D01*
X139331000Y-82461259D01*
X139331000Y-82638741D01*
X139296376Y-82812812D01*
X139228456Y-82976784D01*
X139129853Y-83124354D01*
X139004354Y-83249853D01*
X138856784Y-83348456D01*
X138692812Y-83416376D01*
X138543512Y-83446073D01*
X138518742Y-83451000D01*
X138341258Y-83451000D01*
X138316488Y-83446073D01*
X138167188Y-83416376D01*
X138003216Y-83348456D01*
X137855646Y-83249853D01*
X137730147Y-83124354D01*
X137631544Y-82976784D01*
X137563624Y-82812812D01*
X137529000Y-82638741D01*
X137529000Y-82461259D01*
X137563624Y-82287188D01*
X137631544Y-82123216D01*
X137730147Y-81975646D01*
X137855646Y-81850147D01*
X138003216Y-81751544D01*
X138167188Y-81683624D01*
X138316488Y-81653927D01*
X138341258Y-81649000D01*
X138518742Y-81649000D01*
X138543512Y-81653927D01*
G37*
G36*
X141083512Y-81653927D02*
G01*
X141232812Y-81683624D01*
X141396784Y-81751544D01*
X141544354Y-81850147D01*
X141669853Y-81975646D01*
X141768456Y-82123216D01*
X141836376Y-82287188D01*
X141871000Y-82461259D01*
X141871000Y-82638741D01*
X141836376Y-82812812D01*
X141768456Y-82976784D01*
X141669853Y-83124354D01*
X141544354Y-83249853D01*
X141396784Y-83348456D01*
X141232812Y-83416376D01*
X141083512Y-83446073D01*
X141058742Y-83451000D01*
X140881258Y-83451000D01*
X140856488Y-83446073D01*
X140707188Y-83416376D01*
X140543216Y-83348456D01*
X140395646Y-83249853D01*
X140270147Y-83124354D01*
X140171544Y-82976784D01*
X140103624Y-82812812D01*
X140069000Y-82638741D01*
X140069000Y-82461259D01*
X140103624Y-82287188D01*
X140171544Y-82123216D01*
X140270147Y-81975646D01*
X140395646Y-81850147D01*
X140543216Y-81751544D01*
X140707188Y-81683624D01*
X140856488Y-81653927D01*
X140881258Y-81649000D01*
X141058742Y-81649000D01*
X141083512Y-81653927D01*
G37*
G36*
X113143512Y-81653927D02*
G01*
X113292812Y-81683624D01*
X113456784Y-81751544D01*
X113604354Y-81850147D01*
X113729853Y-81975646D01*
X113828456Y-82123216D01*
X113896376Y-82287188D01*
X113931000Y-82461259D01*
X113931000Y-82638741D01*
X113896376Y-82812812D01*
X113828456Y-82976784D01*
X113729853Y-83124354D01*
X113604354Y-83249853D01*
X113456784Y-83348456D01*
X113292812Y-83416376D01*
X113143512Y-83446073D01*
X113118742Y-83451000D01*
X112941258Y-83451000D01*
X112916488Y-83446073D01*
X112767188Y-83416376D01*
X112603216Y-83348456D01*
X112455646Y-83249853D01*
X112330147Y-83124354D01*
X112231544Y-82976784D01*
X112163624Y-82812812D01*
X112129000Y-82638741D01*
X112129000Y-82461259D01*
X112163624Y-82287188D01*
X112231544Y-82123216D01*
X112330147Y-81975646D01*
X112455646Y-81850147D01*
X112603216Y-81751544D01*
X112767188Y-81683624D01*
X112916488Y-81653927D01*
X112941258Y-81649000D01*
X113118742Y-81649000D01*
X113143512Y-81653927D01*
G37*
G36*
X153778254Y-77072818D02*
G01*
X154151511Y-77227426D01*
X154151513Y-77227427D01*
X154487436Y-77451884D01*
X154773116Y-77737564D01*
X154879504Y-77896784D01*
X154997574Y-78073489D01*
X155152182Y-78446746D01*
X155231000Y-78842993D01*
X155231000Y-79247007D01*
X155152182Y-79643254D01*
X154997574Y-80016511D01*
X154997573Y-80016513D01*
X154773116Y-80352436D01*
X154487436Y-80638116D01*
X154151513Y-80862573D01*
X154151512Y-80862574D01*
X154151511Y-80862574D01*
X153778254Y-81017182D01*
X153382007Y-81096000D01*
X152977993Y-81096000D01*
X152581746Y-81017182D01*
X152208489Y-80862574D01*
X152208488Y-80862574D01*
X152208487Y-80862573D01*
X151872564Y-80638116D01*
X151586884Y-80352436D01*
X151362427Y-80016513D01*
X151362426Y-80016511D01*
X151207818Y-79643254D01*
X151129000Y-79247007D01*
X151129000Y-78842993D01*
X151207818Y-78446746D01*
X151362426Y-78073489D01*
X151480497Y-77896784D01*
X151586884Y-77737564D01*
X151872564Y-77451884D01*
X152208487Y-77227427D01*
X152208489Y-77227426D01*
X152581746Y-77072818D01*
X152977993Y-76994000D01*
X153382007Y-76994000D01*
X153778254Y-77072818D01*
G37*
G36*
X113143512Y-79113927D02*
G01*
X113292812Y-79143624D01*
X113456784Y-79211544D01*
X113604354Y-79310147D01*
X113729853Y-79435646D01*
X113828456Y-79583216D01*
X113896376Y-79747188D01*
X113931000Y-79921259D01*
X113931000Y-80098741D01*
X113896376Y-80272812D01*
X113828456Y-80436784D01*
X113729853Y-80584354D01*
X113604354Y-80709853D01*
X113456784Y-80808456D01*
X113292812Y-80876376D01*
X113143512Y-80906073D01*
X113118742Y-80911000D01*
X112941258Y-80911000D01*
X112916488Y-80906073D01*
X112767188Y-80876376D01*
X112603216Y-80808456D01*
X112455646Y-80709853D01*
X112330147Y-80584354D01*
X112231544Y-80436784D01*
X112163624Y-80272812D01*
X112129000Y-80098741D01*
X112129000Y-79921259D01*
X112163624Y-79747188D01*
X112231544Y-79583216D01*
X112330147Y-79435646D01*
X112455646Y-79310147D01*
X112603216Y-79211544D01*
X112767188Y-79143624D01*
X112916488Y-79113927D01*
X112941258Y-79109000D01*
X113118742Y-79109000D01*
X113143512Y-79113927D01*
G37*
G36*
X115683512Y-79113927D02*
G01*
X115832812Y-79143624D01*
X115996784Y-79211544D01*
X116144354Y-79310147D01*
X116269853Y-79435646D01*
X116368456Y-79583216D01*
X116436376Y-79747188D01*
X116471000Y-79921259D01*
X116471000Y-80098741D01*
X116436376Y-80272812D01*
X116368456Y-80436784D01*
X116269853Y-80584354D01*
X116144354Y-80709853D01*
X115996784Y-80808456D01*
X115832812Y-80876376D01*
X115683512Y-80906073D01*
X115658742Y-80911000D01*
X115481258Y-80911000D01*
X115456488Y-80906073D01*
X115307188Y-80876376D01*
X115143216Y-80808456D01*
X114995646Y-80709853D01*
X114870147Y-80584354D01*
X114771544Y-80436784D01*
X114703624Y-80272812D01*
X114669000Y-80098741D01*
X114669000Y-79921259D01*
X114703624Y-79747188D01*
X114771544Y-79583216D01*
X114870147Y-79435646D01*
X114995646Y-79310147D01*
X115143216Y-79211544D01*
X115307188Y-79143624D01*
X115456488Y-79113927D01*
X115481258Y-79109000D01*
X115658742Y-79109000D01*
X115683512Y-79113927D01*
G37*
G36*
X141083512Y-79113927D02*
G01*
X141232812Y-79143624D01*
X141396784Y-79211544D01*
X141544354Y-79310147D01*
X141669853Y-79435646D01*
X141768456Y-79583216D01*
X141836376Y-79747188D01*
X141871000Y-79921259D01*
X141871000Y-80098741D01*
X141836376Y-80272812D01*
X141768456Y-80436784D01*
X141669853Y-80584354D01*
X141544354Y-80709853D01*
X141396784Y-80808456D01*
X141232812Y-80876376D01*
X141083512Y-80906073D01*
X141058742Y-80911000D01*
X140881258Y-80911000D01*
X140856488Y-80906073D01*
X140707188Y-80876376D01*
X140543216Y-80808456D01*
X140395646Y-80709853D01*
X140270147Y-80584354D01*
X140171544Y-80436784D01*
X140103624Y-80272812D01*
X140069000Y-80098741D01*
X140069000Y-79921259D01*
X140103624Y-79747188D01*
X140171544Y-79583216D01*
X140270147Y-79435646D01*
X140395646Y-79310147D01*
X140543216Y-79211544D01*
X140707188Y-79143624D01*
X140856488Y-79113927D01*
X140881258Y-79109000D01*
X141058742Y-79109000D01*
X141083512Y-79113927D01*
G37*
G36*
X138543512Y-79113927D02*
G01*
X138692812Y-79143624D01*
X138856784Y-79211544D01*
X139004354Y-79310147D01*
X139129853Y-79435646D01*
X139228456Y-79583216D01*
X139296376Y-79747188D01*
X139331000Y-79921259D01*
X139331000Y-80098741D01*
X139296376Y-80272812D01*
X139228456Y-80436784D01*
X139129853Y-80584354D01*
X139004354Y-80709853D01*
X138856784Y-80808456D01*
X138692812Y-80876376D01*
X138543512Y-80906073D01*
X138518742Y-80911000D01*
X138341258Y-80911000D01*
X138316488Y-80906073D01*
X138167188Y-80876376D01*
X138003216Y-80808456D01*
X137855646Y-80709853D01*
X137730147Y-80584354D01*
X137631544Y-80436784D01*
X137563624Y-80272812D01*
X137529000Y-80098741D01*
X137529000Y-79921259D01*
X137563624Y-79747188D01*
X137631544Y-79583216D01*
X137730147Y-79435646D01*
X137855646Y-79310147D01*
X138003216Y-79211544D01*
X138167188Y-79143624D01*
X138316488Y-79113927D01*
X138341258Y-79109000D01*
X138518742Y-79109000D01*
X138543512Y-79113927D01*
G37*
G36*
X141083512Y-76573927D02*
G01*
X141232812Y-76603624D01*
X141396784Y-76671544D01*
X141544354Y-76770147D01*
X141669853Y-76895646D01*
X141768456Y-77043216D01*
X141836376Y-77207188D01*
X141871000Y-77381259D01*
X141871000Y-77558741D01*
X141836376Y-77732812D01*
X141768456Y-77896784D01*
X141669853Y-78044354D01*
X141544354Y-78169853D01*
X141396784Y-78268456D01*
X141232812Y-78336376D01*
X141083512Y-78366073D01*
X141058742Y-78371000D01*
X140881258Y-78371000D01*
X140856488Y-78366073D01*
X140707188Y-78336376D01*
X140543216Y-78268456D01*
X140395646Y-78169853D01*
X140270147Y-78044354D01*
X140171544Y-77896784D01*
X140103624Y-77732812D01*
X140069000Y-77558741D01*
X140069000Y-77381259D01*
X140103624Y-77207188D01*
X140171544Y-77043216D01*
X140270147Y-76895646D01*
X140395646Y-76770147D01*
X140543216Y-76671544D01*
X140707188Y-76603624D01*
X140856488Y-76573927D01*
X140881258Y-76569000D01*
X141058742Y-76569000D01*
X141083512Y-76573927D01*
G37*
G36*
X113143512Y-76573927D02*
G01*
X113292812Y-76603624D01*
X113456784Y-76671544D01*
X113604354Y-76770147D01*
X113729853Y-76895646D01*
X113828456Y-77043216D01*
X113896376Y-77207188D01*
X113931000Y-77381259D01*
X113931000Y-77558741D01*
X113896376Y-77732812D01*
X113828456Y-77896784D01*
X113729853Y-78044354D01*
X113604354Y-78169853D01*
X113456784Y-78268456D01*
X113292812Y-78336376D01*
X113143512Y-78366073D01*
X113118742Y-78371000D01*
X112941258Y-78371000D01*
X112916488Y-78366073D01*
X112767188Y-78336376D01*
X112603216Y-78268456D01*
X112455646Y-78169853D01*
X112330147Y-78044354D01*
X112231544Y-77896784D01*
X112163624Y-77732812D01*
X112129000Y-77558741D01*
X112129000Y-77381259D01*
X112163624Y-77207188D01*
X112231544Y-77043216D01*
X112330147Y-76895646D01*
X112455646Y-76770147D01*
X112603216Y-76671544D01*
X112767188Y-76603624D01*
X112916488Y-76573927D01*
X112941258Y-76569000D01*
X113118742Y-76569000D01*
X113143512Y-76573927D01*
G37*
G36*
X115683512Y-76573927D02*
G01*
X115832812Y-76603624D01*
X115996784Y-76671544D01*
X116144354Y-76770147D01*
X116269853Y-76895646D01*
X116368456Y-77043216D01*
X116436376Y-77207188D01*
X116471000Y-77381259D01*
X116471000Y-77558741D01*
X116436376Y-77732812D01*
X116368456Y-77896784D01*
X116269853Y-78044354D01*
X116144354Y-78169853D01*
X115996784Y-78268456D01*
X115832812Y-78336376D01*
X115683512Y-78366073D01*
X115658742Y-78371000D01*
X115481258Y-78371000D01*
X115456488Y-78366073D01*
X115307188Y-78336376D01*
X115143216Y-78268456D01*
X114995646Y-78169853D01*
X114870147Y-78044354D01*
X114771544Y-77896784D01*
X114703624Y-77732812D01*
X114669000Y-77558741D01*
X114669000Y-77381259D01*
X114703624Y-77207188D01*
X114771544Y-77043216D01*
X114870147Y-76895646D01*
X114995646Y-76770147D01*
X115143216Y-76671544D01*
X115307188Y-76603624D01*
X115456488Y-76573927D01*
X115481258Y-76569000D01*
X115658742Y-76569000D01*
X115683512Y-76573927D01*
G37*
G36*
X138543512Y-76573927D02*
G01*
X138692812Y-76603624D01*
X138856784Y-76671544D01*
X139004354Y-76770147D01*
X139129853Y-76895646D01*
X139228456Y-77043216D01*
X139296376Y-77207188D01*
X139331000Y-77381259D01*
X139331000Y-77558741D01*
X139296376Y-77732812D01*
X139228456Y-77896784D01*
X139129853Y-78044354D01*
X139004354Y-78169853D01*
X138856784Y-78268456D01*
X138692812Y-78336376D01*
X138543512Y-78366073D01*
X138518742Y-78371000D01*
X138341258Y-78371000D01*
X138316488Y-78366073D01*
X138167188Y-78336376D01*
X138003216Y-78268456D01*
X137855646Y-78169853D01*
X137730147Y-78044354D01*
X137631544Y-77896784D01*
X137563624Y-77732812D01*
X137529000Y-77558741D01*
X137529000Y-77381259D01*
X137563624Y-77207188D01*
X137631544Y-77043216D01*
X137730147Y-76895646D01*
X137855646Y-76770147D01*
X138003216Y-76671544D01*
X138167188Y-76603624D01*
X138316488Y-76573927D01*
X138341258Y-76569000D01*
X138518742Y-76569000D01*
X138543512Y-76573927D01*
G37*
G36*
X138543512Y-74033927D02*
G01*
X138692812Y-74063624D01*
X138856784Y-74131544D01*
X139004354Y-74230147D01*
X139129853Y-74355646D01*
X139228456Y-74503216D01*
X139296376Y-74667188D01*
X139331000Y-74841259D01*
X139331000Y-75018741D01*
X139296376Y-75192812D01*
X139228456Y-75356784D01*
X139129853Y-75504354D01*
X139004354Y-75629853D01*
X138856784Y-75728456D01*
X138692812Y-75796376D01*
X138543512Y-75826073D01*
X138518742Y-75831000D01*
X138341258Y-75831000D01*
X138316488Y-75826073D01*
X138167188Y-75796376D01*
X138003216Y-75728456D01*
X137855646Y-75629853D01*
X137730147Y-75504354D01*
X137631544Y-75356784D01*
X137563624Y-75192812D01*
X137529000Y-75018741D01*
X137529000Y-74841259D01*
X137563624Y-74667188D01*
X137631544Y-74503216D01*
X137730147Y-74355646D01*
X137855646Y-74230147D01*
X138003216Y-74131544D01*
X138167188Y-74063624D01*
X138316488Y-74033927D01*
X138341258Y-74029000D01*
X138518742Y-74029000D01*
X138543512Y-74033927D01*
G37*
G36*
X115683512Y-74033927D02*
G01*
X115832812Y-74063624D01*
X115996784Y-74131544D01*
X116144354Y-74230147D01*
X116269853Y-74355646D01*
X116368456Y-74503216D01*
X116436376Y-74667188D01*
X116471000Y-74841259D01*
X116471000Y-75018741D01*
X116436376Y-75192812D01*
X116368456Y-75356784D01*
X116269853Y-75504354D01*
X116144354Y-75629853D01*
X115996784Y-75728456D01*
X115832812Y-75796376D01*
X115683512Y-75826073D01*
X115658742Y-75831000D01*
X115481258Y-75831000D01*
X115456488Y-75826073D01*
X115307188Y-75796376D01*
X115143216Y-75728456D01*
X114995646Y-75629853D01*
X114870147Y-75504354D01*
X114771544Y-75356784D01*
X114703624Y-75192812D01*
X114669000Y-75018741D01*
X114669000Y-74841259D01*
X114703624Y-74667188D01*
X114771544Y-74503216D01*
X114870147Y-74355646D01*
X114995646Y-74230147D01*
X115143216Y-74131544D01*
X115307188Y-74063624D01*
X115456488Y-74033927D01*
X115481258Y-74029000D01*
X115658742Y-74029000D01*
X115683512Y-74033927D01*
G37*
G36*
X141083512Y-74033927D02*
G01*
X141232812Y-74063624D01*
X141396784Y-74131544D01*
X141544354Y-74230147D01*
X141669853Y-74355646D01*
X141768456Y-74503216D01*
X141836376Y-74667188D01*
X141871000Y-74841259D01*
X141871000Y-75018741D01*
X141836376Y-75192812D01*
X141768456Y-75356784D01*
X141669853Y-75504354D01*
X141544354Y-75629853D01*
X141396784Y-75728456D01*
X141232812Y-75796376D01*
X141083512Y-75826073D01*
X141058742Y-75831000D01*
X140881258Y-75831000D01*
X140856488Y-75826073D01*
X140707188Y-75796376D01*
X140543216Y-75728456D01*
X140395646Y-75629853D01*
X140270147Y-75504354D01*
X140171544Y-75356784D01*
X140103624Y-75192812D01*
X140069000Y-75018741D01*
X140069000Y-74841259D01*
X140103624Y-74667188D01*
X140171544Y-74503216D01*
X140270147Y-74355646D01*
X140395646Y-74230147D01*
X140543216Y-74131544D01*
X140707188Y-74063624D01*
X140856488Y-74033927D01*
X140881258Y-74029000D01*
X141058742Y-74029000D01*
X141083512Y-74033927D01*
G37*
G36*
X113143512Y-74033927D02*
G01*
X113292812Y-74063624D01*
X113456784Y-74131544D01*
X113604354Y-74230147D01*
X113729853Y-74355646D01*
X113828456Y-74503216D01*
X113896376Y-74667188D01*
X113931000Y-74841259D01*
X113931000Y-75018741D01*
X113896376Y-75192812D01*
X113828456Y-75356784D01*
X113729853Y-75504354D01*
X113604354Y-75629853D01*
X113456784Y-75728456D01*
X113292812Y-75796376D01*
X113143512Y-75826073D01*
X113118742Y-75831000D01*
X112941258Y-75831000D01*
X112916488Y-75826073D01*
X112767188Y-75796376D01*
X112603216Y-75728456D01*
X112455646Y-75629853D01*
X112330147Y-75504354D01*
X112231544Y-75356784D01*
X112163624Y-75192812D01*
X112129000Y-75018741D01*
X112129000Y-74841259D01*
X112163624Y-74667188D01*
X112231544Y-74503216D01*
X112330147Y-74355646D01*
X112455646Y-74230147D01*
X112603216Y-74131544D01*
X112767188Y-74063624D01*
X112916488Y-74033927D01*
X112941258Y-74029000D01*
X113118742Y-74029000D01*
X113143512Y-74033927D01*
G37*
G36*
X138543512Y-71493927D02*
G01*
X138692812Y-71523624D01*
X138856784Y-71591544D01*
X139004354Y-71690147D01*
X139129853Y-71815646D01*
X139228456Y-71963216D01*
X139296376Y-72127188D01*
X139331000Y-72301259D01*
X139331000Y-72478741D01*
X139296376Y-72652812D01*
X139228456Y-72816784D01*
X139129853Y-72964354D01*
X139004354Y-73089853D01*
X138856784Y-73188456D01*
X138692812Y-73256376D01*
X138543512Y-73286073D01*
X138518742Y-73291000D01*
X138341258Y-73291000D01*
X138316488Y-73286073D01*
X138167188Y-73256376D01*
X138003216Y-73188456D01*
X137855646Y-73089853D01*
X137730147Y-72964354D01*
X137631544Y-72816784D01*
X137563624Y-72652812D01*
X137529000Y-72478741D01*
X137529000Y-72301259D01*
X137563624Y-72127188D01*
X137631544Y-71963216D01*
X137730147Y-71815646D01*
X137855646Y-71690147D01*
X138003216Y-71591544D01*
X138167188Y-71523624D01*
X138316488Y-71493927D01*
X138341258Y-71489000D01*
X138518742Y-71489000D01*
X138543512Y-71493927D01*
G37*
G36*
X113143512Y-71493927D02*
G01*
X113292812Y-71523624D01*
X113456784Y-71591544D01*
X113604354Y-71690147D01*
X113729853Y-71815646D01*
X113828456Y-71963216D01*
X113896376Y-72127188D01*
X113931000Y-72301259D01*
X113931000Y-72478741D01*
X113896376Y-72652812D01*
X113828456Y-72816784D01*
X113729853Y-72964354D01*
X113604354Y-73089853D01*
X113456784Y-73188456D01*
X113292812Y-73256376D01*
X113143512Y-73286073D01*
X113118742Y-73291000D01*
X112941258Y-73291000D01*
X112916488Y-73286073D01*
X112767188Y-73256376D01*
X112603216Y-73188456D01*
X112455646Y-73089853D01*
X112330147Y-72964354D01*
X112231544Y-72816784D01*
X112163624Y-72652812D01*
X112129000Y-72478741D01*
X112129000Y-72301259D01*
X112163624Y-72127188D01*
X112231544Y-71963216D01*
X112330147Y-71815646D01*
X112455646Y-71690147D01*
X112603216Y-71591544D01*
X112767188Y-71523624D01*
X112916488Y-71493927D01*
X112941258Y-71489000D01*
X113118742Y-71489000D01*
X113143512Y-71493927D01*
G37*
G36*
X115683512Y-71493927D02*
G01*
X115832812Y-71523624D01*
X115996784Y-71591544D01*
X116144354Y-71690147D01*
X116269853Y-71815646D01*
X116368456Y-71963216D01*
X116436376Y-72127188D01*
X116471000Y-72301259D01*
X116471000Y-72478741D01*
X116436376Y-72652812D01*
X116368456Y-72816784D01*
X116269853Y-72964354D01*
X116144354Y-73089853D01*
X115996784Y-73188456D01*
X115832812Y-73256376D01*
X115683512Y-73286073D01*
X115658742Y-73291000D01*
X115481258Y-73291000D01*
X115456488Y-73286073D01*
X115307188Y-73256376D01*
X115143216Y-73188456D01*
X114995646Y-73089853D01*
X114870147Y-72964354D01*
X114771544Y-72816784D01*
X114703624Y-72652812D01*
X114669000Y-72478741D01*
X114669000Y-72301259D01*
X114703624Y-72127188D01*
X114771544Y-71963216D01*
X114870147Y-71815646D01*
X114995646Y-71690147D01*
X115143216Y-71591544D01*
X115307188Y-71523624D01*
X115456488Y-71493927D01*
X115481258Y-71489000D01*
X115658742Y-71489000D01*
X115683512Y-71493927D01*
G37*
G36*
X141083512Y-71493927D02*
G01*
X141232812Y-71523624D01*
X141396784Y-71591544D01*
X141544354Y-71690147D01*
X141669853Y-71815646D01*
X141768456Y-71963216D01*
X141836376Y-72127188D01*
X141871000Y-72301259D01*
X141871000Y-72478741D01*
X141836376Y-72652812D01*
X141768456Y-72816784D01*
X141669853Y-72964354D01*
X141544354Y-73089853D01*
X141396784Y-73188456D01*
X141232812Y-73256376D01*
X141083512Y-73286073D01*
X141058742Y-73291000D01*
X140881258Y-73291000D01*
X140856488Y-73286073D01*
X140707188Y-73256376D01*
X140543216Y-73188456D01*
X140395646Y-73089853D01*
X140270147Y-72964354D01*
X140171544Y-72816784D01*
X140103624Y-72652812D01*
X140069000Y-72478741D01*
X140069000Y-72301259D01*
X140103624Y-72127188D01*
X140171544Y-71963216D01*
X140270147Y-71815646D01*
X140395646Y-71690147D01*
X140543216Y-71591544D01*
X140707188Y-71523624D01*
X140856488Y-71493927D01*
X140881258Y-71489000D01*
X141058742Y-71489000D01*
X141083512Y-71493927D01*
G37*
G36*
X155338228Y-70571703D02*
G01*
X155493100Y-70635853D01*
X155632481Y-70728985D01*
X155751015Y-70847519D01*
X155844147Y-70986900D01*
X155908297Y-71141772D01*
X155941000Y-71306184D01*
X155941000Y-71473816D01*
X155908297Y-71638228D01*
X155844147Y-71793100D01*
X155751015Y-71932481D01*
X155632481Y-72051015D01*
X155493100Y-72144147D01*
X155338228Y-72208297D01*
X155173816Y-72241000D01*
X155006184Y-72241000D01*
X154841772Y-72208297D01*
X154686900Y-72144147D01*
X154547519Y-72051015D01*
X154428985Y-71932481D01*
X154335853Y-71793100D01*
X154271703Y-71638228D01*
X154239000Y-71473816D01*
X154239000Y-71306184D01*
X154271703Y-71141772D01*
X154335853Y-70986900D01*
X154428985Y-70847519D01*
X154547519Y-70728985D01*
X154686900Y-70635853D01*
X154841772Y-70571703D01*
X155006184Y-70539000D01*
X155173816Y-70539000D01*
X155338228Y-70571703D01*
G37*
G36*
X151378228Y-70571703D02*
G01*
X151533100Y-70635853D01*
X151672481Y-70728985D01*
X151791015Y-70847519D01*
X151884147Y-70986900D01*
X151948297Y-71141772D01*
X151981000Y-71306184D01*
X151981000Y-71473816D01*
X151948297Y-71638228D01*
X151884147Y-71793100D01*
X151791015Y-71932481D01*
X151672481Y-72051015D01*
X151533100Y-72144147D01*
X151378228Y-72208297D01*
X151213816Y-72241000D01*
X151046184Y-72241000D01*
X150881772Y-72208297D01*
X150726900Y-72144147D01*
X150587519Y-72051015D01*
X150468985Y-71932481D01*
X150375853Y-71793100D01*
X150311703Y-71638228D01*
X150279000Y-71473816D01*
X150279000Y-71306184D01*
X150311703Y-71141772D01*
X150375853Y-70986900D01*
X150468985Y-70847519D01*
X150587519Y-70728985D01*
X150726900Y-70635853D01*
X150881772Y-70571703D01*
X151046184Y-70539000D01*
X151213816Y-70539000D01*
X151378228Y-70571703D01*
G37*
G36*
X153358228Y-69426703D02*
G01*
X153513100Y-69490853D01*
X153652481Y-69583985D01*
X153771015Y-69702519D01*
X153864147Y-69841900D01*
X153928297Y-69996772D01*
X153961000Y-70161184D01*
X153961000Y-70328816D01*
X153928297Y-70493228D01*
X153864147Y-70648100D01*
X153771015Y-70787481D01*
X153652481Y-70906015D01*
X153513100Y-70999147D01*
X153358228Y-71063297D01*
X153193816Y-71096000D01*
X153026184Y-71096000D01*
X152861772Y-71063297D01*
X152706900Y-70999147D01*
X152567519Y-70906015D01*
X152448985Y-70787481D01*
X152355853Y-70648100D01*
X152291703Y-70493228D01*
X152259000Y-70328816D01*
X152259000Y-70161184D01*
X152291703Y-69996772D01*
X152355853Y-69841900D01*
X152448985Y-69702519D01*
X152567519Y-69583985D01*
X152706900Y-69490853D01*
X152861772Y-69426703D01*
X153026184Y-69394000D01*
X153193816Y-69394000D01*
X153358228Y-69426703D01*
G37*
G36*
X115683512Y-68953927D02*
G01*
X115832812Y-68983624D01*
X115996784Y-69051544D01*
X116144354Y-69150147D01*
X116269853Y-69275646D01*
X116368456Y-69423216D01*
X116436376Y-69587188D01*
X116459316Y-69702519D01*
X116470952Y-69761015D01*
X116471000Y-69761259D01*
X116471000Y-69938741D01*
X116436376Y-70112812D01*
X116368456Y-70276784D01*
X116269853Y-70424354D01*
X116144354Y-70549853D01*
X115996784Y-70648456D01*
X115832812Y-70716376D01*
X115683512Y-70746073D01*
X115658742Y-70751000D01*
X115481258Y-70751000D01*
X115456488Y-70746073D01*
X115307188Y-70716376D01*
X115143216Y-70648456D01*
X114995646Y-70549853D01*
X114870147Y-70424354D01*
X114771544Y-70276784D01*
X114703624Y-70112812D01*
X114669000Y-69938741D01*
X114669000Y-69761259D01*
X114669049Y-69761015D01*
X114680684Y-69702519D01*
X114703624Y-69587188D01*
X114771544Y-69423216D01*
X114870147Y-69275646D01*
X114995646Y-69150147D01*
X115143216Y-69051544D01*
X115307188Y-68983624D01*
X115456488Y-68953927D01*
X115481258Y-68949000D01*
X115658742Y-68949000D01*
X115683512Y-68953927D01*
G37*
G36*
X113143512Y-68953927D02*
G01*
X113292812Y-68983624D01*
X113456784Y-69051544D01*
X113604354Y-69150147D01*
X113729853Y-69275646D01*
X113828456Y-69423216D01*
X113896376Y-69587188D01*
X113919316Y-69702519D01*
X113930952Y-69761015D01*
X113931000Y-69761259D01*
X113931000Y-69938741D01*
X113896376Y-70112812D01*
X113828456Y-70276784D01*
X113729853Y-70424354D01*
X113604354Y-70549853D01*
X113456784Y-70648456D01*
X113292812Y-70716376D01*
X113143512Y-70746073D01*
X113118742Y-70751000D01*
X112941258Y-70751000D01*
X112916488Y-70746073D01*
X112767188Y-70716376D01*
X112603216Y-70648456D01*
X112455646Y-70549853D01*
X112330147Y-70424354D01*
X112231544Y-70276784D01*
X112163624Y-70112812D01*
X112129000Y-69938741D01*
X112129000Y-69761259D01*
X112129049Y-69761015D01*
X112140684Y-69702519D01*
X112163624Y-69587188D01*
X112231544Y-69423216D01*
X112330147Y-69275646D01*
X112455646Y-69150147D01*
X112603216Y-69051544D01*
X112767188Y-68983624D01*
X112916488Y-68953927D01*
X112941258Y-68949000D01*
X113118742Y-68949000D01*
X113143512Y-68953927D01*
G37*
G36*
X138543512Y-68953927D02*
G01*
X138692812Y-68983624D01*
X138856784Y-69051544D01*
X139004354Y-69150147D01*
X139129853Y-69275646D01*
X139228456Y-69423216D01*
X139296376Y-69587188D01*
X139319316Y-69702519D01*
X139330952Y-69761015D01*
X139331000Y-69761259D01*
X139331000Y-69938741D01*
X139296376Y-70112812D01*
X139228456Y-70276784D01*
X139129853Y-70424354D01*
X139004354Y-70549853D01*
X138856784Y-70648456D01*
X138692812Y-70716376D01*
X138543512Y-70746073D01*
X138518742Y-70751000D01*
X138341258Y-70751000D01*
X138316488Y-70746073D01*
X138167188Y-70716376D01*
X138003216Y-70648456D01*
X137855646Y-70549853D01*
X137730147Y-70424354D01*
X137631544Y-70276784D01*
X137563624Y-70112812D01*
X137529000Y-69938741D01*
X137529000Y-69761259D01*
X137529049Y-69761015D01*
X137540684Y-69702519D01*
X137563624Y-69587188D01*
X137631544Y-69423216D01*
X137730147Y-69275646D01*
X137855646Y-69150147D01*
X138003216Y-69051544D01*
X138167188Y-68983624D01*
X138316488Y-68953927D01*
X138341258Y-68949000D01*
X138518742Y-68949000D01*
X138543512Y-68953927D01*
G37*
G36*
X141083512Y-68953927D02*
G01*
X141232812Y-68983624D01*
X141396784Y-69051544D01*
X141544354Y-69150147D01*
X141669853Y-69275646D01*
X141768456Y-69423216D01*
X141836376Y-69587188D01*
X141859316Y-69702519D01*
X141870952Y-69761015D01*
X141871000Y-69761259D01*
X141871000Y-69938741D01*
X141836376Y-70112812D01*
X141768456Y-70276784D01*
X141669853Y-70424354D01*
X141544354Y-70549853D01*
X141396784Y-70648456D01*
X141232812Y-70716376D01*
X141083512Y-70746073D01*
X141058742Y-70751000D01*
X140881258Y-70751000D01*
X140856488Y-70746073D01*
X140707188Y-70716376D01*
X140543216Y-70648456D01*
X140395646Y-70549853D01*
X140270147Y-70424354D01*
X140171544Y-70276784D01*
X140103624Y-70112812D01*
X140069000Y-69938741D01*
X140069000Y-69761259D01*
X140069049Y-69761015D01*
X140080684Y-69702519D01*
X140103624Y-69587188D01*
X140171544Y-69423216D01*
X140270147Y-69275646D01*
X140395646Y-69150147D01*
X140543216Y-69051544D01*
X140707188Y-68983624D01*
X140856488Y-68953927D01*
X140881258Y-68949000D01*
X141058742Y-68949000D01*
X141083512Y-68953927D01*
G37*
G36*
X155338228Y-68281703D02*
G01*
X155493100Y-68345853D01*
X155632481Y-68438985D01*
X155751015Y-68557519D01*
X155844147Y-68696900D01*
X155908297Y-68851772D01*
X155941000Y-69016184D01*
X155941000Y-69183816D01*
X155908297Y-69348228D01*
X155844147Y-69503100D01*
X155751015Y-69642481D01*
X155632481Y-69761015D01*
X155493100Y-69854147D01*
X155338228Y-69918297D01*
X155173816Y-69951000D01*
X155006184Y-69951000D01*
X154841772Y-69918297D01*
X154686900Y-69854147D01*
X154547519Y-69761015D01*
X154428985Y-69642481D01*
X154335853Y-69503100D01*
X154271703Y-69348228D01*
X154239000Y-69183816D01*
X154239000Y-69016184D01*
X154271703Y-68851772D01*
X154335853Y-68696900D01*
X154428985Y-68557519D01*
X154547519Y-68438985D01*
X154686900Y-68345853D01*
X154841772Y-68281703D01*
X155006184Y-68249000D01*
X155173816Y-68249000D01*
X155338228Y-68281703D01*
G37*
G36*
X151378228Y-68281703D02*
G01*
X151533100Y-68345853D01*
X151672481Y-68438985D01*
X151791015Y-68557519D01*
X151884147Y-68696900D01*
X151948297Y-68851772D01*
X151981000Y-69016184D01*
X151981000Y-69183816D01*
X151948297Y-69348228D01*
X151884147Y-69503100D01*
X151791015Y-69642481D01*
X151672481Y-69761015D01*
X151533100Y-69854147D01*
X151378228Y-69918297D01*
X151213816Y-69951000D01*
X151046184Y-69951000D01*
X150881772Y-69918297D01*
X150726900Y-69854147D01*
X150587519Y-69761015D01*
X150468985Y-69642481D01*
X150375853Y-69503100D01*
X150311703Y-69348228D01*
X150279000Y-69183816D01*
X150279000Y-69016184D01*
X150311703Y-68851772D01*
X150375853Y-68696900D01*
X150468985Y-68557519D01*
X150587519Y-68438985D01*
X150726900Y-68345853D01*
X150881772Y-68281703D01*
X151046184Y-68249000D01*
X151213816Y-68249000D01*
X151378228Y-68281703D01*
G37*
G36*
X153358228Y-67136703D02*
G01*
X153513100Y-67200853D01*
X153652481Y-67293985D01*
X153771015Y-67412519D01*
X153864147Y-67551900D01*
X153928297Y-67706772D01*
X153961000Y-67871184D01*
X153961000Y-68038816D01*
X153928297Y-68203228D01*
X153864147Y-68358100D01*
X153771015Y-68497481D01*
X153652481Y-68616015D01*
X153513100Y-68709147D01*
X153358228Y-68773297D01*
X153193816Y-68806000D01*
X153026184Y-68806000D01*
X152861772Y-68773297D01*
X152706900Y-68709147D01*
X152567519Y-68616015D01*
X152448985Y-68497481D01*
X152355853Y-68358100D01*
X152291703Y-68203228D01*
X152259000Y-68038816D01*
X152259000Y-67871184D01*
X152291703Y-67706772D01*
X152355853Y-67551900D01*
X152448985Y-67412519D01*
X152567519Y-67293985D01*
X152706900Y-67200853D01*
X152861772Y-67136703D01*
X153026184Y-67104000D01*
X153193816Y-67104000D01*
X153358228Y-67136703D01*
G37*
G36*
X115683512Y-66413927D02*
G01*
X115832812Y-66443624D01*
X115996784Y-66511544D01*
X116144354Y-66610147D01*
X116269853Y-66735646D01*
X116368456Y-66883216D01*
X116436376Y-67047188D01*
X116466073Y-67196488D01*
X116471000Y-67221258D01*
X116471000Y-67398742D01*
X116468259Y-67412520D01*
X116436376Y-67572812D01*
X116368456Y-67736784D01*
X116269853Y-67884354D01*
X116144354Y-68009853D01*
X115996784Y-68108456D01*
X115832812Y-68176376D01*
X115697814Y-68203228D01*
X115658742Y-68211000D01*
X115481258Y-68211000D01*
X115442186Y-68203228D01*
X115307188Y-68176376D01*
X115143216Y-68108456D01*
X114995646Y-68009853D01*
X114870147Y-67884354D01*
X114771544Y-67736784D01*
X114703624Y-67572812D01*
X114671741Y-67412520D01*
X114669000Y-67398742D01*
X114669000Y-67221258D01*
X114673927Y-67196488D01*
X114703624Y-67047188D01*
X114771544Y-66883216D01*
X114870147Y-66735646D01*
X114995646Y-66610147D01*
X115143216Y-66511544D01*
X115307188Y-66443624D01*
X115456488Y-66413927D01*
X115481258Y-66409000D01*
X115658742Y-66409000D01*
X115683512Y-66413927D01*
G37*
G36*
X113143512Y-66413927D02*
G01*
X113292812Y-66443624D01*
X113456784Y-66511544D01*
X113604354Y-66610147D01*
X113729853Y-66735646D01*
X113828456Y-66883216D01*
X113896376Y-67047188D01*
X113926073Y-67196488D01*
X113931000Y-67221258D01*
X113931000Y-67398742D01*
X113928259Y-67412520D01*
X113896376Y-67572812D01*
X113828456Y-67736784D01*
X113729853Y-67884354D01*
X113604354Y-68009853D01*
X113456784Y-68108456D01*
X113292812Y-68176376D01*
X113157814Y-68203228D01*
X113118742Y-68211000D01*
X112941258Y-68211000D01*
X112902186Y-68203228D01*
X112767188Y-68176376D01*
X112603216Y-68108456D01*
X112455646Y-68009853D01*
X112330147Y-67884354D01*
X112231544Y-67736784D01*
X112163624Y-67572812D01*
X112131741Y-67412520D01*
X112129000Y-67398742D01*
X112129000Y-67221258D01*
X112133927Y-67196488D01*
X112163624Y-67047188D01*
X112231544Y-66883216D01*
X112330147Y-66735646D01*
X112455646Y-66610147D01*
X112603216Y-66511544D01*
X112767188Y-66443624D01*
X112916488Y-66413927D01*
X112941258Y-66409000D01*
X113118742Y-66409000D01*
X113143512Y-66413927D01*
G37*
G36*
X138543512Y-66413927D02*
G01*
X138692812Y-66443624D01*
X138856784Y-66511544D01*
X139004354Y-66610147D01*
X139129853Y-66735646D01*
X139228456Y-66883216D01*
X139296376Y-67047188D01*
X139326073Y-67196488D01*
X139331000Y-67221258D01*
X139331000Y-67398742D01*
X139328259Y-67412520D01*
X139296376Y-67572812D01*
X139228456Y-67736784D01*
X139129853Y-67884354D01*
X139004354Y-68009853D01*
X138856784Y-68108456D01*
X138692812Y-68176376D01*
X138557814Y-68203228D01*
X138518742Y-68211000D01*
X138341258Y-68211000D01*
X138302186Y-68203228D01*
X138167188Y-68176376D01*
X138003216Y-68108456D01*
X137855646Y-68009853D01*
X137730147Y-67884354D01*
X137631544Y-67736784D01*
X137563624Y-67572812D01*
X137531741Y-67412520D01*
X137529000Y-67398742D01*
X137529000Y-67221258D01*
X137533927Y-67196488D01*
X137563624Y-67047188D01*
X137631544Y-66883216D01*
X137730147Y-66735646D01*
X137855646Y-66610147D01*
X138003216Y-66511544D01*
X138167188Y-66443624D01*
X138316488Y-66413927D01*
X138341258Y-66409000D01*
X138518742Y-66409000D01*
X138543512Y-66413927D01*
G37*
G36*
X141083512Y-66413927D02*
G01*
X141232812Y-66443624D01*
X141396784Y-66511544D01*
X141544354Y-66610147D01*
X141669853Y-66735646D01*
X141768456Y-66883216D01*
X141836376Y-67047188D01*
X141866073Y-67196488D01*
X141871000Y-67221258D01*
X141871000Y-67398742D01*
X141868259Y-67412520D01*
X141836376Y-67572812D01*
X141768456Y-67736784D01*
X141669853Y-67884354D01*
X141544354Y-68009853D01*
X141396784Y-68108456D01*
X141232812Y-68176376D01*
X141097814Y-68203228D01*
X141058742Y-68211000D01*
X140881258Y-68211000D01*
X140842186Y-68203228D01*
X140707188Y-68176376D01*
X140543216Y-68108456D01*
X140395646Y-68009853D01*
X140270147Y-67884354D01*
X140171544Y-67736784D01*
X140103624Y-67572812D01*
X140071741Y-67412520D01*
X140069000Y-67398742D01*
X140069000Y-67221258D01*
X140073927Y-67196488D01*
X140103624Y-67047188D01*
X140171544Y-66883216D01*
X140270147Y-66735646D01*
X140395646Y-66610147D01*
X140543216Y-66511544D01*
X140707188Y-66443624D01*
X140856488Y-66413927D01*
X140881258Y-66409000D01*
X141058742Y-66409000D01*
X141083512Y-66413927D01*
G37*
G36*
X155338228Y-65991703D02*
G01*
X155493100Y-66055853D01*
X155632481Y-66148985D01*
X155751015Y-66267519D01*
X155844147Y-66406900D01*
X155908297Y-66561772D01*
X155941000Y-66726184D01*
X155941000Y-66893816D01*
X155908297Y-67058228D01*
X155844147Y-67213100D01*
X155751015Y-67352481D01*
X155632481Y-67471015D01*
X155493100Y-67564147D01*
X155338228Y-67628297D01*
X155173816Y-67661000D01*
X155006184Y-67661000D01*
X154841772Y-67628297D01*
X154686900Y-67564147D01*
X154547519Y-67471015D01*
X154428985Y-67352481D01*
X154335853Y-67213100D01*
X154271703Y-67058228D01*
X154239000Y-66893816D01*
X154239000Y-66726184D01*
X154271703Y-66561772D01*
X154335853Y-66406900D01*
X154428985Y-66267519D01*
X154547519Y-66148985D01*
X154686900Y-66055853D01*
X154841772Y-65991703D01*
X155006184Y-65959000D01*
X155173816Y-65959000D01*
X155338228Y-65991703D01*
G37*
G36*
X151378228Y-65991703D02*
G01*
X151533100Y-66055853D01*
X151672481Y-66148985D01*
X151791015Y-66267519D01*
X151884147Y-66406900D01*
X151948297Y-66561772D01*
X151981000Y-66726184D01*
X151981000Y-66893816D01*
X151948297Y-67058228D01*
X151884147Y-67213100D01*
X151791015Y-67352481D01*
X151672481Y-67471015D01*
X151533100Y-67564147D01*
X151378228Y-67628297D01*
X151213816Y-67661000D01*
X151046184Y-67661000D01*
X150881772Y-67628297D01*
X150726900Y-67564147D01*
X150587519Y-67471015D01*
X150468985Y-67352481D01*
X150375853Y-67213100D01*
X150311703Y-67058228D01*
X150279000Y-66893816D01*
X150279000Y-66726184D01*
X150311703Y-66561772D01*
X150375853Y-66406900D01*
X150468985Y-66267519D01*
X150587519Y-66148985D01*
X150726900Y-66055853D01*
X150881772Y-65991703D01*
X151046184Y-65959000D01*
X151213816Y-65959000D01*
X151378228Y-65991703D01*
G37*
G36*
X153358228Y-64846703D02*
G01*
X153513100Y-64910853D01*
X153652481Y-65003985D01*
X153771015Y-65122519D01*
X153864147Y-65261900D01*
X153928297Y-65416772D01*
X153961000Y-65581184D01*
X153961000Y-65748816D01*
X153928297Y-65913228D01*
X153864147Y-66068100D01*
X153771015Y-66207481D01*
X153652481Y-66326015D01*
X153513100Y-66419147D01*
X153358228Y-66483297D01*
X153193816Y-66516000D01*
X153026184Y-66516000D01*
X152861772Y-66483297D01*
X152706900Y-66419147D01*
X152567519Y-66326015D01*
X152448985Y-66207481D01*
X152355853Y-66068100D01*
X152291703Y-65913228D01*
X152259000Y-65748816D01*
X152259000Y-65581184D01*
X152291703Y-65416772D01*
X152355853Y-65261900D01*
X152448985Y-65122519D01*
X152567519Y-65003985D01*
X152706900Y-64910853D01*
X152861772Y-64846703D01*
X153026184Y-64814000D01*
X153193816Y-64814000D01*
X153358228Y-64846703D01*
G37*
G36*
X113143512Y-63873927D02*
G01*
X113292812Y-63903624D01*
X113456784Y-63971544D01*
X113604354Y-64070147D01*
X113729853Y-64195646D01*
X113828456Y-64343216D01*
X113896376Y-64507188D01*
X113931000Y-64681259D01*
X113931000Y-64858741D01*
X113896376Y-65032812D01*
X113828456Y-65196784D01*
X113729853Y-65344354D01*
X113604354Y-65469853D01*
X113456784Y-65568456D01*
X113292812Y-65636376D01*
X113143512Y-65666073D01*
X113118742Y-65671000D01*
X112941258Y-65671000D01*
X112916488Y-65666073D01*
X112767188Y-65636376D01*
X112603216Y-65568456D01*
X112455646Y-65469853D01*
X112330147Y-65344354D01*
X112231544Y-65196784D01*
X112163624Y-65032812D01*
X112129000Y-64858741D01*
X112129000Y-64681259D01*
X112163624Y-64507188D01*
X112231544Y-64343216D01*
X112330147Y-64195646D01*
X112455646Y-64070147D01*
X112603216Y-63971544D01*
X112767188Y-63903624D01*
X112916488Y-63873927D01*
X112941258Y-63869000D01*
X113118742Y-63869000D01*
X113143512Y-63873927D01*
G37*
G36*
X141083512Y-63873927D02*
G01*
X141232812Y-63903624D01*
X141396784Y-63971544D01*
X141544354Y-64070147D01*
X141669853Y-64195646D01*
X141768456Y-64343216D01*
X141836376Y-64507188D01*
X141871000Y-64681259D01*
X141871000Y-64858741D01*
X141836376Y-65032812D01*
X141768456Y-65196784D01*
X141669853Y-65344354D01*
X141544354Y-65469853D01*
X141396784Y-65568456D01*
X141232812Y-65636376D01*
X141083512Y-65666073D01*
X141058742Y-65671000D01*
X140881258Y-65671000D01*
X140856488Y-65666073D01*
X140707188Y-65636376D01*
X140543216Y-65568456D01*
X140395646Y-65469853D01*
X140270147Y-65344354D01*
X140171544Y-65196784D01*
X140103624Y-65032812D01*
X140069000Y-64858741D01*
X140069000Y-64681259D01*
X140103624Y-64507188D01*
X140171544Y-64343216D01*
X140270147Y-64195646D01*
X140395646Y-64070147D01*
X140543216Y-63971544D01*
X140707188Y-63903624D01*
X140856488Y-63873927D01*
X140881258Y-63869000D01*
X141058742Y-63869000D01*
X141083512Y-63873927D01*
G37*
G36*
X138543512Y-63873927D02*
G01*
X138692812Y-63903624D01*
X138856784Y-63971544D01*
X139004354Y-64070147D01*
X139129853Y-64195646D01*
X139228456Y-64343216D01*
X139296376Y-64507188D01*
X139331000Y-64681259D01*
X139331000Y-64858741D01*
X139296376Y-65032812D01*
X139228456Y-65196784D01*
X139129853Y-65344354D01*
X139004354Y-65469853D01*
X138856784Y-65568456D01*
X138692812Y-65636376D01*
X138543512Y-65666073D01*
X138518742Y-65671000D01*
X138341258Y-65671000D01*
X138316488Y-65666073D01*
X138167188Y-65636376D01*
X138003216Y-65568456D01*
X137855646Y-65469853D01*
X137730147Y-65344354D01*
X137631544Y-65196784D01*
X137563624Y-65032812D01*
X137529000Y-64858741D01*
X137529000Y-64681259D01*
X137563624Y-64507188D01*
X137631544Y-64343216D01*
X137730147Y-64195646D01*
X137855646Y-64070147D01*
X138003216Y-63971544D01*
X138167188Y-63903624D01*
X138316488Y-63873927D01*
X138341258Y-63869000D01*
X138518742Y-63869000D01*
X138543512Y-63873927D01*
G37*
G36*
X115683512Y-63873927D02*
G01*
X115832812Y-63903624D01*
X115996784Y-63971544D01*
X116144354Y-64070147D01*
X116269853Y-64195646D01*
X116368456Y-64343216D01*
X116436376Y-64507188D01*
X116471000Y-64681259D01*
X116471000Y-64858741D01*
X116436376Y-65032812D01*
X116368456Y-65196784D01*
X116269853Y-65344354D01*
X116144354Y-65469853D01*
X115996784Y-65568456D01*
X115832812Y-65636376D01*
X115683512Y-65666073D01*
X115658742Y-65671000D01*
X115481258Y-65671000D01*
X115456488Y-65666073D01*
X115307188Y-65636376D01*
X115143216Y-65568456D01*
X114995646Y-65469853D01*
X114870147Y-65344354D01*
X114771544Y-65196784D01*
X114703624Y-65032812D01*
X114669000Y-64858741D01*
X114669000Y-64681259D01*
X114703624Y-64507188D01*
X114771544Y-64343216D01*
X114870147Y-64195646D01*
X114995646Y-64070147D01*
X115143216Y-63971544D01*
X115307188Y-63903624D01*
X115456488Y-63873927D01*
X115481258Y-63869000D01*
X115658742Y-63869000D01*
X115683512Y-63873927D01*
G37*
G36*
X155338228Y-63701703D02*
G01*
X155493100Y-63765853D01*
X155632481Y-63858985D01*
X155751015Y-63977519D01*
X155844147Y-64116900D01*
X155908297Y-64271772D01*
X155941000Y-64436184D01*
X155941000Y-64603816D01*
X155908297Y-64768228D01*
X155844147Y-64923100D01*
X155751015Y-65062481D01*
X155632481Y-65181015D01*
X155493100Y-65274147D01*
X155338228Y-65338297D01*
X155173816Y-65371000D01*
X155006184Y-65371000D01*
X154841772Y-65338297D01*
X154686900Y-65274147D01*
X154547519Y-65181015D01*
X154428985Y-65062481D01*
X154335853Y-64923100D01*
X154271703Y-64768228D01*
X154239000Y-64603816D01*
X154239000Y-64436184D01*
X154271703Y-64271772D01*
X154335853Y-64116900D01*
X154428985Y-63977519D01*
X154547519Y-63858985D01*
X154686900Y-63765853D01*
X154841772Y-63701703D01*
X155006184Y-63669000D01*
X155173816Y-63669000D01*
X155338228Y-63701703D01*
G37*
G36*
X151378228Y-63701703D02*
G01*
X151533100Y-63765853D01*
X151672481Y-63858985D01*
X151791015Y-63977519D01*
X151884147Y-64116900D01*
X151948297Y-64271772D01*
X151981000Y-64436184D01*
X151981000Y-64603816D01*
X151948297Y-64768228D01*
X151884147Y-64923100D01*
X151791015Y-65062481D01*
X151672481Y-65181015D01*
X151533100Y-65274147D01*
X151378228Y-65338297D01*
X151213816Y-65371000D01*
X151046184Y-65371000D01*
X150881772Y-65338297D01*
X150726900Y-65274147D01*
X150587519Y-65181015D01*
X150468985Y-65062481D01*
X150375853Y-64923100D01*
X150311703Y-64768228D01*
X150279000Y-64603816D01*
X150279000Y-64436184D01*
X150311703Y-64271772D01*
X150375853Y-64116900D01*
X150468985Y-63977519D01*
X150587519Y-63858985D01*
X150726900Y-63765853D01*
X150881772Y-63701703D01*
X151046184Y-63669000D01*
X151213816Y-63669000D01*
X151378228Y-63701703D01*
G37*
G36*
X153358228Y-62556703D02*
G01*
X153513100Y-62620853D01*
X153652481Y-62713985D01*
X153771015Y-62832519D01*
X153864147Y-62971900D01*
X153928297Y-63126772D01*
X153961000Y-63291184D01*
X153961000Y-63458816D01*
X153928297Y-63623228D01*
X153864147Y-63778100D01*
X153771015Y-63917481D01*
X153652481Y-64036015D01*
X153513100Y-64129147D01*
X153358228Y-64193297D01*
X153193816Y-64226000D01*
X153026184Y-64226000D01*
X152861772Y-64193297D01*
X152706900Y-64129147D01*
X152567519Y-64036015D01*
X152448985Y-63917481D01*
X152355853Y-63778100D01*
X152291703Y-63623228D01*
X152259000Y-63458816D01*
X152259000Y-63291184D01*
X152291703Y-63126772D01*
X152355853Y-62971900D01*
X152448985Y-62832519D01*
X152567519Y-62713985D01*
X152706900Y-62620853D01*
X152861772Y-62556703D01*
X153026184Y-62524000D01*
X153193816Y-62524000D01*
X153358228Y-62556703D01*
G37*
G36*
X138539997Y-61333228D02*
G01*
X138692812Y-61363624D01*
X138856784Y-61431544D01*
X139004354Y-61530147D01*
X139129853Y-61655646D01*
X139228456Y-61803216D01*
X139296376Y-61967188D01*
X139331000Y-62141259D01*
X139331000Y-62318741D01*
X139296376Y-62492812D01*
X139228456Y-62656784D01*
X139129853Y-62804354D01*
X139004354Y-62929853D01*
X138856784Y-63028456D01*
X138692812Y-63096376D01*
X138543512Y-63126073D01*
X138518742Y-63131000D01*
X138341258Y-63131000D01*
X138316488Y-63126073D01*
X138167188Y-63096376D01*
X138003216Y-63028456D01*
X137855646Y-62929853D01*
X137730147Y-62804354D01*
X137631544Y-62656784D01*
X137563624Y-62492812D01*
X137529000Y-62318741D01*
X137529000Y-62141259D01*
X137563624Y-61967188D01*
X137631544Y-61803216D01*
X137730147Y-61655646D01*
X137855646Y-61530147D01*
X138003216Y-61431544D01*
X138167188Y-61363624D01*
X138320003Y-61333228D01*
X138341258Y-61329000D01*
X138518742Y-61329000D01*
X138539997Y-61333228D01*
G37*
G36*
X141079997Y-61333228D02*
G01*
X141232812Y-61363624D01*
X141396784Y-61431544D01*
X141544354Y-61530147D01*
X141669853Y-61655646D01*
X141768456Y-61803216D01*
X141836376Y-61967188D01*
X141871000Y-62141259D01*
X141871000Y-62318741D01*
X141836376Y-62492812D01*
X141768456Y-62656784D01*
X141669853Y-62804354D01*
X141544354Y-62929853D01*
X141396784Y-63028456D01*
X141232812Y-63096376D01*
X141083512Y-63126073D01*
X141058742Y-63131000D01*
X140881258Y-63131000D01*
X140856488Y-63126073D01*
X140707188Y-63096376D01*
X140543216Y-63028456D01*
X140395646Y-62929853D01*
X140270147Y-62804354D01*
X140171544Y-62656784D01*
X140103624Y-62492812D01*
X140069000Y-62318741D01*
X140069000Y-62141259D01*
X140103624Y-61967188D01*
X140171544Y-61803216D01*
X140270147Y-61655646D01*
X140395646Y-61530147D01*
X140543216Y-61431544D01*
X140707188Y-61363624D01*
X140860003Y-61333228D01*
X140881258Y-61329000D01*
X141058742Y-61329000D01*
X141079997Y-61333228D01*
G37*
G36*
X115679997Y-61333228D02*
G01*
X115832812Y-61363624D01*
X115996784Y-61431544D01*
X116144354Y-61530147D01*
X116269853Y-61655646D01*
X116368456Y-61803216D01*
X116436376Y-61967188D01*
X116471000Y-62141259D01*
X116471000Y-62318741D01*
X116436376Y-62492812D01*
X116368456Y-62656784D01*
X116269853Y-62804354D01*
X116144354Y-62929853D01*
X115996784Y-63028456D01*
X115832812Y-63096376D01*
X115683512Y-63126073D01*
X115658742Y-63131000D01*
X115481258Y-63131000D01*
X115456488Y-63126073D01*
X115307188Y-63096376D01*
X115143216Y-63028456D01*
X114995646Y-62929853D01*
X114870147Y-62804354D01*
X114771544Y-62656784D01*
X114703624Y-62492812D01*
X114669000Y-62318741D01*
X114669000Y-62141259D01*
X114703624Y-61967188D01*
X114771544Y-61803216D01*
X114870147Y-61655646D01*
X114995646Y-61530147D01*
X115143216Y-61431544D01*
X115307188Y-61363624D01*
X115460003Y-61333228D01*
X115481258Y-61329000D01*
X115658742Y-61329000D01*
X115679997Y-61333228D01*
G37*
G36*
X113139997Y-61333228D02*
G01*
X113292812Y-61363624D01*
X113456784Y-61431544D01*
X113604354Y-61530147D01*
X113729853Y-61655646D01*
X113828456Y-61803216D01*
X113896376Y-61967188D01*
X113931000Y-62141259D01*
X113931000Y-62318741D01*
X113896376Y-62492812D01*
X113828456Y-62656784D01*
X113729853Y-62804354D01*
X113604354Y-62929853D01*
X113456784Y-63028456D01*
X113292812Y-63096376D01*
X113143512Y-63126073D01*
X113118742Y-63131000D01*
X112941258Y-63131000D01*
X112916488Y-63126073D01*
X112767188Y-63096376D01*
X112603216Y-63028456D01*
X112455646Y-62929853D01*
X112330147Y-62804354D01*
X112231544Y-62656784D01*
X112163624Y-62492812D01*
X112129000Y-62318741D01*
X112129000Y-62141259D01*
X112163624Y-61967188D01*
X112231544Y-61803216D01*
X112330147Y-61655646D01*
X112455646Y-61530147D01*
X112603216Y-61431544D01*
X112767188Y-61363624D01*
X112920003Y-61333228D01*
X112941258Y-61329000D01*
X113118742Y-61329000D01*
X113139997Y-61333228D01*
G37*
G36*
X151981000Y-63081000D02*
G01*
X150279000Y-63081000D01*
X150279000Y-61379000D01*
X151981000Y-61379000D01*
X151981000Y-63081000D01*
G37*
G36*
X155338228Y-61411703D02*
G01*
X155493100Y-61475853D01*
X155632481Y-61568985D01*
X155751015Y-61687519D01*
X155844147Y-61826900D01*
X155908297Y-61981772D01*
X155941000Y-62146184D01*
X155941000Y-62313816D01*
X155908297Y-62478228D01*
X155844147Y-62633100D01*
X155751015Y-62772481D01*
X155632481Y-62891015D01*
X155493100Y-62984147D01*
X155338228Y-63048297D01*
X155173816Y-63081000D01*
X155006184Y-63081000D01*
X154841772Y-63048297D01*
X154686900Y-62984147D01*
X154547519Y-62891015D01*
X154428985Y-62772481D01*
X154335853Y-62633100D01*
X154271703Y-62478228D01*
X154239000Y-62313816D01*
X154239000Y-62146184D01*
X154271703Y-61981772D01*
X154335853Y-61826900D01*
X154428985Y-61687519D01*
X154547519Y-61568985D01*
X154686900Y-61475853D01*
X154841772Y-61411703D01*
X155006184Y-61379000D01*
X155173816Y-61379000D01*
X155338228Y-61411703D01*
G37*
G36*
X153358228Y-60266703D02*
G01*
X153513100Y-60330853D01*
X153652481Y-60423985D01*
X153771015Y-60542519D01*
X153864147Y-60681900D01*
X153928297Y-60836772D01*
X153961000Y-61001184D01*
X153961000Y-61168816D01*
X153928297Y-61333228D01*
X153864147Y-61488100D01*
X153771015Y-61627481D01*
X153652481Y-61746015D01*
X153513100Y-61839147D01*
X153358228Y-61903297D01*
X153193816Y-61936000D01*
X153026184Y-61936000D01*
X152861772Y-61903297D01*
X152706900Y-61839147D01*
X152567519Y-61746015D01*
X152448985Y-61627481D01*
X152355853Y-61488100D01*
X152291703Y-61333228D01*
X152259000Y-61168816D01*
X152259000Y-61001184D01*
X152291703Y-60836772D01*
X152355853Y-60681900D01*
X152448985Y-60542519D01*
X152567519Y-60423985D01*
X152706900Y-60330853D01*
X152861772Y-60266703D01*
X153026184Y-60234000D01*
X153193816Y-60234000D01*
X153358228Y-60266703D01*
G37*
G36*
X113143512Y-58793927D02*
G01*
X113292812Y-58823624D01*
X113456784Y-58891544D01*
X113604354Y-58990147D01*
X113729853Y-59115646D01*
X113828456Y-59263216D01*
X113896376Y-59427188D01*
X113931000Y-59601259D01*
X113931000Y-59778741D01*
X113896376Y-59952812D01*
X113828456Y-60116784D01*
X113729853Y-60264354D01*
X113604354Y-60389853D01*
X113456784Y-60488456D01*
X113292812Y-60556376D01*
X113143512Y-60586073D01*
X113118742Y-60591000D01*
X112941258Y-60591000D01*
X112916488Y-60586073D01*
X112767188Y-60556376D01*
X112603216Y-60488456D01*
X112455646Y-60389853D01*
X112330147Y-60264354D01*
X112231544Y-60116784D01*
X112163624Y-59952812D01*
X112129000Y-59778741D01*
X112129000Y-59601259D01*
X112163624Y-59427188D01*
X112231544Y-59263216D01*
X112330147Y-59115646D01*
X112455646Y-58990147D01*
X112603216Y-58891544D01*
X112767188Y-58823624D01*
X112916488Y-58793927D01*
X112941258Y-58789000D01*
X113118742Y-58789000D01*
X113143512Y-58793927D01*
G37*
G36*
X115683512Y-58793927D02*
G01*
X115832812Y-58823624D01*
X115996784Y-58891544D01*
X116144354Y-58990147D01*
X116269853Y-59115646D01*
X116368456Y-59263216D01*
X116436376Y-59427188D01*
X116471000Y-59601259D01*
X116471000Y-59778741D01*
X116436376Y-59952812D01*
X116368456Y-60116784D01*
X116269853Y-60264354D01*
X116144354Y-60389853D01*
X115996784Y-60488456D01*
X115832812Y-60556376D01*
X115683512Y-60586073D01*
X115658742Y-60591000D01*
X115481258Y-60591000D01*
X115456488Y-60586073D01*
X115307188Y-60556376D01*
X115143216Y-60488456D01*
X114995646Y-60389853D01*
X114870147Y-60264354D01*
X114771544Y-60116784D01*
X114703624Y-59952812D01*
X114669000Y-59778741D01*
X114669000Y-59601259D01*
X114703624Y-59427188D01*
X114771544Y-59263216D01*
X114870147Y-59115646D01*
X114995646Y-58990147D01*
X115143216Y-58891544D01*
X115307188Y-58823624D01*
X115456488Y-58793927D01*
X115481258Y-58789000D01*
X115658742Y-58789000D01*
X115683512Y-58793927D01*
G37*
G36*
X138543512Y-58793927D02*
G01*
X138692812Y-58823624D01*
X138856784Y-58891544D01*
X139004354Y-58990147D01*
X139129853Y-59115646D01*
X139228456Y-59263216D01*
X139296376Y-59427188D01*
X139331000Y-59601259D01*
X139331000Y-59778741D01*
X139296376Y-59952812D01*
X139228456Y-60116784D01*
X139129853Y-60264354D01*
X139004354Y-60389853D01*
X138856784Y-60488456D01*
X138692812Y-60556376D01*
X138543512Y-60586073D01*
X138518742Y-60591000D01*
X138341258Y-60591000D01*
X138316488Y-60586073D01*
X138167188Y-60556376D01*
X138003216Y-60488456D01*
X137855646Y-60389853D01*
X137730147Y-60264354D01*
X137631544Y-60116784D01*
X137563624Y-59952812D01*
X137529000Y-59778741D01*
X137529000Y-59601259D01*
X137563624Y-59427188D01*
X137631544Y-59263216D01*
X137730147Y-59115646D01*
X137855646Y-58990147D01*
X138003216Y-58891544D01*
X138167188Y-58823624D01*
X138316488Y-58793927D01*
X138341258Y-58789000D01*
X138518742Y-58789000D01*
X138543512Y-58793927D01*
G37*
G36*
X141083512Y-58793927D02*
G01*
X141232812Y-58823624D01*
X141396784Y-58891544D01*
X141544354Y-58990147D01*
X141669853Y-59115646D01*
X141768456Y-59263216D01*
X141836376Y-59427188D01*
X141871000Y-59601259D01*
X141871000Y-59778741D01*
X141836376Y-59952812D01*
X141768456Y-60116784D01*
X141669853Y-60264354D01*
X141544354Y-60389853D01*
X141396784Y-60488456D01*
X141232812Y-60556376D01*
X141083512Y-60586073D01*
X141058742Y-60591000D01*
X140881258Y-60591000D01*
X140856488Y-60586073D01*
X140707188Y-60556376D01*
X140543216Y-60488456D01*
X140395646Y-60389853D01*
X140270147Y-60264354D01*
X140171544Y-60116784D01*
X140103624Y-59952812D01*
X140069000Y-59778741D01*
X140069000Y-59601259D01*
X140103624Y-59427188D01*
X140171544Y-59263216D01*
X140270147Y-59115646D01*
X140395646Y-58990147D01*
X140543216Y-58891544D01*
X140707188Y-58823624D01*
X140856488Y-58793927D01*
X140881258Y-58789000D01*
X141058742Y-58789000D01*
X141083512Y-58793927D01*
G37*
G36*
X138543512Y-56253927D02*
G01*
X138692812Y-56283624D01*
X138856784Y-56351544D01*
X139004354Y-56450147D01*
X139129853Y-56575646D01*
X139228456Y-56723216D01*
X139296376Y-56887188D01*
X139331000Y-57061259D01*
X139331000Y-57238741D01*
X139296376Y-57412812D01*
X139228456Y-57576784D01*
X139129853Y-57724354D01*
X139004354Y-57849853D01*
X138856784Y-57948456D01*
X138692812Y-58016376D01*
X138543512Y-58046073D01*
X138518742Y-58051000D01*
X138341258Y-58051000D01*
X138316488Y-58046073D01*
X138167188Y-58016376D01*
X138003216Y-57948456D01*
X137855646Y-57849853D01*
X137730147Y-57724354D01*
X137631544Y-57576784D01*
X137563624Y-57412812D01*
X137529000Y-57238741D01*
X137529000Y-57061259D01*
X137563624Y-56887188D01*
X137631544Y-56723216D01*
X137730147Y-56575646D01*
X137855646Y-56450147D01*
X138003216Y-56351544D01*
X138167188Y-56283624D01*
X138316488Y-56253927D01*
X138341258Y-56249000D01*
X138518742Y-56249000D01*
X138543512Y-56253927D01*
G37*
G36*
X113143512Y-56253927D02*
G01*
X113292812Y-56283624D01*
X113456784Y-56351544D01*
X113604354Y-56450147D01*
X113729853Y-56575646D01*
X113828456Y-56723216D01*
X113896376Y-56887188D01*
X113931000Y-57061259D01*
X113931000Y-57238741D01*
X113896376Y-57412812D01*
X113828456Y-57576784D01*
X113729853Y-57724354D01*
X113604354Y-57849853D01*
X113456784Y-57948456D01*
X113292812Y-58016376D01*
X113143512Y-58046073D01*
X113118742Y-58051000D01*
X112941258Y-58051000D01*
X112916488Y-58046073D01*
X112767188Y-58016376D01*
X112603216Y-57948456D01*
X112455646Y-57849853D01*
X112330147Y-57724354D01*
X112231544Y-57576784D01*
X112163624Y-57412812D01*
X112129000Y-57238741D01*
X112129000Y-57061259D01*
X112163624Y-56887188D01*
X112231544Y-56723216D01*
X112330147Y-56575646D01*
X112455646Y-56450147D01*
X112603216Y-56351544D01*
X112767188Y-56283624D01*
X112916488Y-56253927D01*
X112941258Y-56249000D01*
X113118742Y-56249000D01*
X113143512Y-56253927D01*
G37*
G36*
X141083512Y-56253927D02*
G01*
X141232812Y-56283624D01*
X141396784Y-56351544D01*
X141544354Y-56450147D01*
X141669853Y-56575646D01*
X141768456Y-56723216D01*
X141836376Y-56887188D01*
X141871000Y-57061259D01*
X141871000Y-57238741D01*
X141836376Y-57412812D01*
X141768456Y-57576784D01*
X141669853Y-57724354D01*
X141544354Y-57849853D01*
X141396784Y-57948456D01*
X141232812Y-58016376D01*
X141083512Y-58046073D01*
X141058742Y-58051000D01*
X140881258Y-58051000D01*
X140856488Y-58046073D01*
X140707188Y-58016376D01*
X140543216Y-57948456D01*
X140395646Y-57849853D01*
X140270147Y-57724354D01*
X140171544Y-57576784D01*
X140103624Y-57412812D01*
X140069000Y-57238741D01*
X140069000Y-57061259D01*
X140103624Y-56887188D01*
X140171544Y-56723216D01*
X140270147Y-56575646D01*
X140395646Y-56450147D01*
X140543216Y-56351544D01*
X140707188Y-56283624D01*
X140856488Y-56253927D01*
X140881258Y-56249000D01*
X141058742Y-56249000D01*
X141083512Y-56253927D01*
G37*
G36*
X115683512Y-56253927D02*
G01*
X115832812Y-56283624D01*
X115996784Y-56351544D01*
X116144354Y-56450147D01*
X116269853Y-56575646D01*
X116368456Y-56723216D01*
X116436376Y-56887188D01*
X116471000Y-57061259D01*
X116471000Y-57238741D01*
X116436376Y-57412812D01*
X116368456Y-57576784D01*
X116269853Y-57724354D01*
X116144354Y-57849853D01*
X115996784Y-57948456D01*
X115832812Y-58016376D01*
X115683512Y-58046073D01*
X115658742Y-58051000D01*
X115481258Y-58051000D01*
X115456488Y-58046073D01*
X115307188Y-58016376D01*
X115143216Y-57948456D01*
X114995646Y-57849853D01*
X114870147Y-57724354D01*
X114771544Y-57576784D01*
X114703624Y-57412812D01*
X114669000Y-57238741D01*
X114669000Y-57061259D01*
X114703624Y-56887188D01*
X114771544Y-56723216D01*
X114870147Y-56575646D01*
X114995646Y-56450147D01*
X115143216Y-56351544D01*
X115307188Y-56283624D01*
X115456488Y-56253927D01*
X115481258Y-56249000D01*
X115658742Y-56249000D01*
X115683512Y-56253927D01*
G37*
G36*
X153778254Y-52072818D02*
G01*
X154151511Y-52227426D01*
X154151513Y-52227427D01*
X154487436Y-52451884D01*
X154773116Y-52737564D01*
X154905958Y-52936375D01*
X154997574Y-53073489D01*
X155152182Y-53446746D01*
X155231000Y-53842993D01*
X155231000Y-54247007D01*
X155152182Y-54643254D01*
X155129198Y-54698742D01*
X154997573Y-55016513D01*
X154773116Y-55352436D01*
X154487436Y-55638116D01*
X154151513Y-55862573D01*
X154151512Y-55862574D01*
X154151511Y-55862574D01*
X153778254Y-56017182D01*
X153382007Y-56096000D01*
X152977993Y-56096000D01*
X152581746Y-56017182D01*
X152208489Y-55862574D01*
X152208488Y-55862574D01*
X152208487Y-55862573D01*
X151872564Y-55638116D01*
X151586884Y-55352436D01*
X151362427Y-55016513D01*
X151230802Y-54698742D01*
X151207818Y-54643254D01*
X151129000Y-54247007D01*
X151129000Y-53842993D01*
X151207818Y-53446746D01*
X151362426Y-53073489D01*
X151454043Y-52936375D01*
X151586884Y-52737564D01*
X151872564Y-52451884D01*
X152208487Y-52227427D01*
X152208489Y-52227426D01*
X152581746Y-52072818D01*
X152977993Y-51994000D01*
X153382007Y-51994000D01*
X153778254Y-52072818D01*
G37*
G36*
X138543512Y-53713927D02*
G01*
X138692812Y-53743624D01*
X138856784Y-53811544D01*
X139004354Y-53910147D01*
X139129853Y-54035646D01*
X139228456Y-54183216D01*
X139296376Y-54347188D01*
X139331000Y-54521259D01*
X139331000Y-54698741D01*
X139296376Y-54872812D01*
X139228456Y-55036784D01*
X139129853Y-55184354D01*
X139004354Y-55309853D01*
X138856784Y-55408456D01*
X138692812Y-55476376D01*
X138543512Y-55506073D01*
X138518742Y-55511000D01*
X138341258Y-55511000D01*
X138316488Y-55506073D01*
X138167188Y-55476376D01*
X138003216Y-55408456D01*
X137855646Y-55309853D01*
X137730147Y-55184354D01*
X137631544Y-55036784D01*
X137563624Y-54872812D01*
X137529000Y-54698741D01*
X137529000Y-54521259D01*
X137563624Y-54347188D01*
X137631544Y-54183216D01*
X137730147Y-54035646D01*
X137855646Y-53910147D01*
X138003216Y-53811544D01*
X138167188Y-53743624D01*
X138316488Y-53713927D01*
X138341258Y-53709000D01*
X138518742Y-53709000D01*
X138543512Y-53713927D01*
G37*
G36*
X113143512Y-53713927D02*
G01*
X113292812Y-53743624D01*
X113456784Y-53811544D01*
X113604354Y-53910147D01*
X113729853Y-54035646D01*
X113828456Y-54183216D01*
X113896376Y-54347188D01*
X113931000Y-54521259D01*
X113931000Y-54698741D01*
X113896376Y-54872812D01*
X113828456Y-55036784D01*
X113729853Y-55184354D01*
X113604354Y-55309853D01*
X113456784Y-55408456D01*
X113292812Y-55476376D01*
X113143512Y-55506073D01*
X113118742Y-55511000D01*
X112941258Y-55511000D01*
X112916488Y-55506073D01*
X112767188Y-55476376D01*
X112603216Y-55408456D01*
X112455646Y-55309853D01*
X112330147Y-55184354D01*
X112231544Y-55036784D01*
X112163624Y-54872812D01*
X112129000Y-54698741D01*
X112129000Y-54521259D01*
X112163624Y-54347188D01*
X112231544Y-54183216D01*
X112330147Y-54035646D01*
X112455646Y-53910147D01*
X112603216Y-53811544D01*
X112767188Y-53743624D01*
X112916488Y-53713927D01*
X112941258Y-53709000D01*
X113118742Y-53709000D01*
X113143512Y-53713927D01*
G37*
G36*
X115683512Y-53713927D02*
G01*
X115832812Y-53743624D01*
X115996784Y-53811544D01*
X116144354Y-53910147D01*
X116269853Y-54035646D01*
X116368456Y-54183216D01*
X116436376Y-54347188D01*
X116471000Y-54521259D01*
X116471000Y-54698741D01*
X116436376Y-54872812D01*
X116368456Y-55036784D01*
X116269853Y-55184354D01*
X116144354Y-55309853D01*
X115996784Y-55408456D01*
X115832812Y-55476376D01*
X115683512Y-55506073D01*
X115658742Y-55511000D01*
X115481258Y-55511000D01*
X115456488Y-55506073D01*
X115307188Y-55476376D01*
X115143216Y-55408456D01*
X114995646Y-55309853D01*
X114870147Y-55184354D01*
X114771544Y-55036784D01*
X114703624Y-54872812D01*
X114669000Y-54698741D01*
X114669000Y-54521259D01*
X114703624Y-54347188D01*
X114771544Y-54183216D01*
X114870147Y-54035646D01*
X114995646Y-53910147D01*
X115143216Y-53811544D01*
X115307188Y-53743624D01*
X115456488Y-53713927D01*
X115481258Y-53709000D01*
X115658742Y-53709000D01*
X115683512Y-53713927D01*
G37*
G36*
X141083512Y-53713927D02*
G01*
X141232812Y-53743624D01*
X141396784Y-53811544D01*
X141544354Y-53910147D01*
X141669853Y-54035646D01*
X141768456Y-54183216D01*
X141836376Y-54347188D01*
X141871000Y-54521259D01*
X141871000Y-54698741D01*
X141836376Y-54872812D01*
X141768456Y-55036784D01*
X141669853Y-55184354D01*
X141544354Y-55309853D01*
X141396784Y-55408456D01*
X141232812Y-55476376D01*
X141083512Y-55506073D01*
X141058742Y-55511000D01*
X140881258Y-55511000D01*
X140856488Y-55506073D01*
X140707188Y-55476376D01*
X140543216Y-55408456D01*
X140395646Y-55309853D01*
X140270147Y-55184354D01*
X140171544Y-55036784D01*
X140103624Y-54872812D01*
X140069000Y-54698741D01*
X140069000Y-54521259D01*
X140103624Y-54347188D01*
X140171544Y-54183216D01*
X140270147Y-54035646D01*
X140395646Y-53910147D01*
X140543216Y-53811544D01*
X140707188Y-53743624D01*
X140856488Y-53713927D01*
X140881258Y-53709000D01*
X141058742Y-53709000D01*
X141083512Y-53713927D01*
G37*
G36*
X138543512Y-51173927D02*
G01*
X138692812Y-51203624D01*
X138856784Y-51271544D01*
X139004354Y-51370147D01*
X139129853Y-51495646D01*
X139228456Y-51643216D01*
X139296376Y-51807188D01*
X139331000Y-51981259D01*
X139331000Y-52158741D01*
X139296376Y-52332812D01*
X139228456Y-52496784D01*
X139129853Y-52644354D01*
X139004354Y-52769853D01*
X138856784Y-52868456D01*
X138692812Y-52936376D01*
X138543512Y-52966073D01*
X138518742Y-52971000D01*
X138341258Y-52971000D01*
X138316488Y-52966073D01*
X138167188Y-52936376D01*
X138003216Y-52868456D01*
X137855646Y-52769853D01*
X137730147Y-52644354D01*
X137631544Y-52496784D01*
X137563624Y-52332812D01*
X137529000Y-52158741D01*
X137529000Y-51981259D01*
X137563624Y-51807188D01*
X137631544Y-51643216D01*
X137730147Y-51495646D01*
X137855646Y-51370147D01*
X138003216Y-51271544D01*
X138167188Y-51203624D01*
X138316488Y-51173927D01*
X138341258Y-51169000D01*
X138518742Y-51169000D01*
X138543512Y-51173927D01*
G37*
G36*
X115683512Y-51173927D02*
G01*
X115832812Y-51203624D01*
X115996784Y-51271544D01*
X116144354Y-51370147D01*
X116269853Y-51495646D01*
X116368456Y-51643216D01*
X116436376Y-51807188D01*
X116471000Y-51981259D01*
X116471000Y-52158741D01*
X116436376Y-52332812D01*
X116368456Y-52496784D01*
X116269853Y-52644354D01*
X116144354Y-52769853D01*
X115996784Y-52868456D01*
X115832812Y-52936376D01*
X115683512Y-52966073D01*
X115658742Y-52971000D01*
X115481258Y-52971000D01*
X115456488Y-52966073D01*
X115307188Y-52936376D01*
X115143216Y-52868456D01*
X114995646Y-52769853D01*
X114870147Y-52644354D01*
X114771544Y-52496784D01*
X114703624Y-52332812D01*
X114669000Y-52158741D01*
X114669000Y-51981259D01*
X114703624Y-51807188D01*
X114771544Y-51643216D01*
X114870147Y-51495646D01*
X114995646Y-51370147D01*
X115143216Y-51271544D01*
X115307188Y-51203624D01*
X115456488Y-51173927D01*
X115481258Y-51169000D01*
X115658742Y-51169000D01*
X115683512Y-51173927D01*
G37*
G36*
X113143512Y-51173927D02*
G01*
X113292812Y-51203624D01*
X113456784Y-51271544D01*
X113604354Y-51370147D01*
X113729853Y-51495646D01*
X113828456Y-51643216D01*
X113896376Y-51807188D01*
X113931000Y-51981259D01*
X113931000Y-52158741D01*
X113896376Y-52332812D01*
X113828456Y-52496784D01*
X113729853Y-52644354D01*
X113604354Y-52769853D01*
X113456784Y-52868456D01*
X113292812Y-52936376D01*
X113143512Y-52966073D01*
X113118742Y-52971000D01*
X112941258Y-52971000D01*
X112916488Y-52966073D01*
X112767188Y-52936376D01*
X112603216Y-52868456D01*
X112455646Y-52769853D01*
X112330147Y-52644354D01*
X112231544Y-52496784D01*
X112163624Y-52332812D01*
X112129000Y-52158741D01*
X112129000Y-51981259D01*
X112163624Y-51807188D01*
X112231544Y-51643216D01*
X112330147Y-51495646D01*
X112455646Y-51370147D01*
X112603216Y-51271544D01*
X112767188Y-51203624D01*
X112916488Y-51173927D01*
X112941258Y-51169000D01*
X113118742Y-51169000D01*
X113143512Y-51173927D01*
G37*
G36*
X141083512Y-51173927D02*
G01*
X141232812Y-51203624D01*
X141396784Y-51271544D01*
X141544354Y-51370147D01*
X141669853Y-51495646D01*
X141768456Y-51643216D01*
X141836376Y-51807188D01*
X141871000Y-51981259D01*
X141871000Y-52158741D01*
X141836376Y-52332812D01*
X141768456Y-52496784D01*
X141669853Y-52644354D01*
X141544354Y-52769853D01*
X141396784Y-52868456D01*
X141232812Y-52936376D01*
X141083512Y-52966073D01*
X141058742Y-52971000D01*
X140881258Y-52971000D01*
X140856488Y-52966073D01*
X140707188Y-52936376D01*
X140543216Y-52868456D01*
X140395646Y-52769853D01*
X140270147Y-52644354D01*
X140171544Y-52496784D01*
X140103624Y-52332812D01*
X140069000Y-52158741D01*
X140069000Y-51981259D01*
X140103624Y-51807188D01*
X140171544Y-51643216D01*
X140270147Y-51495646D01*
X140395646Y-51370147D01*
X140543216Y-51271544D01*
X140707188Y-51203624D01*
X140856488Y-51173927D01*
X140881258Y-51169000D01*
X141058742Y-51169000D01*
X141083512Y-51173927D01*
G37*
G36*
X141871000Y-50431000D02*
G01*
X140069000Y-50431000D01*
X140069000Y-48629000D01*
X141871000Y-48629000D01*
X141871000Y-50431000D01*
G37*
G36*
X138543512Y-48633927D02*
G01*
X138692812Y-48663624D01*
X138856784Y-48731544D01*
X139004354Y-48830147D01*
X139129853Y-48955646D01*
X139228456Y-49103216D01*
X139296376Y-49267188D01*
X139331000Y-49441259D01*
X139331000Y-49618741D01*
X139296376Y-49792812D01*
X139228456Y-49956784D01*
X139129853Y-50104354D01*
X139004354Y-50229853D01*
X138856784Y-50328456D01*
X138692812Y-50396376D01*
X138543512Y-50426073D01*
X138518742Y-50431000D01*
X138341258Y-50431000D01*
X138316488Y-50426073D01*
X138167188Y-50396376D01*
X138003216Y-50328456D01*
X137855646Y-50229853D01*
X137730147Y-50104354D01*
X137631544Y-49956784D01*
X137563624Y-49792812D01*
X137529000Y-49618741D01*
X137529000Y-49441259D01*
X137563624Y-49267188D01*
X137631544Y-49103216D01*
X137730147Y-48955646D01*
X137855646Y-48830147D01*
X138003216Y-48731544D01*
X138167188Y-48663624D01*
X138316488Y-48633927D01*
X138341258Y-48629000D01*
X138518742Y-48629000D01*
X138543512Y-48633927D01*
G37*
G36*
X116471000Y-50431000D02*
G01*
X114669000Y-50431000D01*
X114669000Y-48629000D01*
X116471000Y-48629000D01*
X116471000Y-50431000D01*
G37*
G36*
X113143512Y-48633927D02*
G01*
X113292812Y-48663624D01*
X113456784Y-48731544D01*
X113604354Y-48830147D01*
X113729853Y-48955646D01*
X113828456Y-49103216D01*
X113896376Y-49267188D01*
X113931000Y-49441259D01*
X113931000Y-49618741D01*
X113896376Y-49792812D01*
X113828456Y-49956784D01*
X113729853Y-50104354D01*
X113604354Y-50229853D01*
X113456784Y-50328456D01*
X113292812Y-50396376D01*
X113143512Y-50426073D01*
X113118742Y-50431000D01*
X112941258Y-50431000D01*
X112916488Y-50426073D01*
X112767188Y-50396376D01*
X112603216Y-50328456D01*
X112455646Y-50229853D01*
X112330147Y-50104354D01*
X112231544Y-49956784D01*
X112163624Y-49792812D01*
X112129000Y-49618741D01*
X112129000Y-49441259D01*
X112163624Y-49267188D01*
X112231544Y-49103216D01*
X112330147Y-48955646D01*
X112455646Y-48830147D01*
X112603216Y-48731544D01*
X112767188Y-48663624D01*
X112916488Y-48633927D01*
X112941258Y-48629000D01*
X113118742Y-48629000D01*
X113143512Y-48633927D01*
G37*
M02*
