G04 #@! TF.GenerationSoftware,KiCad,Pcbnew,(5.1.5)-3*
G04 #@! TF.CreationDate,2020-05-06T19:22:20+02:00*
G04 #@! TF.ProjectId,VGA_adapter,5647415f-6164-4617-9074-65722e6b6963,rev?*
G04 #@! TF.SameCoordinates,Original*
G04 #@! TF.FileFunction,Copper,L2,Bot*
G04 #@! TF.FilePolarity,Positive*
%FSLAX46Y46*%
G04 Gerber Fmt 4.6, Leading zero omitted, Abs format (unit mm)*
G04 Created by KiCad (PCBNEW (5.1.5)-3) date 2020-05-06 19:22:20*
%MOMM*%
%LPD*%
G04 APERTURE LIST*
%ADD10C,4.000000*%
%ADD11C,1.600000*%
%ADD12R,1.600000X1.600000*%
%ADD13O,1.700000X1.700000*%
%ADD14R,1.700000X1.700000*%
%ADD15C,0.800000*%
%ADD16C,0.250000*%
%ADD17C,0.254000*%
G04 APERTURE END LIST*
D10*
X178580000Y-87827000D03*
X178580000Y-112827000D03*
D11*
X180490000Y-105172000D03*
X180490000Y-102882000D03*
X180490000Y-100592000D03*
X180490000Y-98302000D03*
X180490000Y-96012000D03*
X178510000Y-104027000D03*
X178510000Y-101737000D03*
X178510000Y-99447000D03*
X178510000Y-97157000D03*
X178510000Y-94867000D03*
X176530000Y-105172000D03*
X176530000Y-102882000D03*
X176530000Y-100592000D03*
X176530000Y-98302000D03*
D12*
X176530000Y-96012000D03*
D13*
X160020000Y-104140000D03*
X162560000Y-106680000D03*
X162560000Y-111760000D03*
X160020000Y-111760000D03*
X160020000Y-106680000D03*
X160020000Y-114300000D03*
X160020000Y-93980000D03*
X162560000Y-93980000D03*
X160020000Y-109220000D03*
X160020000Y-101600000D03*
X160020000Y-96520000D03*
X162560000Y-99060000D03*
X162560000Y-101600000D03*
X162560000Y-114300000D03*
X162560000Y-104140000D03*
X160020000Y-91440000D03*
X160020000Y-99060000D03*
X162560000Y-116840000D03*
X160020000Y-116840000D03*
X162560000Y-96520000D03*
X162560000Y-109220000D03*
X160020000Y-88900000D03*
X162560000Y-91440000D03*
D14*
X162560000Y-83820000D03*
D13*
X160020000Y-83820000D03*
X162560000Y-86360000D03*
X160020000Y-86360000D03*
X162560000Y-88900000D03*
X134620000Y-116840000D03*
X137160000Y-116840000D03*
X134620000Y-114300000D03*
X137160000Y-114300000D03*
X134620000Y-111760000D03*
X137160000Y-111760000D03*
X134620000Y-109220000D03*
X137160000Y-109220000D03*
X134620000Y-106680000D03*
X137160000Y-106680000D03*
X134620000Y-104140000D03*
X137160000Y-104140000D03*
X134620000Y-101600000D03*
X137160000Y-101600000D03*
X134620000Y-99060000D03*
X137160000Y-99060000D03*
X134620000Y-96520000D03*
X137160000Y-96520000D03*
X134620000Y-93980000D03*
X137160000Y-93980000D03*
X134620000Y-91440000D03*
X137160000Y-91440000D03*
X134620000Y-88900000D03*
X137160000Y-88900000D03*
X134620000Y-86360000D03*
X137160000Y-86360000D03*
X134620000Y-83820000D03*
D14*
X137160000Y-83820000D03*
D15*
X173990000Y-102870000D03*
X173990000Y-107950000D03*
X173990000Y-97790000D03*
X173990000Y-95250000D03*
D16*
X184150000Y-82550000D02*
X184150000Y-99222000D01*
X133350000Y-91440000D02*
X130810000Y-88900000D01*
X134620000Y-91440000D02*
X133350000Y-91440000D01*
X184150000Y-99222000D02*
X180490000Y-102882000D01*
X130810000Y-88900000D02*
X130810000Y-81280000D01*
X181610000Y-80010000D02*
X184150000Y-82550000D01*
X132080000Y-80010000D02*
X181610000Y-80010000D01*
X130810000Y-81280000D02*
X132080000Y-80010000D01*
X182880000Y-82550000D02*
X182880000Y-98202000D01*
X181610000Y-81280000D02*
X182880000Y-82550000D01*
X133350000Y-88900000D02*
X132080000Y-87630000D01*
X134620000Y-88900000D02*
X133350000Y-88900000D01*
X132080000Y-82550000D02*
X133350000Y-81280000D01*
X182880000Y-98202000D02*
X180490000Y-100592000D01*
X132080000Y-87630000D02*
X132080000Y-82550000D01*
X133350000Y-81280000D02*
X181610000Y-81280000D01*
X178510000Y-94867000D02*
X178510000Y-97157000D01*
X178510000Y-97157000D02*
X178510000Y-99447000D01*
X178510000Y-105158370D02*
X177800000Y-105868370D01*
X178510000Y-104027000D02*
X178510000Y-105158370D01*
X173990000Y-102870000D02*
X173990000Y-97790000D01*
X173990000Y-107950000D02*
X173990000Y-104140000D01*
X173990000Y-104140000D02*
X172720000Y-102870000D01*
X172720000Y-102870000D02*
X172720000Y-96520000D01*
X172720000Y-96520000D02*
X173990000Y-95250000D01*
D17*
G36*
X192355001Y-121235000D02*
G01*
X127685000Y-121235000D01*
X127685000Y-117196890D01*
X133178524Y-117196890D01*
X133223175Y-117344099D01*
X133348359Y-117606920D01*
X133522412Y-117840269D01*
X133738645Y-118035178D01*
X133988748Y-118184157D01*
X134263109Y-118281481D01*
X134493000Y-118160814D01*
X134493000Y-116967000D01*
X133299845Y-116967000D01*
X133178524Y-117196890D01*
X127685000Y-117196890D01*
X127685000Y-81280000D01*
X130046324Y-81280000D01*
X130050001Y-81317332D01*
X130050000Y-88862678D01*
X130046324Y-88900000D01*
X130050000Y-88937322D01*
X130050000Y-88937332D01*
X130060997Y-89048985D01*
X130104454Y-89192246D01*
X130175026Y-89324276D01*
X130214871Y-89372826D01*
X130269999Y-89440001D01*
X130299003Y-89463804D01*
X132786205Y-91951008D01*
X132809999Y-91980001D01*
X132838992Y-92003795D01*
X132838996Y-92003799D01*
X132909685Y-92061811D01*
X132925724Y-92074974D01*
X133057753Y-92145546D01*
X133201014Y-92189003D01*
X133312667Y-92200000D01*
X133312676Y-92200000D01*
X133343875Y-92203073D01*
X133466525Y-92386632D01*
X133673368Y-92593475D01*
X133847760Y-92710000D01*
X133673368Y-92826525D01*
X133466525Y-93033368D01*
X133304010Y-93276589D01*
X133192068Y-93546842D01*
X133135000Y-93833740D01*
X133135000Y-94126260D01*
X133192068Y-94413158D01*
X133304010Y-94683411D01*
X133466525Y-94926632D01*
X133673368Y-95133475D01*
X133847760Y-95250000D01*
X133673368Y-95366525D01*
X133466525Y-95573368D01*
X133304010Y-95816589D01*
X133192068Y-96086842D01*
X133135000Y-96373740D01*
X133135000Y-96666260D01*
X133192068Y-96953158D01*
X133304010Y-97223411D01*
X133466525Y-97466632D01*
X133673368Y-97673475D01*
X133847760Y-97790000D01*
X133673368Y-97906525D01*
X133466525Y-98113368D01*
X133304010Y-98356589D01*
X133192068Y-98626842D01*
X133135000Y-98913740D01*
X133135000Y-99206260D01*
X133192068Y-99493158D01*
X133304010Y-99763411D01*
X133466525Y-100006632D01*
X133673368Y-100213475D01*
X133847760Y-100330000D01*
X133673368Y-100446525D01*
X133466525Y-100653368D01*
X133304010Y-100896589D01*
X133192068Y-101166842D01*
X133135000Y-101453740D01*
X133135000Y-101746260D01*
X133192068Y-102033158D01*
X133304010Y-102303411D01*
X133466525Y-102546632D01*
X133673368Y-102753475D01*
X133847760Y-102870000D01*
X133673368Y-102986525D01*
X133466525Y-103193368D01*
X133304010Y-103436589D01*
X133192068Y-103706842D01*
X133135000Y-103993740D01*
X133135000Y-104286260D01*
X133192068Y-104573158D01*
X133304010Y-104843411D01*
X133466525Y-105086632D01*
X133673368Y-105293475D01*
X133855534Y-105415195D01*
X133738645Y-105484822D01*
X133522412Y-105679731D01*
X133348359Y-105913080D01*
X133223175Y-106175901D01*
X133178524Y-106323110D01*
X133299845Y-106553000D01*
X134493000Y-106553000D01*
X134493000Y-106533000D01*
X134747000Y-106533000D01*
X134747000Y-106553000D01*
X134767000Y-106553000D01*
X134767000Y-106807000D01*
X134747000Y-106807000D01*
X134747000Y-106827000D01*
X134493000Y-106827000D01*
X134493000Y-106807000D01*
X133299845Y-106807000D01*
X133178524Y-107036890D01*
X133223175Y-107184099D01*
X133348359Y-107446920D01*
X133522412Y-107680269D01*
X133738645Y-107875178D01*
X133855534Y-107944805D01*
X133673368Y-108066525D01*
X133466525Y-108273368D01*
X133304010Y-108516589D01*
X133192068Y-108786842D01*
X133135000Y-109073740D01*
X133135000Y-109366260D01*
X133192068Y-109653158D01*
X133304010Y-109923411D01*
X133466525Y-110166632D01*
X133673368Y-110373475D01*
X133847760Y-110490000D01*
X133673368Y-110606525D01*
X133466525Y-110813368D01*
X133304010Y-111056589D01*
X133192068Y-111326842D01*
X133135000Y-111613740D01*
X133135000Y-111906260D01*
X133192068Y-112193158D01*
X133304010Y-112463411D01*
X133466525Y-112706632D01*
X133673368Y-112913475D01*
X133847760Y-113030000D01*
X133673368Y-113146525D01*
X133466525Y-113353368D01*
X133304010Y-113596589D01*
X133192068Y-113866842D01*
X133135000Y-114153740D01*
X133135000Y-114446260D01*
X133192068Y-114733158D01*
X133304010Y-115003411D01*
X133466525Y-115246632D01*
X133673368Y-115453475D01*
X133855534Y-115575195D01*
X133738645Y-115644822D01*
X133522412Y-115839731D01*
X133348359Y-116073080D01*
X133223175Y-116335901D01*
X133178524Y-116483110D01*
X133299845Y-116713000D01*
X134493000Y-116713000D01*
X134493000Y-116693000D01*
X134747000Y-116693000D01*
X134747000Y-116713000D01*
X134767000Y-116713000D01*
X134767000Y-116967000D01*
X134747000Y-116967000D01*
X134747000Y-118160814D01*
X134976891Y-118281481D01*
X135251252Y-118184157D01*
X135501355Y-118035178D01*
X135717588Y-117840269D01*
X135888900Y-117610594D01*
X136006525Y-117786632D01*
X136213368Y-117993475D01*
X136456589Y-118155990D01*
X136726842Y-118267932D01*
X137013740Y-118325000D01*
X137306260Y-118325000D01*
X137593158Y-118267932D01*
X137863411Y-118155990D01*
X138106632Y-117993475D01*
X138313475Y-117786632D01*
X138475990Y-117543411D01*
X138587932Y-117273158D01*
X138645000Y-116986260D01*
X138645000Y-116693740D01*
X138587932Y-116406842D01*
X138475990Y-116136589D01*
X138313475Y-115893368D01*
X138106632Y-115686525D01*
X137932240Y-115570000D01*
X138106632Y-115453475D01*
X138313475Y-115246632D01*
X138475990Y-115003411D01*
X138587932Y-114733158D01*
X138645000Y-114446260D01*
X138645000Y-114153740D01*
X138587932Y-113866842D01*
X138475990Y-113596589D01*
X138313475Y-113353368D01*
X138106632Y-113146525D01*
X137932240Y-113030000D01*
X138106632Y-112913475D01*
X138313475Y-112706632D01*
X138475990Y-112463411D01*
X138587932Y-112193158D01*
X138645000Y-111906260D01*
X138645000Y-111613740D01*
X138587932Y-111326842D01*
X138475990Y-111056589D01*
X138313475Y-110813368D01*
X138106632Y-110606525D01*
X137932240Y-110490000D01*
X138106632Y-110373475D01*
X138313475Y-110166632D01*
X138475990Y-109923411D01*
X138587932Y-109653158D01*
X138645000Y-109366260D01*
X138645000Y-109073740D01*
X138587932Y-108786842D01*
X138475990Y-108516589D01*
X138313475Y-108273368D01*
X138106632Y-108066525D01*
X137932240Y-107950000D01*
X138106632Y-107833475D01*
X138313475Y-107626632D01*
X138475990Y-107383411D01*
X138587932Y-107113158D01*
X138645000Y-106826260D01*
X138645000Y-106533740D01*
X138587932Y-106246842D01*
X138475990Y-105976589D01*
X138313475Y-105733368D01*
X138106632Y-105526525D01*
X137932240Y-105410000D01*
X138106632Y-105293475D01*
X138313475Y-105086632D01*
X138475990Y-104843411D01*
X138587932Y-104573158D01*
X138645000Y-104286260D01*
X138645000Y-103993740D01*
X138587932Y-103706842D01*
X138475990Y-103436589D01*
X138313475Y-103193368D01*
X138106632Y-102986525D01*
X137932240Y-102870000D01*
X138106632Y-102753475D01*
X138313475Y-102546632D01*
X138475990Y-102303411D01*
X138587932Y-102033158D01*
X138645000Y-101746260D01*
X138645000Y-101453740D01*
X138587932Y-101166842D01*
X138475990Y-100896589D01*
X138313475Y-100653368D01*
X138106632Y-100446525D01*
X137932240Y-100330000D01*
X138106632Y-100213475D01*
X138313475Y-100006632D01*
X138475990Y-99763411D01*
X138587932Y-99493158D01*
X138645000Y-99206260D01*
X138645000Y-98913740D01*
X138587932Y-98626842D01*
X138475990Y-98356589D01*
X138313475Y-98113368D01*
X138106632Y-97906525D01*
X137924466Y-97784805D01*
X138041355Y-97715178D01*
X138257588Y-97520269D01*
X138431641Y-97286920D01*
X138556825Y-97024099D01*
X138601476Y-96876890D01*
X138480155Y-96647000D01*
X137287000Y-96647000D01*
X137287000Y-96667000D01*
X137033000Y-96667000D01*
X137033000Y-96647000D01*
X137013000Y-96647000D01*
X137013000Y-96393000D01*
X137033000Y-96393000D01*
X137033000Y-96373000D01*
X137287000Y-96373000D01*
X137287000Y-96393000D01*
X138480155Y-96393000D01*
X138601476Y-96163110D01*
X138556825Y-96015901D01*
X138431641Y-95753080D01*
X138257588Y-95519731D01*
X138041355Y-95324822D01*
X137924466Y-95255195D01*
X138106632Y-95133475D01*
X138313475Y-94926632D01*
X138475990Y-94683411D01*
X138587932Y-94413158D01*
X138645000Y-94126260D01*
X138645000Y-93833740D01*
X138587932Y-93546842D01*
X138475990Y-93276589D01*
X138313475Y-93033368D01*
X138106632Y-92826525D01*
X137932240Y-92710000D01*
X138106632Y-92593475D01*
X138313475Y-92386632D01*
X138475990Y-92143411D01*
X138587932Y-91873158D01*
X138645000Y-91586260D01*
X138645000Y-91293740D01*
X138587932Y-91006842D01*
X138475990Y-90736589D01*
X138313475Y-90493368D01*
X138106632Y-90286525D01*
X137932240Y-90170000D01*
X138106632Y-90053475D01*
X138313475Y-89846632D01*
X138475990Y-89603411D01*
X138587932Y-89333158D01*
X138645000Y-89046260D01*
X138645000Y-88753740D01*
X138587932Y-88466842D01*
X138475990Y-88196589D01*
X138313475Y-87953368D01*
X138106632Y-87746525D01*
X137932240Y-87630000D01*
X138106632Y-87513475D01*
X138313475Y-87306632D01*
X138475990Y-87063411D01*
X138587932Y-86793158D01*
X138645000Y-86506260D01*
X138645000Y-86213740D01*
X158535000Y-86213740D01*
X158535000Y-86506260D01*
X158592068Y-86793158D01*
X158704010Y-87063411D01*
X158866525Y-87306632D01*
X159073368Y-87513475D01*
X159247760Y-87630000D01*
X159073368Y-87746525D01*
X158866525Y-87953368D01*
X158704010Y-88196589D01*
X158592068Y-88466842D01*
X158535000Y-88753740D01*
X158535000Y-89046260D01*
X158592068Y-89333158D01*
X158704010Y-89603411D01*
X158866525Y-89846632D01*
X159073368Y-90053475D01*
X159247760Y-90170000D01*
X159073368Y-90286525D01*
X158866525Y-90493368D01*
X158704010Y-90736589D01*
X158592068Y-91006842D01*
X158535000Y-91293740D01*
X158535000Y-91586260D01*
X158592068Y-91873158D01*
X158704010Y-92143411D01*
X158866525Y-92386632D01*
X159073368Y-92593475D01*
X159247760Y-92710000D01*
X159073368Y-92826525D01*
X158866525Y-93033368D01*
X158704010Y-93276589D01*
X158592068Y-93546842D01*
X158535000Y-93833740D01*
X158535000Y-94126260D01*
X158592068Y-94413158D01*
X158704010Y-94683411D01*
X158866525Y-94926632D01*
X159073368Y-95133475D01*
X159247760Y-95250000D01*
X159073368Y-95366525D01*
X158866525Y-95573368D01*
X158704010Y-95816589D01*
X158592068Y-96086842D01*
X158535000Y-96373740D01*
X158535000Y-96666260D01*
X158592068Y-96953158D01*
X158704010Y-97223411D01*
X158866525Y-97466632D01*
X159073368Y-97673475D01*
X159247760Y-97790000D01*
X159073368Y-97906525D01*
X158866525Y-98113368D01*
X158704010Y-98356589D01*
X158592068Y-98626842D01*
X158535000Y-98913740D01*
X158535000Y-99206260D01*
X158592068Y-99493158D01*
X158704010Y-99763411D01*
X158866525Y-100006632D01*
X159073368Y-100213475D01*
X159247760Y-100330000D01*
X159073368Y-100446525D01*
X158866525Y-100653368D01*
X158704010Y-100896589D01*
X158592068Y-101166842D01*
X158535000Y-101453740D01*
X158535000Y-101746260D01*
X158592068Y-102033158D01*
X158704010Y-102303411D01*
X158866525Y-102546632D01*
X159073368Y-102753475D01*
X159247760Y-102870000D01*
X159073368Y-102986525D01*
X158866525Y-103193368D01*
X158704010Y-103436589D01*
X158592068Y-103706842D01*
X158535000Y-103993740D01*
X158535000Y-104286260D01*
X158592068Y-104573158D01*
X158704010Y-104843411D01*
X158866525Y-105086632D01*
X159073368Y-105293475D01*
X159247760Y-105410000D01*
X159073368Y-105526525D01*
X158866525Y-105733368D01*
X158704010Y-105976589D01*
X158592068Y-106246842D01*
X158535000Y-106533740D01*
X158535000Y-106826260D01*
X158592068Y-107113158D01*
X158704010Y-107383411D01*
X158866525Y-107626632D01*
X159073368Y-107833475D01*
X159247760Y-107950000D01*
X159073368Y-108066525D01*
X158866525Y-108273368D01*
X158704010Y-108516589D01*
X158592068Y-108786842D01*
X158535000Y-109073740D01*
X158535000Y-109366260D01*
X158592068Y-109653158D01*
X158704010Y-109923411D01*
X158866525Y-110166632D01*
X159073368Y-110373475D01*
X159247760Y-110490000D01*
X159073368Y-110606525D01*
X158866525Y-110813368D01*
X158704010Y-111056589D01*
X158592068Y-111326842D01*
X158535000Y-111613740D01*
X158535000Y-111906260D01*
X158592068Y-112193158D01*
X158704010Y-112463411D01*
X158866525Y-112706632D01*
X159073368Y-112913475D01*
X159247760Y-113030000D01*
X159073368Y-113146525D01*
X158866525Y-113353368D01*
X158704010Y-113596589D01*
X158592068Y-113866842D01*
X158535000Y-114153740D01*
X158535000Y-114446260D01*
X158592068Y-114733158D01*
X158704010Y-115003411D01*
X158866525Y-115246632D01*
X159073368Y-115453475D01*
X159247760Y-115570000D01*
X159073368Y-115686525D01*
X158866525Y-115893368D01*
X158704010Y-116136589D01*
X158592068Y-116406842D01*
X158535000Y-116693740D01*
X158535000Y-116986260D01*
X158592068Y-117273158D01*
X158704010Y-117543411D01*
X158866525Y-117786632D01*
X159073368Y-117993475D01*
X159316589Y-118155990D01*
X159586842Y-118267932D01*
X159873740Y-118325000D01*
X160166260Y-118325000D01*
X160453158Y-118267932D01*
X160723411Y-118155990D01*
X160966632Y-117993475D01*
X161173475Y-117786632D01*
X161290000Y-117612240D01*
X161406525Y-117786632D01*
X161613368Y-117993475D01*
X161856589Y-118155990D01*
X162126842Y-118267932D01*
X162413740Y-118325000D01*
X162706260Y-118325000D01*
X162993158Y-118267932D01*
X163263411Y-118155990D01*
X163506632Y-117993475D01*
X163713475Y-117786632D01*
X163875990Y-117543411D01*
X163987932Y-117273158D01*
X164045000Y-116986260D01*
X164045000Y-116693740D01*
X163987932Y-116406842D01*
X163875990Y-116136589D01*
X163713475Y-115893368D01*
X163506632Y-115686525D01*
X163332240Y-115570000D01*
X163506632Y-115453475D01*
X163713475Y-115246632D01*
X163875990Y-115003411D01*
X163987932Y-114733158D01*
X164045000Y-114446260D01*
X164045000Y-114153740D01*
X163987932Y-113866842D01*
X163875990Y-113596589D01*
X163713475Y-113353368D01*
X163506632Y-113146525D01*
X163332240Y-113030000D01*
X163506632Y-112913475D01*
X163713475Y-112706632D01*
X163806456Y-112567475D01*
X175945000Y-112567475D01*
X175945000Y-113086525D01*
X176046261Y-113595601D01*
X176244893Y-114075141D01*
X176533262Y-114506715D01*
X176900285Y-114873738D01*
X177331859Y-115162107D01*
X177811399Y-115360739D01*
X178320475Y-115462000D01*
X178839525Y-115462000D01*
X179348601Y-115360739D01*
X179828141Y-115162107D01*
X180259715Y-114873738D01*
X180626738Y-114506715D01*
X180915107Y-114075141D01*
X181113739Y-113595601D01*
X181215000Y-113086525D01*
X181215000Y-112567475D01*
X181113739Y-112058399D01*
X180915107Y-111578859D01*
X180626738Y-111147285D01*
X180259715Y-110780262D01*
X179828141Y-110491893D01*
X179348601Y-110293261D01*
X178839525Y-110192000D01*
X178320475Y-110192000D01*
X177811399Y-110293261D01*
X177331859Y-110491893D01*
X176900285Y-110780262D01*
X176533262Y-111147285D01*
X176244893Y-111578859D01*
X176046261Y-112058399D01*
X175945000Y-112567475D01*
X163806456Y-112567475D01*
X163875990Y-112463411D01*
X163987932Y-112193158D01*
X164045000Y-111906260D01*
X164045000Y-111613740D01*
X163987932Y-111326842D01*
X163875990Y-111056589D01*
X163713475Y-110813368D01*
X163506632Y-110606525D01*
X163332240Y-110490000D01*
X163506632Y-110373475D01*
X163713475Y-110166632D01*
X163875990Y-109923411D01*
X163987932Y-109653158D01*
X164045000Y-109366260D01*
X164045000Y-109073740D01*
X163987932Y-108786842D01*
X163875990Y-108516589D01*
X163713475Y-108273368D01*
X163506632Y-108066525D01*
X163324466Y-107944805D01*
X163441355Y-107875178D01*
X163657588Y-107680269D01*
X163831641Y-107446920D01*
X163956825Y-107184099D01*
X164001476Y-107036890D01*
X163880155Y-106807000D01*
X162687000Y-106807000D01*
X162687000Y-106827000D01*
X162433000Y-106827000D01*
X162433000Y-106807000D01*
X162413000Y-106807000D01*
X162413000Y-106553000D01*
X162433000Y-106553000D01*
X162433000Y-106533000D01*
X162687000Y-106533000D01*
X162687000Y-106553000D01*
X163880155Y-106553000D01*
X164001476Y-106323110D01*
X163956825Y-106175901D01*
X163831641Y-105913080D01*
X163657588Y-105679731D01*
X163441355Y-105484822D01*
X163324466Y-105415195D01*
X163506632Y-105293475D01*
X163713475Y-105086632D01*
X163875990Y-104843411D01*
X163987932Y-104573158D01*
X164045000Y-104286260D01*
X164045000Y-103993740D01*
X163987932Y-103706842D01*
X163875990Y-103436589D01*
X163713475Y-103193368D01*
X163506632Y-102986525D01*
X163332240Y-102870000D01*
X163506632Y-102753475D01*
X163713475Y-102546632D01*
X163875990Y-102303411D01*
X163987932Y-102033158D01*
X164045000Y-101746260D01*
X164045000Y-101453740D01*
X163987932Y-101166842D01*
X163875990Y-100896589D01*
X163713475Y-100653368D01*
X163506632Y-100446525D01*
X163332240Y-100330000D01*
X163506632Y-100213475D01*
X163713475Y-100006632D01*
X163875990Y-99763411D01*
X163987932Y-99493158D01*
X164045000Y-99206260D01*
X164045000Y-98913740D01*
X163987932Y-98626842D01*
X163875990Y-98356589D01*
X163713475Y-98113368D01*
X163506632Y-97906525D01*
X163324466Y-97784805D01*
X163441355Y-97715178D01*
X163657588Y-97520269D01*
X163831641Y-97286920D01*
X163956825Y-97024099D01*
X164001476Y-96876890D01*
X163880155Y-96647000D01*
X162687000Y-96647000D01*
X162687000Y-96667000D01*
X162433000Y-96667000D01*
X162433000Y-96647000D01*
X162413000Y-96647000D01*
X162413000Y-96520000D01*
X171956324Y-96520000D01*
X171960001Y-96557332D01*
X171960000Y-102832677D01*
X171956324Y-102870000D01*
X171960000Y-102907322D01*
X171960000Y-102907332D01*
X171970997Y-103018985D01*
X172014454Y-103162246D01*
X172085026Y-103294276D01*
X172124871Y-103342826D01*
X172179999Y-103410001D01*
X172209003Y-103433804D01*
X173230001Y-104454803D01*
X173230000Y-107246289D01*
X173186063Y-107290226D01*
X173072795Y-107459744D01*
X172994774Y-107648102D01*
X172955000Y-107848061D01*
X172955000Y-108051939D01*
X172994774Y-108251898D01*
X173072795Y-108440256D01*
X173186063Y-108609774D01*
X173330226Y-108753937D01*
X173499744Y-108867205D01*
X173688102Y-108945226D01*
X173888061Y-108985000D01*
X174091939Y-108985000D01*
X174291898Y-108945226D01*
X174480256Y-108867205D01*
X174649774Y-108753937D01*
X174793937Y-108609774D01*
X174907205Y-108440256D01*
X174985226Y-108251898D01*
X175025000Y-108051939D01*
X175025000Y-107848061D01*
X174985226Y-107648102D01*
X174907205Y-107459744D01*
X174793937Y-107290226D01*
X174750000Y-107246289D01*
X174750000Y-104177322D01*
X174753676Y-104139999D01*
X174750000Y-104102676D01*
X174750000Y-104102667D01*
X174739003Y-103991014D01*
X174695546Y-103847753D01*
X174624974Y-103715724D01*
X174611609Y-103699438D01*
X174649774Y-103673937D01*
X174793937Y-103529774D01*
X174907205Y-103360256D01*
X174985226Y-103171898D01*
X175025000Y-102971939D01*
X175025000Y-102768061D01*
X174985226Y-102568102D01*
X174907205Y-102379744D01*
X174793937Y-102210226D01*
X174750000Y-102166289D01*
X174750000Y-98493711D01*
X174793937Y-98449774D01*
X174907205Y-98280256D01*
X174985226Y-98091898D01*
X175025000Y-97891939D01*
X175025000Y-97688061D01*
X174985226Y-97488102D01*
X174907205Y-97299744D01*
X174793937Y-97130226D01*
X174649774Y-96986063D01*
X174480256Y-96872795D01*
X174291898Y-96794774D01*
X174091939Y-96755000D01*
X173888061Y-96755000D01*
X173688102Y-96794774D01*
X173499744Y-96872795D01*
X173480000Y-96885987D01*
X173480000Y-96834801D01*
X174029802Y-96285000D01*
X174091939Y-96285000D01*
X174291898Y-96245226D01*
X174480256Y-96167205D01*
X174649774Y-96053937D01*
X174793937Y-95909774D01*
X174907205Y-95740256D01*
X174985226Y-95551898D01*
X175025000Y-95351939D01*
X175025000Y-95148061D01*
X174985226Y-94948102D01*
X174907205Y-94759744D01*
X174793937Y-94590226D01*
X174649774Y-94446063D01*
X174480256Y-94332795D01*
X174291898Y-94254774D01*
X174091939Y-94215000D01*
X173888061Y-94215000D01*
X173688102Y-94254774D01*
X173499744Y-94332795D01*
X173330226Y-94446063D01*
X173186063Y-94590226D01*
X173072795Y-94759744D01*
X172994774Y-94948102D01*
X172955000Y-95148061D01*
X172955000Y-95210198D01*
X172208998Y-95956201D01*
X172180000Y-95979999D01*
X172156202Y-96008997D01*
X172156201Y-96008998D01*
X172085026Y-96095724D01*
X172014454Y-96227754D01*
X171970998Y-96371015D01*
X171956324Y-96520000D01*
X162413000Y-96520000D01*
X162413000Y-96393000D01*
X162433000Y-96393000D01*
X162433000Y-96373000D01*
X162687000Y-96373000D01*
X162687000Y-96393000D01*
X163880155Y-96393000D01*
X164001476Y-96163110D01*
X163956825Y-96015901D01*
X163831641Y-95753080D01*
X163657588Y-95519731D01*
X163441355Y-95324822D01*
X163324466Y-95255195D01*
X163506632Y-95133475D01*
X163713475Y-94926632D01*
X163875990Y-94683411D01*
X163987932Y-94413158D01*
X164045000Y-94126260D01*
X164045000Y-93874298D01*
X177696903Y-93874298D01*
X178510000Y-94687395D01*
X179323097Y-93874298D01*
X179251514Y-93630329D01*
X178996004Y-93509429D01*
X178721816Y-93440700D01*
X178439488Y-93426783D01*
X178159870Y-93468213D01*
X177893708Y-93563397D01*
X177768486Y-93630329D01*
X177696903Y-93874298D01*
X164045000Y-93874298D01*
X164045000Y-93833740D01*
X163987932Y-93546842D01*
X163875990Y-93276589D01*
X163713475Y-93033368D01*
X163506632Y-92826525D01*
X163332240Y-92710000D01*
X163506632Y-92593475D01*
X163713475Y-92386632D01*
X163875990Y-92143411D01*
X163987932Y-91873158D01*
X164045000Y-91586260D01*
X164045000Y-91293740D01*
X163987932Y-91006842D01*
X163875990Y-90736589D01*
X163713475Y-90493368D01*
X163506632Y-90286525D01*
X163332240Y-90170000D01*
X163506632Y-90053475D01*
X163713475Y-89846632D01*
X163875990Y-89603411D01*
X163987932Y-89333158D01*
X164045000Y-89046260D01*
X164045000Y-88753740D01*
X163987932Y-88466842D01*
X163875990Y-88196589D01*
X163713475Y-87953368D01*
X163506632Y-87746525D01*
X163332240Y-87630000D01*
X163425815Y-87567475D01*
X175945000Y-87567475D01*
X175945000Y-88086525D01*
X176046261Y-88595601D01*
X176244893Y-89075141D01*
X176533262Y-89506715D01*
X176900285Y-89873738D01*
X177331859Y-90162107D01*
X177811399Y-90360739D01*
X178320475Y-90462000D01*
X178839525Y-90462000D01*
X179348601Y-90360739D01*
X179828141Y-90162107D01*
X180259715Y-89873738D01*
X180626738Y-89506715D01*
X180915107Y-89075141D01*
X181113739Y-88595601D01*
X181215000Y-88086525D01*
X181215000Y-87567475D01*
X181113739Y-87058399D01*
X180915107Y-86578859D01*
X180626738Y-86147285D01*
X180259715Y-85780262D01*
X179828141Y-85491893D01*
X179348601Y-85293261D01*
X178839525Y-85192000D01*
X178320475Y-85192000D01*
X177811399Y-85293261D01*
X177331859Y-85491893D01*
X176900285Y-85780262D01*
X176533262Y-86147285D01*
X176244893Y-86578859D01*
X176046261Y-87058399D01*
X175945000Y-87567475D01*
X163425815Y-87567475D01*
X163506632Y-87513475D01*
X163713475Y-87306632D01*
X163875990Y-87063411D01*
X163987932Y-86793158D01*
X164045000Y-86506260D01*
X164045000Y-86213740D01*
X163987932Y-85926842D01*
X163875990Y-85656589D01*
X163713475Y-85413368D01*
X163581620Y-85281513D01*
X163654180Y-85259502D01*
X163764494Y-85200537D01*
X163861185Y-85121185D01*
X163940537Y-85024494D01*
X163999502Y-84914180D01*
X164035812Y-84794482D01*
X164048072Y-84670000D01*
X164048072Y-82970000D01*
X164035812Y-82845518D01*
X163999502Y-82725820D01*
X163940537Y-82615506D01*
X163861185Y-82518815D01*
X163764494Y-82439463D01*
X163654180Y-82380498D01*
X163534482Y-82344188D01*
X163410000Y-82331928D01*
X161710000Y-82331928D01*
X161585518Y-82344188D01*
X161465820Y-82380498D01*
X161355506Y-82439463D01*
X161258815Y-82518815D01*
X161179463Y-82615506D01*
X161120498Y-82725820D01*
X161097502Y-82801626D01*
X160901355Y-82624822D01*
X160651252Y-82475843D01*
X160376891Y-82378519D01*
X160147000Y-82499186D01*
X160147000Y-83693000D01*
X160167000Y-83693000D01*
X160167000Y-83947000D01*
X160147000Y-83947000D01*
X160147000Y-83967000D01*
X159893000Y-83967000D01*
X159893000Y-83947000D01*
X158699845Y-83947000D01*
X158578524Y-84176890D01*
X158623175Y-84324099D01*
X158748359Y-84586920D01*
X158922412Y-84820269D01*
X159138645Y-85015178D01*
X159255534Y-85084805D01*
X159073368Y-85206525D01*
X158866525Y-85413368D01*
X158704010Y-85656589D01*
X158592068Y-85926842D01*
X158535000Y-86213740D01*
X138645000Y-86213740D01*
X138587932Y-85926842D01*
X138475990Y-85656589D01*
X138313475Y-85413368D01*
X138181620Y-85281513D01*
X138254180Y-85259502D01*
X138364494Y-85200537D01*
X138461185Y-85121185D01*
X138540537Y-85024494D01*
X138599502Y-84914180D01*
X138635812Y-84794482D01*
X138648072Y-84670000D01*
X138648072Y-83463110D01*
X158578524Y-83463110D01*
X158699845Y-83693000D01*
X159893000Y-83693000D01*
X159893000Y-82499186D01*
X159663109Y-82378519D01*
X159388748Y-82475843D01*
X159138645Y-82624822D01*
X158922412Y-82819731D01*
X158748359Y-83053080D01*
X158623175Y-83315901D01*
X158578524Y-83463110D01*
X138648072Y-83463110D01*
X138648072Y-82970000D01*
X138635812Y-82845518D01*
X138599502Y-82725820D01*
X138540537Y-82615506D01*
X138461185Y-82518815D01*
X138364494Y-82439463D01*
X138254180Y-82380498D01*
X138134482Y-82344188D01*
X138010000Y-82331928D01*
X136310000Y-82331928D01*
X136185518Y-82344188D01*
X136065820Y-82380498D01*
X135955506Y-82439463D01*
X135858815Y-82518815D01*
X135779463Y-82615506D01*
X135720498Y-82725820D01*
X135697502Y-82801626D01*
X135501355Y-82624822D01*
X135251252Y-82475843D01*
X134976891Y-82378519D01*
X134747000Y-82499186D01*
X134747000Y-83693000D01*
X134767000Y-83693000D01*
X134767000Y-83947000D01*
X134747000Y-83947000D01*
X134747000Y-83967000D01*
X134493000Y-83967000D01*
X134493000Y-83947000D01*
X133299845Y-83947000D01*
X133178524Y-84176890D01*
X133223175Y-84324099D01*
X133348359Y-84586920D01*
X133522412Y-84820269D01*
X133738645Y-85015178D01*
X133855534Y-85084805D01*
X133673368Y-85206525D01*
X133466525Y-85413368D01*
X133304010Y-85656589D01*
X133192068Y-85926842D01*
X133135000Y-86213740D01*
X133135000Y-86506260D01*
X133192068Y-86793158D01*
X133304010Y-87063411D01*
X133466525Y-87306632D01*
X133673368Y-87513475D01*
X133847760Y-87630000D01*
X133673368Y-87746525D01*
X133472347Y-87947546D01*
X132840000Y-87315199D01*
X132840000Y-83463110D01*
X133178524Y-83463110D01*
X133299845Y-83693000D01*
X134493000Y-83693000D01*
X134493000Y-82499186D01*
X134263109Y-82378519D01*
X133988748Y-82475843D01*
X133738645Y-82624822D01*
X133522412Y-82819731D01*
X133348359Y-83053080D01*
X133223175Y-83315901D01*
X133178524Y-83463110D01*
X132840000Y-83463110D01*
X132840000Y-82864801D01*
X133664802Y-82040000D01*
X181295199Y-82040000D01*
X182120000Y-82864802D01*
X182120001Y-97887196D01*
X181911981Y-98095216D01*
X181869853Y-97883426D01*
X181761680Y-97622273D01*
X181604637Y-97387241D01*
X181404759Y-97187363D01*
X181359317Y-97157000D01*
X181404759Y-97126637D01*
X181604637Y-96926759D01*
X181761680Y-96691727D01*
X181869853Y-96430574D01*
X181925000Y-96153335D01*
X181925000Y-95870665D01*
X181869853Y-95593426D01*
X181761680Y-95332273D01*
X181604637Y-95097241D01*
X181404759Y-94897363D01*
X181169727Y-94740320D01*
X180908574Y-94632147D01*
X180631335Y-94577000D01*
X180348665Y-94577000D01*
X180071426Y-94632147D01*
X179934284Y-94688953D01*
X179908787Y-94516870D01*
X179813603Y-94250708D01*
X179746671Y-94125486D01*
X179502702Y-94053903D01*
X178689605Y-94867000D01*
X178703748Y-94881143D01*
X178524143Y-95060748D01*
X178510000Y-95046605D01*
X178495858Y-95060748D01*
X178316253Y-94881143D01*
X178330395Y-94867000D01*
X177517298Y-94053903D01*
X177273329Y-94125486D01*
X177152429Y-94380996D01*
X177104068Y-94573928D01*
X175730000Y-94573928D01*
X175605518Y-94586188D01*
X175485820Y-94622498D01*
X175375506Y-94681463D01*
X175278815Y-94760815D01*
X175199463Y-94857506D01*
X175140498Y-94967820D01*
X175104188Y-95087518D01*
X175091928Y-95212000D01*
X175091928Y-96812000D01*
X175104188Y-96936482D01*
X175140498Y-97056180D01*
X175199463Y-97166494D01*
X175278815Y-97263185D01*
X175375506Y-97342537D01*
X175430612Y-97371992D01*
X175415363Y-97387241D01*
X175258320Y-97622273D01*
X175150147Y-97883426D01*
X175095000Y-98160665D01*
X175095000Y-98443335D01*
X175150147Y-98720574D01*
X175258320Y-98981727D01*
X175415363Y-99216759D01*
X175615241Y-99416637D01*
X175660683Y-99447000D01*
X175615241Y-99477363D01*
X175415363Y-99677241D01*
X175258320Y-99912273D01*
X175150147Y-100173426D01*
X175095000Y-100450665D01*
X175095000Y-100733335D01*
X175150147Y-101010574D01*
X175258320Y-101271727D01*
X175415363Y-101506759D01*
X175615241Y-101706637D01*
X175660683Y-101737000D01*
X175615241Y-101767363D01*
X175415363Y-101967241D01*
X175258320Y-102202273D01*
X175150147Y-102463426D01*
X175095000Y-102740665D01*
X175095000Y-103023335D01*
X175150147Y-103300574D01*
X175258320Y-103561727D01*
X175415363Y-103796759D01*
X175615241Y-103996637D01*
X175660683Y-104027000D01*
X175615241Y-104057363D01*
X175415363Y-104257241D01*
X175258320Y-104492273D01*
X175150147Y-104753426D01*
X175095000Y-105030665D01*
X175095000Y-105313335D01*
X175150147Y-105590574D01*
X175258320Y-105851727D01*
X175415363Y-106086759D01*
X175615241Y-106286637D01*
X175850273Y-106443680D01*
X176111426Y-106551853D01*
X176388665Y-106607000D01*
X176671335Y-106607000D01*
X176948574Y-106551853D01*
X177209727Y-106443680D01*
X177444759Y-106286637D01*
X177644637Y-106086759D01*
X177801680Y-105851727D01*
X177909853Y-105590574D01*
X177957124Y-105352929D01*
X178023996Y-105384571D01*
X178298184Y-105453300D01*
X178580512Y-105467217D01*
X178860130Y-105425787D01*
X179062941Y-105353258D01*
X179110147Y-105590574D01*
X179218320Y-105851727D01*
X179375363Y-106086759D01*
X179575241Y-106286637D01*
X179810273Y-106443680D01*
X180071426Y-106551853D01*
X180348665Y-106607000D01*
X180631335Y-106607000D01*
X180908574Y-106551853D01*
X181169727Y-106443680D01*
X181404759Y-106286637D01*
X181604637Y-106086759D01*
X181761680Y-105851727D01*
X181869853Y-105590574D01*
X181925000Y-105313335D01*
X181925000Y-105030665D01*
X181869853Y-104753426D01*
X181761680Y-104492273D01*
X181604637Y-104257241D01*
X181404759Y-104057363D01*
X181359317Y-104027000D01*
X181404759Y-103996637D01*
X181604637Y-103796759D01*
X181761680Y-103561727D01*
X181869853Y-103300574D01*
X181925000Y-103023335D01*
X181925000Y-102740665D01*
X181888688Y-102558113D01*
X184661003Y-99785799D01*
X184690001Y-99762001D01*
X184784974Y-99646276D01*
X184855546Y-99514247D01*
X184899003Y-99370986D01*
X184910000Y-99259333D01*
X184910000Y-99259325D01*
X184913676Y-99222000D01*
X184910000Y-99184675D01*
X184910000Y-82587322D01*
X184913676Y-82549999D01*
X184910000Y-82512676D01*
X184910000Y-82512667D01*
X184899003Y-82401014D01*
X184855546Y-82257753D01*
X184784974Y-82125724D01*
X184771811Y-82109685D01*
X184713799Y-82038996D01*
X184713795Y-82038992D01*
X184690001Y-82009999D01*
X184661009Y-81986206D01*
X182173804Y-79499003D01*
X182150001Y-79469999D01*
X182034276Y-79375026D01*
X181902247Y-79304454D01*
X181758986Y-79260997D01*
X181647333Y-79250000D01*
X181647322Y-79250000D01*
X181610000Y-79246324D01*
X181572678Y-79250000D01*
X132117322Y-79250000D01*
X132079999Y-79246324D01*
X132042676Y-79250000D01*
X132042667Y-79250000D01*
X131931014Y-79260997D01*
X131787753Y-79304454D01*
X131655724Y-79375026D01*
X131539999Y-79469999D01*
X131516201Y-79498997D01*
X130298998Y-80716201D01*
X130270000Y-80739999D01*
X130246202Y-80768997D01*
X130246201Y-80768998D01*
X130175026Y-80855724D01*
X130104454Y-80987754D01*
X130060998Y-81131015D01*
X130046324Y-81280000D01*
X127685000Y-81280000D01*
X127685000Y-78155000D01*
X192355000Y-78155000D01*
X192355001Y-121235000D01*
G37*
X192355001Y-121235000D02*
X127685000Y-121235000D01*
X127685000Y-117196890D01*
X133178524Y-117196890D01*
X133223175Y-117344099D01*
X133348359Y-117606920D01*
X133522412Y-117840269D01*
X133738645Y-118035178D01*
X133988748Y-118184157D01*
X134263109Y-118281481D01*
X134493000Y-118160814D01*
X134493000Y-116967000D01*
X133299845Y-116967000D01*
X133178524Y-117196890D01*
X127685000Y-117196890D01*
X127685000Y-81280000D01*
X130046324Y-81280000D01*
X130050001Y-81317332D01*
X130050000Y-88862678D01*
X130046324Y-88900000D01*
X130050000Y-88937322D01*
X130050000Y-88937332D01*
X130060997Y-89048985D01*
X130104454Y-89192246D01*
X130175026Y-89324276D01*
X130214871Y-89372826D01*
X130269999Y-89440001D01*
X130299003Y-89463804D01*
X132786205Y-91951008D01*
X132809999Y-91980001D01*
X132838992Y-92003795D01*
X132838996Y-92003799D01*
X132909685Y-92061811D01*
X132925724Y-92074974D01*
X133057753Y-92145546D01*
X133201014Y-92189003D01*
X133312667Y-92200000D01*
X133312676Y-92200000D01*
X133343875Y-92203073D01*
X133466525Y-92386632D01*
X133673368Y-92593475D01*
X133847760Y-92710000D01*
X133673368Y-92826525D01*
X133466525Y-93033368D01*
X133304010Y-93276589D01*
X133192068Y-93546842D01*
X133135000Y-93833740D01*
X133135000Y-94126260D01*
X133192068Y-94413158D01*
X133304010Y-94683411D01*
X133466525Y-94926632D01*
X133673368Y-95133475D01*
X133847760Y-95250000D01*
X133673368Y-95366525D01*
X133466525Y-95573368D01*
X133304010Y-95816589D01*
X133192068Y-96086842D01*
X133135000Y-96373740D01*
X133135000Y-96666260D01*
X133192068Y-96953158D01*
X133304010Y-97223411D01*
X133466525Y-97466632D01*
X133673368Y-97673475D01*
X133847760Y-97790000D01*
X133673368Y-97906525D01*
X133466525Y-98113368D01*
X133304010Y-98356589D01*
X133192068Y-98626842D01*
X133135000Y-98913740D01*
X133135000Y-99206260D01*
X133192068Y-99493158D01*
X133304010Y-99763411D01*
X133466525Y-100006632D01*
X133673368Y-100213475D01*
X133847760Y-100330000D01*
X133673368Y-100446525D01*
X133466525Y-100653368D01*
X133304010Y-100896589D01*
X133192068Y-101166842D01*
X133135000Y-101453740D01*
X133135000Y-101746260D01*
X133192068Y-102033158D01*
X133304010Y-102303411D01*
X133466525Y-102546632D01*
X133673368Y-102753475D01*
X133847760Y-102870000D01*
X133673368Y-102986525D01*
X133466525Y-103193368D01*
X133304010Y-103436589D01*
X133192068Y-103706842D01*
X133135000Y-103993740D01*
X133135000Y-104286260D01*
X133192068Y-104573158D01*
X133304010Y-104843411D01*
X133466525Y-105086632D01*
X133673368Y-105293475D01*
X133855534Y-105415195D01*
X133738645Y-105484822D01*
X133522412Y-105679731D01*
X133348359Y-105913080D01*
X133223175Y-106175901D01*
X133178524Y-106323110D01*
X133299845Y-106553000D01*
X134493000Y-106553000D01*
X134493000Y-106533000D01*
X134747000Y-106533000D01*
X134747000Y-106553000D01*
X134767000Y-106553000D01*
X134767000Y-106807000D01*
X134747000Y-106807000D01*
X134747000Y-106827000D01*
X134493000Y-106827000D01*
X134493000Y-106807000D01*
X133299845Y-106807000D01*
X133178524Y-107036890D01*
X133223175Y-107184099D01*
X133348359Y-107446920D01*
X133522412Y-107680269D01*
X133738645Y-107875178D01*
X133855534Y-107944805D01*
X133673368Y-108066525D01*
X133466525Y-108273368D01*
X133304010Y-108516589D01*
X133192068Y-108786842D01*
X133135000Y-109073740D01*
X133135000Y-109366260D01*
X133192068Y-109653158D01*
X133304010Y-109923411D01*
X133466525Y-110166632D01*
X133673368Y-110373475D01*
X133847760Y-110490000D01*
X133673368Y-110606525D01*
X133466525Y-110813368D01*
X133304010Y-111056589D01*
X133192068Y-111326842D01*
X133135000Y-111613740D01*
X133135000Y-111906260D01*
X133192068Y-112193158D01*
X133304010Y-112463411D01*
X133466525Y-112706632D01*
X133673368Y-112913475D01*
X133847760Y-113030000D01*
X133673368Y-113146525D01*
X133466525Y-113353368D01*
X133304010Y-113596589D01*
X133192068Y-113866842D01*
X133135000Y-114153740D01*
X133135000Y-114446260D01*
X133192068Y-114733158D01*
X133304010Y-115003411D01*
X133466525Y-115246632D01*
X133673368Y-115453475D01*
X133855534Y-115575195D01*
X133738645Y-115644822D01*
X133522412Y-115839731D01*
X133348359Y-116073080D01*
X133223175Y-116335901D01*
X133178524Y-116483110D01*
X133299845Y-116713000D01*
X134493000Y-116713000D01*
X134493000Y-116693000D01*
X134747000Y-116693000D01*
X134747000Y-116713000D01*
X134767000Y-116713000D01*
X134767000Y-116967000D01*
X134747000Y-116967000D01*
X134747000Y-118160814D01*
X134976891Y-118281481D01*
X135251252Y-118184157D01*
X135501355Y-118035178D01*
X135717588Y-117840269D01*
X135888900Y-117610594D01*
X136006525Y-117786632D01*
X136213368Y-117993475D01*
X136456589Y-118155990D01*
X136726842Y-118267932D01*
X137013740Y-118325000D01*
X137306260Y-118325000D01*
X137593158Y-118267932D01*
X137863411Y-118155990D01*
X138106632Y-117993475D01*
X138313475Y-117786632D01*
X138475990Y-117543411D01*
X138587932Y-117273158D01*
X138645000Y-116986260D01*
X138645000Y-116693740D01*
X138587932Y-116406842D01*
X138475990Y-116136589D01*
X138313475Y-115893368D01*
X138106632Y-115686525D01*
X137932240Y-115570000D01*
X138106632Y-115453475D01*
X138313475Y-115246632D01*
X138475990Y-115003411D01*
X138587932Y-114733158D01*
X138645000Y-114446260D01*
X138645000Y-114153740D01*
X138587932Y-113866842D01*
X138475990Y-113596589D01*
X138313475Y-113353368D01*
X138106632Y-113146525D01*
X137932240Y-113030000D01*
X138106632Y-112913475D01*
X138313475Y-112706632D01*
X138475990Y-112463411D01*
X138587932Y-112193158D01*
X138645000Y-111906260D01*
X138645000Y-111613740D01*
X138587932Y-111326842D01*
X138475990Y-111056589D01*
X138313475Y-110813368D01*
X138106632Y-110606525D01*
X137932240Y-110490000D01*
X138106632Y-110373475D01*
X138313475Y-110166632D01*
X138475990Y-109923411D01*
X138587932Y-109653158D01*
X138645000Y-109366260D01*
X138645000Y-109073740D01*
X138587932Y-108786842D01*
X138475990Y-108516589D01*
X138313475Y-108273368D01*
X138106632Y-108066525D01*
X137932240Y-107950000D01*
X138106632Y-107833475D01*
X138313475Y-107626632D01*
X138475990Y-107383411D01*
X138587932Y-107113158D01*
X138645000Y-106826260D01*
X138645000Y-106533740D01*
X138587932Y-106246842D01*
X138475990Y-105976589D01*
X138313475Y-105733368D01*
X138106632Y-105526525D01*
X137932240Y-105410000D01*
X138106632Y-105293475D01*
X138313475Y-105086632D01*
X138475990Y-104843411D01*
X138587932Y-104573158D01*
X138645000Y-104286260D01*
X138645000Y-103993740D01*
X138587932Y-103706842D01*
X138475990Y-103436589D01*
X138313475Y-103193368D01*
X138106632Y-102986525D01*
X137932240Y-102870000D01*
X138106632Y-102753475D01*
X138313475Y-102546632D01*
X138475990Y-102303411D01*
X138587932Y-102033158D01*
X138645000Y-101746260D01*
X138645000Y-101453740D01*
X138587932Y-101166842D01*
X138475990Y-100896589D01*
X138313475Y-100653368D01*
X138106632Y-100446525D01*
X137932240Y-100330000D01*
X138106632Y-100213475D01*
X138313475Y-100006632D01*
X138475990Y-99763411D01*
X138587932Y-99493158D01*
X138645000Y-99206260D01*
X138645000Y-98913740D01*
X138587932Y-98626842D01*
X138475990Y-98356589D01*
X138313475Y-98113368D01*
X138106632Y-97906525D01*
X137924466Y-97784805D01*
X138041355Y-97715178D01*
X138257588Y-97520269D01*
X138431641Y-97286920D01*
X138556825Y-97024099D01*
X138601476Y-96876890D01*
X138480155Y-96647000D01*
X137287000Y-96647000D01*
X137287000Y-96667000D01*
X137033000Y-96667000D01*
X137033000Y-96647000D01*
X137013000Y-96647000D01*
X137013000Y-96393000D01*
X137033000Y-96393000D01*
X137033000Y-96373000D01*
X137287000Y-96373000D01*
X137287000Y-96393000D01*
X138480155Y-96393000D01*
X138601476Y-96163110D01*
X138556825Y-96015901D01*
X138431641Y-95753080D01*
X138257588Y-95519731D01*
X138041355Y-95324822D01*
X137924466Y-95255195D01*
X138106632Y-95133475D01*
X138313475Y-94926632D01*
X138475990Y-94683411D01*
X138587932Y-94413158D01*
X138645000Y-94126260D01*
X138645000Y-93833740D01*
X138587932Y-93546842D01*
X138475990Y-93276589D01*
X138313475Y-93033368D01*
X138106632Y-92826525D01*
X137932240Y-92710000D01*
X138106632Y-92593475D01*
X138313475Y-92386632D01*
X138475990Y-92143411D01*
X138587932Y-91873158D01*
X138645000Y-91586260D01*
X138645000Y-91293740D01*
X138587932Y-91006842D01*
X138475990Y-90736589D01*
X138313475Y-90493368D01*
X138106632Y-90286525D01*
X137932240Y-90170000D01*
X138106632Y-90053475D01*
X138313475Y-89846632D01*
X138475990Y-89603411D01*
X138587932Y-89333158D01*
X138645000Y-89046260D01*
X138645000Y-88753740D01*
X138587932Y-88466842D01*
X138475990Y-88196589D01*
X138313475Y-87953368D01*
X138106632Y-87746525D01*
X137932240Y-87630000D01*
X138106632Y-87513475D01*
X138313475Y-87306632D01*
X138475990Y-87063411D01*
X138587932Y-86793158D01*
X138645000Y-86506260D01*
X138645000Y-86213740D01*
X158535000Y-86213740D01*
X158535000Y-86506260D01*
X158592068Y-86793158D01*
X158704010Y-87063411D01*
X158866525Y-87306632D01*
X159073368Y-87513475D01*
X159247760Y-87630000D01*
X159073368Y-87746525D01*
X158866525Y-87953368D01*
X158704010Y-88196589D01*
X158592068Y-88466842D01*
X158535000Y-88753740D01*
X158535000Y-89046260D01*
X158592068Y-89333158D01*
X158704010Y-89603411D01*
X158866525Y-89846632D01*
X159073368Y-90053475D01*
X159247760Y-90170000D01*
X159073368Y-90286525D01*
X158866525Y-90493368D01*
X158704010Y-90736589D01*
X158592068Y-91006842D01*
X158535000Y-91293740D01*
X158535000Y-91586260D01*
X158592068Y-91873158D01*
X158704010Y-92143411D01*
X158866525Y-92386632D01*
X159073368Y-92593475D01*
X159247760Y-92710000D01*
X159073368Y-92826525D01*
X158866525Y-93033368D01*
X158704010Y-93276589D01*
X158592068Y-93546842D01*
X158535000Y-93833740D01*
X158535000Y-94126260D01*
X158592068Y-94413158D01*
X158704010Y-94683411D01*
X158866525Y-94926632D01*
X159073368Y-95133475D01*
X159247760Y-95250000D01*
X159073368Y-95366525D01*
X158866525Y-95573368D01*
X158704010Y-95816589D01*
X158592068Y-96086842D01*
X158535000Y-96373740D01*
X158535000Y-96666260D01*
X158592068Y-96953158D01*
X158704010Y-97223411D01*
X158866525Y-97466632D01*
X159073368Y-97673475D01*
X159247760Y-97790000D01*
X159073368Y-97906525D01*
X158866525Y-98113368D01*
X158704010Y-98356589D01*
X158592068Y-98626842D01*
X158535000Y-98913740D01*
X158535000Y-99206260D01*
X158592068Y-99493158D01*
X158704010Y-99763411D01*
X158866525Y-100006632D01*
X159073368Y-100213475D01*
X159247760Y-100330000D01*
X159073368Y-100446525D01*
X158866525Y-100653368D01*
X158704010Y-100896589D01*
X158592068Y-101166842D01*
X158535000Y-101453740D01*
X158535000Y-101746260D01*
X158592068Y-102033158D01*
X158704010Y-102303411D01*
X158866525Y-102546632D01*
X159073368Y-102753475D01*
X159247760Y-102870000D01*
X159073368Y-102986525D01*
X158866525Y-103193368D01*
X158704010Y-103436589D01*
X158592068Y-103706842D01*
X158535000Y-103993740D01*
X158535000Y-104286260D01*
X158592068Y-104573158D01*
X158704010Y-104843411D01*
X158866525Y-105086632D01*
X159073368Y-105293475D01*
X159247760Y-105410000D01*
X159073368Y-105526525D01*
X158866525Y-105733368D01*
X158704010Y-105976589D01*
X158592068Y-106246842D01*
X158535000Y-106533740D01*
X158535000Y-106826260D01*
X158592068Y-107113158D01*
X158704010Y-107383411D01*
X158866525Y-107626632D01*
X159073368Y-107833475D01*
X159247760Y-107950000D01*
X159073368Y-108066525D01*
X158866525Y-108273368D01*
X158704010Y-108516589D01*
X158592068Y-108786842D01*
X158535000Y-109073740D01*
X158535000Y-109366260D01*
X158592068Y-109653158D01*
X158704010Y-109923411D01*
X158866525Y-110166632D01*
X159073368Y-110373475D01*
X159247760Y-110490000D01*
X159073368Y-110606525D01*
X158866525Y-110813368D01*
X158704010Y-111056589D01*
X158592068Y-111326842D01*
X158535000Y-111613740D01*
X158535000Y-111906260D01*
X158592068Y-112193158D01*
X158704010Y-112463411D01*
X158866525Y-112706632D01*
X159073368Y-112913475D01*
X159247760Y-113030000D01*
X159073368Y-113146525D01*
X158866525Y-113353368D01*
X158704010Y-113596589D01*
X158592068Y-113866842D01*
X158535000Y-114153740D01*
X158535000Y-114446260D01*
X158592068Y-114733158D01*
X158704010Y-115003411D01*
X158866525Y-115246632D01*
X159073368Y-115453475D01*
X159247760Y-115570000D01*
X159073368Y-115686525D01*
X158866525Y-115893368D01*
X158704010Y-116136589D01*
X158592068Y-116406842D01*
X158535000Y-116693740D01*
X158535000Y-116986260D01*
X158592068Y-117273158D01*
X158704010Y-117543411D01*
X158866525Y-117786632D01*
X159073368Y-117993475D01*
X159316589Y-118155990D01*
X159586842Y-118267932D01*
X159873740Y-118325000D01*
X160166260Y-118325000D01*
X160453158Y-118267932D01*
X160723411Y-118155990D01*
X160966632Y-117993475D01*
X161173475Y-117786632D01*
X161290000Y-117612240D01*
X161406525Y-117786632D01*
X161613368Y-117993475D01*
X161856589Y-118155990D01*
X162126842Y-118267932D01*
X162413740Y-118325000D01*
X162706260Y-118325000D01*
X162993158Y-118267932D01*
X163263411Y-118155990D01*
X163506632Y-117993475D01*
X163713475Y-117786632D01*
X163875990Y-117543411D01*
X163987932Y-117273158D01*
X164045000Y-116986260D01*
X164045000Y-116693740D01*
X163987932Y-116406842D01*
X163875990Y-116136589D01*
X163713475Y-115893368D01*
X163506632Y-115686525D01*
X163332240Y-115570000D01*
X163506632Y-115453475D01*
X163713475Y-115246632D01*
X163875990Y-115003411D01*
X163987932Y-114733158D01*
X164045000Y-114446260D01*
X164045000Y-114153740D01*
X163987932Y-113866842D01*
X163875990Y-113596589D01*
X163713475Y-113353368D01*
X163506632Y-113146525D01*
X163332240Y-113030000D01*
X163506632Y-112913475D01*
X163713475Y-112706632D01*
X163806456Y-112567475D01*
X175945000Y-112567475D01*
X175945000Y-113086525D01*
X176046261Y-113595601D01*
X176244893Y-114075141D01*
X176533262Y-114506715D01*
X176900285Y-114873738D01*
X177331859Y-115162107D01*
X177811399Y-115360739D01*
X178320475Y-115462000D01*
X178839525Y-115462000D01*
X179348601Y-115360739D01*
X179828141Y-115162107D01*
X180259715Y-114873738D01*
X180626738Y-114506715D01*
X180915107Y-114075141D01*
X181113739Y-113595601D01*
X181215000Y-113086525D01*
X181215000Y-112567475D01*
X181113739Y-112058399D01*
X180915107Y-111578859D01*
X180626738Y-111147285D01*
X180259715Y-110780262D01*
X179828141Y-110491893D01*
X179348601Y-110293261D01*
X178839525Y-110192000D01*
X178320475Y-110192000D01*
X177811399Y-110293261D01*
X177331859Y-110491893D01*
X176900285Y-110780262D01*
X176533262Y-111147285D01*
X176244893Y-111578859D01*
X176046261Y-112058399D01*
X175945000Y-112567475D01*
X163806456Y-112567475D01*
X163875990Y-112463411D01*
X163987932Y-112193158D01*
X164045000Y-111906260D01*
X164045000Y-111613740D01*
X163987932Y-111326842D01*
X163875990Y-111056589D01*
X163713475Y-110813368D01*
X163506632Y-110606525D01*
X163332240Y-110490000D01*
X163506632Y-110373475D01*
X163713475Y-110166632D01*
X163875990Y-109923411D01*
X163987932Y-109653158D01*
X164045000Y-109366260D01*
X164045000Y-109073740D01*
X163987932Y-108786842D01*
X163875990Y-108516589D01*
X163713475Y-108273368D01*
X163506632Y-108066525D01*
X163324466Y-107944805D01*
X163441355Y-107875178D01*
X163657588Y-107680269D01*
X163831641Y-107446920D01*
X163956825Y-107184099D01*
X164001476Y-107036890D01*
X163880155Y-106807000D01*
X162687000Y-106807000D01*
X162687000Y-106827000D01*
X162433000Y-106827000D01*
X162433000Y-106807000D01*
X162413000Y-106807000D01*
X162413000Y-106553000D01*
X162433000Y-106553000D01*
X162433000Y-106533000D01*
X162687000Y-106533000D01*
X162687000Y-106553000D01*
X163880155Y-106553000D01*
X164001476Y-106323110D01*
X163956825Y-106175901D01*
X163831641Y-105913080D01*
X163657588Y-105679731D01*
X163441355Y-105484822D01*
X163324466Y-105415195D01*
X163506632Y-105293475D01*
X163713475Y-105086632D01*
X163875990Y-104843411D01*
X163987932Y-104573158D01*
X164045000Y-104286260D01*
X164045000Y-103993740D01*
X163987932Y-103706842D01*
X163875990Y-103436589D01*
X163713475Y-103193368D01*
X163506632Y-102986525D01*
X163332240Y-102870000D01*
X163506632Y-102753475D01*
X163713475Y-102546632D01*
X163875990Y-102303411D01*
X163987932Y-102033158D01*
X164045000Y-101746260D01*
X164045000Y-101453740D01*
X163987932Y-101166842D01*
X163875990Y-100896589D01*
X163713475Y-100653368D01*
X163506632Y-100446525D01*
X163332240Y-100330000D01*
X163506632Y-100213475D01*
X163713475Y-100006632D01*
X163875990Y-99763411D01*
X163987932Y-99493158D01*
X164045000Y-99206260D01*
X164045000Y-98913740D01*
X163987932Y-98626842D01*
X163875990Y-98356589D01*
X163713475Y-98113368D01*
X163506632Y-97906525D01*
X163324466Y-97784805D01*
X163441355Y-97715178D01*
X163657588Y-97520269D01*
X163831641Y-97286920D01*
X163956825Y-97024099D01*
X164001476Y-96876890D01*
X163880155Y-96647000D01*
X162687000Y-96647000D01*
X162687000Y-96667000D01*
X162433000Y-96667000D01*
X162433000Y-96647000D01*
X162413000Y-96647000D01*
X162413000Y-96520000D01*
X171956324Y-96520000D01*
X171960001Y-96557332D01*
X171960000Y-102832677D01*
X171956324Y-102870000D01*
X171960000Y-102907322D01*
X171960000Y-102907332D01*
X171970997Y-103018985D01*
X172014454Y-103162246D01*
X172085026Y-103294276D01*
X172124871Y-103342826D01*
X172179999Y-103410001D01*
X172209003Y-103433804D01*
X173230001Y-104454803D01*
X173230000Y-107246289D01*
X173186063Y-107290226D01*
X173072795Y-107459744D01*
X172994774Y-107648102D01*
X172955000Y-107848061D01*
X172955000Y-108051939D01*
X172994774Y-108251898D01*
X173072795Y-108440256D01*
X173186063Y-108609774D01*
X173330226Y-108753937D01*
X173499744Y-108867205D01*
X173688102Y-108945226D01*
X173888061Y-108985000D01*
X174091939Y-108985000D01*
X174291898Y-108945226D01*
X174480256Y-108867205D01*
X174649774Y-108753937D01*
X174793937Y-108609774D01*
X174907205Y-108440256D01*
X174985226Y-108251898D01*
X175025000Y-108051939D01*
X175025000Y-107848061D01*
X174985226Y-107648102D01*
X174907205Y-107459744D01*
X174793937Y-107290226D01*
X174750000Y-107246289D01*
X174750000Y-104177322D01*
X174753676Y-104139999D01*
X174750000Y-104102676D01*
X174750000Y-104102667D01*
X174739003Y-103991014D01*
X174695546Y-103847753D01*
X174624974Y-103715724D01*
X174611609Y-103699438D01*
X174649774Y-103673937D01*
X174793937Y-103529774D01*
X174907205Y-103360256D01*
X174985226Y-103171898D01*
X175025000Y-102971939D01*
X175025000Y-102768061D01*
X174985226Y-102568102D01*
X174907205Y-102379744D01*
X174793937Y-102210226D01*
X174750000Y-102166289D01*
X174750000Y-98493711D01*
X174793937Y-98449774D01*
X174907205Y-98280256D01*
X174985226Y-98091898D01*
X175025000Y-97891939D01*
X175025000Y-97688061D01*
X174985226Y-97488102D01*
X174907205Y-97299744D01*
X174793937Y-97130226D01*
X174649774Y-96986063D01*
X174480256Y-96872795D01*
X174291898Y-96794774D01*
X174091939Y-96755000D01*
X173888061Y-96755000D01*
X173688102Y-96794774D01*
X173499744Y-96872795D01*
X173480000Y-96885987D01*
X173480000Y-96834801D01*
X174029802Y-96285000D01*
X174091939Y-96285000D01*
X174291898Y-96245226D01*
X174480256Y-96167205D01*
X174649774Y-96053937D01*
X174793937Y-95909774D01*
X174907205Y-95740256D01*
X174985226Y-95551898D01*
X175025000Y-95351939D01*
X175025000Y-95148061D01*
X174985226Y-94948102D01*
X174907205Y-94759744D01*
X174793937Y-94590226D01*
X174649774Y-94446063D01*
X174480256Y-94332795D01*
X174291898Y-94254774D01*
X174091939Y-94215000D01*
X173888061Y-94215000D01*
X173688102Y-94254774D01*
X173499744Y-94332795D01*
X173330226Y-94446063D01*
X173186063Y-94590226D01*
X173072795Y-94759744D01*
X172994774Y-94948102D01*
X172955000Y-95148061D01*
X172955000Y-95210198D01*
X172208998Y-95956201D01*
X172180000Y-95979999D01*
X172156202Y-96008997D01*
X172156201Y-96008998D01*
X172085026Y-96095724D01*
X172014454Y-96227754D01*
X171970998Y-96371015D01*
X171956324Y-96520000D01*
X162413000Y-96520000D01*
X162413000Y-96393000D01*
X162433000Y-96393000D01*
X162433000Y-96373000D01*
X162687000Y-96373000D01*
X162687000Y-96393000D01*
X163880155Y-96393000D01*
X164001476Y-96163110D01*
X163956825Y-96015901D01*
X163831641Y-95753080D01*
X163657588Y-95519731D01*
X163441355Y-95324822D01*
X163324466Y-95255195D01*
X163506632Y-95133475D01*
X163713475Y-94926632D01*
X163875990Y-94683411D01*
X163987932Y-94413158D01*
X164045000Y-94126260D01*
X164045000Y-93874298D01*
X177696903Y-93874298D01*
X178510000Y-94687395D01*
X179323097Y-93874298D01*
X179251514Y-93630329D01*
X178996004Y-93509429D01*
X178721816Y-93440700D01*
X178439488Y-93426783D01*
X178159870Y-93468213D01*
X177893708Y-93563397D01*
X177768486Y-93630329D01*
X177696903Y-93874298D01*
X164045000Y-93874298D01*
X164045000Y-93833740D01*
X163987932Y-93546842D01*
X163875990Y-93276589D01*
X163713475Y-93033368D01*
X163506632Y-92826525D01*
X163332240Y-92710000D01*
X163506632Y-92593475D01*
X163713475Y-92386632D01*
X163875990Y-92143411D01*
X163987932Y-91873158D01*
X164045000Y-91586260D01*
X164045000Y-91293740D01*
X163987932Y-91006842D01*
X163875990Y-90736589D01*
X163713475Y-90493368D01*
X163506632Y-90286525D01*
X163332240Y-90170000D01*
X163506632Y-90053475D01*
X163713475Y-89846632D01*
X163875990Y-89603411D01*
X163987932Y-89333158D01*
X164045000Y-89046260D01*
X164045000Y-88753740D01*
X163987932Y-88466842D01*
X163875990Y-88196589D01*
X163713475Y-87953368D01*
X163506632Y-87746525D01*
X163332240Y-87630000D01*
X163425815Y-87567475D01*
X175945000Y-87567475D01*
X175945000Y-88086525D01*
X176046261Y-88595601D01*
X176244893Y-89075141D01*
X176533262Y-89506715D01*
X176900285Y-89873738D01*
X177331859Y-90162107D01*
X177811399Y-90360739D01*
X178320475Y-90462000D01*
X178839525Y-90462000D01*
X179348601Y-90360739D01*
X179828141Y-90162107D01*
X180259715Y-89873738D01*
X180626738Y-89506715D01*
X180915107Y-89075141D01*
X181113739Y-88595601D01*
X181215000Y-88086525D01*
X181215000Y-87567475D01*
X181113739Y-87058399D01*
X180915107Y-86578859D01*
X180626738Y-86147285D01*
X180259715Y-85780262D01*
X179828141Y-85491893D01*
X179348601Y-85293261D01*
X178839525Y-85192000D01*
X178320475Y-85192000D01*
X177811399Y-85293261D01*
X177331859Y-85491893D01*
X176900285Y-85780262D01*
X176533262Y-86147285D01*
X176244893Y-86578859D01*
X176046261Y-87058399D01*
X175945000Y-87567475D01*
X163425815Y-87567475D01*
X163506632Y-87513475D01*
X163713475Y-87306632D01*
X163875990Y-87063411D01*
X163987932Y-86793158D01*
X164045000Y-86506260D01*
X164045000Y-86213740D01*
X163987932Y-85926842D01*
X163875990Y-85656589D01*
X163713475Y-85413368D01*
X163581620Y-85281513D01*
X163654180Y-85259502D01*
X163764494Y-85200537D01*
X163861185Y-85121185D01*
X163940537Y-85024494D01*
X163999502Y-84914180D01*
X164035812Y-84794482D01*
X164048072Y-84670000D01*
X164048072Y-82970000D01*
X164035812Y-82845518D01*
X163999502Y-82725820D01*
X163940537Y-82615506D01*
X163861185Y-82518815D01*
X163764494Y-82439463D01*
X163654180Y-82380498D01*
X163534482Y-82344188D01*
X163410000Y-82331928D01*
X161710000Y-82331928D01*
X161585518Y-82344188D01*
X161465820Y-82380498D01*
X161355506Y-82439463D01*
X161258815Y-82518815D01*
X161179463Y-82615506D01*
X161120498Y-82725820D01*
X161097502Y-82801626D01*
X160901355Y-82624822D01*
X160651252Y-82475843D01*
X160376891Y-82378519D01*
X160147000Y-82499186D01*
X160147000Y-83693000D01*
X160167000Y-83693000D01*
X160167000Y-83947000D01*
X160147000Y-83947000D01*
X160147000Y-83967000D01*
X159893000Y-83967000D01*
X159893000Y-83947000D01*
X158699845Y-83947000D01*
X158578524Y-84176890D01*
X158623175Y-84324099D01*
X158748359Y-84586920D01*
X158922412Y-84820269D01*
X159138645Y-85015178D01*
X159255534Y-85084805D01*
X159073368Y-85206525D01*
X158866525Y-85413368D01*
X158704010Y-85656589D01*
X158592068Y-85926842D01*
X158535000Y-86213740D01*
X138645000Y-86213740D01*
X138587932Y-85926842D01*
X138475990Y-85656589D01*
X138313475Y-85413368D01*
X138181620Y-85281513D01*
X138254180Y-85259502D01*
X138364494Y-85200537D01*
X138461185Y-85121185D01*
X138540537Y-85024494D01*
X138599502Y-84914180D01*
X138635812Y-84794482D01*
X138648072Y-84670000D01*
X138648072Y-83463110D01*
X158578524Y-83463110D01*
X158699845Y-83693000D01*
X159893000Y-83693000D01*
X159893000Y-82499186D01*
X159663109Y-82378519D01*
X159388748Y-82475843D01*
X159138645Y-82624822D01*
X158922412Y-82819731D01*
X158748359Y-83053080D01*
X158623175Y-83315901D01*
X158578524Y-83463110D01*
X138648072Y-83463110D01*
X138648072Y-82970000D01*
X138635812Y-82845518D01*
X138599502Y-82725820D01*
X138540537Y-82615506D01*
X138461185Y-82518815D01*
X138364494Y-82439463D01*
X138254180Y-82380498D01*
X138134482Y-82344188D01*
X138010000Y-82331928D01*
X136310000Y-82331928D01*
X136185518Y-82344188D01*
X136065820Y-82380498D01*
X135955506Y-82439463D01*
X135858815Y-82518815D01*
X135779463Y-82615506D01*
X135720498Y-82725820D01*
X135697502Y-82801626D01*
X135501355Y-82624822D01*
X135251252Y-82475843D01*
X134976891Y-82378519D01*
X134747000Y-82499186D01*
X134747000Y-83693000D01*
X134767000Y-83693000D01*
X134767000Y-83947000D01*
X134747000Y-83947000D01*
X134747000Y-83967000D01*
X134493000Y-83967000D01*
X134493000Y-83947000D01*
X133299845Y-83947000D01*
X133178524Y-84176890D01*
X133223175Y-84324099D01*
X133348359Y-84586920D01*
X133522412Y-84820269D01*
X133738645Y-85015178D01*
X133855534Y-85084805D01*
X133673368Y-85206525D01*
X133466525Y-85413368D01*
X133304010Y-85656589D01*
X133192068Y-85926842D01*
X133135000Y-86213740D01*
X133135000Y-86506260D01*
X133192068Y-86793158D01*
X133304010Y-87063411D01*
X133466525Y-87306632D01*
X133673368Y-87513475D01*
X133847760Y-87630000D01*
X133673368Y-87746525D01*
X133472347Y-87947546D01*
X132840000Y-87315199D01*
X132840000Y-83463110D01*
X133178524Y-83463110D01*
X133299845Y-83693000D01*
X134493000Y-83693000D01*
X134493000Y-82499186D01*
X134263109Y-82378519D01*
X133988748Y-82475843D01*
X133738645Y-82624822D01*
X133522412Y-82819731D01*
X133348359Y-83053080D01*
X133223175Y-83315901D01*
X133178524Y-83463110D01*
X132840000Y-83463110D01*
X132840000Y-82864801D01*
X133664802Y-82040000D01*
X181295199Y-82040000D01*
X182120000Y-82864802D01*
X182120001Y-97887196D01*
X181911981Y-98095216D01*
X181869853Y-97883426D01*
X181761680Y-97622273D01*
X181604637Y-97387241D01*
X181404759Y-97187363D01*
X181359317Y-97157000D01*
X181404759Y-97126637D01*
X181604637Y-96926759D01*
X181761680Y-96691727D01*
X181869853Y-96430574D01*
X181925000Y-96153335D01*
X181925000Y-95870665D01*
X181869853Y-95593426D01*
X181761680Y-95332273D01*
X181604637Y-95097241D01*
X181404759Y-94897363D01*
X181169727Y-94740320D01*
X180908574Y-94632147D01*
X180631335Y-94577000D01*
X180348665Y-94577000D01*
X180071426Y-94632147D01*
X179934284Y-94688953D01*
X179908787Y-94516870D01*
X179813603Y-94250708D01*
X179746671Y-94125486D01*
X179502702Y-94053903D01*
X178689605Y-94867000D01*
X178703748Y-94881143D01*
X178524143Y-95060748D01*
X178510000Y-95046605D01*
X178495858Y-95060748D01*
X178316253Y-94881143D01*
X178330395Y-94867000D01*
X177517298Y-94053903D01*
X177273329Y-94125486D01*
X177152429Y-94380996D01*
X177104068Y-94573928D01*
X175730000Y-94573928D01*
X175605518Y-94586188D01*
X175485820Y-94622498D01*
X175375506Y-94681463D01*
X175278815Y-94760815D01*
X175199463Y-94857506D01*
X175140498Y-94967820D01*
X175104188Y-95087518D01*
X175091928Y-95212000D01*
X175091928Y-96812000D01*
X175104188Y-96936482D01*
X175140498Y-97056180D01*
X175199463Y-97166494D01*
X175278815Y-97263185D01*
X175375506Y-97342537D01*
X175430612Y-97371992D01*
X175415363Y-97387241D01*
X175258320Y-97622273D01*
X175150147Y-97883426D01*
X175095000Y-98160665D01*
X175095000Y-98443335D01*
X175150147Y-98720574D01*
X175258320Y-98981727D01*
X175415363Y-99216759D01*
X175615241Y-99416637D01*
X175660683Y-99447000D01*
X175615241Y-99477363D01*
X175415363Y-99677241D01*
X175258320Y-99912273D01*
X175150147Y-100173426D01*
X175095000Y-100450665D01*
X175095000Y-100733335D01*
X175150147Y-101010574D01*
X175258320Y-101271727D01*
X175415363Y-101506759D01*
X175615241Y-101706637D01*
X175660683Y-101737000D01*
X175615241Y-101767363D01*
X175415363Y-101967241D01*
X175258320Y-102202273D01*
X175150147Y-102463426D01*
X175095000Y-102740665D01*
X175095000Y-103023335D01*
X175150147Y-103300574D01*
X175258320Y-103561727D01*
X175415363Y-103796759D01*
X175615241Y-103996637D01*
X175660683Y-104027000D01*
X175615241Y-104057363D01*
X175415363Y-104257241D01*
X175258320Y-104492273D01*
X175150147Y-104753426D01*
X175095000Y-105030665D01*
X175095000Y-105313335D01*
X175150147Y-105590574D01*
X175258320Y-105851727D01*
X175415363Y-106086759D01*
X175615241Y-106286637D01*
X175850273Y-106443680D01*
X176111426Y-106551853D01*
X176388665Y-106607000D01*
X176671335Y-106607000D01*
X176948574Y-106551853D01*
X177209727Y-106443680D01*
X177444759Y-106286637D01*
X177644637Y-106086759D01*
X177801680Y-105851727D01*
X177909853Y-105590574D01*
X177957124Y-105352929D01*
X178023996Y-105384571D01*
X178298184Y-105453300D01*
X178580512Y-105467217D01*
X178860130Y-105425787D01*
X179062941Y-105353258D01*
X179110147Y-105590574D01*
X179218320Y-105851727D01*
X179375363Y-106086759D01*
X179575241Y-106286637D01*
X179810273Y-106443680D01*
X180071426Y-106551853D01*
X180348665Y-106607000D01*
X180631335Y-106607000D01*
X180908574Y-106551853D01*
X181169727Y-106443680D01*
X181404759Y-106286637D01*
X181604637Y-106086759D01*
X181761680Y-105851727D01*
X181869853Y-105590574D01*
X181925000Y-105313335D01*
X181925000Y-105030665D01*
X181869853Y-104753426D01*
X181761680Y-104492273D01*
X181604637Y-104257241D01*
X181404759Y-104057363D01*
X181359317Y-104027000D01*
X181404759Y-103996637D01*
X181604637Y-103796759D01*
X181761680Y-103561727D01*
X181869853Y-103300574D01*
X181925000Y-103023335D01*
X181925000Y-102740665D01*
X181888688Y-102558113D01*
X184661003Y-99785799D01*
X184690001Y-99762001D01*
X184784974Y-99646276D01*
X184855546Y-99514247D01*
X184899003Y-99370986D01*
X184910000Y-99259333D01*
X184910000Y-99259325D01*
X184913676Y-99222000D01*
X184910000Y-99184675D01*
X184910000Y-82587322D01*
X184913676Y-82549999D01*
X184910000Y-82512676D01*
X184910000Y-82512667D01*
X184899003Y-82401014D01*
X184855546Y-82257753D01*
X184784974Y-82125724D01*
X184771811Y-82109685D01*
X184713799Y-82038996D01*
X184713795Y-82038992D01*
X184690001Y-82009999D01*
X184661009Y-81986206D01*
X182173804Y-79499003D01*
X182150001Y-79469999D01*
X182034276Y-79375026D01*
X181902247Y-79304454D01*
X181758986Y-79260997D01*
X181647333Y-79250000D01*
X181647322Y-79250000D01*
X181610000Y-79246324D01*
X181572678Y-79250000D01*
X132117322Y-79250000D01*
X132079999Y-79246324D01*
X132042676Y-79250000D01*
X132042667Y-79250000D01*
X131931014Y-79260997D01*
X131787753Y-79304454D01*
X131655724Y-79375026D01*
X131539999Y-79469999D01*
X131516201Y-79498997D01*
X130298998Y-80716201D01*
X130270000Y-80739999D01*
X130246202Y-80768997D01*
X130246201Y-80768998D01*
X130175026Y-80855724D01*
X130104454Y-80987754D01*
X130060998Y-81131015D01*
X130046324Y-81280000D01*
X127685000Y-81280000D01*
X127685000Y-78155000D01*
X192355000Y-78155000D01*
X192355001Y-121235000D01*
G36*
X178703748Y-104012858D02*
G01*
X178689605Y-104027000D01*
X178703748Y-104041143D01*
X178524143Y-104220748D01*
X178510000Y-104206605D01*
X178495858Y-104220748D01*
X178316253Y-104041143D01*
X178330395Y-104027000D01*
X178316253Y-104012858D01*
X178495858Y-103833253D01*
X178510000Y-103847395D01*
X178524143Y-103833253D01*
X178703748Y-104012858D01*
G37*
X178703748Y-104012858D02*
X178689605Y-104027000D01*
X178703748Y-104041143D01*
X178524143Y-104220748D01*
X178510000Y-104206605D01*
X178495858Y-104220748D01*
X178316253Y-104041143D01*
X178330395Y-104027000D01*
X178316253Y-104012858D01*
X178495858Y-103833253D01*
X178510000Y-103847395D01*
X178524143Y-103833253D01*
X178703748Y-104012858D01*
G36*
X178703748Y-99432858D02*
G01*
X178689605Y-99447000D01*
X178703748Y-99461143D01*
X178524143Y-99640748D01*
X178510000Y-99626605D01*
X178495858Y-99640748D01*
X178316253Y-99461143D01*
X178330395Y-99447000D01*
X178316253Y-99432858D01*
X178495858Y-99253253D01*
X178510000Y-99267395D01*
X178524143Y-99253253D01*
X178703748Y-99432858D01*
G37*
X178703748Y-99432858D02*
X178689605Y-99447000D01*
X178703748Y-99461143D01*
X178524143Y-99640748D01*
X178510000Y-99626605D01*
X178495858Y-99640748D01*
X178316253Y-99461143D01*
X178330395Y-99447000D01*
X178316253Y-99432858D01*
X178495858Y-99253253D01*
X178510000Y-99267395D01*
X178524143Y-99253253D01*
X178703748Y-99432858D01*
G36*
X178703748Y-97142858D02*
G01*
X178689605Y-97157000D01*
X178703748Y-97171143D01*
X178524143Y-97350748D01*
X178510000Y-97336605D01*
X178495858Y-97350748D01*
X178316253Y-97171143D01*
X178330395Y-97157000D01*
X178316253Y-97142858D01*
X178495858Y-96963253D01*
X178510000Y-96977395D01*
X178524143Y-96963253D01*
X178703748Y-97142858D01*
G37*
X178703748Y-97142858D02*
X178689605Y-97157000D01*
X178703748Y-97171143D01*
X178524143Y-97350748D01*
X178510000Y-97336605D01*
X178495858Y-97350748D01*
X178316253Y-97171143D01*
X178330395Y-97157000D01*
X178316253Y-97142858D01*
X178495858Y-96963253D01*
X178510000Y-96977395D01*
X178524143Y-96963253D01*
X178703748Y-97142858D01*
M02*
