M48
; DRILL file {KiCad (5.1.5)-3} date 03-May-20 8:07:40 PM
; FORMAT={-:-/ absolute / metric / decimal}
; #@! TF.CreationDate,2020-05-03T20:07:40+02:00
; #@! TF.GenerationSoftware,Kicad,Pcbnew,(5.1.5)-3
; #@! TF.FileFunction,Plated,1,2,PTH
FMAT,2
METRIC
T1C0.400
T2C1.000
T3C3.200
%
G90
G05
T1
X144.78Y-66.04
X144.78Y-81.28
X146.05Y-66.04
T2
X113.03Y-49.53
X113.03Y-52.07
X113.03Y-54.61
X113.03Y-57.15
X113.03Y-59.69
X113.03Y-62.23
X113.03Y-64.77
X113.03Y-67.31
X113.03Y-69.85
X113.03Y-72.39
X113.03Y-74.93
X113.03Y-77.47
X113.03Y-80.01
X113.03Y-82.55
X115.57Y-49.53
X115.57Y-52.07
X115.57Y-54.61
X115.57Y-57.15
X115.57Y-59.69
X115.57Y-62.23
X115.57Y-64.77
X115.57Y-67.31
X115.57Y-69.85
X115.57Y-72.39
X115.57Y-74.93
X115.57Y-77.47
X115.57Y-80.01
X115.57Y-82.55
X138.43Y-49.53
X138.43Y-52.07
X138.43Y-54.61
X138.43Y-57.15
X138.43Y-59.69
X138.43Y-62.23
X138.43Y-64.77
X138.43Y-67.31
X138.43Y-69.85
X138.43Y-72.39
X138.43Y-74.93
X138.43Y-77.47
X138.43Y-80.01
X138.43Y-82.55
X140.97Y-49.53
X140.97Y-52.07
X140.97Y-54.61
X140.97Y-57.15
X140.97Y-59.69
X140.97Y-62.23
X140.97Y-64.77
X140.97Y-67.31
X140.97Y-69.85
X140.97Y-72.39
X140.97Y-74.93
X140.97Y-77.47
X140.97Y-80.01
X140.97Y-82.55
X151.13Y-62.23
X151.13Y-64.52
X151.13Y-66.81
X151.13Y-69.1
X151.13Y-71.39
X153.11Y-61.085
X153.11Y-63.375
X153.11Y-65.665
X153.11Y-67.955
X153.11Y-70.245
X155.09Y-62.23
X155.09Y-64.52
X155.09Y-66.81
X155.09Y-69.1
X155.09Y-71.39
T3
X153.18Y-54.045
X153.18Y-79.045
T0
M30
