G04 #@! TF.GenerationSoftware,KiCad,Pcbnew,(5.1.5)-3*
G04 #@! TF.CreationDate,2020-05-03T20:07:27+02:00*
G04 #@! TF.ProjectId,VGA_adapter,5647415f-6164-4617-9074-65722e6b6963,rev?*
G04 #@! TF.SameCoordinates,Original*
G04 #@! TF.FileFunction,Legend,Top*
G04 #@! TF.FilePolarity,Positive*
%FSLAX46Y46*%
G04 Gerber Fmt 4.6, Leading zero omitted, Abs format (unit mm)*
G04 Created by KiCad (PCBNEW (5.1.5)-3) date 2020-05-03 20:07:27*
%MOMM*%
%LPD*%
G04 APERTURE LIST*
%ADD10C,0.150000*%
%ADD11C,0.120000*%
G04 APERTURE END LIST*
D10*
X152948571Y-86812380D02*
X152948571Y-85812380D01*
X153281904Y-86526666D01*
X153615238Y-85812380D01*
X153615238Y-86812380D01*
X154520000Y-86812380D02*
X154520000Y-86288571D01*
X154472380Y-86193333D01*
X154377142Y-86145714D01*
X154186666Y-86145714D01*
X154091428Y-86193333D01*
X154520000Y-86764761D02*
X154424761Y-86812380D01*
X154186666Y-86812380D01*
X154091428Y-86764761D01*
X154043809Y-86669523D01*
X154043809Y-86574285D01*
X154091428Y-86479047D01*
X154186666Y-86431428D01*
X154424761Y-86431428D01*
X154520000Y-86383809D01*
X154996190Y-86812380D02*
X154996190Y-86145714D01*
X154996190Y-86336190D02*
X155043809Y-86240952D01*
X155091428Y-86193333D01*
X155186666Y-86145714D01*
X155281904Y-86145714D01*
X156043809Y-86764761D02*
X155948571Y-86812380D01*
X155758095Y-86812380D01*
X155662857Y-86764761D01*
X155615238Y-86717142D01*
X155567619Y-86621904D01*
X155567619Y-86336190D01*
X155615238Y-86240952D01*
X155662857Y-86193333D01*
X155758095Y-86145714D01*
X155948571Y-86145714D01*
X156043809Y-86193333D01*
X156615238Y-86812380D02*
X156520000Y-86764761D01*
X156472380Y-86717142D01*
X156424761Y-86621904D01*
X156424761Y-86336190D01*
X156472380Y-86240952D01*
X156520000Y-86193333D01*
X156615238Y-86145714D01*
X156758095Y-86145714D01*
X156853333Y-86193333D01*
X156900952Y-86240952D01*
X156948571Y-86336190D01*
X156948571Y-86621904D01*
X156900952Y-86717142D01*
X156853333Y-86764761D01*
X156758095Y-86812380D01*
X156615238Y-86812380D01*
X157329523Y-86764761D02*
X157424761Y-86812380D01*
X157615238Y-86812380D01*
X157710476Y-86764761D01*
X157758095Y-86669523D01*
X157758095Y-86621904D01*
X157710476Y-86526666D01*
X157615238Y-86479047D01*
X157472380Y-86479047D01*
X157377142Y-86431428D01*
X157329523Y-86336190D01*
X157329523Y-86288571D01*
X157377142Y-86193333D01*
X157472380Y-86145714D01*
X157615238Y-86145714D01*
X157710476Y-86193333D01*
X159281904Y-86288571D02*
X159424761Y-86336190D01*
X159472380Y-86383809D01*
X159520000Y-86479047D01*
X159520000Y-86621904D01*
X159472380Y-86717142D01*
X159424761Y-86764761D01*
X159329523Y-86812380D01*
X158948571Y-86812380D01*
X158948571Y-85812380D01*
X159281904Y-85812380D01*
X159377142Y-85860000D01*
X159424761Y-85907619D01*
X159472380Y-86002857D01*
X159472380Y-86098095D01*
X159424761Y-86193333D01*
X159377142Y-86240952D01*
X159281904Y-86288571D01*
X158948571Y-86288571D01*
X159948571Y-86812380D02*
X159948571Y-86145714D01*
X159948571Y-86336190D02*
X159996190Y-86240952D01*
X160043809Y-86193333D01*
X160139047Y-86145714D01*
X160234285Y-86145714D01*
X160567619Y-86812380D02*
X160567619Y-86145714D01*
X160567619Y-85812380D02*
X160520000Y-85860000D01*
X160567619Y-85907619D01*
X160615238Y-85860000D01*
X160567619Y-85812380D01*
X160567619Y-85907619D01*
X160900952Y-86145714D02*
X161281904Y-86145714D01*
X161043809Y-85812380D02*
X161043809Y-86669523D01*
X161091428Y-86764761D01*
X161186666Y-86812380D01*
X161281904Y-86812380D01*
X161758095Y-86812380D02*
X161662857Y-86764761D01*
X161615238Y-86717142D01*
X161567619Y-86621904D01*
X161567619Y-86336190D01*
X161615238Y-86240952D01*
X161662857Y-86193333D01*
X161758095Y-86145714D01*
X161900952Y-86145714D01*
X161996190Y-86193333D01*
X162043809Y-86240952D01*
X162091428Y-86336190D01*
X162091428Y-86621904D01*
X162043809Y-86717142D01*
X161996190Y-86764761D01*
X161900952Y-86812380D01*
X161758095Y-86812380D01*
X162567619Y-86764761D02*
X162567619Y-86812380D01*
X162520000Y-86907619D01*
X162472380Y-86955238D01*
X163710476Y-85907619D02*
X163758095Y-85860000D01*
X163853333Y-85812380D01*
X164091428Y-85812380D01*
X164186666Y-85860000D01*
X164234285Y-85907619D01*
X164281904Y-86002857D01*
X164281904Y-86098095D01*
X164234285Y-86240952D01*
X163662857Y-86812380D01*
X164281904Y-86812380D01*
X164900952Y-85812380D02*
X164996190Y-85812380D01*
X165091428Y-85860000D01*
X165139047Y-85907619D01*
X165186666Y-86002857D01*
X165234285Y-86193333D01*
X165234285Y-86431428D01*
X165186666Y-86621904D01*
X165139047Y-86717142D01*
X165091428Y-86764761D01*
X164996190Y-86812380D01*
X164900952Y-86812380D01*
X164805714Y-86764761D01*
X164758095Y-86717142D01*
X164710476Y-86621904D01*
X164662857Y-86431428D01*
X164662857Y-86193333D01*
X164710476Y-86002857D01*
X164758095Y-85907619D01*
X164805714Y-85860000D01*
X164900952Y-85812380D01*
X165615238Y-85907619D02*
X165662857Y-85860000D01*
X165758095Y-85812380D01*
X165996190Y-85812380D01*
X166091428Y-85860000D01*
X166139047Y-85907619D01*
X166186666Y-86002857D01*
X166186666Y-86098095D01*
X166139047Y-86240952D01*
X165567619Y-86812380D01*
X166186666Y-86812380D01*
X166805714Y-85812380D02*
X166900952Y-85812380D01*
X166996190Y-85860000D01*
X167043809Y-85907619D01*
X167091428Y-86002857D01*
X167139047Y-86193333D01*
X167139047Y-86431428D01*
X167091428Y-86621904D01*
X167043809Y-86717142D01*
X166996190Y-86764761D01*
X166900952Y-86812380D01*
X166805714Y-86812380D01*
X166710476Y-86764761D01*
X166662857Y-86717142D01*
X166615238Y-86621904D01*
X166567619Y-86431428D01*
X166567619Y-86193333D01*
X166615238Y-86002857D01*
X166662857Y-85907619D01*
X166710476Y-85860000D01*
X166805714Y-85812380D01*
X139366666Y-46442380D02*
X139366666Y-47156666D01*
X139319047Y-47299523D01*
X139223809Y-47394761D01*
X139080952Y-47442380D01*
X138985714Y-47442380D01*
X139747619Y-46442380D02*
X140366666Y-46442380D01*
X140033333Y-46823333D01*
X140176190Y-46823333D01*
X140271428Y-46870952D01*
X140319047Y-46918571D01*
X140366666Y-47013809D01*
X140366666Y-47251904D01*
X140319047Y-47347142D01*
X140271428Y-47394761D01*
X140176190Y-47442380D01*
X139890476Y-47442380D01*
X139795238Y-47394761D01*
X139747619Y-47347142D01*
D11*
X148998675Y-62230000D02*
X148565662Y-62480000D01*
X148565662Y-61980000D02*
X148998675Y-62230000D01*
X148565662Y-62480000D02*
X148565662Y-61980000D01*
X149460000Y-51060000D02*
X158060000Y-51060000D01*
X149460000Y-82030000D02*
X149460000Y-51060000D01*
X158060000Y-82030000D02*
X149460000Y-82030000D01*
X142300000Y-83880000D02*
X137100000Y-83880000D01*
X142300000Y-50800000D02*
X139700000Y-50800000D01*
X142300000Y-49530000D02*
X142300000Y-48200000D01*
X137100000Y-48200000D02*
X137100000Y-83880000D01*
X139700000Y-50800000D02*
X139700000Y-48200000D01*
X142300000Y-48200000D02*
X140970000Y-48200000D01*
X139700000Y-48200000D02*
X137100000Y-48200000D01*
X142300000Y-50800000D02*
X142300000Y-83880000D01*
X116900000Y-48200000D02*
X115570000Y-48200000D01*
X116900000Y-49530000D02*
X116900000Y-48200000D01*
X114300000Y-48200000D02*
X111700000Y-48200000D01*
X114300000Y-50800000D02*
X114300000Y-48200000D01*
X116900000Y-50800000D02*
X114300000Y-50800000D01*
X111700000Y-48200000D02*
X111700000Y-83880000D01*
X116900000Y-50800000D02*
X116900000Y-83880000D01*
X116900000Y-83880000D02*
X111700000Y-83880000D01*
D10*
X147972380Y-66878333D02*
X148686666Y-66878333D01*
X148829523Y-66925952D01*
X148924761Y-67021190D01*
X148972380Y-67164047D01*
X148972380Y-67259285D01*
X148972380Y-65878333D02*
X148972380Y-66449761D01*
X148972380Y-66164047D02*
X147972380Y-66164047D01*
X148115238Y-66259285D01*
X148210476Y-66354523D01*
X148258095Y-66449761D01*
X165472380Y-70640238D02*
X166472380Y-70306904D01*
X165472380Y-69973571D01*
X165520000Y-69116428D02*
X165472380Y-69211666D01*
X165472380Y-69354523D01*
X165520000Y-69497380D01*
X165615238Y-69592619D01*
X165710476Y-69640238D01*
X165900952Y-69687857D01*
X166043809Y-69687857D01*
X166234285Y-69640238D01*
X166329523Y-69592619D01*
X166424761Y-69497380D01*
X166472380Y-69354523D01*
X166472380Y-69259285D01*
X166424761Y-69116428D01*
X166377142Y-69068809D01*
X166043809Y-69068809D01*
X166043809Y-69259285D01*
X166186666Y-68687857D02*
X166186666Y-68211666D01*
X166472380Y-68783095D02*
X165472380Y-68449761D01*
X166472380Y-68116428D01*
X165472380Y-66830714D02*
X165472380Y-66640238D01*
X165520000Y-66545000D01*
X165615238Y-66449761D01*
X165805714Y-66402142D01*
X166139047Y-66402142D01*
X166329523Y-66449761D01*
X166424761Y-66545000D01*
X166472380Y-66640238D01*
X166472380Y-66830714D01*
X166424761Y-66925952D01*
X166329523Y-67021190D01*
X166139047Y-67068809D01*
X165805714Y-67068809D01*
X165615238Y-67021190D01*
X165520000Y-66925952D01*
X165472380Y-66830714D01*
X165805714Y-65545000D02*
X166472380Y-65545000D01*
X165805714Y-65973571D02*
X166329523Y-65973571D01*
X166424761Y-65925952D01*
X166472380Y-65830714D01*
X166472380Y-65687857D01*
X166424761Y-65592619D01*
X166377142Y-65545000D01*
X165805714Y-65211666D02*
X165805714Y-64830714D01*
X165472380Y-65068809D02*
X166329523Y-65068809D01*
X166424761Y-65021190D01*
X166472380Y-64925952D01*
X166472380Y-64830714D01*
X165805714Y-64497380D02*
X166805714Y-64497380D01*
X165853333Y-64497380D02*
X165805714Y-64402142D01*
X165805714Y-64211666D01*
X165853333Y-64116428D01*
X165900952Y-64068809D01*
X165996190Y-64021190D01*
X166281904Y-64021190D01*
X166377142Y-64068809D01*
X166424761Y-64116428D01*
X166472380Y-64211666D01*
X166472380Y-64402142D01*
X166424761Y-64497380D01*
X165805714Y-63164047D02*
X166472380Y-63164047D01*
X165805714Y-63592619D02*
X166329523Y-63592619D01*
X166424761Y-63545000D01*
X166472380Y-63449761D01*
X166472380Y-63306904D01*
X166424761Y-63211666D01*
X166377142Y-63164047D01*
X165805714Y-62830714D02*
X165805714Y-62449761D01*
X165472380Y-62687857D02*
X166329523Y-62687857D01*
X166424761Y-62640238D01*
X166472380Y-62545000D01*
X166472380Y-62449761D01*
X113966666Y-46442380D02*
X113966666Y-47156666D01*
X113919047Y-47299523D01*
X113823809Y-47394761D01*
X113680952Y-47442380D01*
X113585714Y-47442380D01*
X114395238Y-46537619D02*
X114442857Y-46490000D01*
X114538095Y-46442380D01*
X114776190Y-46442380D01*
X114871428Y-46490000D01*
X114919047Y-46537619D01*
X114966666Y-46632857D01*
X114966666Y-46728095D01*
X114919047Y-46870952D01*
X114347619Y-47442380D01*
X114966666Y-47442380D01*
X116936666Y-85542380D02*
X116936666Y-84542380D01*
X117317619Y-84542380D01*
X117412857Y-84590000D01*
X117460476Y-84637619D01*
X117508095Y-84732857D01*
X117508095Y-84875714D01*
X117460476Y-84970952D01*
X117412857Y-85018571D01*
X117317619Y-85066190D01*
X116936666Y-85066190D01*
X117936666Y-85542380D02*
X117936666Y-84542380D01*
X118984285Y-85447142D02*
X118936666Y-85494761D01*
X118793809Y-85542380D01*
X118698571Y-85542380D01*
X118555714Y-85494761D01*
X118460476Y-85399523D01*
X118412857Y-85304285D01*
X118365238Y-85113809D01*
X118365238Y-84970952D01*
X118412857Y-84780476D01*
X118460476Y-84685238D01*
X118555714Y-84590000D01*
X118698571Y-84542380D01*
X118793809Y-84542380D01*
X118936666Y-84590000D01*
X118984285Y-84637619D01*
X119365238Y-84637619D02*
X119412857Y-84590000D01*
X119508095Y-84542380D01*
X119746190Y-84542380D01*
X119841428Y-84590000D01*
X119889047Y-84637619D01*
X119936666Y-84732857D01*
X119936666Y-84828095D01*
X119889047Y-84970952D01*
X119317619Y-85542380D01*
X119936666Y-85542380D01*
X120793809Y-84875714D02*
X120793809Y-85542380D01*
X120555714Y-84494761D02*
X120317619Y-85209047D01*
X120936666Y-85209047D01*
X122650952Y-85447142D02*
X122603333Y-85494761D01*
X122460476Y-85542380D01*
X122365238Y-85542380D01*
X122222380Y-85494761D01*
X122127142Y-85399523D01*
X122079523Y-85304285D01*
X122031904Y-85113809D01*
X122031904Y-84970952D01*
X122079523Y-84780476D01*
X122127142Y-84685238D01*
X122222380Y-84590000D01*
X122365238Y-84542380D01*
X122460476Y-84542380D01*
X122603333Y-84590000D01*
X122650952Y-84637619D01*
X123508095Y-84875714D02*
X123508095Y-85542380D01*
X123079523Y-84875714D02*
X123079523Y-85399523D01*
X123127142Y-85494761D01*
X123222380Y-85542380D01*
X123365238Y-85542380D01*
X123460476Y-85494761D01*
X123508095Y-85447142D01*
X123984285Y-85542380D02*
X123984285Y-84875714D01*
X123984285Y-85066190D02*
X124031904Y-84970952D01*
X124079523Y-84923333D01*
X124174761Y-84875714D01*
X124270000Y-84875714D01*
X124603333Y-85542380D02*
X124603333Y-84875714D01*
X124603333Y-84542380D02*
X124555714Y-84590000D01*
X124603333Y-84637619D01*
X124650952Y-84590000D01*
X124603333Y-84542380D01*
X124603333Y-84637619D01*
X125222380Y-85542380D02*
X125127142Y-85494761D01*
X125079523Y-85447142D01*
X125031904Y-85351904D01*
X125031904Y-85066190D01*
X125079523Y-84970952D01*
X125127142Y-84923333D01*
X125222380Y-84875714D01*
X125365238Y-84875714D01*
X125460476Y-84923333D01*
X125508095Y-84970952D01*
X125555714Y-85066190D01*
X125555714Y-85351904D01*
X125508095Y-85447142D01*
X125460476Y-85494761D01*
X125365238Y-85542380D01*
X125222380Y-85542380D01*
X125936666Y-85494761D02*
X126031904Y-85542380D01*
X126222380Y-85542380D01*
X126317619Y-85494761D01*
X126365238Y-85399523D01*
X126365238Y-85351904D01*
X126317619Y-85256666D01*
X126222380Y-85209047D01*
X126079523Y-85209047D01*
X125984285Y-85161428D01*
X125936666Y-85066190D01*
X125936666Y-85018571D01*
X125984285Y-84923333D01*
X126079523Y-84875714D01*
X126222380Y-84875714D01*
X126317619Y-84923333D01*
X126793809Y-85542380D02*
X126793809Y-84875714D01*
X126793809Y-84542380D02*
X126746190Y-84590000D01*
X126793809Y-84637619D01*
X126841428Y-84590000D01*
X126793809Y-84542380D01*
X126793809Y-84637619D01*
X127127142Y-84875714D02*
X127508095Y-84875714D01*
X127270000Y-84542380D02*
X127270000Y-85399523D01*
X127317619Y-85494761D01*
X127412857Y-85542380D01*
X127508095Y-85542380D01*
X127746190Y-84875714D02*
X127984285Y-85542380D01*
X128222380Y-84875714D02*
X127984285Y-85542380D01*
X127889047Y-85780476D01*
X127841428Y-85828095D01*
X127746190Y-85875714D01*
X129698571Y-85018571D02*
X129841428Y-85066190D01*
X129889047Y-85113809D01*
X129936666Y-85209047D01*
X129936666Y-85351904D01*
X129889047Y-85447142D01*
X129841428Y-85494761D01*
X129746190Y-85542380D01*
X129365238Y-85542380D01*
X129365238Y-84542380D01*
X129698571Y-84542380D01*
X129793809Y-84590000D01*
X129841428Y-84637619D01*
X129889047Y-84732857D01*
X129889047Y-84828095D01*
X129841428Y-84923333D01*
X129793809Y-84970952D01*
X129698571Y-85018571D01*
X129365238Y-85018571D01*
X130508095Y-85542380D02*
X130412857Y-85494761D01*
X130365238Y-85447142D01*
X130317619Y-85351904D01*
X130317619Y-85066190D01*
X130365238Y-84970952D01*
X130412857Y-84923333D01*
X130508095Y-84875714D01*
X130650952Y-84875714D01*
X130746190Y-84923333D01*
X130793809Y-84970952D01*
X130841428Y-85066190D01*
X130841428Y-85351904D01*
X130793809Y-85447142D01*
X130746190Y-85494761D01*
X130650952Y-85542380D01*
X130508095Y-85542380D01*
X131698571Y-85542380D02*
X131698571Y-85018571D01*
X131650952Y-84923333D01*
X131555714Y-84875714D01*
X131365238Y-84875714D01*
X131270000Y-84923333D01*
X131698571Y-85494761D02*
X131603333Y-85542380D01*
X131365238Y-85542380D01*
X131270000Y-85494761D01*
X131222380Y-85399523D01*
X131222380Y-85304285D01*
X131270000Y-85209047D01*
X131365238Y-85161428D01*
X131603333Y-85161428D01*
X131698571Y-85113809D01*
X132174761Y-85542380D02*
X132174761Y-84875714D01*
X132174761Y-85066190D02*
X132222380Y-84970952D01*
X132270000Y-84923333D01*
X132365238Y-84875714D01*
X132460476Y-84875714D01*
X133222380Y-85542380D02*
X133222380Y-84542380D01*
X133222380Y-85494761D02*
X133127142Y-85542380D01*
X132936666Y-85542380D01*
X132841428Y-85494761D01*
X132793809Y-85447142D01*
X132746190Y-85351904D01*
X132746190Y-85066190D01*
X132793809Y-84970952D01*
X132841428Y-84923333D01*
X132936666Y-84875714D01*
X133127142Y-84875714D01*
X133222380Y-84923333D01*
X134412857Y-85256666D02*
X134889047Y-85256666D01*
X134317619Y-85542380D02*
X134650952Y-84542380D01*
X134984285Y-85542380D01*
X135746190Y-85542380D02*
X135746190Y-84542380D01*
X135746190Y-85494761D02*
X135650952Y-85542380D01*
X135460476Y-85542380D01*
X135365238Y-85494761D01*
X135317619Y-85447142D01*
X135270000Y-85351904D01*
X135270000Y-85066190D01*
X135317619Y-84970952D01*
X135365238Y-84923333D01*
X135460476Y-84875714D01*
X135650952Y-84875714D01*
X135746190Y-84923333D01*
X136650952Y-85542380D02*
X136650952Y-85018571D01*
X136603333Y-84923333D01*
X136508095Y-84875714D01*
X136317619Y-84875714D01*
X136222380Y-84923333D01*
X136650952Y-85494761D02*
X136555714Y-85542380D01*
X136317619Y-85542380D01*
X136222380Y-85494761D01*
X136174761Y-85399523D01*
X136174761Y-85304285D01*
X136222380Y-85209047D01*
X136317619Y-85161428D01*
X136555714Y-85161428D01*
X136650952Y-85113809D01*
X137127142Y-84875714D02*
X137127142Y-85875714D01*
X137127142Y-84923333D02*
X137222380Y-84875714D01*
X137412857Y-84875714D01*
X137508095Y-84923333D01*
X137555714Y-84970952D01*
X137603333Y-85066190D01*
X137603333Y-85351904D01*
X137555714Y-85447142D01*
X137508095Y-85494761D01*
X137412857Y-85542380D01*
X137222380Y-85542380D01*
X137127142Y-85494761D01*
X137889047Y-84875714D02*
X138270000Y-84875714D01*
X138031904Y-84542380D02*
X138031904Y-85399523D01*
X138079523Y-85494761D01*
X138174761Y-85542380D01*
X138270000Y-85542380D01*
X138984285Y-85494761D02*
X138889047Y-85542380D01*
X138698571Y-85542380D01*
X138603333Y-85494761D01*
X138555714Y-85399523D01*
X138555714Y-85018571D01*
X138603333Y-84923333D01*
X138698571Y-84875714D01*
X138889047Y-84875714D01*
X138984285Y-84923333D01*
X139031904Y-85018571D01*
X139031904Y-85113809D01*
X138555714Y-85209047D01*
X139460476Y-85542380D02*
X139460476Y-84875714D01*
X139460476Y-85066190D02*
X139508095Y-84970952D01*
X139555714Y-84923333D01*
X139650952Y-84875714D01*
X139746190Y-84875714D01*
X133506785Y-49030000D02*
X133411547Y-48982380D01*
X133268690Y-48982380D01*
X133125833Y-49030000D01*
X133030595Y-49125238D01*
X132982976Y-49220476D01*
X132935357Y-49410952D01*
X132935357Y-49553809D01*
X132982976Y-49744285D01*
X133030595Y-49839523D01*
X133125833Y-49934761D01*
X133268690Y-49982380D01*
X133363928Y-49982380D01*
X133506785Y-49934761D01*
X133554404Y-49887142D01*
X133554404Y-49553809D01*
X133363928Y-49553809D01*
X133982976Y-49982380D02*
X133982976Y-48982380D01*
X134554404Y-49982380D01*
X134554404Y-48982380D01*
X135030595Y-49982380D02*
X135030595Y-48982380D01*
X135268690Y-48982380D01*
X135411547Y-49030000D01*
X135506785Y-49125238D01*
X135554404Y-49220476D01*
X135602023Y-49410952D01*
X135602023Y-49553809D01*
X135554404Y-49744285D01*
X135506785Y-49839523D01*
X135411547Y-49934761D01*
X135268690Y-49982380D01*
X135030595Y-49982380D01*
X133649642Y-55062380D02*
X133316309Y-54586190D01*
X133078214Y-55062380D02*
X133078214Y-54062380D01*
X133459166Y-54062380D01*
X133554404Y-54110000D01*
X133602023Y-54157619D01*
X133649642Y-54252857D01*
X133649642Y-54395714D01*
X133602023Y-54490952D01*
X133554404Y-54538571D01*
X133459166Y-54586190D01*
X133078214Y-54586190D01*
X134649642Y-54967142D02*
X134602023Y-55014761D01*
X134459166Y-55062380D01*
X134363928Y-55062380D01*
X134221071Y-55014761D01*
X134125833Y-54919523D01*
X134078214Y-54824285D01*
X134030595Y-54633809D01*
X134030595Y-54490952D01*
X134078214Y-54300476D01*
X134125833Y-54205238D01*
X134221071Y-54110000D01*
X134363928Y-54062380D01*
X134459166Y-54062380D01*
X134602023Y-54110000D01*
X134649642Y-54157619D01*
X134982976Y-54062380D02*
X135602023Y-54062380D01*
X135268690Y-54443333D01*
X135411547Y-54443333D01*
X135506785Y-54490952D01*
X135554404Y-54538571D01*
X135602023Y-54633809D01*
X135602023Y-54871904D01*
X135554404Y-54967142D01*
X135506785Y-55014761D01*
X135411547Y-55062380D01*
X135125833Y-55062380D01*
X135030595Y-55014761D01*
X134982976Y-54967142D01*
X133649642Y-52522380D02*
X133316309Y-52046190D01*
X133078214Y-52522380D02*
X133078214Y-51522380D01*
X133459166Y-51522380D01*
X133554404Y-51570000D01*
X133602023Y-51617619D01*
X133649642Y-51712857D01*
X133649642Y-51855714D01*
X133602023Y-51950952D01*
X133554404Y-51998571D01*
X133459166Y-52046190D01*
X133078214Y-52046190D01*
X134649642Y-52427142D02*
X134602023Y-52474761D01*
X134459166Y-52522380D01*
X134363928Y-52522380D01*
X134221071Y-52474761D01*
X134125833Y-52379523D01*
X134078214Y-52284285D01*
X134030595Y-52093809D01*
X134030595Y-51950952D01*
X134078214Y-51760476D01*
X134125833Y-51665238D01*
X134221071Y-51570000D01*
X134363928Y-51522380D01*
X134459166Y-51522380D01*
X134602023Y-51570000D01*
X134649642Y-51617619D01*
X135554404Y-51522380D02*
X135078214Y-51522380D01*
X135030595Y-51998571D01*
X135078214Y-51950952D01*
X135173452Y-51903333D01*
X135411547Y-51903333D01*
X135506785Y-51950952D01*
X135554404Y-51998571D01*
X135602023Y-52093809D01*
X135602023Y-52331904D01*
X135554404Y-52427142D01*
X135506785Y-52474761D01*
X135411547Y-52522380D01*
X135173452Y-52522380D01*
X135078214Y-52474761D01*
X135030595Y-52427142D01*
X133506785Y-56650000D02*
X133411547Y-56602380D01*
X133268690Y-56602380D01*
X133125833Y-56650000D01*
X133030595Y-56745238D01*
X132982976Y-56840476D01*
X132935357Y-57030952D01*
X132935357Y-57173809D01*
X132982976Y-57364285D01*
X133030595Y-57459523D01*
X133125833Y-57554761D01*
X133268690Y-57602380D01*
X133363928Y-57602380D01*
X133506785Y-57554761D01*
X133554404Y-57507142D01*
X133554404Y-57173809D01*
X133363928Y-57173809D01*
X133982976Y-57602380D02*
X133982976Y-56602380D01*
X134554404Y-57602380D01*
X134554404Y-56602380D01*
X135030595Y-57602380D02*
X135030595Y-56602380D01*
X135268690Y-56602380D01*
X135411547Y-56650000D01*
X135506785Y-56745238D01*
X135554404Y-56840476D01*
X135602023Y-57030952D01*
X135602023Y-57173809D01*
X135554404Y-57364285D01*
X135506785Y-57459523D01*
X135411547Y-57554761D01*
X135268690Y-57602380D01*
X135030595Y-57602380D01*
X133792500Y-60142380D02*
X133459166Y-59666190D01*
X133221071Y-60142380D02*
X133221071Y-59142380D01*
X133602023Y-59142380D01*
X133697261Y-59190000D01*
X133744880Y-59237619D01*
X133792500Y-59332857D01*
X133792500Y-59475714D01*
X133744880Y-59570952D01*
X133697261Y-59618571D01*
X133602023Y-59666190D01*
X133221071Y-59666190D01*
X134173452Y-59856666D02*
X134649642Y-59856666D01*
X134078214Y-60142380D02*
X134411547Y-59142380D01*
X134744880Y-60142380D01*
X135506785Y-59475714D02*
X135506785Y-60142380D01*
X135268690Y-59094761D02*
X135030595Y-59809047D01*
X135649642Y-59809047D01*
X144417023Y-55062380D02*
X144083690Y-54586190D01*
X143845595Y-55062380D02*
X143845595Y-54062380D01*
X144226547Y-54062380D01*
X144321785Y-54110000D01*
X144369404Y-54157619D01*
X144417023Y-54252857D01*
X144417023Y-54395714D01*
X144369404Y-54490952D01*
X144321785Y-54538571D01*
X144226547Y-54586190D01*
X143845595Y-54586190D01*
X145417023Y-54967142D02*
X145369404Y-55014761D01*
X145226547Y-55062380D01*
X145131309Y-55062380D01*
X144988452Y-55014761D01*
X144893214Y-54919523D01*
X144845595Y-54824285D01*
X144797976Y-54633809D01*
X144797976Y-54490952D01*
X144845595Y-54300476D01*
X144893214Y-54205238D01*
X144988452Y-54110000D01*
X145131309Y-54062380D01*
X145226547Y-54062380D01*
X145369404Y-54110000D01*
X145417023Y-54157619D01*
X146274166Y-54395714D02*
X146274166Y-55062380D01*
X146036071Y-54014761D02*
X145797976Y-54729047D01*
X146417023Y-54729047D01*
X144417023Y-52522380D02*
X144083690Y-52046190D01*
X143845595Y-52522380D02*
X143845595Y-51522380D01*
X144226547Y-51522380D01*
X144321785Y-51570000D01*
X144369404Y-51617619D01*
X144417023Y-51712857D01*
X144417023Y-51855714D01*
X144369404Y-51950952D01*
X144321785Y-51998571D01*
X144226547Y-52046190D01*
X143845595Y-52046190D01*
X144797976Y-52236666D02*
X145274166Y-52236666D01*
X144702738Y-52522380D02*
X145036071Y-51522380D01*
X145369404Y-52522380D01*
X146226547Y-52522380D02*
X145655119Y-52522380D01*
X145940833Y-52522380D02*
X145940833Y-51522380D01*
X145845595Y-51665238D01*
X145750357Y-51760476D01*
X145655119Y-51808095D01*
X147083690Y-51855714D02*
X147083690Y-52522380D01*
X146845595Y-51474761D02*
X146607500Y-52189047D01*
X147226547Y-52189047D01*
X133649642Y-77922380D02*
X133316309Y-77446190D01*
X133078214Y-77922380D02*
X133078214Y-76922380D01*
X133459166Y-76922380D01*
X133554404Y-76970000D01*
X133602023Y-77017619D01*
X133649642Y-77112857D01*
X133649642Y-77255714D01*
X133602023Y-77350952D01*
X133554404Y-77398571D01*
X133459166Y-77446190D01*
X133078214Y-77446190D01*
X134411547Y-77398571D02*
X134554404Y-77446190D01*
X134602023Y-77493809D01*
X134649642Y-77589047D01*
X134649642Y-77731904D01*
X134602023Y-77827142D01*
X134554404Y-77874761D01*
X134459166Y-77922380D01*
X134078214Y-77922380D01*
X134078214Y-76922380D01*
X134411547Y-76922380D01*
X134506785Y-76970000D01*
X134554404Y-77017619D01*
X134602023Y-77112857D01*
X134602023Y-77208095D01*
X134554404Y-77303333D01*
X134506785Y-77350952D01*
X134411547Y-77398571D01*
X134078214Y-77398571D01*
X135030595Y-77017619D02*
X135078214Y-76970000D01*
X135173452Y-76922380D01*
X135411547Y-76922380D01*
X135506785Y-76970000D01*
X135554404Y-77017619D01*
X135602023Y-77112857D01*
X135602023Y-77208095D01*
X135554404Y-77350952D01*
X134982976Y-77922380D01*
X135602023Y-77922380D01*
X133792500Y-83002380D02*
X133459166Y-82526190D01*
X133221071Y-83002380D02*
X133221071Y-82002380D01*
X133602023Y-82002380D01*
X133697261Y-82050000D01*
X133744880Y-82097619D01*
X133792500Y-82192857D01*
X133792500Y-82335714D01*
X133744880Y-82430952D01*
X133697261Y-82478571D01*
X133602023Y-82526190D01*
X133221071Y-82526190D01*
X134173452Y-82716666D02*
X134649642Y-82716666D01*
X134078214Y-83002380D02*
X134411547Y-82002380D01*
X134744880Y-83002380D01*
X135268690Y-82002380D02*
X135363928Y-82002380D01*
X135459166Y-82050000D01*
X135506785Y-82097619D01*
X135554404Y-82192857D01*
X135602023Y-82383333D01*
X135602023Y-82621428D01*
X135554404Y-82811904D01*
X135506785Y-82907142D01*
X135459166Y-82954761D01*
X135363928Y-83002380D01*
X135268690Y-83002380D01*
X135173452Y-82954761D01*
X135125833Y-82907142D01*
X135078214Y-82811904D01*
X135030595Y-82621428D01*
X135030595Y-82383333D01*
X135078214Y-82192857D01*
X135125833Y-82097619D01*
X135173452Y-82050000D01*
X135268690Y-82002380D01*
X134792500Y-64222380D02*
X134316309Y-64222380D01*
X134268690Y-64698571D01*
X134316309Y-64650952D01*
X134411547Y-64603333D01*
X134649642Y-64603333D01*
X134744880Y-64650952D01*
X134792500Y-64698571D01*
X134840119Y-64793809D01*
X134840119Y-65031904D01*
X134792500Y-65127142D01*
X134744880Y-65174761D01*
X134649642Y-65222380D01*
X134411547Y-65222380D01*
X134316309Y-65174761D01*
X134268690Y-65127142D01*
X135173452Y-64555714D02*
X135411547Y-65222380D01*
X135649642Y-64555714D01*
X133649642Y-80462380D02*
X133316309Y-79986190D01*
X133078214Y-80462380D02*
X133078214Y-79462380D01*
X133459166Y-79462380D01*
X133554404Y-79510000D01*
X133602023Y-79557619D01*
X133649642Y-79652857D01*
X133649642Y-79795714D01*
X133602023Y-79890952D01*
X133554404Y-79938571D01*
X133459166Y-79986190D01*
X133078214Y-79986190D01*
X134411547Y-79938571D02*
X134554404Y-79986190D01*
X134602023Y-80033809D01*
X134649642Y-80129047D01*
X134649642Y-80271904D01*
X134602023Y-80367142D01*
X134554404Y-80414761D01*
X134459166Y-80462380D01*
X134078214Y-80462380D01*
X134078214Y-79462380D01*
X134411547Y-79462380D01*
X134506785Y-79510000D01*
X134554404Y-79557619D01*
X134602023Y-79652857D01*
X134602023Y-79748095D01*
X134554404Y-79843333D01*
X134506785Y-79890952D01*
X134411547Y-79938571D01*
X134078214Y-79938571D01*
X135268690Y-79462380D02*
X135363928Y-79462380D01*
X135459166Y-79510000D01*
X135506785Y-79557619D01*
X135554404Y-79652857D01*
X135602023Y-79843333D01*
X135602023Y-80081428D01*
X135554404Y-80271904D01*
X135506785Y-80367142D01*
X135459166Y-80414761D01*
X135363928Y-80462380D01*
X135268690Y-80462380D01*
X135173452Y-80414761D01*
X135125833Y-80367142D01*
X135078214Y-80271904D01*
X135030595Y-80081428D01*
X135030595Y-79843333D01*
X135078214Y-79652857D01*
X135125833Y-79557619D01*
X135173452Y-79510000D01*
X135268690Y-79462380D01*
X143702738Y-48982380D02*
X144036071Y-49982380D01*
X144369404Y-48982380D01*
X144702738Y-49982380D02*
X144702738Y-48982380D01*
X144940833Y-48982380D01*
X145083690Y-49030000D01*
X145178928Y-49125238D01*
X145226547Y-49220476D01*
X145274166Y-49410952D01*
X145274166Y-49553809D01*
X145226547Y-49744285D01*
X145178928Y-49839523D01*
X145083690Y-49934761D01*
X144940833Y-49982380D01*
X144702738Y-49982380D01*
X145702738Y-49982380D02*
X145702738Y-48982380D01*
X145940833Y-48982380D01*
X146083690Y-49030000D01*
X146178928Y-49125238D01*
X146226547Y-49220476D01*
X146274166Y-49410952D01*
X146274166Y-49553809D01*
X146226547Y-49744285D01*
X146178928Y-49839523D01*
X146083690Y-49934761D01*
X145940833Y-49982380D01*
X145702738Y-49982380D01*
X144417023Y-57602380D02*
X144083690Y-57126190D01*
X143845595Y-57602380D02*
X143845595Y-56602380D01*
X144226547Y-56602380D01*
X144321785Y-56650000D01*
X144369404Y-56697619D01*
X144417023Y-56792857D01*
X144417023Y-56935714D01*
X144369404Y-57030952D01*
X144321785Y-57078571D01*
X144226547Y-57126190D01*
X143845595Y-57126190D01*
X144797976Y-57316666D02*
X145274166Y-57316666D01*
X144702738Y-57602380D02*
X145036071Y-56602380D01*
X145369404Y-57602380D01*
X145750357Y-57602380D02*
X145940833Y-57602380D01*
X146036071Y-57554761D01*
X146083690Y-57507142D01*
X146178928Y-57364285D01*
X146226547Y-57173809D01*
X146226547Y-56792857D01*
X146178928Y-56697619D01*
X146131309Y-56650000D01*
X146036071Y-56602380D01*
X145845595Y-56602380D01*
X145750357Y-56650000D01*
X145702738Y-56697619D01*
X145655119Y-56792857D01*
X145655119Y-57030952D01*
X145702738Y-57126190D01*
X145750357Y-57173809D01*
X145845595Y-57221428D01*
X146036071Y-57221428D01*
X146131309Y-57173809D01*
X146178928Y-57126190D01*
X146226547Y-57030952D01*
X144369404Y-61730000D02*
X144274166Y-61682380D01*
X144131309Y-61682380D01*
X143988452Y-61730000D01*
X143893214Y-61825238D01*
X143845595Y-61920476D01*
X143797976Y-62110952D01*
X143797976Y-62253809D01*
X143845595Y-62444285D01*
X143893214Y-62539523D01*
X143988452Y-62634761D01*
X144131309Y-62682380D01*
X144226547Y-62682380D01*
X144369404Y-62634761D01*
X144417023Y-62587142D01*
X144417023Y-62253809D01*
X144226547Y-62253809D01*
X144845595Y-62682380D02*
X144845595Y-61682380D01*
X145417023Y-62682380D01*
X145417023Y-61682380D01*
X145893214Y-62682380D02*
X145893214Y-61682380D01*
X146131309Y-61682380D01*
X146274166Y-61730000D01*
X146369404Y-61825238D01*
X146417023Y-61920476D01*
X146464642Y-62110952D01*
X146464642Y-62253809D01*
X146417023Y-62444285D01*
X146369404Y-62539523D01*
X146274166Y-62634761D01*
X146131309Y-62682380D01*
X145893214Y-62682380D01*
X133649642Y-62682380D02*
X133316309Y-62206190D01*
X133078214Y-62682380D02*
X133078214Y-61682380D01*
X133459166Y-61682380D01*
X133554404Y-61730000D01*
X133602023Y-61777619D01*
X133649642Y-61872857D01*
X133649642Y-62015714D01*
X133602023Y-62110952D01*
X133554404Y-62158571D01*
X133459166Y-62206190D01*
X133078214Y-62206190D01*
X134411547Y-62158571D02*
X134554404Y-62206190D01*
X134602023Y-62253809D01*
X134649642Y-62349047D01*
X134649642Y-62491904D01*
X134602023Y-62587142D01*
X134554404Y-62634761D01*
X134459166Y-62682380D01*
X134078214Y-62682380D01*
X134078214Y-61682380D01*
X134411547Y-61682380D01*
X134506785Y-61730000D01*
X134554404Y-61777619D01*
X134602023Y-61872857D01*
X134602023Y-61968095D01*
X134554404Y-62063333D01*
X134506785Y-62110952D01*
X134411547Y-62158571D01*
X134078214Y-62158571D01*
X135506785Y-62015714D02*
X135506785Y-62682380D01*
X135268690Y-61634761D02*
X135030595Y-62349047D01*
X135649642Y-62349047D01*
X132792500Y-71842380D02*
X133411547Y-71842380D01*
X133078214Y-72223333D01*
X133221071Y-72223333D01*
X133316309Y-72270952D01*
X133363928Y-72318571D01*
X133411547Y-72413809D01*
X133411547Y-72651904D01*
X133363928Y-72747142D01*
X133316309Y-72794761D01*
X133221071Y-72842380D01*
X132935357Y-72842380D01*
X132840119Y-72794761D01*
X132792500Y-72747142D01*
X133840119Y-72747142D02*
X133887738Y-72794761D01*
X133840119Y-72842380D01*
X133792500Y-72794761D01*
X133840119Y-72747142D01*
X133840119Y-72842380D01*
X134221071Y-71842380D02*
X134840119Y-71842380D01*
X134506785Y-72223333D01*
X134649642Y-72223333D01*
X134744880Y-72270952D01*
X134792500Y-72318571D01*
X134840119Y-72413809D01*
X134840119Y-72651904D01*
X134792500Y-72747142D01*
X134744880Y-72794761D01*
X134649642Y-72842380D01*
X134363928Y-72842380D01*
X134268690Y-72794761D01*
X134221071Y-72747142D01*
X135173452Y-72175714D02*
X135411547Y-72842380D01*
X135649642Y-72175714D01*
X144417023Y-65222380D02*
X144083690Y-64746190D01*
X143845595Y-65222380D02*
X143845595Y-64222380D01*
X144226547Y-64222380D01*
X144321785Y-64270000D01*
X144369404Y-64317619D01*
X144417023Y-64412857D01*
X144417023Y-64555714D01*
X144369404Y-64650952D01*
X144321785Y-64698571D01*
X144226547Y-64746190D01*
X143845595Y-64746190D01*
X144797976Y-64936666D02*
X145274166Y-64936666D01*
X144702738Y-65222380D02*
X145036071Y-64222380D01*
X145369404Y-65222380D01*
X145845595Y-64650952D02*
X145750357Y-64603333D01*
X145702738Y-64555714D01*
X145655119Y-64460476D01*
X145655119Y-64412857D01*
X145702738Y-64317619D01*
X145750357Y-64270000D01*
X145845595Y-64222380D01*
X146036071Y-64222380D01*
X146131309Y-64270000D01*
X146178928Y-64317619D01*
X146226547Y-64412857D01*
X146226547Y-64460476D01*
X146178928Y-64555714D01*
X146131309Y-64603333D01*
X146036071Y-64650952D01*
X145845595Y-64650952D01*
X145750357Y-64698571D01*
X145702738Y-64746190D01*
X145655119Y-64841428D01*
X145655119Y-65031904D01*
X145702738Y-65127142D01*
X145750357Y-65174761D01*
X145845595Y-65222380D01*
X146036071Y-65222380D01*
X146131309Y-65174761D01*
X146178928Y-65127142D01*
X146226547Y-65031904D01*
X146226547Y-64841428D01*
X146178928Y-64746190D01*
X146131309Y-64698571D01*
X146036071Y-64650952D01*
X132840119Y-70302380D02*
X132506785Y-69826190D01*
X132268690Y-70302380D02*
X132268690Y-69302380D01*
X132649642Y-69302380D01*
X132744880Y-69350000D01*
X132792500Y-69397619D01*
X132840119Y-69492857D01*
X132840119Y-69635714D01*
X132792500Y-69730952D01*
X132744880Y-69778571D01*
X132649642Y-69826190D01*
X132268690Y-69826190D01*
X133221071Y-70016666D02*
X133697261Y-70016666D01*
X133125833Y-70302380D02*
X133459166Y-69302380D01*
X133792500Y-70302380D01*
X134649642Y-70302380D02*
X134078214Y-70302380D01*
X134363928Y-70302380D02*
X134363928Y-69302380D01*
X134268690Y-69445238D01*
X134173452Y-69540476D01*
X134078214Y-69588095D01*
X134982976Y-69302380D02*
X135602023Y-69302380D01*
X135268690Y-69683333D01*
X135411547Y-69683333D01*
X135506785Y-69730952D01*
X135554404Y-69778571D01*
X135602023Y-69873809D01*
X135602023Y-70111904D01*
X135554404Y-70207142D01*
X135506785Y-70254761D01*
X135411547Y-70302380D01*
X135125833Y-70302380D01*
X135030595Y-70254761D01*
X134982976Y-70207142D01*
X133649642Y-75382380D02*
X133316309Y-74906190D01*
X133078214Y-75382380D02*
X133078214Y-74382380D01*
X133459166Y-74382380D01*
X133554404Y-74430000D01*
X133602023Y-74477619D01*
X133649642Y-74572857D01*
X133649642Y-74715714D01*
X133602023Y-74810952D01*
X133554404Y-74858571D01*
X133459166Y-74906190D01*
X133078214Y-74906190D01*
X134649642Y-75287142D02*
X134602023Y-75334761D01*
X134459166Y-75382380D01*
X134363928Y-75382380D01*
X134221071Y-75334761D01*
X134125833Y-75239523D01*
X134078214Y-75144285D01*
X134030595Y-74953809D01*
X134030595Y-74810952D01*
X134078214Y-74620476D01*
X134125833Y-74525238D01*
X134221071Y-74430000D01*
X134363928Y-74382380D01*
X134459166Y-74382380D01*
X134602023Y-74430000D01*
X134649642Y-74477619D01*
X135268690Y-74382380D02*
X135363928Y-74382380D01*
X135459166Y-74430000D01*
X135506785Y-74477619D01*
X135554404Y-74572857D01*
X135602023Y-74763333D01*
X135602023Y-75001428D01*
X135554404Y-75191904D01*
X135506785Y-75287142D01*
X135459166Y-75334761D01*
X135363928Y-75382380D01*
X135268690Y-75382380D01*
X135173452Y-75334761D01*
X135125833Y-75287142D01*
X135078214Y-75191904D01*
X135030595Y-75001428D01*
X135030595Y-74763333D01*
X135078214Y-74572857D01*
X135125833Y-74477619D01*
X135173452Y-74430000D01*
X135268690Y-74382380D01*
X133792500Y-67762380D02*
X133459166Y-67286190D01*
X133221071Y-67762380D02*
X133221071Y-66762380D01*
X133602023Y-66762380D01*
X133697261Y-66810000D01*
X133744880Y-66857619D01*
X133792500Y-66952857D01*
X133792500Y-67095714D01*
X133744880Y-67190952D01*
X133697261Y-67238571D01*
X133602023Y-67286190D01*
X133221071Y-67286190D01*
X134173452Y-67476666D02*
X134649642Y-67476666D01*
X134078214Y-67762380D02*
X134411547Y-66762380D01*
X134744880Y-67762380D01*
X134982976Y-66762380D02*
X135602023Y-66762380D01*
X135268690Y-67143333D01*
X135411547Y-67143333D01*
X135506785Y-67190952D01*
X135554404Y-67238571D01*
X135602023Y-67333809D01*
X135602023Y-67571904D01*
X135554404Y-67667142D01*
X135506785Y-67714761D01*
X135411547Y-67762380D01*
X135125833Y-67762380D01*
X135030595Y-67714761D01*
X134982976Y-67667142D01*
X143750357Y-59142380D02*
X144369404Y-59142380D01*
X144036071Y-59523333D01*
X144178928Y-59523333D01*
X144274166Y-59570952D01*
X144321785Y-59618571D01*
X144369404Y-59713809D01*
X144369404Y-59951904D01*
X144321785Y-60047142D01*
X144274166Y-60094761D01*
X144178928Y-60142380D01*
X143893214Y-60142380D01*
X143797976Y-60094761D01*
X143750357Y-60047142D01*
X144797976Y-60047142D02*
X144845595Y-60094761D01*
X144797976Y-60142380D01*
X144750357Y-60094761D01*
X144797976Y-60047142D01*
X144797976Y-60142380D01*
X145178928Y-59142380D02*
X145797976Y-59142380D01*
X145464642Y-59523333D01*
X145607500Y-59523333D01*
X145702738Y-59570952D01*
X145750357Y-59618571D01*
X145797976Y-59713809D01*
X145797976Y-59951904D01*
X145750357Y-60047142D01*
X145702738Y-60094761D01*
X145607500Y-60142380D01*
X145321785Y-60142380D01*
X145226547Y-60094761D01*
X145178928Y-60047142D01*
X146131309Y-59475714D02*
X146369404Y-60142380D01*
X146607500Y-59475714D01*
X144417023Y-80462380D02*
X144083690Y-79986190D01*
X143845595Y-80462380D02*
X143845595Y-79462380D01*
X144226547Y-79462380D01*
X144321785Y-79510000D01*
X144369404Y-79557619D01*
X144417023Y-79652857D01*
X144417023Y-79795714D01*
X144369404Y-79890952D01*
X144321785Y-79938571D01*
X144226547Y-79986190D01*
X143845595Y-79986190D01*
X145178928Y-79938571D02*
X145321785Y-79986190D01*
X145369404Y-80033809D01*
X145417023Y-80129047D01*
X145417023Y-80271904D01*
X145369404Y-80367142D01*
X145321785Y-80414761D01*
X145226547Y-80462380D01*
X144845595Y-80462380D01*
X144845595Y-79462380D01*
X145178928Y-79462380D01*
X145274166Y-79510000D01*
X145321785Y-79557619D01*
X145369404Y-79652857D01*
X145369404Y-79748095D01*
X145321785Y-79843333D01*
X145274166Y-79890952D01*
X145178928Y-79938571D01*
X144845595Y-79938571D01*
X146369404Y-80462380D02*
X145797976Y-80462380D01*
X146083690Y-80462380D02*
X146083690Y-79462380D01*
X145988452Y-79605238D01*
X145893214Y-79700476D01*
X145797976Y-79748095D01*
X144417023Y-77922380D02*
X144083690Y-77446190D01*
X143845595Y-77922380D02*
X143845595Y-76922380D01*
X144226547Y-76922380D01*
X144321785Y-76970000D01*
X144369404Y-77017619D01*
X144417023Y-77112857D01*
X144417023Y-77255714D01*
X144369404Y-77350952D01*
X144321785Y-77398571D01*
X144226547Y-77446190D01*
X143845595Y-77446190D01*
X145178928Y-77398571D02*
X145321785Y-77446190D01*
X145369404Y-77493809D01*
X145417023Y-77589047D01*
X145417023Y-77731904D01*
X145369404Y-77827142D01*
X145321785Y-77874761D01*
X145226547Y-77922380D01*
X144845595Y-77922380D01*
X144845595Y-76922380D01*
X145178928Y-76922380D01*
X145274166Y-76970000D01*
X145321785Y-77017619D01*
X145369404Y-77112857D01*
X145369404Y-77208095D01*
X145321785Y-77303333D01*
X145274166Y-77350952D01*
X145178928Y-77398571D01*
X144845595Y-77398571D01*
X145750357Y-76922380D02*
X146369404Y-76922380D01*
X146036071Y-77303333D01*
X146178928Y-77303333D01*
X146274166Y-77350952D01*
X146321785Y-77398571D01*
X146369404Y-77493809D01*
X146369404Y-77731904D01*
X146321785Y-77827142D01*
X146274166Y-77874761D01*
X146178928Y-77922380D01*
X145893214Y-77922380D01*
X145797976Y-77874761D01*
X145750357Y-77827142D01*
X144417023Y-70302380D02*
X144083690Y-69826190D01*
X143845595Y-70302380D02*
X143845595Y-69302380D01*
X144226547Y-69302380D01*
X144321785Y-69350000D01*
X144369404Y-69397619D01*
X144417023Y-69492857D01*
X144417023Y-69635714D01*
X144369404Y-69730952D01*
X144321785Y-69778571D01*
X144226547Y-69826190D01*
X143845595Y-69826190D01*
X145417023Y-70207142D02*
X145369404Y-70254761D01*
X145226547Y-70302380D01*
X145131309Y-70302380D01*
X144988452Y-70254761D01*
X144893214Y-70159523D01*
X144845595Y-70064285D01*
X144797976Y-69873809D01*
X144797976Y-69730952D01*
X144845595Y-69540476D01*
X144893214Y-69445238D01*
X144988452Y-69350000D01*
X145131309Y-69302380D01*
X145226547Y-69302380D01*
X145369404Y-69350000D01*
X145417023Y-69397619D01*
X145797976Y-69397619D02*
X145845595Y-69350000D01*
X145940833Y-69302380D01*
X146178928Y-69302380D01*
X146274166Y-69350000D01*
X146321785Y-69397619D01*
X146369404Y-69492857D01*
X146369404Y-69588095D01*
X146321785Y-69730952D01*
X145750357Y-70302380D01*
X146369404Y-70302380D01*
X144417023Y-67762380D02*
X144083690Y-67286190D01*
X143845595Y-67762380D02*
X143845595Y-66762380D01*
X144226547Y-66762380D01*
X144321785Y-66810000D01*
X144369404Y-66857619D01*
X144417023Y-66952857D01*
X144417023Y-67095714D01*
X144369404Y-67190952D01*
X144321785Y-67238571D01*
X144226547Y-67286190D01*
X143845595Y-67286190D01*
X144797976Y-67476666D02*
X145274166Y-67476666D01*
X144702738Y-67762380D02*
X145036071Y-66762380D01*
X145369404Y-67762380D01*
X145655119Y-66857619D02*
X145702738Y-66810000D01*
X145797976Y-66762380D01*
X146036071Y-66762380D01*
X146131309Y-66810000D01*
X146178928Y-66857619D01*
X146226547Y-66952857D01*
X146226547Y-67048095D01*
X146178928Y-67190952D01*
X145607500Y-67762380D01*
X146226547Y-67762380D01*
X144369404Y-71890000D02*
X144274166Y-71842380D01*
X144131309Y-71842380D01*
X143988452Y-71890000D01*
X143893214Y-71985238D01*
X143845595Y-72080476D01*
X143797976Y-72270952D01*
X143797976Y-72413809D01*
X143845595Y-72604285D01*
X143893214Y-72699523D01*
X143988452Y-72794761D01*
X144131309Y-72842380D01*
X144226547Y-72842380D01*
X144369404Y-72794761D01*
X144417023Y-72747142D01*
X144417023Y-72413809D01*
X144226547Y-72413809D01*
X144845595Y-72842380D02*
X144845595Y-71842380D01*
X145417023Y-72842380D01*
X145417023Y-71842380D01*
X145893214Y-72842380D02*
X145893214Y-71842380D01*
X146131309Y-71842380D01*
X146274166Y-71890000D01*
X146369404Y-71985238D01*
X146417023Y-72080476D01*
X146464642Y-72270952D01*
X146464642Y-72413809D01*
X146417023Y-72604285D01*
X146369404Y-72699523D01*
X146274166Y-72794761D01*
X146131309Y-72842380D01*
X145893214Y-72842380D01*
X144417023Y-83002380D02*
X144083690Y-82526190D01*
X143845595Y-83002380D02*
X143845595Y-82002380D01*
X144226547Y-82002380D01*
X144321785Y-82050000D01*
X144369404Y-82097619D01*
X144417023Y-82192857D01*
X144417023Y-82335714D01*
X144369404Y-82430952D01*
X144321785Y-82478571D01*
X144226547Y-82526190D01*
X143845595Y-82526190D01*
X144797976Y-82716666D02*
X145274166Y-82716666D01*
X144702738Y-83002380D02*
X145036071Y-82002380D01*
X145369404Y-83002380D01*
X146226547Y-83002380D02*
X145655119Y-83002380D01*
X145940833Y-83002380D02*
X145940833Y-82002380D01*
X145845595Y-82145238D01*
X145750357Y-82240476D01*
X145655119Y-82288095D01*
X144417023Y-75382380D02*
X144083690Y-74906190D01*
X143845595Y-75382380D02*
X143845595Y-74382380D01*
X144226547Y-74382380D01*
X144321785Y-74430000D01*
X144369404Y-74477619D01*
X144417023Y-74572857D01*
X144417023Y-74715714D01*
X144369404Y-74810952D01*
X144321785Y-74858571D01*
X144226547Y-74906190D01*
X143845595Y-74906190D01*
X145417023Y-75287142D02*
X145369404Y-75334761D01*
X145226547Y-75382380D01*
X145131309Y-75382380D01*
X144988452Y-75334761D01*
X144893214Y-75239523D01*
X144845595Y-75144285D01*
X144797976Y-74953809D01*
X144797976Y-74810952D01*
X144845595Y-74620476D01*
X144893214Y-74525238D01*
X144988452Y-74430000D01*
X145131309Y-74382380D01*
X145226547Y-74382380D01*
X145369404Y-74430000D01*
X145417023Y-74477619D01*
X146369404Y-75382380D02*
X145797976Y-75382380D01*
X146083690Y-75382380D02*
X146083690Y-74382380D01*
X145988452Y-74525238D01*
X145893214Y-74620476D01*
X145797976Y-74668095D01*
X119017023Y-72842380D02*
X118683690Y-72366190D01*
X118445595Y-72842380D02*
X118445595Y-71842380D01*
X118826547Y-71842380D01*
X118921785Y-71890000D01*
X118969404Y-71937619D01*
X119017023Y-72032857D01*
X119017023Y-72175714D01*
X118969404Y-72270952D01*
X118921785Y-72318571D01*
X118826547Y-72366190D01*
X118445595Y-72366190D01*
X119778928Y-72318571D02*
X119921785Y-72366190D01*
X119969404Y-72413809D01*
X120017023Y-72509047D01*
X120017023Y-72651904D01*
X119969404Y-72747142D01*
X119921785Y-72794761D01*
X119826547Y-72842380D01*
X119445595Y-72842380D01*
X119445595Y-71842380D01*
X119778928Y-71842380D01*
X119874166Y-71890000D01*
X119921785Y-71937619D01*
X119969404Y-72032857D01*
X119969404Y-72128095D01*
X119921785Y-72223333D01*
X119874166Y-72270952D01*
X119778928Y-72318571D01*
X119445595Y-72318571D01*
X120969404Y-72842380D02*
X120397976Y-72842380D01*
X120683690Y-72842380D02*
X120683690Y-71842380D01*
X120588452Y-71985238D01*
X120493214Y-72080476D01*
X120397976Y-72128095D01*
X121302738Y-71842380D02*
X121921785Y-71842380D01*
X121588452Y-72223333D01*
X121731309Y-72223333D01*
X121826547Y-72270952D01*
X121874166Y-72318571D01*
X121921785Y-72413809D01*
X121921785Y-72651904D01*
X121874166Y-72747142D01*
X121826547Y-72794761D01*
X121731309Y-72842380D01*
X121445595Y-72842380D01*
X121350357Y-72794761D01*
X121302738Y-72747142D01*
X119017023Y-70302380D02*
X118683690Y-69826190D01*
X118445595Y-70302380D02*
X118445595Y-69302380D01*
X118826547Y-69302380D01*
X118921785Y-69350000D01*
X118969404Y-69397619D01*
X119017023Y-69492857D01*
X119017023Y-69635714D01*
X118969404Y-69730952D01*
X118921785Y-69778571D01*
X118826547Y-69826190D01*
X118445595Y-69826190D01*
X119778928Y-69778571D02*
X119921785Y-69826190D01*
X119969404Y-69873809D01*
X120017023Y-69969047D01*
X120017023Y-70111904D01*
X119969404Y-70207142D01*
X119921785Y-70254761D01*
X119826547Y-70302380D01*
X119445595Y-70302380D01*
X119445595Y-69302380D01*
X119778928Y-69302380D01*
X119874166Y-69350000D01*
X119921785Y-69397619D01*
X119969404Y-69492857D01*
X119969404Y-69588095D01*
X119921785Y-69683333D01*
X119874166Y-69730952D01*
X119778928Y-69778571D01*
X119445595Y-69778571D01*
X120969404Y-70302380D02*
X120397976Y-70302380D01*
X120683690Y-70302380D02*
X120683690Y-69302380D01*
X120588452Y-69445238D01*
X120493214Y-69540476D01*
X120397976Y-69588095D01*
X121350357Y-69397619D02*
X121397976Y-69350000D01*
X121493214Y-69302380D01*
X121731309Y-69302380D01*
X121826547Y-69350000D01*
X121874166Y-69397619D01*
X121921785Y-69492857D01*
X121921785Y-69588095D01*
X121874166Y-69730952D01*
X121302738Y-70302380D01*
X121921785Y-70302380D01*
X119017023Y-67762380D02*
X118683690Y-67286190D01*
X118445595Y-67762380D02*
X118445595Y-66762380D01*
X118826547Y-66762380D01*
X118921785Y-66810000D01*
X118969404Y-66857619D01*
X119017023Y-66952857D01*
X119017023Y-67095714D01*
X118969404Y-67190952D01*
X118921785Y-67238571D01*
X118826547Y-67286190D01*
X118445595Y-67286190D01*
X119778928Y-67238571D02*
X119921785Y-67286190D01*
X119969404Y-67333809D01*
X120017023Y-67429047D01*
X120017023Y-67571904D01*
X119969404Y-67667142D01*
X119921785Y-67714761D01*
X119826547Y-67762380D01*
X119445595Y-67762380D01*
X119445595Y-66762380D01*
X119778928Y-66762380D01*
X119874166Y-66810000D01*
X119921785Y-66857619D01*
X119969404Y-66952857D01*
X119969404Y-67048095D01*
X119921785Y-67143333D01*
X119874166Y-67190952D01*
X119778928Y-67238571D01*
X119445595Y-67238571D01*
X120969404Y-67762380D02*
X120397976Y-67762380D01*
X120683690Y-67762380D02*
X120683690Y-66762380D01*
X120588452Y-66905238D01*
X120493214Y-67000476D01*
X120397976Y-67048095D01*
X121588452Y-66762380D02*
X121683690Y-66762380D01*
X121778928Y-66810000D01*
X121826547Y-66857619D01*
X121874166Y-66952857D01*
X121921785Y-67143333D01*
X121921785Y-67381428D01*
X121874166Y-67571904D01*
X121826547Y-67667142D01*
X121778928Y-67714761D01*
X121683690Y-67762380D01*
X121588452Y-67762380D01*
X121493214Y-67714761D01*
X121445595Y-67667142D01*
X121397976Y-67571904D01*
X121350357Y-67381428D01*
X121350357Y-67143333D01*
X121397976Y-66952857D01*
X121445595Y-66857619D01*
X121493214Y-66810000D01*
X121588452Y-66762380D01*
X119017023Y-75382380D02*
X118683690Y-74906190D01*
X118445595Y-75382380D02*
X118445595Y-74382380D01*
X118826547Y-74382380D01*
X118921785Y-74430000D01*
X118969404Y-74477619D01*
X119017023Y-74572857D01*
X119017023Y-74715714D01*
X118969404Y-74810952D01*
X118921785Y-74858571D01*
X118826547Y-74906190D01*
X118445595Y-74906190D01*
X119397976Y-75096666D02*
X119874166Y-75096666D01*
X119302738Y-75382380D02*
X119636071Y-74382380D01*
X119969404Y-75382380D01*
X120207500Y-74382380D02*
X120874166Y-74382380D01*
X120445595Y-75382380D01*
X119017023Y-80462380D02*
X118683690Y-79986190D01*
X118445595Y-80462380D02*
X118445595Y-79462380D01*
X118826547Y-79462380D01*
X118921785Y-79510000D01*
X118969404Y-79557619D01*
X119017023Y-79652857D01*
X119017023Y-79795714D01*
X118969404Y-79890952D01*
X118921785Y-79938571D01*
X118826547Y-79986190D01*
X118445595Y-79986190D01*
X119397976Y-80176666D02*
X119874166Y-80176666D01*
X119302738Y-80462380D02*
X119636071Y-79462380D01*
X119969404Y-80462380D01*
X120826547Y-80462380D02*
X120255119Y-80462380D01*
X120540833Y-80462380D02*
X120540833Y-79462380D01*
X120445595Y-79605238D01*
X120350357Y-79700476D01*
X120255119Y-79748095D01*
X121207500Y-79557619D02*
X121255119Y-79510000D01*
X121350357Y-79462380D01*
X121588452Y-79462380D01*
X121683690Y-79510000D01*
X121731309Y-79557619D01*
X121778928Y-79652857D01*
X121778928Y-79748095D01*
X121731309Y-79890952D01*
X121159880Y-80462380D01*
X121778928Y-80462380D01*
X118350357Y-82002380D02*
X118969404Y-82002380D01*
X118636071Y-82383333D01*
X118778928Y-82383333D01*
X118874166Y-82430952D01*
X118921785Y-82478571D01*
X118969404Y-82573809D01*
X118969404Y-82811904D01*
X118921785Y-82907142D01*
X118874166Y-82954761D01*
X118778928Y-83002380D01*
X118493214Y-83002380D01*
X118397976Y-82954761D01*
X118350357Y-82907142D01*
X119397976Y-82907142D02*
X119445595Y-82954761D01*
X119397976Y-83002380D01*
X119350357Y-82954761D01*
X119397976Y-82907142D01*
X119397976Y-83002380D01*
X119778928Y-82002380D02*
X120397976Y-82002380D01*
X120064642Y-82383333D01*
X120207500Y-82383333D01*
X120302738Y-82430952D01*
X120350357Y-82478571D01*
X120397976Y-82573809D01*
X120397976Y-82811904D01*
X120350357Y-82907142D01*
X120302738Y-82954761D01*
X120207500Y-83002380D01*
X119921785Y-83002380D01*
X119826547Y-82954761D01*
X119778928Y-82907142D01*
X120731309Y-82335714D02*
X120969404Y-83002380D01*
X121207500Y-82335714D01*
X119017023Y-77922380D02*
X118683690Y-77446190D01*
X118445595Y-77922380D02*
X118445595Y-76922380D01*
X118826547Y-76922380D01*
X118921785Y-76970000D01*
X118969404Y-77017619D01*
X119017023Y-77112857D01*
X119017023Y-77255714D01*
X118969404Y-77350952D01*
X118921785Y-77398571D01*
X118826547Y-77446190D01*
X118445595Y-77446190D01*
X119778928Y-77398571D02*
X119921785Y-77446190D01*
X119969404Y-77493809D01*
X120017023Y-77589047D01*
X120017023Y-77731904D01*
X119969404Y-77827142D01*
X119921785Y-77874761D01*
X119826547Y-77922380D01*
X119445595Y-77922380D01*
X119445595Y-76922380D01*
X119778928Y-76922380D01*
X119874166Y-76970000D01*
X119921785Y-77017619D01*
X119969404Y-77112857D01*
X119969404Y-77208095D01*
X119921785Y-77303333D01*
X119874166Y-77350952D01*
X119778928Y-77398571D01*
X119445595Y-77398571D01*
X120969404Y-77922380D02*
X120397976Y-77922380D01*
X120683690Y-77922380D02*
X120683690Y-76922380D01*
X120588452Y-77065238D01*
X120493214Y-77160476D01*
X120397976Y-77208095D01*
X121874166Y-76922380D02*
X121397976Y-76922380D01*
X121350357Y-77398571D01*
X121397976Y-77350952D01*
X121493214Y-77303333D01*
X121731309Y-77303333D01*
X121826547Y-77350952D01*
X121874166Y-77398571D01*
X121921785Y-77493809D01*
X121921785Y-77731904D01*
X121874166Y-77827142D01*
X121826547Y-77874761D01*
X121731309Y-77922380D01*
X121493214Y-77922380D01*
X121397976Y-77874761D01*
X121350357Y-77827142D01*
X118302738Y-64222380D02*
X118636071Y-65222380D01*
X118969404Y-64222380D01*
X119874166Y-65127142D02*
X119826547Y-65174761D01*
X119683690Y-65222380D01*
X119588452Y-65222380D01*
X119445595Y-65174761D01*
X119350357Y-65079523D01*
X119302738Y-64984285D01*
X119255119Y-64793809D01*
X119255119Y-64650952D01*
X119302738Y-64460476D01*
X119350357Y-64365238D01*
X119445595Y-64270000D01*
X119588452Y-64222380D01*
X119683690Y-64222380D01*
X119826547Y-64270000D01*
X119874166Y-64317619D01*
X120255119Y-64936666D02*
X120731309Y-64936666D01*
X120159880Y-65222380D02*
X120493214Y-64222380D01*
X120826547Y-65222380D01*
X121159880Y-65222380D02*
X121159880Y-64222380D01*
X121540833Y-64222380D01*
X121636071Y-64270000D01*
X121683690Y-64317619D01*
X121731309Y-64412857D01*
X121731309Y-64555714D01*
X121683690Y-64650952D01*
X121636071Y-64698571D01*
X121540833Y-64746190D01*
X121159880Y-64746190D01*
X118969404Y-61730000D02*
X118874166Y-61682380D01*
X118731309Y-61682380D01*
X118588452Y-61730000D01*
X118493214Y-61825238D01*
X118445595Y-61920476D01*
X118397976Y-62110952D01*
X118397976Y-62253809D01*
X118445595Y-62444285D01*
X118493214Y-62539523D01*
X118588452Y-62634761D01*
X118731309Y-62682380D01*
X118826547Y-62682380D01*
X118969404Y-62634761D01*
X119017023Y-62587142D01*
X119017023Y-62253809D01*
X118826547Y-62253809D01*
X119445595Y-62682380D02*
X119445595Y-61682380D01*
X120017023Y-62682380D01*
X120017023Y-61682380D01*
X120493214Y-62682380D02*
X120493214Y-61682380D01*
X120731309Y-61682380D01*
X120874166Y-61730000D01*
X120969404Y-61825238D01*
X121017023Y-61920476D01*
X121064642Y-62110952D01*
X121064642Y-62253809D01*
X121017023Y-62444285D01*
X120969404Y-62539523D01*
X120874166Y-62634761D01*
X120731309Y-62682380D01*
X120493214Y-62682380D01*
X119017023Y-60142380D02*
X118683690Y-59666190D01*
X118445595Y-60142380D02*
X118445595Y-59142380D01*
X118826547Y-59142380D01*
X118921785Y-59190000D01*
X118969404Y-59237619D01*
X119017023Y-59332857D01*
X119017023Y-59475714D01*
X118969404Y-59570952D01*
X118921785Y-59618571D01*
X118826547Y-59666190D01*
X118445595Y-59666190D01*
X120017023Y-60047142D02*
X119969404Y-60094761D01*
X119826547Y-60142380D01*
X119731309Y-60142380D01*
X119588452Y-60094761D01*
X119493214Y-59999523D01*
X119445595Y-59904285D01*
X119397976Y-59713809D01*
X119397976Y-59570952D01*
X119445595Y-59380476D01*
X119493214Y-59285238D01*
X119588452Y-59190000D01*
X119731309Y-59142380D01*
X119826547Y-59142380D01*
X119969404Y-59190000D01*
X120017023Y-59237619D01*
X120588452Y-59570952D02*
X120493214Y-59523333D01*
X120445595Y-59475714D01*
X120397976Y-59380476D01*
X120397976Y-59332857D01*
X120445595Y-59237619D01*
X120493214Y-59190000D01*
X120588452Y-59142380D01*
X120778928Y-59142380D01*
X120874166Y-59190000D01*
X120921785Y-59237619D01*
X120969404Y-59332857D01*
X120969404Y-59380476D01*
X120921785Y-59475714D01*
X120874166Y-59523333D01*
X120778928Y-59570952D01*
X120588452Y-59570952D01*
X120493214Y-59618571D01*
X120445595Y-59666190D01*
X120397976Y-59761428D01*
X120397976Y-59951904D01*
X120445595Y-60047142D01*
X120493214Y-60094761D01*
X120588452Y-60142380D01*
X120778928Y-60142380D01*
X120874166Y-60094761D01*
X120921785Y-60047142D01*
X120969404Y-59951904D01*
X120969404Y-59761428D01*
X120921785Y-59666190D01*
X120874166Y-59618571D01*
X120778928Y-59570952D01*
X119017023Y-57602380D02*
X118683690Y-57126190D01*
X118445595Y-57602380D02*
X118445595Y-56602380D01*
X118826547Y-56602380D01*
X118921785Y-56650000D01*
X118969404Y-56697619D01*
X119017023Y-56792857D01*
X119017023Y-56935714D01*
X118969404Y-57030952D01*
X118921785Y-57078571D01*
X118826547Y-57126190D01*
X118445595Y-57126190D01*
X120017023Y-57507142D02*
X119969404Y-57554761D01*
X119826547Y-57602380D01*
X119731309Y-57602380D01*
X119588452Y-57554761D01*
X119493214Y-57459523D01*
X119445595Y-57364285D01*
X119397976Y-57173809D01*
X119397976Y-57030952D01*
X119445595Y-56840476D01*
X119493214Y-56745238D01*
X119588452Y-56650000D01*
X119731309Y-56602380D01*
X119826547Y-56602380D01*
X119969404Y-56650000D01*
X120017023Y-56697619D01*
X120874166Y-56602380D02*
X120683690Y-56602380D01*
X120588452Y-56650000D01*
X120540833Y-56697619D01*
X120445595Y-56840476D01*
X120397976Y-57030952D01*
X120397976Y-57411904D01*
X120445595Y-57507142D01*
X120493214Y-57554761D01*
X120588452Y-57602380D01*
X120778928Y-57602380D01*
X120874166Y-57554761D01*
X120921785Y-57507142D01*
X120969404Y-57411904D01*
X120969404Y-57173809D01*
X120921785Y-57078571D01*
X120874166Y-57030952D01*
X120778928Y-56983333D01*
X120588452Y-56983333D01*
X120493214Y-57030952D01*
X120445595Y-57078571D01*
X120397976Y-57173809D01*
X119017023Y-55062380D02*
X118683690Y-54586190D01*
X118445595Y-55062380D02*
X118445595Y-54062380D01*
X118826547Y-54062380D01*
X118921785Y-54110000D01*
X118969404Y-54157619D01*
X119017023Y-54252857D01*
X119017023Y-54395714D01*
X118969404Y-54490952D01*
X118921785Y-54538571D01*
X118826547Y-54586190D01*
X118445595Y-54586190D01*
X119778928Y-54538571D02*
X119921785Y-54586190D01*
X119969404Y-54633809D01*
X120017023Y-54729047D01*
X120017023Y-54871904D01*
X119969404Y-54967142D01*
X119921785Y-55014761D01*
X119826547Y-55062380D01*
X119445595Y-55062380D01*
X119445595Y-54062380D01*
X119778928Y-54062380D01*
X119874166Y-54110000D01*
X119921785Y-54157619D01*
X119969404Y-54252857D01*
X119969404Y-54348095D01*
X119921785Y-54443333D01*
X119874166Y-54490952D01*
X119778928Y-54538571D01*
X119445595Y-54538571D01*
X120588452Y-54490952D02*
X120493214Y-54443333D01*
X120445595Y-54395714D01*
X120397976Y-54300476D01*
X120397976Y-54252857D01*
X120445595Y-54157619D01*
X120493214Y-54110000D01*
X120588452Y-54062380D01*
X120778928Y-54062380D01*
X120874166Y-54110000D01*
X120921785Y-54157619D01*
X120969404Y-54252857D01*
X120969404Y-54300476D01*
X120921785Y-54395714D01*
X120874166Y-54443333D01*
X120778928Y-54490952D01*
X120588452Y-54490952D01*
X120493214Y-54538571D01*
X120445595Y-54586190D01*
X120397976Y-54681428D01*
X120397976Y-54871904D01*
X120445595Y-54967142D01*
X120493214Y-55014761D01*
X120588452Y-55062380D01*
X120778928Y-55062380D01*
X120874166Y-55014761D01*
X120921785Y-54967142D01*
X120969404Y-54871904D01*
X120969404Y-54681428D01*
X120921785Y-54586190D01*
X120874166Y-54538571D01*
X120778928Y-54490952D01*
X119017023Y-52522380D02*
X118683690Y-52046190D01*
X118445595Y-52522380D02*
X118445595Y-51522380D01*
X118826547Y-51522380D01*
X118921785Y-51570000D01*
X118969404Y-51617619D01*
X119017023Y-51712857D01*
X119017023Y-51855714D01*
X118969404Y-51950952D01*
X118921785Y-51998571D01*
X118826547Y-52046190D01*
X118445595Y-52046190D01*
X119778928Y-51998571D02*
X119921785Y-52046190D01*
X119969404Y-52093809D01*
X120017023Y-52189047D01*
X120017023Y-52331904D01*
X119969404Y-52427142D01*
X119921785Y-52474761D01*
X119826547Y-52522380D01*
X119445595Y-52522380D01*
X119445595Y-51522380D01*
X119778928Y-51522380D01*
X119874166Y-51570000D01*
X119921785Y-51617619D01*
X119969404Y-51712857D01*
X119969404Y-51808095D01*
X119921785Y-51903333D01*
X119874166Y-51950952D01*
X119778928Y-51998571D01*
X119445595Y-51998571D01*
X120874166Y-51522380D02*
X120683690Y-51522380D01*
X120588452Y-51570000D01*
X120540833Y-51617619D01*
X120445595Y-51760476D01*
X120397976Y-51950952D01*
X120397976Y-52331904D01*
X120445595Y-52427142D01*
X120493214Y-52474761D01*
X120588452Y-52522380D01*
X120778928Y-52522380D01*
X120874166Y-52474761D01*
X120921785Y-52427142D01*
X120969404Y-52331904D01*
X120969404Y-52093809D01*
X120921785Y-51998571D01*
X120874166Y-51950952D01*
X120778928Y-51903333D01*
X120588452Y-51903333D01*
X120493214Y-51950952D01*
X120445595Y-51998571D01*
X120397976Y-52093809D01*
X118350357Y-48982380D02*
X118969404Y-48982380D01*
X118636071Y-49363333D01*
X118778928Y-49363333D01*
X118874166Y-49410952D01*
X118921785Y-49458571D01*
X118969404Y-49553809D01*
X118969404Y-49791904D01*
X118921785Y-49887142D01*
X118874166Y-49934761D01*
X118778928Y-49982380D01*
X118493214Y-49982380D01*
X118397976Y-49934761D01*
X118350357Y-49887142D01*
X119397976Y-49887142D02*
X119445595Y-49934761D01*
X119397976Y-49982380D01*
X119350357Y-49934761D01*
X119397976Y-49887142D01*
X119397976Y-49982380D01*
X119778928Y-48982380D02*
X120397976Y-48982380D01*
X120064642Y-49363333D01*
X120207500Y-49363333D01*
X120302738Y-49410952D01*
X120350357Y-49458571D01*
X120397976Y-49553809D01*
X120397976Y-49791904D01*
X120350357Y-49887142D01*
X120302738Y-49934761D01*
X120207500Y-49982380D01*
X119921785Y-49982380D01*
X119826547Y-49934761D01*
X119778928Y-49887142D01*
X120731309Y-49315714D02*
X120969404Y-49982380D01*
X121207500Y-49315714D01*
X106678214Y-80462380D02*
X106678214Y-79462380D01*
X107011547Y-80176666D01*
X107344880Y-79462380D01*
X107344880Y-80462380D01*
X108392500Y-80367142D02*
X108344880Y-80414761D01*
X108202023Y-80462380D01*
X108106785Y-80462380D01*
X107963928Y-80414761D01*
X107868690Y-80319523D01*
X107821071Y-80224285D01*
X107773452Y-80033809D01*
X107773452Y-79890952D01*
X107821071Y-79700476D01*
X107868690Y-79605238D01*
X107963928Y-79510000D01*
X108106785Y-79462380D01*
X108202023Y-79462380D01*
X108344880Y-79510000D01*
X108392500Y-79557619D01*
X109297261Y-80462380D02*
X108821071Y-80462380D01*
X108821071Y-79462380D01*
X110202023Y-80462380D02*
X109868690Y-79986190D01*
X109630595Y-80462380D02*
X109630595Y-79462380D01*
X110011547Y-79462380D01*
X110106785Y-79510000D01*
X110154404Y-79557619D01*
X110202023Y-79652857D01*
X110202023Y-79795714D01*
X110154404Y-79890952D01*
X110106785Y-79938571D01*
X110011547Y-79986190D01*
X109630595Y-79986190D01*
X109297261Y-69302380D02*
X108821071Y-69302380D01*
X108773452Y-69778571D01*
X108821071Y-69730952D01*
X108916309Y-69683333D01*
X109154404Y-69683333D01*
X109249642Y-69730952D01*
X109297261Y-69778571D01*
X109344880Y-69873809D01*
X109344880Y-70111904D01*
X109297261Y-70207142D01*
X109249642Y-70254761D01*
X109154404Y-70302380D01*
X108916309Y-70302380D01*
X108821071Y-70254761D01*
X108773452Y-70207142D01*
X109630595Y-69302380D02*
X109963928Y-70302380D01*
X110297261Y-69302380D01*
X108106785Y-82050000D02*
X108011547Y-82002380D01*
X107868690Y-82002380D01*
X107725833Y-82050000D01*
X107630595Y-82145238D01*
X107582976Y-82240476D01*
X107535357Y-82430952D01*
X107535357Y-82573809D01*
X107582976Y-82764285D01*
X107630595Y-82859523D01*
X107725833Y-82954761D01*
X107868690Y-83002380D01*
X107963928Y-83002380D01*
X108106785Y-82954761D01*
X108154404Y-82907142D01*
X108154404Y-82573809D01*
X107963928Y-82573809D01*
X108582976Y-83002380D02*
X108582976Y-82002380D01*
X109154404Y-83002380D01*
X109154404Y-82002380D01*
X109630595Y-83002380D02*
X109630595Y-82002380D01*
X109868690Y-82002380D01*
X110011547Y-82050000D01*
X110106785Y-82145238D01*
X110154404Y-82240476D01*
X110202023Y-82430952D01*
X110202023Y-82573809D01*
X110154404Y-82764285D01*
X110106785Y-82859523D01*
X110011547Y-82954761D01*
X109868690Y-83002380D01*
X109630595Y-83002380D01*
X107440119Y-75382380D02*
X107106785Y-74906190D01*
X106868690Y-75382380D02*
X106868690Y-74382380D01*
X107249642Y-74382380D01*
X107344880Y-74430000D01*
X107392500Y-74477619D01*
X107440119Y-74572857D01*
X107440119Y-74715714D01*
X107392500Y-74810952D01*
X107344880Y-74858571D01*
X107249642Y-74906190D01*
X106868690Y-74906190D01*
X107821071Y-75096666D02*
X108297261Y-75096666D01*
X107725833Y-75382380D02*
X108059166Y-74382380D01*
X108392500Y-75382380D01*
X109249642Y-75382380D02*
X108678214Y-75382380D01*
X108963928Y-75382380D02*
X108963928Y-74382380D01*
X108868690Y-74525238D01*
X108773452Y-74620476D01*
X108678214Y-74668095D01*
X109868690Y-74382380D02*
X109963928Y-74382380D01*
X110059166Y-74430000D01*
X110106785Y-74477619D01*
X110154404Y-74572857D01*
X110202023Y-74763333D01*
X110202023Y-75001428D01*
X110154404Y-75191904D01*
X110106785Y-75287142D01*
X110059166Y-75334761D01*
X109963928Y-75382380D01*
X109868690Y-75382380D01*
X109773452Y-75334761D01*
X109725833Y-75287142D01*
X109678214Y-75191904D01*
X109630595Y-75001428D01*
X109630595Y-74763333D01*
X109678214Y-74572857D01*
X109725833Y-74477619D01*
X109773452Y-74430000D01*
X109868690Y-74382380D01*
X108106785Y-71890000D02*
X108011547Y-71842380D01*
X107868690Y-71842380D01*
X107725833Y-71890000D01*
X107630595Y-71985238D01*
X107582976Y-72080476D01*
X107535357Y-72270952D01*
X107535357Y-72413809D01*
X107582976Y-72604285D01*
X107630595Y-72699523D01*
X107725833Y-72794761D01*
X107868690Y-72842380D01*
X107963928Y-72842380D01*
X108106785Y-72794761D01*
X108154404Y-72747142D01*
X108154404Y-72413809D01*
X107963928Y-72413809D01*
X108582976Y-72842380D02*
X108582976Y-71842380D01*
X109154404Y-72842380D01*
X109154404Y-71842380D01*
X109630595Y-72842380D02*
X109630595Y-71842380D01*
X109868690Y-71842380D01*
X110011547Y-71890000D01*
X110106785Y-71985238D01*
X110154404Y-72080476D01*
X110202023Y-72270952D01*
X110202023Y-72413809D01*
X110154404Y-72604285D01*
X110106785Y-72699523D01*
X110011547Y-72794761D01*
X109868690Y-72842380D01*
X109630595Y-72842380D01*
X107297261Y-77922380D02*
X106963928Y-77446190D01*
X106725833Y-77922380D02*
X106725833Y-76922380D01*
X107106785Y-76922380D01*
X107202023Y-76970000D01*
X107249642Y-77017619D01*
X107297261Y-77112857D01*
X107297261Y-77255714D01*
X107249642Y-77350952D01*
X107202023Y-77398571D01*
X107106785Y-77446190D01*
X106725833Y-77446190D01*
X108059166Y-77398571D02*
X108202023Y-77446190D01*
X108249642Y-77493809D01*
X108297261Y-77589047D01*
X108297261Y-77731904D01*
X108249642Y-77827142D01*
X108202023Y-77874761D01*
X108106785Y-77922380D01*
X107725833Y-77922380D01*
X107725833Y-76922380D01*
X108059166Y-76922380D01*
X108154404Y-76970000D01*
X108202023Y-77017619D01*
X108249642Y-77112857D01*
X108249642Y-77208095D01*
X108202023Y-77303333D01*
X108154404Y-77350952D01*
X108059166Y-77398571D01*
X107725833Y-77398571D01*
X109249642Y-77922380D02*
X108678214Y-77922380D01*
X108963928Y-77922380D02*
X108963928Y-76922380D01*
X108868690Y-77065238D01*
X108773452Y-77160476D01*
X108678214Y-77208095D01*
X110106785Y-77255714D02*
X110106785Y-77922380D01*
X109868690Y-76874761D02*
X109630595Y-77589047D01*
X110249642Y-77589047D01*
X107297261Y-67762380D02*
X106963928Y-67286190D01*
X106725833Y-67762380D02*
X106725833Y-66762380D01*
X107106785Y-66762380D01*
X107202023Y-66810000D01*
X107249642Y-66857619D01*
X107297261Y-66952857D01*
X107297261Y-67095714D01*
X107249642Y-67190952D01*
X107202023Y-67238571D01*
X107106785Y-67286190D01*
X106725833Y-67286190D01*
X108059166Y-67238571D02*
X108202023Y-67286190D01*
X108249642Y-67333809D01*
X108297261Y-67429047D01*
X108297261Y-67571904D01*
X108249642Y-67667142D01*
X108202023Y-67714761D01*
X108106785Y-67762380D01*
X107725833Y-67762380D01*
X107725833Y-66762380D01*
X108059166Y-66762380D01*
X108154404Y-66810000D01*
X108202023Y-66857619D01*
X108249642Y-66952857D01*
X108249642Y-67048095D01*
X108202023Y-67143333D01*
X108154404Y-67190952D01*
X108059166Y-67238571D01*
X107725833Y-67238571D01*
X109249642Y-67762380D02*
X108678214Y-67762380D01*
X108963928Y-67762380D02*
X108963928Y-66762380D01*
X108868690Y-66905238D01*
X108773452Y-67000476D01*
X108678214Y-67048095D01*
X110202023Y-67762380D02*
X109630595Y-67762380D01*
X109916309Y-67762380D02*
X109916309Y-66762380D01*
X109821071Y-66905238D01*
X109725833Y-67000476D01*
X109630595Y-67048095D01*
X107440119Y-65222380D02*
X107106785Y-64746190D01*
X106868690Y-65222380D02*
X106868690Y-64222380D01*
X107249642Y-64222380D01*
X107344880Y-64270000D01*
X107392500Y-64317619D01*
X107440119Y-64412857D01*
X107440119Y-64555714D01*
X107392500Y-64650952D01*
X107344880Y-64698571D01*
X107249642Y-64746190D01*
X106868690Y-64746190D01*
X107821071Y-64936666D02*
X108297261Y-64936666D01*
X107725833Y-65222380D02*
X108059166Y-64222380D01*
X108392500Y-65222380D01*
X109249642Y-65222380D02*
X108678214Y-65222380D01*
X108963928Y-65222380D02*
X108963928Y-64222380D01*
X108868690Y-64365238D01*
X108773452Y-64460476D01*
X108678214Y-64508095D01*
X110202023Y-65222380D02*
X109630595Y-65222380D01*
X109916309Y-65222380D02*
X109916309Y-64222380D01*
X109821071Y-64365238D01*
X109725833Y-64460476D01*
X109630595Y-64508095D01*
X108249642Y-62682380D02*
X107916309Y-62206190D01*
X107678214Y-62682380D02*
X107678214Y-61682380D01*
X108059166Y-61682380D01*
X108154404Y-61730000D01*
X108202023Y-61777619D01*
X108249642Y-61872857D01*
X108249642Y-62015714D01*
X108202023Y-62110952D01*
X108154404Y-62158571D01*
X108059166Y-62206190D01*
X107678214Y-62206190D01*
X109249642Y-62587142D02*
X109202023Y-62634761D01*
X109059166Y-62682380D01*
X108963928Y-62682380D01*
X108821071Y-62634761D01*
X108725833Y-62539523D01*
X108678214Y-62444285D01*
X108630595Y-62253809D01*
X108630595Y-62110952D01*
X108678214Y-61920476D01*
X108725833Y-61825238D01*
X108821071Y-61730000D01*
X108963928Y-61682380D01*
X109059166Y-61682380D01*
X109202023Y-61730000D01*
X109249642Y-61777619D01*
X109725833Y-62682380D02*
X109916309Y-62682380D01*
X110011547Y-62634761D01*
X110059166Y-62587142D01*
X110154404Y-62444285D01*
X110202023Y-62253809D01*
X110202023Y-61872857D01*
X110154404Y-61777619D01*
X110106785Y-61730000D01*
X110011547Y-61682380D01*
X109821071Y-61682380D01*
X109725833Y-61730000D01*
X109678214Y-61777619D01*
X109630595Y-61872857D01*
X109630595Y-62110952D01*
X109678214Y-62206190D01*
X109725833Y-62253809D01*
X109821071Y-62301428D01*
X110011547Y-62301428D01*
X110106785Y-62253809D01*
X110154404Y-62206190D01*
X110202023Y-62110952D01*
X108249642Y-60142380D02*
X107916309Y-59666190D01*
X107678214Y-60142380D02*
X107678214Y-59142380D01*
X108059166Y-59142380D01*
X108154404Y-59190000D01*
X108202023Y-59237619D01*
X108249642Y-59332857D01*
X108249642Y-59475714D01*
X108202023Y-59570952D01*
X108154404Y-59618571D01*
X108059166Y-59666190D01*
X107678214Y-59666190D01*
X109249642Y-60047142D02*
X109202023Y-60094761D01*
X109059166Y-60142380D01*
X108963928Y-60142380D01*
X108821071Y-60094761D01*
X108725833Y-59999523D01*
X108678214Y-59904285D01*
X108630595Y-59713809D01*
X108630595Y-59570952D01*
X108678214Y-59380476D01*
X108725833Y-59285238D01*
X108821071Y-59190000D01*
X108963928Y-59142380D01*
X109059166Y-59142380D01*
X109202023Y-59190000D01*
X109249642Y-59237619D01*
X109582976Y-59142380D02*
X110249642Y-59142380D01*
X109821071Y-60142380D01*
X108249642Y-57602380D02*
X107916309Y-57126190D01*
X107678214Y-57602380D02*
X107678214Y-56602380D01*
X108059166Y-56602380D01*
X108154404Y-56650000D01*
X108202023Y-56697619D01*
X108249642Y-56792857D01*
X108249642Y-56935714D01*
X108202023Y-57030952D01*
X108154404Y-57078571D01*
X108059166Y-57126190D01*
X107678214Y-57126190D01*
X109011547Y-57078571D02*
X109154404Y-57126190D01*
X109202023Y-57173809D01*
X109249642Y-57269047D01*
X109249642Y-57411904D01*
X109202023Y-57507142D01*
X109154404Y-57554761D01*
X109059166Y-57602380D01*
X108678214Y-57602380D01*
X108678214Y-56602380D01*
X109011547Y-56602380D01*
X109106785Y-56650000D01*
X109154404Y-56697619D01*
X109202023Y-56792857D01*
X109202023Y-56888095D01*
X109154404Y-56983333D01*
X109106785Y-57030952D01*
X109011547Y-57078571D01*
X108678214Y-57078571D01*
X109725833Y-57602380D02*
X109916309Y-57602380D01*
X110011547Y-57554761D01*
X110059166Y-57507142D01*
X110154404Y-57364285D01*
X110202023Y-57173809D01*
X110202023Y-56792857D01*
X110154404Y-56697619D01*
X110106785Y-56650000D01*
X110011547Y-56602380D01*
X109821071Y-56602380D01*
X109725833Y-56650000D01*
X109678214Y-56697619D01*
X109630595Y-56792857D01*
X109630595Y-57030952D01*
X109678214Y-57126190D01*
X109725833Y-57173809D01*
X109821071Y-57221428D01*
X110011547Y-57221428D01*
X110106785Y-57173809D01*
X110154404Y-57126190D01*
X110202023Y-57030952D01*
X108249642Y-55062380D02*
X107916309Y-54586190D01*
X107678214Y-55062380D02*
X107678214Y-54062380D01*
X108059166Y-54062380D01*
X108154404Y-54110000D01*
X108202023Y-54157619D01*
X108249642Y-54252857D01*
X108249642Y-54395714D01*
X108202023Y-54490952D01*
X108154404Y-54538571D01*
X108059166Y-54586190D01*
X107678214Y-54586190D01*
X109011547Y-54538571D02*
X109154404Y-54586190D01*
X109202023Y-54633809D01*
X109249642Y-54729047D01*
X109249642Y-54871904D01*
X109202023Y-54967142D01*
X109154404Y-55014761D01*
X109059166Y-55062380D01*
X108678214Y-55062380D01*
X108678214Y-54062380D01*
X109011547Y-54062380D01*
X109106785Y-54110000D01*
X109154404Y-54157619D01*
X109202023Y-54252857D01*
X109202023Y-54348095D01*
X109154404Y-54443333D01*
X109106785Y-54490952D01*
X109011547Y-54538571D01*
X108678214Y-54538571D01*
X109582976Y-54062380D02*
X110249642Y-54062380D01*
X109821071Y-55062380D01*
X108249642Y-52522380D02*
X107916309Y-52046190D01*
X107678214Y-52522380D02*
X107678214Y-51522380D01*
X108059166Y-51522380D01*
X108154404Y-51570000D01*
X108202023Y-51617619D01*
X108249642Y-51712857D01*
X108249642Y-51855714D01*
X108202023Y-51950952D01*
X108154404Y-51998571D01*
X108059166Y-52046190D01*
X107678214Y-52046190D01*
X109011547Y-51998571D02*
X109154404Y-52046190D01*
X109202023Y-52093809D01*
X109249642Y-52189047D01*
X109249642Y-52331904D01*
X109202023Y-52427142D01*
X109154404Y-52474761D01*
X109059166Y-52522380D01*
X108678214Y-52522380D01*
X108678214Y-51522380D01*
X109011547Y-51522380D01*
X109106785Y-51570000D01*
X109154404Y-51617619D01*
X109202023Y-51712857D01*
X109202023Y-51808095D01*
X109154404Y-51903333D01*
X109106785Y-51950952D01*
X109011547Y-51998571D01*
X108678214Y-51998571D01*
X110154404Y-51522380D02*
X109678214Y-51522380D01*
X109630595Y-51998571D01*
X109678214Y-51950952D01*
X109773452Y-51903333D01*
X110011547Y-51903333D01*
X110106785Y-51950952D01*
X110154404Y-51998571D01*
X110202023Y-52093809D01*
X110202023Y-52331904D01*
X110154404Y-52427142D01*
X110106785Y-52474761D01*
X110011547Y-52522380D01*
X109773452Y-52522380D01*
X109678214Y-52474761D01*
X109630595Y-52427142D01*
X108106785Y-49030000D02*
X108011547Y-48982380D01*
X107868690Y-48982380D01*
X107725833Y-49030000D01*
X107630595Y-49125238D01*
X107582976Y-49220476D01*
X107535357Y-49410952D01*
X107535357Y-49553809D01*
X107582976Y-49744285D01*
X107630595Y-49839523D01*
X107725833Y-49934761D01*
X107868690Y-49982380D01*
X107963928Y-49982380D01*
X108106785Y-49934761D01*
X108154404Y-49887142D01*
X108154404Y-49553809D01*
X107963928Y-49553809D01*
X108582976Y-49982380D02*
X108582976Y-48982380D01*
X109154404Y-49982380D01*
X109154404Y-48982380D01*
X109630595Y-49982380D02*
X109630595Y-48982380D01*
X109868690Y-48982380D01*
X110011547Y-49030000D01*
X110106785Y-49125238D01*
X110154404Y-49220476D01*
X110202023Y-49410952D01*
X110202023Y-49553809D01*
X110154404Y-49744285D01*
X110106785Y-49839523D01*
X110011547Y-49934761D01*
X109868690Y-49982380D01*
X109630595Y-49982380D01*
M02*
