G04 #@! TF.GenerationSoftware,KiCad,Pcbnew,(5.1.5)-3*
G04 #@! TF.CreationDate,2020-05-03T20:07:27+02:00*
G04 #@! TF.ProjectId,VGA_adapter,5647415f-6164-4617-9074-65722e6b6963,rev?*
G04 #@! TF.SameCoordinates,Original*
G04 #@! TF.FileFunction,Copper,L2,Bot*
G04 #@! TF.FilePolarity,Positive*
%FSLAX46Y46*%
G04 Gerber Fmt 4.6, Leading zero omitted, Abs format (unit mm)*
G04 Created by KiCad (PCBNEW (5.1.5)-3) date 2020-05-03 20:07:27*
%MOMM*%
%LPD*%
G04 APERTURE LIST*
%ADD10C,4.000000*%
%ADD11C,1.600000*%
%ADD12R,1.600000X1.600000*%
%ADD13O,1.700000X1.700000*%
%ADD14R,1.700000X1.700000*%
%ADD15C,0.800000*%
%ADD16C,0.250000*%
%ADD17C,0.254000*%
G04 APERTURE END LIST*
D10*
X153180000Y-54045000D03*
X153180000Y-79045000D03*
D11*
X155090000Y-71390000D03*
X155090000Y-69100000D03*
X155090000Y-66810000D03*
X155090000Y-64520000D03*
X155090000Y-62230000D03*
X153110000Y-70245000D03*
X153110000Y-67955000D03*
X153110000Y-65665000D03*
X153110000Y-63375000D03*
X153110000Y-61085000D03*
X151130000Y-71390000D03*
X151130000Y-69100000D03*
X151130000Y-66810000D03*
X151130000Y-64520000D03*
D12*
X151130000Y-62230000D03*
D13*
X138430000Y-69850000D03*
X140970000Y-72390000D03*
X140970000Y-77470000D03*
X138430000Y-77470000D03*
X138430000Y-72390000D03*
X138430000Y-80010000D03*
X138430000Y-59690000D03*
X140970000Y-59690000D03*
X138430000Y-74930000D03*
X138430000Y-67310000D03*
X138430000Y-62230000D03*
X140970000Y-64770000D03*
X140970000Y-67310000D03*
X140970000Y-80010000D03*
X140970000Y-69850000D03*
X138430000Y-57150000D03*
X138430000Y-64770000D03*
X140970000Y-82550000D03*
X138430000Y-82550000D03*
X140970000Y-62230000D03*
X140970000Y-74930000D03*
X138430000Y-54610000D03*
X140970000Y-57150000D03*
D14*
X140970000Y-49530000D03*
D13*
X138430000Y-49530000D03*
X140970000Y-52070000D03*
X138430000Y-52070000D03*
X140970000Y-54610000D03*
X113030000Y-82550000D03*
X115570000Y-82550000D03*
X113030000Y-80010000D03*
X115570000Y-80010000D03*
X113030000Y-77470000D03*
X115570000Y-77470000D03*
X113030000Y-74930000D03*
X115570000Y-74930000D03*
X113030000Y-72390000D03*
X115570000Y-72390000D03*
X113030000Y-69850000D03*
X115570000Y-69850000D03*
X113030000Y-67310000D03*
X115570000Y-67310000D03*
X113030000Y-64770000D03*
X115570000Y-64770000D03*
X113030000Y-62230000D03*
X115570000Y-62230000D03*
X113030000Y-59690000D03*
X115570000Y-59690000D03*
X113030000Y-57150000D03*
X115570000Y-57150000D03*
X113030000Y-54610000D03*
X115570000Y-54610000D03*
X113030000Y-52070000D03*
X115570000Y-52070000D03*
X113030000Y-49530000D03*
D14*
X115570000Y-49530000D03*
D15*
X146050000Y-66040000D03*
X144780000Y-66040000D03*
X144780000Y-81280000D03*
D16*
X107950000Y-48260000D02*
X111760000Y-44450000D01*
X111760000Y-44450000D02*
X156210000Y-44450000D01*
X113030000Y-57150000D02*
X107950000Y-52070000D01*
X107950000Y-52070000D02*
X107950000Y-48260000D01*
X156210000Y-44450000D02*
X158750000Y-46990000D01*
X155090000Y-69100000D02*
X156960000Y-69100000D01*
X156960000Y-69100000D02*
X158750000Y-67310000D01*
X158750000Y-67310000D02*
X158750000Y-46990000D01*
X157480000Y-46990000D02*
X157480000Y-66040000D01*
X156710000Y-66810000D02*
X155090000Y-66810000D01*
X156210000Y-45720000D02*
X157480000Y-46990000D01*
X111760000Y-54610000D02*
X109220000Y-52070000D01*
X113030000Y-54610000D02*
X111760000Y-54610000D01*
X111760000Y-45720000D02*
X156210000Y-45720000D01*
X157480000Y-66040000D02*
X156710000Y-66810000D01*
X109220000Y-52070000D02*
X109220000Y-48260000D01*
X109220000Y-48260000D02*
X111760000Y-45720000D01*
X150630000Y-67310000D02*
X151130000Y-66810000D01*
X140970000Y-67310000D02*
X150630000Y-67310000D01*
X149998630Y-64520000D02*
X148978630Y-63500000D01*
X151130000Y-64520000D02*
X149998630Y-64520000D01*
X148978630Y-63500000D02*
X147320000Y-63500000D01*
X147320000Y-63500000D02*
X146050000Y-64770000D01*
X146050000Y-64770000D02*
X146050000Y-66040000D01*
X146050000Y-66040000D02*
X146050000Y-66040000D01*
X151130000Y-62230000D02*
X147320000Y-62230000D01*
X147320000Y-62230000D02*
X144780000Y-64770000D01*
X144780000Y-64770000D02*
X144780000Y-66040000D01*
X144780000Y-66040000D02*
X144780000Y-66040000D01*
X144780000Y-81280000D02*
X144780000Y-82550000D01*
X144780000Y-82550000D02*
X143510000Y-83820000D01*
X139700000Y-83820000D02*
X139279999Y-83399999D01*
X139279999Y-83399999D02*
X138430000Y-82550000D01*
X143510000Y-83820000D02*
X139700000Y-83820000D01*
D17*
G36*
X111219999Y-43909999D02*
G01*
X111196201Y-43938997D01*
X107438998Y-47696201D01*
X107410000Y-47719999D01*
X107386202Y-47748997D01*
X107386201Y-47748998D01*
X107315026Y-47835724D01*
X107244454Y-47967754D01*
X107218236Y-48054188D01*
X107207222Y-48090498D01*
X107200998Y-48111015D01*
X107186324Y-48260000D01*
X107190001Y-48297332D01*
X107190000Y-52032677D01*
X107186324Y-52070000D01*
X107190000Y-52107322D01*
X107190000Y-52107332D01*
X107200997Y-52218985D01*
X107244454Y-52362246D01*
X107315026Y-52494276D01*
X107354871Y-52542826D01*
X107409999Y-52610001D01*
X107439003Y-52633804D01*
X111588790Y-56783592D01*
X111545000Y-57003740D01*
X111545000Y-57296260D01*
X111602068Y-57583158D01*
X111714010Y-57853411D01*
X111876525Y-58096632D01*
X112083368Y-58303475D01*
X112257760Y-58420000D01*
X112083368Y-58536525D01*
X111876525Y-58743368D01*
X111714010Y-58986589D01*
X111602068Y-59256842D01*
X111545000Y-59543740D01*
X111545000Y-59836260D01*
X111602068Y-60123158D01*
X111714010Y-60393411D01*
X111876525Y-60636632D01*
X112083368Y-60843475D01*
X112257760Y-60960000D01*
X112083368Y-61076525D01*
X111876525Y-61283368D01*
X111714010Y-61526589D01*
X111602068Y-61796842D01*
X111545000Y-62083740D01*
X111545000Y-62376260D01*
X111602068Y-62663158D01*
X111714010Y-62933411D01*
X111876525Y-63176632D01*
X112083368Y-63383475D01*
X112257760Y-63500000D01*
X112083368Y-63616525D01*
X111876525Y-63823368D01*
X111714010Y-64066589D01*
X111602068Y-64336842D01*
X111545000Y-64623740D01*
X111545000Y-64916260D01*
X111602068Y-65203158D01*
X111714010Y-65473411D01*
X111876525Y-65716632D01*
X112083368Y-65923475D01*
X112257760Y-66040000D01*
X112083368Y-66156525D01*
X111876525Y-66363368D01*
X111714010Y-66606589D01*
X111602068Y-66876842D01*
X111545000Y-67163740D01*
X111545000Y-67456260D01*
X111602068Y-67743158D01*
X111714010Y-68013411D01*
X111876525Y-68256632D01*
X112083368Y-68463475D01*
X112257760Y-68580000D01*
X112083368Y-68696525D01*
X111876525Y-68903368D01*
X111714010Y-69146589D01*
X111602068Y-69416842D01*
X111545000Y-69703740D01*
X111545000Y-69996260D01*
X111602068Y-70283158D01*
X111714010Y-70553411D01*
X111876525Y-70796632D01*
X112083368Y-71003475D01*
X112265534Y-71125195D01*
X112148645Y-71194822D01*
X111932412Y-71389731D01*
X111758359Y-71623080D01*
X111633175Y-71885901D01*
X111588524Y-72033110D01*
X111709845Y-72263000D01*
X112903000Y-72263000D01*
X112903000Y-72243000D01*
X113157000Y-72243000D01*
X113157000Y-72263000D01*
X113177000Y-72263000D01*
X113177000Y-72517000D01*
X113157000Y-72517000D01*
X113157000Y-72537000D01*
X112903000Y-72537000D01*
X112903000Y-72517000D01*
X111709845Y-72517000D01*
X111588524Y-72746890D01*
X111633175Y-72894099D01*
X111758359Y-73156920D01*
X111932412Y-73390269D01*
X112148645Y-73585178D01*
X112265534Y-73654805D01*
X112083368Y-73776525D01*
X111876525Y-73983368D01*
X111714010Y-74226589D01*
X111602068Y-74496842D01*
X111545000Y-74783740D01*
X111545000Y-75076260D01*
X111602068Y-75363158D01*
X111714010Y-75633411D01*
X111876525Y-75876632D01*
X112083368Y-76083475D01*
X112257760Y-76200000D01*
X112083368Y-76316525D01*
X111876525Y-76523368D01*
X111714010Y-76766589D01*
X111602068Y-77036842D01*
X111545000Y-77323740D01*
X111545000Y-77616260D01*
X111602068Y-77903158D01*
X111714010Y-78173411D01*
X111876525Y-78416632D01*
X112083368Y-78623475D01*
X112257760Y-78740000D01*
X112083368Y-78856525D01*
X111876525Y-79063368D01*
X111714010Y-79306589D01*
X111602068Y-79576842D01*
X111545000Y-79863740D01*
X111545000Y-80156260D01*
X111602068Y-80443158D01*
X111714010Y-80713411D01*
X111876525Y-80956632D01*
X112083368Y-81163475D01*
X112265534Y-81285195D01*
X112148645Y-81354822D01*
X111932412Y-81549731D01*
X111758359Y-81783080D01*
X111633175Y-82045901D01*
X111588524Y-82193110D01*
X111709845Y-82423000D01*
X112903000Y-82423000D01*
X112903000Y-82403000D01*
X113157000Y-82403000D01*
X113157000Y-82423000D01*
X113177000Y-82423000D01*
X113177000Y-82677000D01*
X113157000Y-82677000D01*
X113157000Y-83870814D01*
X113386891Y-83991481D01*
X113661252Y-83894157D01*
X113911355Y-83745178D01*
X114127588Y-83550269D01*
X114298900Y-83320594D01*
X114416525Y-83496632D01*
X114623368Y-83703475D01*
X114866589Y-83865990D01*
X115136842Y-83977932D01*
X115423740Y-84035000D01*
X115716260Y-84035000D01*
X116003158Y-83977932D01*
X116273411Y-83865990D01*
X116516632Y-83703475D01*
X116723475Y-83496632D01*
X116885990Y-83253411D01*
X116997932Y-82983158D01*
X117055000Y-82696260D01*
X117055000Y-82403740D01*
X116997932Y-82116842D01*
X116885990Y-81846589D01*
X116723475Y-81603368D01*
X116516632Y-81396525D01*
X116342240Y-81280000D01*
X116516632Y-81163475D01*
X116723475Y-80956632D01*
X116885990Y-80713411D01*
X116997932Y-80443158D01*
X117055000Y-80156260D01*
X117055000Y-79863740D01*
X116997932Y-79576842D01*
X116885990Y-79306589D01*
X116723475Y-79063368D01*
X116516632Y-78856525D01*
X116342240Y-78740000D01*
X116516632Y-78623475D01*
X116723475Y-78416632D01*
X116885990Y-78173411D01*
X116997932Y-77903158D01*
X117055000Y-77616260D01*
X117055000Y-77323740D01*
X116997932Y-77036842D01*
X116885990Y-76766589D01*
X116723475Y-76523368D01*
X116516632Y-76316525D01*
X116342240Y-76200000D01*
X116516632Y-76083475D01*
X116723475Y-75876632D01*
X116885990Y-75633411D01*
X116997932Y-75363158D01*
X117055000Y-75076260D01*
X117055000Y-74783740D01*
X116997932Y-74496842D01*
X116885990Y-74226589D01*
X116723475Y-73983368D01*
X116516632Y-73776525D01*
X116342240Y-73660000D01*
X116516632Y-73543475D01*
X116723475Y-73336632D01*
X116885990Y-73093411D01*
X116997932Y-72823158D01*
X117055000Y-72536260D01*
X117055000Y-72243740D01*
X116997932Y-71956842D01*
X116885990Y-71686589D01*
X116723475Y-71443368D01*
X116516632Y-71236525D01*
X116342240Y-71120000D01*
X116516632Y-71003475D01*
X116723475Y-70796632D01*
X116885990Y-70553411D01*
X116997932Y-70283158D01*
X117055000Y-69996260D01*
X117055000Y-69703740D01*
X116997932Y-69416842D01*
X116885990Y-69146589D01*
X116723475Y-68903368D01*
X116516632Y-68696525D01*
X116342240Y-68580000D01*
X116516632Y-68463475D01*
X116723475Y-68256632D01*
X116885990Y-68013411D01*
X116997932Y-67743158D01*
X117055000Y-67456260D01*
X117055000Y-67163740D01*
X116997932Y-66876842D01*
X116885990Y-66606589D01*
X116723475Y-66363368D01*
X116516632Y-66156525D01*
X116342240Y-66040000D01*
X116516632Y-65923475D01*
X116723475Y-65716632D01*
X116885990Y-65473411D01*
X116997932Y-65203158D01*
X117055000Y-64916260D01*
X117055000Y-64623740D01*
X116997932Y-64336842D01*
X116885990Y-64066589D01*
X116723475Y-63823368D01*
X116516632Y-63616525D01*
X116334466Y-63494805D01*
X116451355Y-63425178D01*
X116667588Y-63230269D01*
X116841641Y-62996920D01*
X116966825Y-62734099D01*
X117011476Y-62586890D01*
X116890155Y-62357000D01*
X115697000Y-62357000D01*
X115697000Y-62377000D01*
X115443000Y-62377000D01*
X115443000Y-62357000D01*
X115423000Y-62357000D01*
X115423000Y-62103000D01*
X115443000Y-62103000D01*
X115443000Y-62083000D01*
X115697000Y-62083000D01*
X115697000Y-62103000D01*
X116890155Y-62103000D01*
X117011476Y-61873110D01*
X116966825Y-61725901D01*
X116841641Y-61463080D01*
X116667588Y-61229731D01*
X116451355Y-61034822D01*
X116334466Y-60965195D01*
X116516632Y-60843475D01*
X116723475Y-60636632D01*
X116885990Y-60393411D01*
X116997932Y-60123158D01*
X117055000Y-59836260D01*
X117055000Y-59543740D01*
X116997932Y-59256842D01*
X116885990Y-58986589D01*
X116723475Y-58743368D01*
X116516632Y-58536525D01*
X116342240Y-58420000D01*
X116516632Y-58303475D01*
X116723475Y-58096632D01*
X116885990Y-57853411D01*
X116997932Y-57583158D01*
X117055000Y-57296260D01*
X117055000Y-57003740D01*
X116997932Y-56716842D01*
X116885990Y-56446589D01*
X116723475Y-56203368D01*
X116516632Y-55996525D01*
X116342240Y-55880000D01*
X116516632Y-55763475D01*
X116723475Y-55556632D01*
X116885990Y-55313411D01*
X116997932Y-55043158D01*
X117055000Y-54756260D01*
X117055000Y-54463740D01*
X116997932Y-54176842D01*
X116885990Y-53906589D01*
X116723475Y-53663368D01*
X116516632Y-53456525D01*
X116342240Y-53340000D01*
X116516632Y-53223475D01*
X116723475Y-53016632D01*
X116885990Y-52773411D01*
X116997932Y-52503158D01*
X117055000Y-52216260D01*
X117055000Y-51923740D01*
X116997932Y-51636842D01*
X116885990Y-51366589D01*
X116723475Y-51123368D01*
X116591620Y-50991513D01*
X116664180Y-50969502D01*
X116774494Y-50910537D01*
X116871185Y-50831185D01*
X116950537Y-50734494D01*
X117009502Y-50624180D01*
X117045812Y-50504482D01*
X117058072Y-50380000D01*
X117058072Y-49173110D01*
X136988524Y-49173110D01*
X137109845Y-49403000D01*
X138303000Y-49403000D01*
X138303000Y-48209186D01*
X138073109Y-48088519D01*
X137798748Y-48185843D01*
X137548645Y-48334822D01*
X137332412Y-48529731D01*
X137158359Y-48763080D01*
X137033175Y-49025901D01*
X136988524Y-49173110D01*
X117058072Y-49173110D01*
X117058072Y-48680000D01*
X117045812Y-48555518D01*
X117009502Y-48435820D01*
X116950537Y-48325506D01*
X116871185Y-48228815D01*
X116774494Y-48149463D01*
X116664180Y-48090498D01*
X116544482Y-48054188D01*
X116420000Y-48041928D01*
X114720000Y-48041928D01*
X114595518Y-48054188D01*
X114475820Y-48090498D01*
X114365506Y-48149463D01*
X114268815Y-48228815D01*
X114189463Y-48325506D01*
X114130498Y-48435820D01*
X114107502Y-48511626D01*
X113911355Y-48334822D01*
X113661252Y-48185843D01*
X113386891Y-48088519D01*
X113157000Y-48209186D01*
X113157000Y-49403000D01*
X113177000Y-49403000D01*
X113177000Y-49657000D01*
X113157000Y-49657000D01*
X113157000Y-49677000D01*
X112903000Y-49677000D01*
X112903000Y-49657000D01*
X111709845Y-49657000D01*
X111588524Y-49886890D01*
X111633175Y-50034099D01*
X111758359Y-50296920D01*
X111932412Y-50530269D01*
X112148645Y-50725178D01*
X112265534Y-50794805D01*
X112083368Y-50916525D01*
X111876525Y-51123368D01*
X111714010Y-51366589D01*
X111602068Y-51636842D01*
X111545000Y-51923740D01*
X111545000Y-52216260D01*
X111602068Y-52503158D01*
X111714010Y-52773411D01*
X111876525Y-53016632D01*
X112083368Y-53223475D01*
X112257760Y-53340000D01*
X112083368Y-53456525D01*
X111882348Y-53657545D01*
X109980000Y-51755199D01*
X109980000Y-49173110D01*
X111588524Y-49173110D01*
X111709845Y-49403000D01*
X112903000Y-49403000D01*
X112903000Y-48209186D01*
X112673109Y-48088519D01*
X112398748Y-48185843D01*
X112148645Y-48334822D01*
X111932412Y-48529731D01*
X111758359Y-48763080D01*
X111633175Y-49025901D01*
X111588524Y-49173110D01*
X109980000Y-49173110D01*
X109980000Y-48574801D01*
X112074803Y-46480000D01*
X155895199Y-46480000D01*
X156720000Y-47304802D01*
X156720001Y-65725197D01*
X156395198Y-66050000D01*
X156308043Y-66050000D01*
X156204637Y-65895241D01*
X156004759Y-65695363D01*
X155959317Y-65665000D01*
X156004759Y-65634637D01*
X156204637Y-65434759D01*
X156361680Y-65199727D01*
X156469853Y-64938574D01*
X156525000Y-64661335D01*
X156525000Y-64378665D01*
X156469853Y-64101426D01*
X156361680Y-63840273D01*
X156204637Y-63605241D01*
X156004759Y-63405363D01*
X155959317Y-63375000D01*
X156004759Y-63344637D01*
X156204637Y-63144759D01*
X156361680Y-62909727D01*
X156469853Y-62648574D01*
X156525000Y-62371335D01*
X156525000Y-62088665D01*
X156469853Y-61811426D01*
X156361680Y-61550273D01*
X156204637Y-61315241D01*
X156004759Y-61115363D01*
X155769727Y-60958320D01*
X155508574Y-60850147D01*
X155231335Y-60795000D01*
X154948665Y-60795000D01*
X154671426Y-60850147D01*
X154534284Y-60906953D01*
X154508787Y-60734870D01*
X154413603Y-60468708D01*
X154346671Y-60343486D01*
X154102702Y-60271903D01*
X153289605Y-61085000D01*
X153303748Y-61099143D01*
X153124143Y-61278748D01*
X153110000Y-61264605D01*
X153095858Y-61278748D01*
X152916253Y-61099143D01*
X152930395Y-61085000D01*
X152117298Y-60271903D01*
X151873329Y-60343486D01*
X151752429Y-60598996D01*
X151704068Y-60791928D01*
X150330000Y-60791928D01*
X150205518Y-60804188D01*
X150085820Y-60840498D01*
X149975506Y-60899463D01*
X149878815Y-60978815D01*
X149799463Y-61075506D01*
X149740498Y-61185820D01*
X149704188Y-61305518D01*
X149691928Y-61430000D01*
X149691928Y-61470000D01*
X147357322Y-61470000D01*
X147319999Y-61466324D01*
X147282676Y-61470000D01*
X147282667Y-61470000D01*
X147171014Y-61480997D01*
X147027753Y-61524454D01*
X146895724Y-61595026D01*
X146895722Y-61595027D01*
X146895723Y-61595027D01*
X146808996Y-61666201D01*
X146808992Y-61666205D01*
X146779999Y-61689999D01*
X146756205Y-61718992D01*
X144269003Y-64206196D01*
X144239999Y-64229999D01*
X144184871Y-64297174D01*
X144145026Y-64345724D01*
X144074455Y-64477753D01*
X144074454Y-64477754D01*
X144030997Y-64621015D01*
X144020000Y-64732668D01*
X144020000Y-64732678D01*
X144016324Y-64770000D01*
X144020000Y-64807323D01*
X144020000Y-65336289D01*
X143976063Y-65380226D01*
X143862795Y-65549744D01*
X143784774Y-65738102D01*
X143745000Y-65938061D01*
X143745000Y-66141939D01*
X143784774Y-66341898D01*
X143862795Y-66530256D01*
X143875987Y-66550000D01*
X142248178Y-66550000D01*
X142123475Y-66363368D01*
X141916632Y-66156525D01*
X141742240Y-66040000D01*
X141916632Y-65923475D01*
X142123475Y-65716632D01*
X142285990Y-65473411D01*
X142397932Y-65203158D01*
X142455000Y-64916260D01*
X142455000Y-64623740D01*
X142397932Y-64336842D01*
X142285990Y-64066589D01*
X142123475Y-63823368D01*
X141916632Y-63616525D01*
X141734466Y-63494805D01*
X141851355Y-63425178D01*
X142067588Y-63230269D01*
X142241641Y-62996920D01*
X142366825Y-62734099D01*
X142411476Y-62586890D01*
X142290155Y-62357000D01*
X141097000Y-62357000D01*
X141097000Y-62377000D01*
X140843000Y-62377000D01*
X140843000Y-62357000D01*
X140823000Y-62357000D01*
X140823000Y-62103000D01*
X140843000Y-62103000D01*
X140843000Y-62083000D01*
X141097000Y-62083000D01*
X141097000Y-62103000D01*
X142290155Y-62103000D01*
X142411476Y-61873110D01*
X142366825Y-61725901D01*
X142241641Y-61463080D01*
X142067588Y-61229731D01*
X141851355Y-61034822D01*
X141734466Y-60965195D01*
X141916632Y-60843475D01*
X142123475Y-60636632D01*
X142285990Y-60393411D01*
X142397932Y-60123158D01*
X142404070Y-60092298D01*
X152296903Y-60092298D01*
X153110000Y-60905395D01*
X153923097Y-60092298D01*
X153851514Y-59848329D01*
X153596004Y-59727429D01*
X153321816Y-59658700D01*
X153039488Y-59644783D01*
X152759870Y-59686213D01*
X152493708Y-59781397D01*
X152368486Y-59848329D01*
X152296903Y-60092298D01*
X142404070Y-60092298D01*
X142455000Y-59836260D01*
X142455000Y-59543740D01*
X142397932Y-59256842D01*
X142285990Y-58986589D01*
X142123475Y-58743368D01*
X141916632Y-58536525D01*
X141742240Y-58420000D01*
X141916632Y-58303475D01*
X142123475Y-58096632D01*
X142285990Y-57853411D01*
X142397932Y-57583158D01*
X142455000Y-57296260D01*
X142455000Y-57003740D01*
X142397932Y-56716842D01*
X142285990Y-56446589D01*
X142123475Y-56203368D01*
X141916632Y-55996525D01*
X141742240Y-55880000D01*
X141916632Y-55763475D01*
X142123475Y-55556632D01*
X142285990Y-55313411D01*
X142397932Y-55043158D01*
X142455000Y-54756260D01*
X142455000Y-54463740D01*
X142397932Y-54176842D01*
X142285990Y-53906589D01*
X142205065Y-53785475D01*
X150545000Y-53785475D01*
X150545000Y-54304525D01*
X150646261Y-54813601D01*
X150844893Y-55293141D01*
X151133262Y-55724715D01*
X151500285Y-56091738D01*
X151931859Y-56380107D01*
X152411399Y-56578739D01*
X152920475Y-56680000D01*
X153439525Y-56680000D01*
X153948601Y-56578739D01*
X154428141Y-56380107D01*
X154859715Y-56091738D01*
X155226738Y-55724715D01*
X155515107Y-55293141D01*
X155713739Y-54813601D01*
X155815000Y-54304525D01*
X155815000Y-53785475D01*
X155713739Y-53276399D01*
X155515107Y-52796859D01*
X155226738Y-52365285D01*
X154859715Y-51998262D01*
X154428141Y-51709893D01*
X153948601Y-51511261D01*
X153439525Y-51410000D01*
X152920475Y-51410000D01*
X152411399Y-51511261D01*
X151931859Y-51709893D01*
X151500285Y-51998262D01*
X151133262Y-52365285D01*
X150844893Y-52796859D01*
X150646261Y-53276399D01*
X150545000Y-53785475D01*
X142205065Y-53785475D01*
X142123475Y-53663368D01*
X141916632Y-53456525D01*
X141742240Y-53340000D01*
X141916632Y-53223475D01*
X142123475Y-53016632D01*
X142285990Y-52773411D01*
X142397932Y-52503158D01*
X142455000Y-52216260D01*
X142455000Y-51923740D01*
X142397932Y-51636842D01*
X142285990Y-51366589D01*
X142123475Y-51123368D01*
X141991620Y-50991513D01*
X142064180Y-50969502D01*
X142174494Y-50910537D01*
X142271185Y-50831185D01*
X142350537Y-50734494D01*
X142409502Y-50624180D01*
X142445812Y-50504482D01*
X142458072Y-50380000D01*
X142458072Y-48680000D01*
X142445812Y-48555518D01*
X142409502Y-48435820D01*
X142350537Y-48325506D01*
X142271185Y-48228815D01*
X142174494Y-48149463D01*
X142064180Y-48090498D01*
X141944482Y-48054188D01*
X141820000Y-48041928D01*
X140120000Y-48041928D01*
X139995518Y-48054188D01*
X139875820Y-48090498D01*
X139765506Y-48149463D01*
X139668815Y-48228815D01*
X139589463Y-48325506D01*
X139530498Y-48435820D01*
X139507502Y-48511626D01*
X139311355Y-48334822D01*
X139061252Y-48185843D01*
X138786891Y-48088519D01*
X138557000Y-48209186D01*
X138557000Y-49403000D01*
X138577000Y-49403000D01*
X138577000Y-49657000D01*
X138557000Y-49657000D01*
X138557000Y-49677000D01*
X138303000Y-49677000D01*
X138303000Y-49657000D01*
X137109845Y-49657000D01*
X136988524Y-49886890D01*
X137033175Y-50034099D01*
X137158359Y-50296920D01*
X137332412Y-50530269D01*
X137548645Y-50725178D01*
X137665534Y-50794805D01*
X137483368Y-50916525D01*
X137276525Y-51123368D01*
X137114010Y-51366589D01*
X137002068Y-51636842D01*
X136945000Y-51923740D01*
X136945000Y-52216260D01*
X137002068Y-52503158D01*
X137114010Y-52773411D01*
X137276525Y-53016632D01*
X137483368Y-53223475D01*
X137657760Y-53340000D01*
X137483368Y-53456525D01*
X137276525Y-53663368D01*
X137114010Y-53906589D01*
X137002068Y-54176842D01*
X136945000Y-54463740D01*
X136945000Y-54756260D01*
X137002068Y-55043158D01*
X137114010Y-55313411D01*
X137276525Y-55556632D01*
X137483368Y-55763475D01*
X137657760Y-55880000D01*
X137483368Y-55996525D01*
X137276525Y-56203368D01*
X137114010Y-56446589D01*
X137002068Y-56716842D01*
X136945000Y-57003740D01*
X136945000Y-57296260D01*
X137002068Y-57583158D01*
X137114010Y-57853411D01*
X137276525Y-58096632D01*
X137483368Y-58303475D01*
X137657760Y-58420000D01*
X137483368Y-58536525D01*
X137276525Y-58743368D01*
X137114010Y-58986589D01*
X137002068Y-59256842D01*
X136945000Y-59543740D01*
X136945000Y-59836260D01*
X137002068Y-60123158D01*
X137114010Y-60393411D01*
X137276525Y-60636632D01*
X137483368Y-60843475D01*
X137657760Y-60960000D01*
X137483368Y-61076525D01*
X137276525Y-61283368D01*
X137114010Y-61526589D01*
X137002068Y-61796842D01*
X136945000Y-62083740D01*
X136945000Y-62376260D01*
X137002068Y-62663158D01*
X137114010Y-62933411D01*
X137276525Y-63176632D01*
X137483368Y-63383475D01*
X137657760Y-63500000D01*
X137483368Y-63616525D01*
X137276525Y-63823368D01*
X137114010Y-64066589D01*
X137002068Y-64336842D01*
X136945000Y-64623740D01*
X136945000Y-64916260D01*
X137002068Y-65203158D01*
X137114010Y-65473411D01*
X137276525Y-65716632D01*
X137483368Y-65923475D01*
X137657760Y-66040000D01*
X137483368Y-66156525D01*
X137276525Y-66363368D01*
X137114010Y-66606589D01*
X137002068Y-66876842D01*
X136945000Y-67163740D01*
X136945000Y-67456260D01*
X137002068Y-67743158D01*
X137114010Y-68013411D01*
X137276525Y-68256632D01*
X137483368Y-68463475D01*
X137657760Y-68580000D01*
X137483368Y-68696525D01*
X137276525Y-68903368D01*
X137114010Y-69146589D01*
X137002068Y-69416842D01*
X136945000Y-69703740D01*
X136945000Y-69996260D01*
X137002068Y-70283158D01*
X137114010Y-70553411D01*
X137276525Y-70796632D01*
X137483368Y-71003475D01*
X137657760Y-71120000D01*
X137483368Y-71236525D01*
X137276525Y-71443368D01*
X137114010Y-71686589D01*
X137002068Y-71956842D01*
X136945000Y-72243740D01*
X136945000Y-72536260D01*
X137002068Y-72823158D01*
X137114010Y-73093411D01*
X137276525Y-73336632D01*
X137483368Y-73543475D01*
X137657760Y-73660000D01*
X137483368Y-73776525D01*
X137276525Y-73983368D01*
X137114010Y-74226589D01*
X137002068Y-74496842D01*
X136945000Y-74783740D01*
X136945000Y-75076260D01*
X137002068Y-75363158D01*
X137114010Y-75633411D01*
X137276525Y-75876632D01*
X137483368Y-76083475D01*
X137657760Y-76200000D01*
X137483368Y-76316525D01*
X137276525Y-76523368D01*
X137114010Y-76766589D01*
X137002068Y-77036842D01*
X136945000Y-77323740D01*
X136945000Y-77616260D01*
X137002068Y-77903158D01*
X137114010Y-78173411D01*
X137276525Y-78416632D01*
X137483368Y-78623475D01*
X137657760Y-78740000D01*
X137483368Y-78856525D01*
X137276525Y-79063368D01*
X137114010Y-79306589D01*
X137002068Y-79576842D01*
X136945000Y-79863740D01*
X136945000Y-80156260D01*
X137002068Y-80443158D01*
X137114010Y-80713411D01*
X137276525Y-80956632D01*
X137483368Y-81163475D01*
X137657760Y-81280000D01*
X137483368Y-81396525D01*
X137276525Y-81603368D01*
X137114010Y-81846589D01*
X137002068Y-82116842D01*
X136945000Y-82403740D01*
X136945000Y-82696260D01*
X137002068Y-82983158D01*
X137114010Y-83253411D01*
X137276525Y-83496632D01*
X137483368Y-83703475D01*
X137726589Y-83865990D01*
X137996842Y-83977932D01*
X138283740Y-84035000D01*
X138576260Y-84035000D01*
X138796408Y-83991209D01*
X139136196Y-84330997D01*
X139159999Y-84360001D01*
X139275724Y-84454974D01*
X139407753Y-84525546D01*
X139551014Y-84569003D01*
X139662667Y-84580000D01*
X139662676Y-84580000D01*
X139699999Y-84583676D01*
X139737322Y-84580000D01*
X143472678Y-84580000D01*
X143510000Y-84583676D01*
X143547322Y-84580000D01*
X143547333Y-84580000D01*
X143658986Y-84569003D01*
X143802247Y-84525546D01*
X143934276Y-84454974D01*
X144050001Y-84360001D01*
X144073804Y-84330997D01*
X145291003Y-83113799D01*
X145320001Y-83090001D01*
X145414974Y-82974276D01*
X145485546Y-82842247D01*
X145529003Y-82698986D01*
X145540000Y-82587333D01*
X145540000Y-82587324D01*
X145543676Y-82550001D01*
X145540000Y-82512678D01*
X145540000Y-81983711D01*
X145583937Y-81939774D01*
X145697205Y-81770256D01*
X145775226Y-81581898D01*
X145815000Y-81381939D01*
X145815000Y-81178061D01*
X145775226Y-80978102D01*
X145697205Y-80789744D01*
X145583937Y-80620226D01*
X145439774Y-80476063D01*
X145270256Y-80362795D01*
X145081898Y-80284774D01*
X144881939Y-80245000D01*
X144678061Y-80245000D01*
X144478102Y-80284774D01*
X144289744Y-80362795D01*
X144120226Y-80476063D01*
X143976063Y-80620226D01*
X143862795Y-80789744D01*
X143784774Y-80978102D01*
X143745000Y-81178061D01*
X143745000Y-81381939D01*
X143784774Y-81581898D01*
X143862795Y-81770256D01*
X143976063Y-81939774D01*
X144020001Y-81983712D01*
X144020001Y-82235197D01*
X143195199Y-83060000D01*
X142366103Y-83060000D01*
X142397932Y-82983158D01*
X142455000Y-82696260D01*
X142455000Y-82403740D01*
X142397932Y-82116842D01*
X142285990Y-81846589D01*
X142123475Y-81603368D01*
X141916632Y-81396525D01*
X141742240Y-81280000D01*
X141916632Y-81163475D01*
X142123475Y-80956632D01*
X142285990Y-80713411D01*
X142397932Y-80443158D01*
X142455000Y-80156260D01*
X142455000Y-79863740D01*
X142397932Y-79576842D01*
X142285990Y-79306589D01*
X142123475Y-79063368D01*
X141916632Y-78856525D01*
X141810299Y-78785475D01*
X150545000Y-78785475D01*
X150545000Y-79304525D01*
X150646261Y-79813601D01*
X150844893Y-80293141D01*
X151133262Y-80724715D01*
X151500285Y-81091738D01*
X151931859Y-81380107D01*
X152411399Y-81578739D01*
X152920475Y-81680000D01*
X153439525Y-81680000D01*
X153948601Y-81578739D01*
X154428141Y-81380107D01*
X154859715Y-81091738D01*
X155226738Y-80724715D01*
X155515107Y-80293141D01*
X155713739Y-79813601D01*
X155815000Y-79304525D01*
X155815000Y-78785475D01*
X155713739Y-78276399D01*
X155515107Y-77796859D01*
X155226738Y-77365285D01*
X154859715Y-76998262D01*
X154428141Y-76709893D01*
X153948601Y-76511261D01*
X153439525Y-76410000D01*
X152920475Y-76410000D01*
X152411399Y-76511261D01*
X151931859Y-76709893D01*
X151500285Y-76998262D01*
X151133262Y-77365285D01*
X150844893Y-77796859D01*
X150646261Y-78276399D01*
X150545000Y-78785475D01*
X141810299Y-78785475D01*
X141742240Y-78740000D01*
X141916632Y-78623475D01*
X142123475Y-78416632D01*
X142285990Y-78173411D01*
X142397932Y-77903158D01*
X142455000Y-77616260D01*
X142455000Y-77323740D01*
X142397932Y-77036842D01*
X142285990Y-76766589D01*
X142123475Y-76523368D01*
X141916632Y-76316525D01*
X141742240Y-76200000D01*
X141916632Y-76083475D01*
X142123475Y-75876632D01*
X142285990Y-75633411D01*
X142397932Y-75363158D01*
X142455000Y-75076260D01*
X142455000Y-74783740D01*
X142397932Y-74496842D01*
X142285990Y-74226589D01*
X142123475Y-73983368D01*
X141916632Y-73776525D01*
X141734466Y-73654805D01*
X141851355Y-73585178D01*
X142067588Y-73390269D01*
X142241641Y-73156920D01*
X142366825Y-72894099D01*
X142411476Y-72746890D01*
X142290155Y-72517000D01*
X141097000Y-72517000D01*
X141097000Y-72537000D01*
X140843000Y-72537000D01*
X140843000Y-72517000D01*
X140823000Y-72517000D01*
X140823000Y-72263000D01*
X140843000Y-72263000D01*
X140843000Y-72243000D01*
X141097000Y-72243000D01*
X141097000Y-72263000D01*
X142290155Y-72263000D01*
X142411476Y-72033110D01*
X142366825Y-71885901D01*
X142241641Y-71623080D01*
X142067588Y-71389731D01*
X141851355Y-71194822D01*
X141734466Y-71125195D01*
X141916632Y-71003475D01*
X142123475Y-70796632D01*
X142285990Y-70553411D01*
X142397932Y-70283158D01*
X142455000Y-69996260D01*
X142455000Y-69703740D01*
X142397932Y-69416842D01*
X142285990Y-69146589D01*
X142123475Y-68903368D01*
X141916632Y-68696525D01*
X141742240Y-68580000D01*
X141916632Y-68463475D01*
X142123475Y-68256632D01*
X142248178Y-68070000D01*
X150130604Y-68070000D01*
X150015363Y-68185241D01*
X149858320Y-68420273D01*
X149750147Y-68681426D01*
X149695000Y-68958665D01*
X149695000Y-69241335D01*
X149750147Y-69518574D01*
X149858320Y-69779727D01*
X150015363Y-70014759D01*
X150215241Y-70214637D01*
X150260683Y-70245000D01*
X150215241Y-70275363D01*
X150015363Y-70475241D01*
X149858320Y-70710273D01*
X149750147Y-70971426D01*
X149695000Y-71248665D01*
X149695000Y-71531335D01*
X149750147Y-71808574D01*
X149858320Y-72069727D01*
X150015363Y-72304759D01*
X150215241Y-72504637D01*
X150450273Y-72661680D01*
X150711426Y-72769853D01*
X150988665Y-72825000D01*
X151271335Y-72825000D01*
X151548574Y-72769853D01*
X151809727Y-72661680D01*
X152044759Y-72504637D01*
X152244637Y-72304759D01*
X152401680Y-72069727D01*
X152509853Y-71808574D01*
X152557124Y-71570929D01*
X152623996Y-71602571D01*
X152898184Y-71671300D01*
X153180512Y-71685217D01*
X153460130Y-71643787D01*
X153662941Y-71571258D01*
X153710147Y-71808574D01*
X153818320Y-72069727D01*
X153975363Y-72304759D01*
X154175241Y-72504637D01*
X154410273Y-72661680D01*
X154671426Y-72769853D01*
X154948665Y-72825000D01*
X155231335Y-72825000D01*
X155508574Y-72769853D01*
X155769727Y-72661680D01*
X156004759Y-72504637D01*
X156204637Y-72304759D01*
X156361680Y-72069727D01*
X156469853Y-71808574D01*
X156525000Y-71531335D01*
X156525000Y-71248665D01*
X156469853Y-70971426D01*
X156361680Y-70710273D01*
X156204637Y-70475241D01*
X156004759Y-70275363D01*
X155959317Y-70245000D01*
X156004759Y-70214637D01*
X156204637Y-70014759D01*
X156308043Y-69860000D01*
X156922678Y-69860000D01*
X156960000Y-69863676D01*
X156997322Y-69860000D01*
X156997333Y-69860000D01*
X157108986Y-69849003D01*
X157252247Y-69805546D01*
X157384276Y-69734974D01*
X157500001Y-69640001D01*
X157523804Y-69610997D01*
X159261004Y-67873798D01*
X159290001Y-67850001D01*
X159384974Y-67734276D01*
X159455546Y-67602247D01*
X159499003Y-67458986D01*
X159510000Y-67347333D01*
X159510000Y-67347324D01*
X159513676Y-67310001D01*
X159510000Y-67272678D01*
X159510000Y-47027322D01*
X159513676Y-46989999D01*
X159510000Y-46952676D01*
X159510000Y-46952667D01*
X159499003Y-46841014D01*
X159455546Y-46697753D01*
X159384974Y-46565724D01*
X159371811Y-46549685D01*
X159313799Y-46478996D01*
X159313795Y-46478992D01*
X159290001Y-46449999D01*
X159261008Y-46426205D01*
X156773804Y-43939003D01*
X156750001Y-43909999D01*
X156695170Y-43865000D01*
X166955000Y-43865000D01*
X166955001Y-86945000D01*
X106095000Y-86945000D01*
X106095000Y-82906890D01*
X111588524Y-82906890D01*
X111633175Y-83054099D01*
X111758359Y-83316920D01*
X111932412Y-83550269D01*
X112148645Y-83745178D01*
X112398748Y-83894157D01*
X112673109Y-83991481D01*
X112903000Y-83870814D01*
X112903000Y-82677000D01*
X111709845Y-82677000D01*
X111588524Y-82906890D01*
X106095000Y-82906890D01*
X106095000Y-43865000D01*
X111274830Y-43865000D01*
X111219999Y-43909999D01*
G37*
X111219999Y-43909999D02*
X111196201Y-43938997D01*
X107438998Y-47696201D01*
X107410000Y-47719999D01*
X107386202Y-47748997D01*
X107386201Y-47748998D01*
X107315026Y-47835724D01*
X107244454Y-47967754D01*
X107218236Y-48054188D01*
X107207222Y-48090498D01*
X107200998Y-48111015D01*
X107186324Y-48260000D01*
X107190001Y-48297332D01*
X107190000Y-52032677D01*
X107186324Y-52070000D01*
X107190000Y-52107322D01*
X107190000Y-52107332D01*
X107200997Y-52218985D01*
X107244454Y-52362246D01*
X107315026Y-52494276D01*
X107354871Y-52542826D01*
X107409999Y-52610001D01*
X107439003Y-52633804D01*
X111588790Y-56783592D01*
X111545000Y-57003740D01*
X111545000Y-57296260D01*
X111602068Y-57583158D01*
X111714010Y-57853411D01*
X111876525Y-58096632D01*
X112083368Y-58303475D01*
X112257760Y-58420000D01*
X112083368Y-58536525D01*
X111876525Y-58743368D01*
X111714010Y-58986589D01*
X111602068Y-59256842D01*
X111545000Y-59543740D01*
X111545000Y-59836260D01*
X111602068Y-60123158D01*
X111714010Y-60393411D01*
X111876525Y-60636632D01*
X112083368Y-60843475D01*
X112257760Y-60960000D01*
X112083368Y-61076525D01*
X111876525Y-61283368D01*
X111714010Y-61526589D01*
X111602068Y-61796842D01*
X111545000Y-62083740D01*
X111545000Y-62376260D01*
X111602068Y-62663158D01*
X111714010Y-62933411D01*
X111876525Y-63176632D01*
X112083368Y-63383475D01*
X112257760Y-63500000D01*
X112083368Y-63616525D01*
X111876525Y-63823368D01*
X111714010Y-64066589D01*
X111602068Y-64336842D01*
X111545000Y-64623740D01*
X111545000Y-64916260D01*
X111602068Y-65203158D01*
X111714010Y-65473411D01*
X111876525Y-65716632D01*
X112083368Y-65923475D01*
X112257760Y-66040000D01*
X112083368Y-66156525D01*
X111876525Y-66363368D01*
X111714010Y-66606589D01*
X111602068Y-66876842D01*
X111545000Y-67163740D01*
X111545000Y-67456260D01*
X111602068Y-67743158D01*
X111714010Y-68013411D01*
X111876525Y-68256632D01*
X112083368Y-68463475D01*
X112257760Y-68580000D01*
X112083368Y-68696525D01*
X111876525Y-68903368D01*
X111714010Y-69146589D01*
X111602068Y-69416842D01*
X111545000Y-69703740D01*
X111545000Y-69996260D01*
X111602068Y-70283158D01*
X111714010Y-70553411D01*
X111876525Y-70796632D01*
X112083368Y-71003475D01*
X112265534Y-71125195D01*
X112148645Y-71194822D01*
X111932412Y-71389731D01*
X111758359Y-71623080D01*
X111633175Y-71885901D01*
X111588524Y-72033110D01*
X111709845Y-72263000D01*
X112903000Y-72263000D01*
X112903000Y-72243000D01*
X113157000Y-72243000D01*
X113157000Y-72263000D01*
X113177000Y-72263000D01*
X113177000Y-72517000D01*
X113157000Y-72517000D01*
X113157000Y-72537000D01*
X112903000Y-72537000D01*
X112903000Y-72517000D01*
X111709845Y-72517000D01*
X111588524Y-72746890D01*
X111633175Y-72894099D01*
X111758359Y-73156920D01*
X111932412Y-73390269D01*
X112148645Y-73585178D01*
X112265534Y-73654805D01*
X112083368Y-73776525D01*
X111876525Y-73983368D01*
X111714010Y-74226589D01*
X111602068Y-74496842D01*
X111545000Y-74783740D01*
X111545000Y-75076260D01*
X111602068Y-75363158D01*
X111714010Y-75633411D01*
X111876525Y-75876632D01*
X112083368Y-76083475D01*
X112257760Y-76200000D01*
X112083368Y-76316525D01*
X111876525Y-76523368D01*
X111714010Y-76766589D01*
X111602068Y-77036842D01*
X111545000Y-77323740D01*
X111545000Y-77616260D01*
X111602068Y-77903158D01*
X111714010Y-78173411D01*
X111876525Y-78416632D01*
X112083368Y-78623475D01*
X112257760Y-78740000D01*
X112083368Y-78856525D01*
X111876525Y-79063368D01*
X111714010Y-79306589D01*
X111602068Y-79576842D01*
X111545000Y-79863740D01*
X111545000Y-80156260D01*
X111602068Y-80443158D01*
X111714010Y-80713411D01*
X111876525Y-80956632D01*
X112083368Y-81163475D01*
X112265534Y-81285195D01*
X112148645Y-81354822D01*
X111932412Y-81549731D01*
X111758359Y-81783080D01*
X111633175Y-82045901D01*
X111588524Y-82193110D01*
X111709845Y-82423000D01*
X112903000Y-82423000D01*
X112903000Y-82403000D01*
X113157000Y-82403000D01*
X113157000Y-82423000D01*
X113177000Y-82423000D01*
X113177000Y-82677000D01*
X113157000Y-82677000D01*
X113157000Y-83870814D01*
X113386891Y-83991481D01*
X113661252Y-83894157D01*
X113911355Y-83745178D01*
X114127588Y-83550269D01*
X114298900Y-83320594D01*
X114416525Y-83496632D01*
X114623368Y-83703475D01*
X114866589Y-83865990D01*
X115136842Y-83977932D01*
X115423740Y-84035000D01*
X115716260Y-84035000D01*
X116003158Y-83977932D01*
X116273411Y-83865990D01*
X116516632Y-83703475D01*
X116723475Y-83496632D01*
X116885990Y-83253411D01*
X116997932Y-82983158D01*
X117055000Y-82696260D01*
X117055000Y-82403740D01*
X116997932Y-82116842D01*
X116885990Y-81846589D01*
X116723475Y-81603368D01*
X116516632Y-81396525D01*
X116342240Y-81280000D01*
X116516632Y-81163475D01*
X116723475Y-80956632D01*
X116885990Y-80713411D01*
X116997932Y-80443158D01*
X117055000Y-80156260D01*
X117055000Y-79863740D01*
X116997932Y-79576842D01*
X116885990Y-79306589D01*
X116723475Y-79063368D01*
X116516632Y-78856525D01*
X116342240Y-78740000D01*
X116516632Y-78623475D01*
X116723475Y-78416632D01*
X116885990Y-78173411D01*
X116997932Y-77903158D01*
X117055000Y-77616260D01*
X117055000Y-77323740D01*
X116997932Y-77036842D01*
X116885990Y-76766589D01*
X116723475Y-76523368D01*
X116516632Y-76316525D01*
X116342240Y-76200000D01*
X116516632Y-76083475D01*
X116723475Y-75876632D01*
X116885990Y-75633411D01*
X116997932Y-75363158D01*
X117055000Y-75076260D01*
X117055000Y-74783740D01*
X116997932Y-74496842D01*
X116885990Y-74226589D01*
X116723475Y-73983368D01*
X116516632Y-73776525D01*
X116342240Y-73660000D01*
X116516632Y-73543475D01*
X116723475Y-73336632D01*
X116885990Y-73093411D01*
X116997932Y-72823158D01*
X117055000Y-72536260D01*
X117055000Y-72243740D01*
X116997932Y-71956842D01*
X116885990Y-71686589D01*
X116723475Y-71443368D01*
X116516632Y-71236525D01*
X116342240Y-71120000D01*
X116516632Y-71003475D01*
X116723475Y-70796632D01*
X116885990Y-70553411D01*
X116997932Y-70283158D01*
X117055000Y-69996260D01*
X117055000Y-69703740D01*
X116997932Y-69416842D01*
X116885990Y-69146589D01*
X116723475Y-68903368D01*
X116516632Y-68696525D01*
X116342240Y-68580000D01*
X116516632Y-68463475D01*
X116723475Y-68256632D01*
X116885990Y-68013411D01*
X116997932Y-67743158D01*
X117055000Y-67456260D01*
X117055000Y-67163740D01*
X116997932Y-66876842D01*
X116885990Y-66606589D01*
X116723475Y-66363368D01*
X116516632Y-66156525D01*
X116342240Y-66040000D01*
X116516632Y-65923475D01*
X116723475Y-65716632D01*
X116885990Y-65473411D01*
X116997932Y-65203158D01*
X117055000Y-64916260D01*
X117055000Y-64623740D01*
X116997932Y-64336842D01*
X116885990Y-64066589D01*
X116723475Y-63823368D01*
X116516632Y-63616525D01*
X116334466Y-63494805D01*
X116451355Y-63425178D01*
X116667588Y-63230269D01*
X116841641Y-62996920D01*
X116966825Y-62734099D01*
X117011476Y-62586890D01*
X116890155Y-62357000D01*
X115697000Y-62357000D01*
X115697000Y-62377000D01*
X115443000Y-62377000D01*
X115443000Y-62357000D01*
X115423000Y-62357000D01*
X115423000Y-62103000D01*
X115443000Y-62103000D01*
X115443000Y-62083000D01*
X115697000Y-62083000D01*
X115697000Y-62103000D01*
X116890155Y-62103000D01*
X117011476Y-61873110D01*
X116966825Y-61725901D01*
X116841641Y-61463080D01*
X116667588Y-61229731D01*
X116451355Y-61034822D01*
X116334466Y-60965195D01*
X116516632Y-60843475D01*
X116723475Y-60636632D01*
X116885990Y-60393411D01*
X116997932Y-60123158D01*
X117055000Y-59836260D01*
X117055000Y-59543740D01*
X116997932Y-59256842D01*
X116885990Y-58986589D01*
X116723475Y-58743368D01*
X116516632Y-58536525D01*
X116342240Y-58420000D01*
X116516632Y-58303475D01*
X116723475Y-58096632D01*
X116885990Y-57853411D01*
X116997932Y-57583158D01*
X117055000Y-57296260D01*
X117055000Y-57003740D01*
X116997932Y-56716842D01*
X116885990Y-56446589D01*
X116723475Y-56203368D01*
X116516632Y-55996525D01*
X116342240Y-55880000D01*
X116516632Y-55763475D01*
X116723475Y-55556632D01*
X116885990Y-55313411D01*
X116997932Y-55043158D01*
X117055000Y-54756260D01*
X117055000Y-54463740D01*
X116997932Y-54176842D01*
X116885990Y-53906589D01*
X116723475Y-53663368D01*
X116516632Y-53456525D01*
X116342240Y-53340000D01*
X116516632Y-53223475D01*
X116723475Y-53016632D01*
X116885990Y-52773411D01*
X116997932Y-52503158D01*
X117055000Y-52216260D01*
X117055000Y-51923740D01*
X116997932Y-51636842D01*
X116885990Y-51366589D01*
X116723475Y-51123368D01*
X116591620Y-50991513D01*
X116664180Y-50969502D01*
X116774494Y-50910537D01*
X116871185Y-50831185D01*
X116950537Y-50734494D01*
X117009502Y-50624180D01*
X117045812Y-50504482D01*
X117058072Y-50380000D01*
X117058072Y-49173110D01*
X136988524Y-49173110D01*
X137109845Y-49403000D01*
X138303000Y-49403000D01*
X138303000Y-48209186D01*
X138073109Y-48088519D01*
X137798748Y-48185843D01*
X137548645Y-48334822D01*
X137332412Y-48529731D01*
X137158359Y-48763080D01*
X137033175Y-49025901D01*
X136988524Y-49173110D01*
X117058072Y-49173110D01*
X117058072Y-48680000D01*
X117045812Y-48555518D01*
X117009502Y-48435820D01*
X116950537Y-48325506D01*
X116871185Y-48228815D01*
X116774494Y-48149463D01*
X116664180Y-48090498D01*
X116544482Y-48054188D01*
X116420000Y-48041928D01*
X114720000Y-48041928D01*
X114595518Y-48054188D01*
X114475820Y-48090498D01*
X114365506Y-48149463D01*
X114268815Y-48228815D01*
X114189463Y-48325506D01*
X114130498Y-48435820D01*
X114107502Y-48511626D01*
X113911355Y-48334822D01*
X113661252Y-48185843D01*
X113386891Y-48088519D01*
X113157000Y-48209186D01*
X113157000Y-49403000D01*
X113177000Y-49403000D01*
X113177000Y-49657000D01*
X113157000Y-49657000D01*
X113157000Y-49677000D01*
X112903000Y-49677000D01*
X112903000Y-49657000D01*
X111709845Y-49657000D01*
X111588524Y-49886890D01*
X111633175Y-50034099D01*
X111758359Y-50296920D01*
X111932412Y-50530269D01*
X112148645Y-50725178D01*
X112265534Y-50794805D01*
X112083368Y-50916525D01*
X111876525Y-51123368D01*
X111714010Y-51366589D01*
X111602068Y-51636842D01*
X111545000Y-51923740D01*
X111545000Y-52216260D01*
X111602068Y-52503158D01*
X111714010Y-52773411D01*
X111876525Y-53016632D01*
X112083368Y-53223475D01*
X112257760Y-53340000D01*
X112083368Y-53456525D01*
X111882348Y-53657545D01*
X109980000Y-51755199D01*
X109980000Y-49173110D01*
X111588524Y-49173110D01*
X111709845Y-49403000D01*
X112903000Y-49403000D01*
X112903000Y-48209186D01*
X112673109Y-48088519D01*
X112398748Y-48185843D01*
X112148645Y-48334822D01*
X111932412Y-48529731D01*
X111758359Y-48763080D01*
X111633175Y-49025901D01*
X111588524Y-49173110D01*
X109980000Y-49173110D01*
X109980000Y-48574801D01*
X112074803Y-46480000D01*
X155895199Y-46480000D01*
X156720000Y-47304802D01*
X156720001Y-65725197D01*
X156395198Y-66050000D01*
X156308043Y-66050000D01*
X156204637Y-65895241D01*
X156004759Y-65695363D01*
X155959317Y-65665000D01*
X156004759Y-65634637D01*
X156204637Y-65434759D01*
X156361680Y-65199727D01*
X156469853Y-64938574D01*
X156525000Y-64661335D01*
X156525000Y-64378665D01*
X156469853Y-64101426D01*
X156361680Y-63840273D01*
X156204637Y-63605241D01*
X156004759Y-63405363D01*
X155959317Y-63375000D01*
X156004759Y-63344637D01*
X156204637Y-63144759D01*
X156361680Y-62909727D01*
X156469853Y-62648574D01*
X156525000Y-62371335D01*
X156525000Y-62088665D01*
X156469853Y-61811426D01*
X156361680Y-61550273D01*
X156204637Y-61315241D01*
X156004759Y-61115363D01*
X155769727Y-60958320D01*
X155508574Y-60850147D01*
X155231335Y-60795000D01*
X154948665Y-60795000D01*
X154671426Y-60850147D01*
X154534284Y-60906953D01*
X154508787Y-60734870D01*
X154413603Y-60468708D01*
X154346671Y-60343486D01*
X154102702Y-60271903D01*
X153289605Y-61085000D01*
X153303748Y-61099143D01*
X153124143Y-61278748D01*
X153110000Y-61264605D01*
X153095858Y-61278748D01*
X152916253Y-61099143D01*
X152930395Y-61085000D01*
X152117298Y-60271903D01*
X151873329Y-60343486D01*
X151752429Y-60598996D01*
X151704068Y-60791928D01*
X150330000Y-60791928D01*
X150205518Y-60804188D01*
X150085820Y-60840498D01*
X149975506Y-60899463D01*
X149878815Y-60978815D01*
X149799463Y-61075506D01*
X149740498Y-61185820D01*
X149704188Y-61305518D01*
X149691928Y-61430000D01*
X149691928Y-61470000D01*
X147357322Y-61470000D01*
X147319999Y-61466324D01*
X147282676Y-61470000D01*
X147282667Y-61470000D01*
X147171014Y-61480997D01*
X147027753Y-61524454D01*
X146895724Y-61595026D01*
X146895722Y-61595027D01*
X146895723Y-61595027D01*
X146808996Y-61666201D01*
X146808992Y-61666205D01*
X146779999Y-61689999D01*
X146756205Y-61718992D01*
X144269003Y-64206196D01*
X144239999Y-64229999D01*
X144184871Y-64297174D01*
X144145026Y-64345724D01*
X144074455Y-64477753D01*
X144074454Y-64477754D01*
X144030997Y-64621015D01*
X144020000Y-64732668D01*
X144020000Y-64732678D01*
X144016324Y-64770000D01*
X144020000Y-64807323D01*
X144020000Y-65336289D01*
X143976063Y-65380226D01*
X143862795Y-65549744D01*
X143784774Y-65738102D01*
X143745000Y-65938061D01*
X143745000Y-66141939D01*
X143784774Y-66341898D01*
X143862795Y-66530256D01*
X143875987Y-66550000D01*
X142248178Y-66550000D01*
X142123475Y-66363368D01*
X141916632Y-66156525D01*
X141742240Y-66040000D01*
X141916632Y-65923475D01*
X142123475Y-65716632D01*
X142285990Y-65473411D01*
X142397932Y-65203158D01*
X142455000Y-64916260D01*
X142455000Y-64623740D01*
X142397932Y-64336842D01*
X142285990Y-64066589D01*
X142123475Y-63823368D01*
X141916632Y-63616525D01*
X141734466Y-63494805D01*
X141851355Y-63425178D01*
X142067588Y-63230269D01*
X142241641Y-62996920D01*
X142366825Y-62734099D01*
X142411476Y-62586890D01*
X142290155Y-62357000D01*
X141097000Y-62357000D01*
X141097000Y-62377000D01*
X140843000Y-62377000D01*
X140843000Y-62357000D01*
X140823000Y-62357000D01*
X140823000Y-62103000D01*
X140843000Y-62103000D01*
X140843000Y-62083000D01*
X141097000Y-62083000D01*
X141097000Y-62103000D01*
X142290155Y-62103000D01*
X142411476Y-61873110D01*
X142366825Y-61725901D01*
X142241641Y-61463080D01*
X142067588Y-61229731D01*
X141851355Y-61034822D01*
X141734466Y-60965195D01*
X141916632Y-60843475D01*
X142123475Y-60636632D01*
X142285990Y-60393411D01*
X142397932Y-60123158D01*
X142404070Y-60092298D01*
X152296903Y-60092298D01*
X153110000Y-60905395D01*
X153923097Y-60092298D01*
X153851514Y-59848329D01*
X153596004Y-59727429D01*
X153321816Y-59658700D01*
X153039488Y-59644783D01*
X152759870Y-59686213D01*
X152493708Y-59781397D01*
X152368486Y-59848329D01*
X152296903Y-60092298D01*
X142404070Y-60092298D01*
X142455000Y-59836260D01*
X142455000Y-59543740D01*
X142397932Y-59256842D01*
X142285990Y-58986589D01*
X142123475Y-58743368D01*
X141916632Y-58536525D01*
X141742240Y-58420000D01*
X141916632Y-58303475D01*
X142123475Y-58096632D01*
X142285990Y-57853411D01*
X142397932Y-57583158D01*
X142455000Y-57296260D01*
X142455000Y-57003740D01*
X142397932Y-56716842D01*
X142285990Y-56446589D01*
X142123475Y-56203368D01*
X141916632Y-55996525D01*
X141742240Y-55880000D01*
X141916632Y-55763475D01*
X142123475Y-55556632D01*
X142285990Y-55313411D01*
X142397932Y-55043158D01*
X142455000Y-54756260D01*
X142455000Y-54463740D01*
X142397932Y-54176842D01*
X142285990Y-53906589D01*
X142205065Y-53785475D01*
X150545000Y-53785475D01*
X150545000Y-54304525D01*
X150646261Y-54813601D01*
X150844893Y-55293141D01*
X151133262Y-55724715D01*
X151500285Y-56091738D01*
X151931859Y-56380107D01*
X152411399Y-56578739D01*
X152920475Y-56680000D01*
X153439525Y-56680000D01*
X153948601Y-56578739D01*
X154428141Y-56380107D01*
X154859715Y-56091738D01*
X155226738Y-55724715D01*
X155515107Y-55293141D01*
X155713739Y-54813601D01*
X155815000Y-54304525D01*
X155815000Y-53785475D01*
X155713739Y-53276399D01*
X155515107Y-52796859D01*
X155226738Y-52365285D01*
X154859715Y-51998262D01*
X154428141Y-51709893D01*
X153948601Y-51511261D01*
X153439525Y-51410000D01*
X152920475Y-51410000D01*
X152411399Y-51511261D01*
X151931859Y-51709893D01*
X151500285Y-51998262D01*
X151133262Y-52365285D01*
X150844893Y-52796859D01*
X150646261Y-53276399D01*
X150545000Y-53785475D01*
X142205065Y-53785475D01*
X142123475Y-53663368D01*
X141916632Y-53456525D01*
X141742240Y-53340000D01*
X141916632Y-53223475D01*
X142123475Y-53016632D01*
X142285990Y-52773411D01*
X142397932Y-52503158D01*
X142455000Y-52216260D01*
X142455000Y-51923740D01*
X142397932Y-51636842D01*
X142285990Y-51366589D01*
X142123475Y-51123368D01*
X141991620Y-50991513D01*
X142064180Y-50969502D01*
X142174494Y-50910537D01*
X142271185Y-50831185D01*
X142350537Y-50734494D01*
X142409502Y-50624180D01*
X142445812Y-50504482D01*
X142458072Y-50380000D01*
X142458072Y-48680000D01*
X142445812Y-48555518D01*
X142409502Y-48435820D01*
X142350537Y-48325506D01*
X142271185Y-48228815D01*
X142174494Y-48149463D01*
X142064180Y-48090498D01*
X141944482Y-48054188D01*
X141820000Y-48041928D01*
X140120000Y-48041928D01*
X139995518Y-48054188D01*
X139875820Y-48090498D01*
X139765506Y-48149463D01*
X139668815Y-48228815D01*
X139589463Y-48325506D01*
X139530498Y-48435820D01*
X139507502Y-48511626D01*
X139311355Y-48334822D01*
X139061252Y-48185843D01*
X138786891Y-48088519D01*
X138557000Y-48209186D01*
X138557000Y-49403000D01*
X138577000Y-49403000D01*
X138577000Y-49657000D01*
X138557000Y-49657000D01*
X138557000Y-49677000D01*
X138303000Y-49677000D01*
X138303000Y-49657000D01*
X137109845Y-49657000D01*
X136988524Y-49886890D01*
X137033175Y-50034099D01*
X137158359Y-50296920D01*
X137332412Y-50530269D01*
X137548645Y-50725178D01*
X137665534Y-50794805D01*
X137483368Y-50916525D01*
X137276525Y-51123368D01*
X137114010Y-51366589D01*
X137002068Y-51636842D01*
X136945000Y-51923740D01*
X136945000Y-52216260D01*
X137002068Y-52503158D01*
X137114010Y-52773411D01*
X137276525Y-53016632D01*
X137483368Y-53223475D01*
X137657760Y-53340000D01*
X137483368Y-53456525D01*
X137276525Y-53663368D01*
X137114010Y-53906589D01*
X137002068Y-54176842D01*
X136945000Y-54463740D01*
X136945000Y-54756260D01*
X137002068Y-55043158D01*
X137114010Y-55313411D01*
X137276525Y-55556632D01*
X137483368Y-55763475D01*
X137657760Y-55880000D01*
X137483368Y-55996525D01*
X137276525Y-56203368D01*
X137114010Y-56446589D01*
X137002068Y-56716842D01*
X136945000Y-57003740D01*
X136945000Y-57296260D01*
X137002068Y-57583158D01*
X137114010Y-57853411D01*
X137276525Y-58096632D01*
X137483368Y-58303475D01*
X137657760Y-58420000D01*
X137483368Y-58536525D01*
X137276525Y-58743368D01*
X137114010Y-58986589D01*
X137002068Y-59256842D01*
X136945000Y-59543740D01*
X136945000Y-59836260D01*
X137002068Y-60123158D01*
X137114010Y-60393411D01*
X137276525Y-60636632D01*
X137483368Y-60843475D01*
X137657760Y-60960000D01*
X137483368Y-61076525D01*
X137276525Y-61283368D01*
X137114010Y-61526589D01*
X137002068Y-61796842D01*
X136945000Y-62083740D01*
X136945000Y-62376260D01*
X137002068Y-62663158D01*
X137114010Y-62933411D01*
X137276525Y-63176632D01*
X137483368Y-63383475D01*
X137657760Y-63500000D01*
X137483368Y-63616525D01*
X137276525Y-63823368D01*
X137114010Y-64066589D01*
X137002068Y-64336842D01*
X136945000Y-64623740D01*
X136945000Y-64916260D01*
X137002068Y-65203158D01*
X137114010Y-65473411D01*
X137276525Y-65716632D01*
X137483368Y-65923475D01*
X137657760Y-66040000D01*
X137483368Y-66156525D01*
X137276525Y-66363368D01*
X137114010Y-66606589D01*
X137002068Y-66876842D01*
X136945000Y-67163740D01*
X136945000Y-67456260D01*
X137002068Y-67743158D01*
X137114010Y-68013411D01*
X137276525Y-68256632D01*
X137483368Y-68463475D01*
X137657760Y-68580000D01*
X137483368Y-68696525D01*
X137276525Y-68903368D01*
X137114010Y-69146589D01*
X137002068Y-69416842D01*
X136945000Y-69703740D01*
X136945000Y-69996260D01*
X137002068Y-70283158D01*
X137114010Y-70553411D01*
X137276525Y-70796632D01*
X137483368Y-71003475D01*
X137657760Y-71120000D01*
X137483368Y-71236525D01*
X137276525Y-71443368D01*
X137114010Y-71686589D01*
X137002068Y-71956842D01*
X136945000Y-72243740D01*
X136945000Y-72536260D01*
X137002068Y-72823158D01*
X137114010Y-73093411D01*
X137276525Y-73336632D01*
X137483368Y-73543475D01*
X137657760Y-73660000D01*
X137483368Y-73776525D01*
X137276525Y-73983368D01*
X137114010Y-74226589D01*
X137002068Y-74496842D01*
X136945000Y-74783740D01*
X136945000Y-75076260D01*
X137002068Y-75363158D01*
X137114010Y-75633411D01*
X137276525Y-75876632D01*
X137483368Y-76083475D01*
X137657760Y-76200000D01*
X137483368Y-76316525D01*
X137276525Y-76523368D01*
X137114010Y-76766589D01*
X137002068Y-77036842D01*
X136945000Y-77323740D01*
X136945000Y-77616260D01*
X137002068Y-77903158D01*
X137114010Y-78173411D01*
X137276525Y-78416632D01*
X137483368Y-78623475D01*
X137657760Y-78740000D01*
X137483368Y-78856525D01*
X137276525Y-79063368D01*
X137114010Y-79306589D01*
X137002068Y-79576842D01*
X136945000Y-79863740D01*
X136945000Y-80156260D01*
X137002068Y-80443158D01*
X137114010Y-80713411D01*
X137276525Y-80956632D01*
X137483368Y-81163475D01*
X137657760Y-81280000D01*
X137483368Y-81396525D01*
X137276525Y-81603368D01*
X137114010Y-81846589D01*
X137002068Y-82116842D01*
X136945000Y-82403740D01*
X136945000Y-82696260D01*
X137002068Y-82983158D01*
X137114010Y-83253411D01*
X137276525Y-83496632D01*
X137483368Y-83703475D01*
X137726589Y-83865990D01*
X137996842Y-83977932D01*
X138283740Y-84035000D01*
X138576260Y-84035000D01*
X138796408Y-83991209D01*
X139136196Y-84330997D01*
X139159999Y-84360001D01*
X139275724Y-84454974D01*
X139407753Y-84525546D01*
X139551014Y-84569003D01*
X139662667Y-84580000D01*
X139662676Y-84580000D01*
X139699999Y-84583676D01*
X139737322Y-84580000D01*
X143472678Y-84580000D01*
X143510000Y-84583676D01*
X143547322Y-84580000D01*
X143547333Y-84580000D01*
X143658986Y-84569003D01*
X143802247Y-84525546D01*
X143934276Y-84454974D01*
X144050001Y-84360001D01*
X144073804Y-84330997D01*
X145291003Y-83113799D01*
X145320001Y-83090001D01*
X145414974Y-82974276D01*
X145485546Y-82842247D01*
X145529003Y-82698986D01*
X145540000Y-82587333D01*
X145540000Y-82587324D01*
X145543676Y-82550001D01*
X145540000Y-82512678D01*
X145540000Y-81983711D01*
X145583937Y-81939774D01*
X145697205Y-81770256D01*
X145775226Y-81581898D01*
X145815000Y-81381939D01*
X145815000Y-81178061D01*
X145775226Y-80978102D01*
X145697205Y-80789744D01*
X145583937Y-80620226D01*
X145439774Y-80476063D01*
X145270256Y-80362795D01*
X145081898Y-80284774D01*
X144881939Y-80245000D01*
X144678061Y-80245000D01*
X144478102Y-80284774D01*
X144289744Y-80362795D01*
X144120226Y-80476063D01*
X143976063Y-80620226D01*
X143862795Y-80789744D01*
X143784774Y-80978102D01*
X143745000Y-81178061D01*
X143745000Y-81381939D01*
X143784774Y-81581898D01*
X143862795Y-81770256D01*
X143976063Y-81939774D01*
X144020001Y-81983712D01*
X144020001Y-82235197D01*
X143195199Y-83060000D01*
X142366103Y-83060000D01*
X142397932Y-82983158D01*
X142455000Y-82696260D01*
X142455000Y-82403740D01*
X142397932Y-82116842D01*
X142285990Y-81846589D01*
X142123475Y-81603368D01*
X141916632Y-81396525D01*
X141742240Y-81280000D01*
X141916632Y-81163475D01*
X142123475Y-80956632D01*
X142285990Y-80713411D01*
X142397932Y-80443158D01*
X142455000Y-80156260D01*
X142455000Y-79863740D01*
X142397932Y-79576842D01*
X142285990Y-79306589D01*
X142123475Y-79063368D01*
X141916632Y-78856525D01*
X141810299Y-78785475D01*
X150545000Y-78785475D01*
X150545000Y-79304525D01*
X150646261Y-79813601D01*
X150844893Y-80293141D01*
X151133262Y-80724715D01*
X151500285Y-81091738D01*
X151931859Y-81380107D01*
X152411399Y-81578739D01*
X152920475Y-81680000D01*
X153439525Y-81680000D01*
X153948601Y-81578739D01*
X154428141Y-81380107D01*
X154859715Y-81091738D01*
X155226738Y-80724715D01*
X155515107Y-80293141D01*
X155713739Y-79813601D01*
X155815000Y-79304525D01*
X155815000Y-78785475D01*
X155713739Y-78276399D01*
X155515107Y-77796859D01*
X155226738Y-77365285D01*
X154859715Y-76998262D01*
X154428141Y-76709893D01*
X153948601Y-76511261D01*
X153439525Y-76410000D01*
X152920475Y-76410000D01*
X152411399Y-76511261D01*
X151931859Y-76709893D01*
X151500285Y-76998262D01*
X151133262Y-77365285D01*
X150844893Y-77796859D01*
X150646261Y-78276399D01*
X150545000Y-78785475D01*
X141810299Y-78785475D01*
X141742240Y-78740000D01*
X141916632Y-78623475D01*
X142123475Y-78416632D01*
X142285990Y-78173411D01*
X142397932Y-77903158D01*
X142455000Y-77616260D01*
X142455000Y-77323740D01*
X142397932Y-77036842D01*
X142285990Y-76766589D01*
X142123475Y-76523368D01*
X141916632Y-76316525D01*
X141742240Y-76200000D01*
X141916632Y-76083475D01*
X142123475Y-75876632D01*
X142285990Y-75633411D01*
X142397932Y-75363158D01*
X142455000Y-75076260D01*
X142455000Y-74783740D01*
X142397932Y-74496842D01*
X142285990Y-74226589D01*
X142123475Y-73983368D01*
X141916632Y-73776525D01*
X141734466Y-73654805D01*
X141851355Y-73585178D01*
X142067588Y-73390269D01*
X142241641Y-73156920D01*
X142366825Y-72894099D01*
X142411476Y-72746890D01*
X142290155Y-72517000D01*
X141097000Y-72517000D01*
X141097000Y-72537000D01*
X140843000Y-72537000D01*
X140843000Y-72517000D01*
X140823000Y-72517000D01*
X140823000Y-72263000D01*
X140843000Y-72263000D01*
X140843000Y-72243000D01*
X141097000Y-72243000D01*
X141097000Y-72263000D01*
X142290155Y-72263000D01*
X142411476Y-72033110D01*
X142366825Y-71885901D01*
X142241641Y-71623080D01*
X142067588Y-71389731D01*
X141851355Y-71194822D01*
X141734466Y-71125195D01*
X141916632Y-71003475D01*
X142123475Y-70796632D01*
X142285990Y-70553411D01*
X142397932Y-70283158D01*
X142455000Y-69996260D01*
X142455000Y-69703740D01*
X142397932Y-69416842D01*
X142285990Y-69146589D01*
X142123475Y-68903368D01*
X141916632Y-68696525D01*
X141742240Y-68580000D01*
X141916632Y-68463475D01*
X142123475Y-68256632D01*
X142248178Y-68070000D01*
X150130604Y-68070000D01*
X150015363Y-68185241D01*
X149858320Y-68420273D01*
X149750147Y-68681426D01*
X149695000Y-68958665D01*
X149695000Y-69241335D01*
X149750147Y-69518574D01*
X149858320Y-69779727D01*
X150015363Y-70014759D01*
X150215241Y-70214637D01*
X150260683Y-70245000D01*
X150215241Y-70275363D01*
X150015363Y-70475241D01*
X149858320Y-70710273D01*
X149750147Y-70971426D01*
X149695000Y-71248665D01*
X149695000Y-71531335D01*
X149750147Y-71808574D01*
X149858320Y-72069727D01*
X150015363Y-72304759D01*
X150215241Y-72504637D01*
X150450273Y-72661680D01*
X150711426Y-72769853D01*
X150988665Y-72825000D01*
X151271335Y-72825000D01*
X151548574Y-72769853D01*
X151809727Y-72661680D01*
X152044759Y-72504637D01*
X152244637Y-72304759D01*
X152401680Y-72069727D01*
X152509853Y-71808574D01*
X152557124Y-71570929D01*
X152623996Y-71602571D01*
X152898184Y-71671300D01*
X153180512Y-71685217D01*
X153460130Y-71643787D01*
X153662941Y-71571258D01*
X153710147Y-71808574D01*
X153818320Y-72069727D01*
X153975363Y-72304759D01*
X154175241Y-72504637D01*
X154410273Y-72661680D01*
X154671426Y-72769853D01*
X154948665Y-72825000D01*
X155231335Y-72825000D01*
X155508574Y-72769853D01*
X155769727Y-72661680D01*
X156004759Y-72504637D01*
X156204637Y-72304759D01*
X156361680Y-72069727D01*
X156469853Y-71808574D01*
X156525000Y-71531335D01*
X156525000Y-71248665D01*
X156469853Y-70971426D01*
X156361680Y-70710273D01*
X156204637Y-70475241D01*
X156004759Y-70275363D01*
X155959317Y-70245000D01*
X156004759Y-70214637D01*
X156204637Y-70014759D01*
X156308043Y-69860000D01*
X156922678Y-69860000D01*
X156960000Y-69863676D01*
X156997322Y-69860000D01*
X156997333Y-69860000D01*
X157108986Y-69849003D01*
X157252247Y-69805546D01*
X157384276Y-69734974D01*
X157500001Y-69640001D01*
X157523804Y-69610997D01*
X159261004Y-67873798D01*
X159290001Y-67850001D01*
X159384974Y-67734276D01*
X159455546Y-67602247D01*
X159499003Y-67458986D01*
X159510000Y-67347333D01*
X159510000Y-67347324D01*
X159513676Y-67310001D01*
X159510000Y-67272678D01*
X159510000Y-47027322D01*
X159513676Y-46989999D01*
X159510000Y-46952676D01*
X159510000Y-46952667D01*
X159499003Y-46841014D01*
X159455546Y-46697753D01*
X159384974Y-46565724D01*
X159371811Y-46549685D01*
X159313799Y-46478996D01*
X159313795Y-46478992D01*
X159290001Y-46449999D01*
X159261008Y-46426205D01*
X156773804Y-43939003D01*
X156750001Y-43909999D01*
X156695170Y-43865000D01*
X166955000Y-43865000D01*
X166955001Y-86945000D01*
X106095000Y-86945000D01*
X106095000Y-82906890D01*
X111588524Y-82906890D01*
X111633175Y-83054099D01*
X111758359Y-83316920D01*
X111932412Y-83550269D01*
X112148645Y-83745178D01*
X112398748Y-83894157D01*
X112673109Y-83991481D01*
X112903000Y-83870814D01*
X112903000Y-82677000D01*
X111709845Y-82677000D01*
X111588524Y-82906890D01*
X106095000Y-82906890D01*
X106095000Y-43865000D01*
X111274830Y-43865000D01*
X111219999Y-43909999D01*
G36*
X153303748Y-70230858D02*
G01*
X153289605Y-70245000D01*
X153303748Y-70259143D01*
X153124143Y-70438748D01*
X153110000Y-70424605D01*
X153095858Y-70438748D01*
X152916253Y-70259143D01*
X152930395Y-70245000D01*
X152916253Y-70230858D01*
X153095858Y-70051253D01*
X153110000Y-70065395D01*
X153124143Y-70051253D01*
X153303748Y-70230858D01*
G37*
X153303748Y-70230858D02*
X153289605Y-70245000D01*
X153303748Y-70259143D01*
X153124143Y-70438748D01*
X153110000Y-70424605D01*
X153095858Y-70438748D01*
X152916253Y-70259143D01*
X152930395Y-70245000D01*
X152916253Y-70230858D01*
X153095858Y-70051253D01*
X153110000Y-70065395D01*
X153124143Y-70051253D01*
X153303748Y-70230858D01*
G36*
X153303748Y-65650858D02*
G01*
X153289605Y-65665000D01*
X153303748Y-65679143D01*
X153124143Y-65858748D01*
X153110000Y-65844605D01*
X153095858Y-65858748D01*
X152916253Y-65679143D01*
X152930395Y-65665000D01*
X152916253Y-65650858D01*
X153095858Y-65471253D01*
X153110000Y-65485395D01*
X153124143Y-65471253D01*
X153303748Y-65650858D01*
G37*
X153303748Y-65650858D02*
X153289605Y-65665000D01*
X153303748Y-65679143D01*
X153124143Y-65858748D01*
X153110000Y-65844605D01*
X153095858Y-65858748D01*
X152916253Y-65679143D01*
X152930395Y-65665000D01*
X152916253Y-65650858D01*
X153095858Y-65471253D01*
X153110000Y-65485395D01*
X153124143Y-65471253D01*
X153303748Y-65650858D01*
G36*
X153303748Y-63360858D02*
G01*
X153289605Y-63375000D01*
X153303748Y-63389143D01*
X153124143Y-63568748D01*
X153110000Y-63554605D01*
X153095858Y-63568748D01*
X152916253Y-63389143D01*
X152930395Y-63375000D01*
X152916253Y-63360858D01*
X153095858Y-63181253D01*
X153110000Y-63195395D01*
X153124143Y-63181253D01*
X153303748Y-63360858D01*
G37*
X153303748Y-63360858D02*
X153289605Y-63375000D01*
X153303748Y-63389143D01*
X153124143Y-63568748D01*
X153110000Y-63554605D01*
X153095858Y-63568748D01*
X152916253Y-63389143D01*
X152930395Y-63375000D01*
X152916253Y-63360858D01*
X153095858Y-63181253D01*
X153110000Y-63195395D01*
X153124143Y-63181253D01*
X153303748Y-63360858D01*
M02*
