G04 #@! TF.GenerationSoftware,KiCad,Pcbnew,(5.1.5)-3*
G04 #@! TF.CreationDate,2020-05-03T20:07:27+02:00*
G04 #@! TF.ProjectId,VGA_adapter,5647415f-6164-4617-9074-65722e6b6963,rev?*
G04 #@! TF.SameCoordinates,Original*
G04 #@! TF.FileFunction,Copper,L1,Top*
G04 #@! TF.FilePolarity,Positive*
%FSLAX46Y46*%
G04 Gerber Fmt 4.6, Leading zero omitted, Abs format (unit mm)*
G04 Created by KiCad (PCBNEW (5.1.5)-3) date 2020-05-03 20:07:27*
%MOMM*%
%LPD*%
G04 APERTURE LIST*
%ADD10C,4.000000*%
%ADD11C,1.600000*%
%ADD12R,1.600000X1.600000*%
%ADD13O,1.700000X1.700000*%
%ADD14R,1.700000X1.700000*%
%ADD15C,0.800000*%
%ADD16C,0.250000*%
%ADD17C,0.254000*%
G04 APERTURE END LIST*
D10*
X153180000Y-54045000D03*
X153180000Y-79045000D03*
D11*
X155090000Y-71390000D03*
X155090000Y-69100000D03*
X155090000Y-66810000D03*
X155090000Y-64520000D03*
X155090000Y-62230000D03*
X153110000Y-70245000D03*
X153110000Y-67955000D03*
X153110000Y-65665000D03*
X153110000Y-63375000D03*
X153110000Y-61085000D03*
X151130000Y-71390000D03*
X151130000Y-69100000D03*
X151130000Y-66810000D03*
X151130000Y-64520000D03*
D12*
X151130000Y-62230000D03*
D13*
X138430000Y-69850000D03*
X140970000Y-72390000D03*
X140970000Y-77470000D03*
X138430000Y-77470000D03*
X138430000Y-72390000D03*
X138430000Y-80010000D03*
X138430000Y-59690000D03*
X140970000Y-59690000D03*
X138430000Y-74930000D03*
X138430000Y-67310000D03*
X138430000Y-62230000D03*
X140970000Y-64770000D03*
X140970000Y-67310000D03*
X140970000Y-80010000D03*
X140970000Y-69850000D03*
X138430000Y-57150000D03*
X138430000Y-64770000D03*
X140970000Y-82550000D03*
X138430000Y-82550000D03*
X140970000Y-62230000D03*
X140970000Y-74930000D03*
X138430000Y-54610000D03*
X140970000Y-57150000D03*
D14*
X140970000Y-49530000D03*
D13*
X138430000Y-49530000D03*
X140970000Y-52070000D03*
X138430000Y-52070000D03*
X140970000Y-54610000D03*
X113030000Y-82550000D03*
X115570000Y-82550000D03*
X113030000Y-80010000D03*
X115570000Y-80010000D03*
X113030000Y-77470000D03*
X115570000Y-77470000D03*
X113030000Y-74930000D03*
X115570000Y-74930000D03*
X113030000Y-72390000D03*
X115570000Y-72390000D03*
X113030000Y-69850000D03*
X115570000Y-69850000D03*
X113030000Y-67310000D03*
X115570000Y-67310000D03*
X113030000Y-64770000D03*
X115570000Y-64770000D03*
X113030000Y-62230000D03*
X115570000Y-62230000D03*
X113030000Y-59690000D03*
X115570000Y-59690000D03*
X113030000Y-57150000D03*
X115570000Y-57150000D03*
X113030000Y-54610000D03*
X115570000Y-54610000D03*
X113030000Y-52070000D03*
X115570000Y-52070000D03*
X113030000Y-49530000D03*
D14*
X115570000Y-49530000D03*
D15*
X146050000Y-66040000D03*
X144780000Y-66040000D03*
X144780000Y-81280000D03*
D16*
X153110000Y-61085000D02*
X153110000Y-63375000D01*
X153110000Y-63375000D02*
X153110000Y-65665000D01*
X153110000Y-70245000D02*
X153110000Y-71830000D01*
X146050000Y-66040000D02*
X146050000Y-81280000D01*
X144780000Y-82550000D02*
X140970000Y-82550000D01*
X146050000Y-81280000D02*
X144780000Y-82550000D01*
X144780000Y-66040000D02*
X144780000Y-81280000D01*
X144780000Y-81280000D02*
X144780000Y-81280000D01*
D17*
G36*
X159893000Y-83693000D02*
G01*
X141927107Y-83693000D01*
X142123475Y-83496632D01*
X142248178Y-83310000D01*
X144742678Y-83310000D01*
X144780000Y-83313676D01*
X144817322Y-83310000D01*
X144817333Y-83310000D01*
X144928986Y-83299003D01*
X145072247Y-83255546D01*
X145204276Y-83184974D01*
X145320001Y-83090001D01*
X145343804Y-83060997D01*
X146561003Y-81843799D01*
X146590001Y-81820001D01*
X146684974Y-81704276D01*
X146755546Y-81572247D01*
X146799003Y-81428986D01*
X146810000Y-81317333D01*
X146810000Y-81317324D01*
X146813676Y-81280001D01*
X146810000Y-81242678D01*
X146810000Y-78785475D01*
X150545000Y-78785475D01*
X150545000Y-79304525D01*
X150646261Y-79813601D01*
X150844893Y-80293141D01*
X151133262Y-80724715D01*
X151500285Y-81091738D01*
X151931859Y-81380107D01*
X152411399Y-81578739D01*
X152920475Y-81680000D01*
X153439525Y-81680000D01*
X153948601Y-81578739D01*
X154428141Y-81380107D01*
X154859715Y-81091738D01*
X155226738Y-80724715D01*
X155515107Y-80293141D01*
X155713739Y-79813601D01*
X155815000Y-79304525D01*
X155815000Y-78785475D01*
X155713739Y-78276399D01*
X155515107Y-77796859D01*
X155226738Y-77365285D01*
X154859715Y-76998262D01*
X154428141Y-76709893D01*
X153948601Y-76511261D01*
X153439525Y-76410000D01*
X152920475Y-76410000D01*
X152411399Y-76511261D01*
X151931859Y-76709893D01*
X151500285Y-76998262D01*
X151133262Y-77365285D01*
X150844893Y-77796859D01*
X150646261Y-78276399D01*
X150545000Y-78785475D01*
X146810000Y-78785475D01*
X146810000Y-66743711D01*
X146853937Y-66699774D01*
X146967205Y-66530256D01*
X147045226Y-66341898D01*
X147085000Y-66141939D01*
X147085000Y-65938061D01*
X147045226Y-65738102D01*
X146967205Y-65549744D01*
X146853937Y-65380226D01*
X146709774Y-65236063D01*
X146540256Y-65122795D01*
X146351898Y-65044774D01*
X146151939Y-65005000D01*
X145948061Y-65005000D01*
X145748102Y-65044774D01*
X145559744Y-65122795D01*
X145415000Y-65219510D01*
X145270256Y-65122795D01*
X145081898Y-65044774D01*
X144881939Y-65005000D01*
X144678061Y-65005000D01*
X144478102Y-65044774D01*
X144289744Y-65122795D01*
X144120226Y-65236063D01*
X143976063Y-65380226D01*
X143862795Y-65549744D01*
X143784774Y-65738102D01*
X143745000Y-65938061D01*
X143745000Y-66141939D01*
X143784774Y-66341898D01*
X143862795Y-66530256D01*
X143976063Y-66699774D01*
X144020000Y-66743711D01*
X144020001Y-80576288D01*
X143976063Y-80620226D01*
X143862795Y-80789744D01*
X143784774Y-80978102D01*
X143745000Y-81178061D01*
X143745000Y-81381939D01*
X143784774Y-81581898D01*
X143862795Y-81770256D01*
X143875987Y-81790000D01*
X142248178Y-81790000D01*
X142123475Y-81603368D01*
X141916632Y-81396525D01*
X141742240Y-81280000D01*
X141916632Y-81163475D01*
X142123475Y-80956632D01*
X142285990Y-80713411D01*
X142397932Y-80443158D01*
X142455000Y-80156260D01*
X142455000Y-79863740D01*
X142397932Y-79576842D01*
X142285990Y-79306589D01*
X142123475Y-79063368D01*
X141916632Y-78856525D01*
X141742240Y-78740000D01*
X141916632Y-78623475D01*
X142123475Y-78416632D01*
X142285990Y-78173411D01*
X142397932Y-77903158D01*
X142455000Y-77616260D01*
X142455000Y-77323740D01*
X142397932Y-77036842D01*
X142285990Y-76766589D01*
X142123475Y-76523368D01*
X141916632Y-76316525D01*
X141742240Y-76200000D01*
X141916632Y-76083475D01*
X142123475Y-75876632D01*
X142285990Y-75633411D01*
X142397932Y-75363158D01*
X142455000Y-75076260D01*
X142455000Y-74783740D01*
X142397932Y-74496842D01*
X142285990Y-74226589D01*
X142123475Y-73983368D01*
X141916632Y-73776525D01*
X141734466Y-73654805D01*
X141851355Y-73585178D01*
X142067588Y-73390269D01*
X142241641Y-73156920D01*
X142366825Y-72894099D01*
X142411476Y-72746890D01*
X142290155Y-72517000D01*
X141097000Y-72517000D01*
X141097000Y-72263000D01*
X142290155Y-72263000D01*
X142411476Y-72033110D01*
X142366825Y-71885901D01*
X142241641Y-71623080D01*
X142067588Y-71389731D01*
X141851355Y-71194822D01*
X141734466Y-71125195D01*
X141916632Y-71003475D01*
X142123475Y-70796632D01*
X142285990Y-70553411D01*
X142397932Y-70283158D01*
X142455000Y-69996260D01*
X142455000Y-69703740D01*
X142397932Y-69416842D01*
X142285990Y-69146589D01*
X142123475Y-68903368D01*
X141916632Y-68696525D01*
X141742240Y-68580000D01*
X141916632Y-68463475D01*
X142123475Y-68256632D01*
X142285990Y-68013411D01*
X142397932Y-67743158D01*
X142455000Y-67456260D01*
X142455000Y-67163740D01*
X142397932Y-66876842D01*
X142285990Y-66606589D01*
X142123475Y-66363368D01*
X141916632Y-66156525D01*
X141742240Y-66040000D01*
X141916632Y-65923475D01*
X142123475Y-65716632D01*
X142285990Y-65473411D01*
X142397932Y-65203158D01*
X142455000Y-64916260D01*
X142455000Y-64623740D01*
X142397932Y-64336842D01*
X142285990Y-64066589D01*
X142123475Y-63823368D01*
X141916632Y-63616525D01*
X141734466Y-63494805D01*
X141851355Y-63425178D01*
X142067588Y-63230269D01*
X142241641Y-62996920D01*
X142366825Y-62734099D01*
X142411476Y-62586890D01*
X142290155Y-62357000D01*
X141097000Y-62357000D01*
X141097000Y-62103000D01*
X142290155Y-62103000D01*
X142411476Y-61873110D01*
X142366825Y-61725901D01*
X142241641Y-61463080D01*
X142216967Y-61430000D01*
X149691928Y-61430000D01*
X149691928Y-63030000D01*
X149704188Y-63154482D01*
X149740498Y-63274180D01*
X149799463Y-63384494D01*
X149878815Y-63481185D01*
X149975506Y-63560537D01*
X150030612Y-63589992D01*
X150015363Y-63605241D01*
X149858320Y-63840273D01*
X149750147Y-64101426D01*
X149695000Y-64378665D01*
X149695000Y-64661335D01*
X149750147Y-64938574D01*
X149858320Y-65199727D01*
X150015363Y-65434759D01*
X150215241Y-65634637D01*
X150260683Y-65665000D01*
X150215241Y-65695363D01*
X150015363Y-65895241D01*
X149858320Y-66130273D01*
X149750147Y-66391426D01*
X149695000Y-66668665D01*
X149695000Y-66951335D01*
X149750147Y-67228574D01*
X149858320Y-67489727D01*
X150015363Y-67724759D01*
X150215241Y-67924637D01*
X150260683Y-67955000D01*
X150215241Y-67985363D01*
X150015363Y-68185241D01*
X149858320Y-68420273D01*
X149750147Y-68681426D01*
X149695000Y-68958665D01*
X149695000Y-69241335D01*
X149750147Y-69518574D01*
X149858320Y-69779727D01*
X150015363Y-70014759D01*
X150215241Y-70214637D01*
X150260683Y-70245000D01*
X150215241Y-70275363D01*
X150015363Y-70475241D01*
X149858320Y-70710273D01*
X149750147Y-70971426D01*
X149695000Y-71248665D01*
X149695000Y-71531335D01*
X149750147Y-71808574D01*
X149858320Y-72069727D01*
X150015363Y-72304759D01*
X150215241Y-72504637D01*
X150450273Y-72661680D01*
X150711426Y-72769853D01*
X150988665Y-72825000D01*
X151271335Y-72825000D01*
X151548574Y-72769853D01*
X151809727Y-72661680D01*
X152044759Y-72504637D01*
X152244637Y-72304759D01*
X152401680Y-72069727D01*
X152509853Y-71808574D01*
X152557124Y-71570929D01*
X152623996Y-71602571D01*
X152898184Y-71671300D01*
X153180512Y-71685217D01*
X153460130Y-71643787D01*
X153662941Y-71571258D01*
X153710147Y-71808574D01*
X153818320Y-72069727D01*
X153975363Y-72304759D01*
X154175241Y-72504637D01*
X154410273Y-72661680D01*
X154671426Y-72769853D01*
X154948665Y-72825000D01*
X155231335Y-72825000D01*
X155508574Y-72769853D01*
X155769727Y-72661680D01*
X156004759Y-72504637D01*
X156204637Y-72304759D01*
X156361680Y-72069727D01*
X156469853Y-71808574D01*
X156525000Y-71531335D01*
X156525000Y-71248665D01*
X156469853Y-70971426D01*
X156361680Y-70710273D01*
X156204637Y-70475241D01*
X156004759Y-70275363D01*
X155959317Y-70245000D01*
X156004759Y-70214637D01*
X156204637Y-70014759D01*
X156361680Y-69779727D01*
X156469853Y-69518574D01*
X156525000Y-69241335D01*
X156525000Y-68958665D01*
X156469853Y-68681426D01*
X156361680Y-68420273D01*
X156204637Y-68185241D01*
X156004759Y-67985363D01*
X155959317Y-67955000D01*
X156004759Y-67924637D01*
X156204637Y-67724759D01*
X156361680Y-67489727D01*
X156469853Y-67228574D01*
X156525000Y-66951335D01*
X156525000Y-66668665D01*
X156469853Y-66391426D01*
X156361680Y-66130273D01*
X156204637Y-65895241D01*
X156004759Y-65695363D01*
X155959317Y-65665000D01*
X156004759Y-65634637D01*
X156204637Y-65434759D01*
X156361680Y-65199727D01*
X156469853Y-64938574D01*
X156525000Y-64661335D01*
X156525000Y-64378665D01*
X156469853Y-64101426D01*
X156361680Y-63840273D01*
X156204637Y-63605241D01*
X156004759Y-63405363D01*
X155959317Y-63375000D01*
X156004759Y-63344637D01*
X156204637Y-63144759D01*
X156361680Y-62909727D01*
X156469853Y-62648574D01*
X156525000Y-62371335D01*
X156525000Y-62088665D01*
X156469853Y-61811426D01*
X156361680Y-61550273D01*
X156204637Y-61315241D01*
X156004759Y-61115363D01*
X155769727Y-60958320D01*
X155508574Y-60850147D01*
X155231335Y-60795000D01*
X154948665Y-60795000D01*
X154671426Y-60850147D01*
X154534284Y-60906953D01*
X154508787Y-60734870D01*
X154413603Y-60468708D01*
X154346671Y-60343486D01*
X154102702Y-60271903D01*
X153289605Y-61085000D01*
X153303748Y-61099143D01*
X153124143Y-61278748D01*
X153110000Y-61264605D01*
X153095858Y-61278748D01*
X152916253Y-61099143D01*
X152930395Y-61085000D01*
X152117298Y-60271903D01*
X151873329Y-60343486D01*
X151752429Y-60598996D01*
X151704068Y-60791928D01*
X150330000Y-60791928D01*
X150205518Y-60804188D01*
X150085820Y-60840498D01*
X149975506Y-60899463D01*
X149878815Y-60978815D01*
X149799463Y-61075506D01*
X149740498Y-61185820D01*
X149704188Y-61305518D01*
X149691928Y-61430000D01*
X142216967Y-61430000D01*
X142067588Y-61229731D01*
X141851355Y-61034822D01*
X141734466Y-60965195D01*
X141916632Y-60843475D01*
X142123475Y-60636632D01*
X142285990Y-60393411D01*
X142397932Y-60123158D01*
X142404070Y-60092298D01*
X152296903Y-60092298D01*
X153110000Y-60905395D01*
X153923097Y-60092298D01*
X153851514Y-59848329D01*
X153596004Y-59727429D01*
X153321816Y-59658700D01*
X153039488Y-59644783D01*
X152759870Y-59686213D01*
X152493708Y-59781397D01*
X152368486Y-59848329D01*
X152296903Y-60092298D01*
X142404070Y-60092298D01*
X142455000Y-59836260D01*
X142455000Y-59543740D01*
X142397932Y-59256842D01*
X142285990Y-58986589D01*
X142123475Y-58743368D01*
X141916632Y-58536525D01*
X141742240Y-58420000D01*
X141916632Y-58303475D01*
X142123475Y-58096632D01*
X142285990Y-57853411D01*
X142397932Y-57583158D01*
X142455000Y-57296260D01*
X142455000Y-57003740D01*
X142397932Y-56716842D01*
X142285990Y-56446589D01*
X142123475Y-56203368D01*
X141916632Y-55996525D01*
X141742240Y-55880000D01*
X141916632Y-55763475D01*
X142123475Y-55556632D01*
X142285990Y-55313411D01*
X142397932Y-55043158D01*
X142455000Y-54756260D01*
X142455000Y-54463740D01*
X142397932Y-54176842D01*
X142285990Y-53906589D01*
X142205065Y-53785475D01*
X150545000Y-53785475D01*
X150545000Y-54304525D01*
X150646261Y-54813601D01*
X150844893Y-55293141D01*
X151133262Y-55724715D01*
X151500285Y-56091738D01*
X151931859Y-56380107D01*
X152411399Y-56578739D01*
X152920475Y-56680000D01*
X153439525Y-56680000D01*
X153948601Y-56578739D01*
X154428141Y-56380107D01*
X154859715Y-56091738D01*
X155226738Y-55724715D01*
X155515107Y-55293141D01*
X155713739Y-54813601D01*
X155815000Y-54304525D01*
X155815000Y-53785475D01*
X155713739Y-53276399D01*
X155515107Y-52796859D01*
X155226738Y-52365285D01*
X154859715Y-51998262D01*
X154428141Y-51709893D01*
X153948601Y-51511261D01*
X153439525Y-51410000D01*
X152920475Y-51410000D01*
X152411399Y-51511261D01*
X151931859Y-51709893D01*
X151500285Y-51998262D01*
X151133262Y-52365285D01*
X150844893Y-52796859D01*
X150646261Y-53276399D01*
X150545000Y-53785475D01*
X142205065Y-53785475D01*
X142123475Y-53663368D01*
X141916632Y-53456525D01*
X141742240Y-53340000D01*
X141916632Y-53223475D01*
X142123475Y-53016632D01*
X142285990Y-52773411D01*
X142397932Y-52503158D01*
X142455000Y-52216260D01*
X142455000Y-51923740D01*
X142397932Y-51636842D01*
X142285990Y-51366589D01*
X142123475Y-51123368D01*
X141991620Y-50991513D01*
X142064180Y-50969502D01*
X142143694Y-50927000D01*
X159893000Y-50927000D01*
X159893000Y-83693000D01*
G37*
X159893000Y-83693000D02*
X141927107Y-83693000D01*
X142123475Y-83496632D01*
X142248178Y-83310000D01*
X144742678Y-83310000D01*
X144780000Y-83313676D01*
X144817322Y-83310000D01*
X144817333Y-83310000D01*
X144928986Y-83299003D01*
X145072247Y-83255546D01*
X145204276Y-83184974D01*
X145320001Y-83090001D01*
X145343804Y-83060997D01*
X146561003Y-81843799D01*
X146590001Y-81820001D01*
X146684974Y-81704276D01*
X146755546Y-81572247D01*
X146799003Y-81428986D01*
X146810000Y-81317333D01*
X146810000Y-81317324D01*
X146813676Y-81280001D01*
X146810000Y-81242678D01*
X146810000Y-78785475D01*
X150545000Y-78785475D01*
X150545000Y-79304525D01*
X150646261Y-79813601D01*
X150844893Y-80293141D01*
X151133262Y-80724715D01*
X151500285Y-81091738D01*
X151931859Y-81380107D01*
X152411399Y-81578739D01*
X152920475Y-81680000D01*
X153439525Y-81680000D01*
X153948601Y-81578739D01*
X154428141Y-81380107D01*
X154859715Y-81091738D01*
X155226738Y-80724715D01*
X155515107Y-80293141D01*
X155713739Y-79813601D01*
X155815000Y-79304525D01*
X155815000Y-78785475D01*
X155713739Y-78276399D01*
X155515107Y-77796859D01*
X155226738Y-77365285D01*
X154859715Y-76998262D01*
X154428141Y-76709893D01*
X153948601Y-76511261D01*
X153439525Y-76410000D01*
X152920475Y-76410000D01*
X152411399Y-76511261D01*
X151931859Y-76709893D01*
X151500285Y-76998262D01*
X151133262Y-77365285D01*
X150844893Y-77796859D01*
X150646261Y-78276399D01*
X150545000Y-78785475D01*
X146810000Y-78785475D01*
X146810000Y-66743711D01*
X146853937Y-66699774D01*
X146967205Y-66530256D01*
X147045226Y-66341898D01*
X147085000Y-66141939D01*
X147085000Y-65938061D01*
X147045226Y-65738102D01*
X146967205Y-65549744D01*
X146853937Y-65380226D01*
X146709774Y-65236063D01*
X146540256Y-65122795D01*
X146351898Y-65044774D01*
X146151939Y-65005000D01*
X145948061Y-65005000D01*
X145748102Y-65044774D01*
X145559744Y-65122795D01*
X145415000Y-65219510D01*
X145270256Y-65122795D01*
X145081898Y-65044774D01*
X144881939Y-65005000D01*
X144678061Y-65005000D01*
X144478102Y-65044774D01*
X144289744Y-65122795D01*
X144120226Y-65236063D01*
X143976063Y-65380226D01*
X143862795Y-65549744D01*
X143784774Y-65738102D01*
X143745000Y-65938061D01*
X143745000Y-66141939D01*
X143784774Y-66341898D01*
X143862795Y-66530256D01*
X143976063Y-66699774D01*
X144020000Y-66743711D01*
X144020001Y-80576288D01*
X143976063Y-80620226D01*
X143862795Y-80789744D01*
X143784774Y-80978102D01*
X143745000Y-81178061D01*
X143745000Y-81381939D01*
X143784774Y-81581898D01*
X143862795Y-81770256D01*
X143875987Y-81790000D01*
X142248178Y-81790000D01*
X142123475Y-81603368D01*
X141916632Y-81396525D01*
X141742240Y-81280000D01*
X141916632Y-81163475D01*
X142123475Y-80956632D01*
X142285990Y-80713411D01*
X142397932Y-80443158D01*
X142455000Y-80156260D01*
X142455000Y-79863740D01*
X142397932Y-79576842D01*
X142285990Y-79306589D01*
X142123475Y-79063368D01*
X141916632Y-78856525D01*
X141742240Y-78740000D01*
X141916632Y-78623475D01*
X142123475Y-78416632D01*
X142285990Y-78173411D01*
X142397932Y-77903158D01*
X142455000Y-77616260D01*
X142455000Y-77323740D01*
X142397932Y-77036842D01*
X142285990Y-76766589D01*
X142123475Y-76523368D01*
X141916632Y-76316525D01*
X141742240Y-76200000D01*
X141916632Y-76083475D01*
X142123475Y-75876632D01*
X142285990Y-75633411D01*
X142397932Y-75363158D01*
X142455000Y-75076260D01*
X142455000Y-74783740D01*
X142397932Y-74496842D01*
X142285990Y-74226589D01*
X142123475Y-73983368D01*
X141916632Y-73776525D01*
X141734466Y-73654805D01*
X141851355Y-73585178D01*
X142067588Y-73390269D01*
X142241641Y-73156920D01*
X142366825Y-72894099D01*
X142411476Y-72746890D01*
X142290155Y-72517000D01*
X141097000Y-72517000D01*
X141097000Y-72263000D01*
X142290155Y-72263000D01*
X142411476Y-72033110D01*
X142366825Y-71885901D01*
X142241641Y-71623080D01*
X142067588Y-71389731D01*
X141851355Y-71194822D01*
X141734466Y-71125195D01*
X141916632Y-71003475D01*
X142123475Y-70796632D01*
X142285990Y-70553411D01*
X142397932Y-70283158D01*
X142455000Y-69996260D01*
X142455000Y-69703740D01*
X142397932Y-69416842D01*
X142285990Y-69146589D01*
X142123475Y-68903368D01*
X141916632Y-68696525D01*
X141742240Y-68580000D01*
X141916632Y-68463475D01*
X142123475Y-68256632D01*
X142285990Y-68013411D01*
X142397932Y-67743158D01*
X142455000Y-67456260D01*
X142455000Y-67163740D01*
X142397932Y-66876842D01*
X142285990Y-66606589D01*
X142123475Y-66363368D01*
X141916632Y-66156525D01*
X141742240Y-66040000D01*
X141916632Y-65923475D01*
X142123475Y-65716632D01*
X142285990Y-65473411D01*
X142397932Y-65203158D01*
X142455000Y-64916260D01*
X142455000Y-64623740D01*
X142397932Y-64336842D01*
X142285990Y-64066589D01*
X142123475Y-63823368D01*
X141916632Y-63616525D01*
X141734466Y-63494805D01*
X141851355Y-63425178D01*
X142067588Y-63230269D01*
X142241641Y-62996920D01*
X142366825Y-62734099D01*
X142411476Y-62586890D01*
X142290155Y-62357000D01*
X141097000Y-62357000D01*
X141097000Y-62103000D01*
X142290155Y-62103000D01*
X142411476Y-61873110D01*
X142366825Y-61725901D01*
X142241641Y-61463080D01*
X142216967Y-61430000D01*
X149691928Y-61430000D01*
X149691928Y-63030000D01*
X149704188Y-63154482D01*
X149740498Y-63274180D01*
X149799463Y-63384494D01*
X149878815Y-63481185D01*
X149975506Y-63560537D01*
X150030612Y-63589992D01*
X150015363Y-63605241D01*
X149858320Y-63840273D01*
X149750147Y-64101426D01*
X149695000Y-64378665D01*
X149695000Y-64661335D01*
X149750147Y-64938574D01*
X149858320Y-65199727D01*
X150015363Y-65434759D01*
X150215241Y-65634637D01*
X150260683Y-65665000D01*
X150215241Y-65695363D01*
X150015363Y-65895241D01*
X149858320Y-66130273D01*
X149750147Y-66391426D01*
X149695000Y-66668665D01*
X149695000Y-66951335D01*
X149750147Y-67228574D01*
X149858320Y-67489727D01*
X150015363Y-67724759D01*
X150215241Y-67924637D01*
X150260683Y-67955000D01*
X150215241Y-67985363D01*
X150015363Y-68185241D01*
X149858320Y-68420273D01*
X149750147Y-68681426D01*
X149695000Y-68958665D01*
X149695000Y-69241335D01*
X149750147Y-69518574D01*
X149858320Y-69779727D01*
X150015363Y-70014759D01*
X150215241Y-70214637D01*
X150260683Y-70245000D01*
X150215241Y-70275363D01*
X150015363Y-70475241D01*
X149858320Y-70710273D01*
X149750147Y-70971426D01*
X149695000Y-71248665D01*
X149695000Y-71531335D01*
X149750147Y-71808574D01*
X149858320Y-72069727D01*
X150015363Y-72304759D01*
X150215241Y-72504637D01*
X150450273Y-72661680D01*
X150711426Y-72769853D01*
X150988665Y-72825000D01*
X151271335Y-72825000D01*
X151548574Y-72769853D01*
X151809727Y-72661680D01*
X152044759Y-72504637D01*
X152244637Y-72304759D01*
X152401680Y-72069727D01*
X152509853Y-71808574D01*
X152557124Y-71570929D01*
X152623996Y-71602571D01*
X152898184Y-71671300D01*
X153180512Y-71685217D01*
X153460130Y-71643787D01*
X153662941Y-71571258D01*
X153710147Y-71808574D01*
X153818320Y-72069727D01*
X153975363Y-72304759D01*
X154175241Y-72504637D01*
X154410273Y-72661680D01*
X154671426Y-72769853D01*
X154948665Y-72825000D01*
X155231335Y-72825000D01*
X155508574Y-72769853D01*
X155769727Y-72661680D01*
X156004759Y-72504637D01*
X156204637Y-72304759D01*
X156361680Y-72069727D01*
X156469853Y-71808574D01*
X156525000Y-71531335D01*
X156525000Y-71248665D01*
X156469853Y-70971426D01*
X156361680Y-70710273D01*
X156204637Y-70475241D01*
X156004759Y-70275363D01*
X155959317Y-70245000D01*
X156004759Y-70214637D01*
X156204637Y-70014759D01*
X156361680Y-69779727D01*
X156469853Y-69518574D01*
X156525000Y-69241335D01*
X156525000Y-68958665D01*
X156469853Y-68681426D01*
X156361680Y-68420273D01*
X156204637Y-68185241D01*
X156004759Y-67985363D01*
X155959317Y-67955000D01*
X156004759Y-67924637D01*
X156204637Y-67724759D01*
X156361680Y-67489727D01*
X156469853Y-67228574D01*
X156525000Y-66951335D01*
X156525000Y-66668665D01*
X156469853Y-66391426D01*
X156361680Y-66130273D01*
X156204637Y-65895241D01*
X156004759Y-65695363D01*
X155959317Y-65665000D01*
X156004759Y-65634637D01*
X156204637Y-65434759D01*
X156361680Y-65199727D01*
X156469853Y-64938574D01*
X156525000Y-64661335D01*
X156525000Y-64378665D01*
X156469853Y-64101426D01*
X156361680Y-63840273D01*
X156204637Y-63605241D01*
X156004759Y-63405363D01*
X155959317Y-63375000D01*
X156004759Y-63344637D01*
X156204637Y-63144759D01*
X156361680Y-62909727D01*
X156469853Y-62648574D01*
X156525000Y-62371335D01*
X156525000Y-62088665D01*
X156469853Y-61811426D01*
X156361680Y-61550273D01*
X156204637Y-61315241D01*
X156004759Y-61115363D01*
X155769727Y-60958320D01*
X155508574Y-60850147D01*
X155231335Y-60795000D01*
X154948665Y-60795000D01*
X154671426Y-60850147D01*
X154534284Y-60906953D01*
X154508787Y-60734870D01*
X154413603Y-60468708D01*
X154346671Y-60343486D01*
X154102702Y-60271903D01*
X153289605Y-61085000D01*
X153303748Y-61099143D01*
X153124143Y-61278748D01*
X153110000Y-61264605D01*
X153095858Y-61278748D01*
X152916253Y-61099143D01*
X152930395Y-61085000D01*
X152117298Y-60271903D01*
X151873329Y-60343486D01*
X151752429Y-60598996D01*
X151704068Y-60791928D01*
X150330000Y-60791928D01*
X150205518Y-60804188D01*
X150085820Y-60840498D01*
X149975506Y-60899463D01*
X149878815Y-60978815D01*
X149799463Y-61075506D01*
X149740498Y-61185820D01*
X149704188Y-61305518D01*
X149691928Y-61430000D01*
X142216967Y-61430000D01*
X142067588Y-61229731D01*
X141851355Y-61034822D01*
X141734466Y-60965195D01*
X141916632Y-60843475D01*
X142123475Y-60636632D01*
X142285990Y-60393411D01*
X142397932Y-60123158D01*
X142404070Y-60092298D01*
X152296903Y-60092298D01*
X153110000Y-60905395D01*
X153923097Y-60092298D01*
X153851514Y-59848329D01*
X153596004Y-59727429D01*
X153321816Y-59658700D01*
X153039488Y-59644783D01*
X152759870Y-59686213D01*
X152493708Y-59781397D01*
X152368486Y-59848329D01*
X152296903Y-60092298D01*
X142404070Y-60092298D01*
X142455000Y-59836260D01*
X142455000Y-59543740D01*
X142397932Y-59256842D01*
X142285990Y-58986589D01*
X142123475Y-58743368D01*
X141916632Y-58536525D01*
X141742240Y-58420000D01*
X141916632Y-58303475D01*
X142123475Y-58096632D01*
X142285990Y-57853411D01*
X142397932Y-57583158D01*
X142455000Y-57296260D01*
X142455000Y-57003740D01*
X142397932Y-56716842D01*
X142285990Y-56446589D01*
X142123475Y-56203368D01*
X141916632Y-55996525D01*
X141742240Y-55880000D01*
X141916632Y-55763475D01*
X142123475Y-55556632D01*
X142285990Y-55313411D01*
X142397932Y-55043158D01*
X142455000Y-54756260D01*
X142455000Y-54463740D01*
X142397932Y-54176842D01*
X142285990Y-53906589D01*
X142205065Y-53785475D01*
X150545000Y-53785475D01*
X150545000Y-54304525D01*
X150646261Y-54813601D01*
X150844893Y-55293141D01*
X151133262Y-55724715D01*
X151500285Y-56091738D01*
X151931859Y-56380107D01*
X152411399Y-56578739D01*
X152920475Y-56680000D01*
X153439525Y-56680000D01*
X153948601Y-56578739D01*
X154428141Y-56380107D01*
X154859715Y-56091738D01*
X155226738Y-55724715D01*
X155515107Y-55293141D01*
X155713739Y-54813601D01*
X155815000Y-54304525D01*
X155815000Y-53785475D01*
X155713739Y-53276399D01*
X155515107Y-52796859D01*
X155226738Y-52365285D01*
X154859715Y-51998262D01*
X154428141Y-51709893D01*
X153948601Y-51511261D01*
X153439525Y-51410000D01*
X152920475Y-51410000D01*
X152411399Y-51511261D01*
X151931859Y-51709893D01*
X151500285Y-51998262D01*
X151133262Y-52365285D01*
X150844893Y-52796859D01*
X150646261Y-53276399D01*
X150545000Y-53785475D01*
X142205065Y-53785475D01*
X142123475Y-53663368D01*
X141916632Y-53456525D01*
X141742240Y-53340000D01*
X141916632Y-53223475D01*
X142123475Y-53016632D01*
X142285990Y-52773411D01*
X142397932Y-52503158D01*
X142455000Y-52216260D01*
X142455000Y-51923740D01*
X142397932Y-51636842D01*
X142285990Y-51366589D01*
X142123475Y-51123368D01*
X141991620Y-50991513D01*
X142064180Y-50969502D01*
X142143694Y-50927000D01*
X159893000Y-50927000D01*
X159893000Y-83693000D01*
G36*
X153303748Y-70230858D02*
G01*
X153289605Y-70245000D01*
X153303748Y-70259143D01*
X153124143Y-70438748D01*
X153110000Y-70424605D01*
X153095858Y-70438748D01*
X152916253Y-70259143D01*
X152930395Y-70245000D01*
X152916253Y-70230858D01*
X153095858Y-70051253D01*
X153110000Y-70065395D01*
X153124143Y-70051253D01*
X153303748Y-70230858D01*
G37*
X153303748Y-70230858D02*
X153289605Y-70245000D01*
X153303748Y-70259143D01*
X153124143Y-70438748D01*
X153110000Y-70424605D01*
X153095858Y-70438748D01*
X152916253Y-70259143D01*
X152930395Y-70245000D01*
X152916253Y-70230858D01*
X153095858Y-70051253D01*
X153110000Y-70065395D01*
X153124143Y-70051253D01*
X153303748Y-70230858D01*
G36*
X153303748Y-65650858D02*
G01*
X153289605Y-65665000D01*
X153303748Y-65679143D01*
X153124143Y-65858748D01*
X153110000Y-65844605D01*
X153095858Y-65858748D01*
X152916253Y-65679143D01*
X152930395Y-65665000D01*
X152916253Y-65650858D01*
X153095858Y-65471253D01*
X153110000Y-65485395D01*
X153124143Y-65471253D01*
X153303748Y-65650858D01*
G37*
X153303748Y-65650858D02*
X153289605Y-65665000D01*
X153303748Y-65679143D01*
X153124143Y-65858748D01*
X153110000Y-65844605D01*
X153095858Y-65858748D01*
X152916253Y-65679143D01*
X152930395Y-65665000D01*
X152916253Y-65650858D01*
X153095858Y-65471253D01*
X153110000Y-65485395D01*
X153124143Y-65471253D01*
X153303748Y-65650858D01*
G36*
X153303748Y-63360858D02*
G01*
X153289605Y-63375000D01*
X153303748Y-63389143D01*
X153124143Y-63568748D01*
X153110000Y-63554605D01*
X153095858Y-63568748D01*
X152916253Y-63389143D01*
X152930395Y-63375000D01*
X152916253Y-63360858D01*
X153095858Y-63181253D01*
X153110000Y-63195395D01*
X153124143Y-63181253D01*
X153303748Y-63360858D01*
G37*
X153303748Y-63360858D02*
X153289605Y-63375000D01*
X153303748Y-63389143D01*
X153124143Y-63568748D01*
X153110000Y-63554605D01*
X153095858Y-63568748D01*
X152916253Y-63389143D01*
X152930395Y-63375000D01*
X152916253Y-63360858D01*
X153095858Y-63181253D01*
X153110000Y-63195395D01*
X153124143Y-63181253D01*
X153303748Y-63360858D01*
M02*
